<?xml version="1.0" encoding="UTF-8"?><svg xmlns="http://www.w3.org/2000/svg" xmlns:xlink="http://www.w3.org/1999/xlink" viewBox="0 0 275.51 300"><defs><style>.cls-1{fill:none;}.cls-2{fill:#d7d7d7;}.cls-2,.cls-3,.cls-4{opacity:.35;}.cls-2,.cls-5{mix-blend-mode:screen;}.cls-6,.cls-7{fill:#fff;}.cls-6,.cls-5{opacity:.1;}.cls-8{fill:url(#linear-gradient);}.cls-9{clip-path:url(#clippath);}.cls-10{fill:#f9c2af;}.cls-11{fill:#f7be89;}.cls-12{fill:#fdcc9c;}.cls-13{fill:#eeb881;}.cls-14{fill:#fff9f5;}.cls-15,.cls-16{fill:#eacfbb;}.cls-17{fill:#eceded;}.cls-18{fill:#edb29d;}.cls-19{fill:#ffd7be;}.cls-20{fill:#ffcab3;}.cls-21{fill:#feddbd;}.cls-22{fill:#efefef;}.cls-23{fill:#f24f49;}.cls-24{fill:#f23129;}.cls-25{fill:#908d90;}.cls-26{fill:#c1c9d9;}.cls-27{fill:#30bbf2;}.cls-28{fill:#31c9f7;}.cls-29{fill:#323232;}.cls-30{fill:#bf9872;}.cls-31{fill:#bfbfbf;}.cls-32{fill:#c7c7c7;}.cls-33{fill:#dea983;}.cls-34{fill:#d42b24;}.cls-35{fill:#d6d6d6;}.cls-36{fill:#c5e9f3;}.cls-37{fill:#e09a85;}.cls-38{fill:#14d8db;}.cls-39{fill:#161616;}.cls-40{fill:#13e0d6;}.cls-41{fill:#20adfa;}.cls-42{fill:#444;}.cls-43{fill:#1a2121;}.cls-44{fill:#52baf2;}.cls-45{fill:#2b3033;}.cls-46{fill:#2bb2db;}.cls-47{fill:#293a80;}.cls-48{fill:#3a4a4a;}.cls-16,.cls-49,.cls-3,.cls-4,.cls-50,.cls-51,.cls-52{mix-blend-mode:multiply;}.cls-3{fill:#7d7d7d;}.cls-4{fill:#d6a577;}.cls-50{fill:#cdcfd0;}.cls-50,.cls-51{opacity:.75;}.cls-51{fill:#d5d7d7;}.cls-52{fill:gray;opacity:.7;}.cls-53{fill:#595959;mix-blend-mode:color-burn;}.cls-5{fill:#e6e6e6;}.cls-54{isolation:isolate;}</style><clipPath id="clippath"><rect class="cls-1" x="183.32" y="71.53" width="30.48" height="37.1"/></clipPath><linearGradient id="linear-gradient" x1="155.33" y1="133.5" x2="177.05" y2="178.99" gradientTransform="translate(-6.45)" gradientUnits="userSpaceOnUse"><stop offset="0" stop-color="#535353"/><stop offset="1" stop-color="#161616"/></linearGradient></defs><g class="cls-54"><g id="layer"><g><rect class="cls-38" width="275.51" height="300"/><g><g><g><circle class="cls-53" cx="137.76" cy="162.24" r="59.54"/><g><circle class="cls-53" cx="231.74" cy="161.23" r="29.64" transform="translate(-35.98 250.8) rotate(-53.33)"/><path class="cls-7" d="M231.74,192.25c-17.1,0-31.02-13.92-31.02-31.02s13.92-31.02,31.02-31.02,31.02,13.92,31.02,31.02-13.92,31.02-31.02,31.02Zm0-59.29c-15.59,0-28.27,12.68-28.27,28.27s12.68,28.27,28.27,28.27,28.27-12.68,28.27-28.27-12.68-28.27-28.27-28.27Z"/></g><g><circle class="cls-53" cx="44.48" cy="161.69" r="29.64"/><path class="cls-7" d="M44.48,192.71c-17.1,0-31.02-13.92-31.02-31.02s13.92-31.02,31.02-31.02,31.02,13.92,31.02,31.02-13.92,31.02-31.02,31.02Zm0-59.29c-15.59,0-28.27,12.68-28.27,28.27s12.68,28.27,28.27,28.27,28.27-12.68,28.27-28.27-12.68-28.27-28.27-28.27Z"/></g><g><circle class="cls-53" cx="69.89" cy="94.31" r="29.64" transform="translate(-34.51 147.97) rotate(-80.66)"/><path class="cls-7" d="M69.89,125.33c-17.1,0-31.02-13.92-31.02-31.02s13.92-31.02,31.02-31.02,31.02,13.92,31.02,31.02-13.92,31.02-31.02,31.02Zm0-59.29c-15.59,0-28.27,12.68-28.27,28.27s12.68,28.27,28.27,28.27,28.27-12.68,28.27-28.27-12.68-28.27-28.27-28.27Z"/></g><g><circle class="cls-53" cx="137.76" cy="62.31" r="29.64" transform="translate(-13.27 55.09) rotate(-21.6)"/><path class="cls-7" d="M137.76,93.33c-17.1,0-31.02-13.92-31.02-31.02s13.92-31.02,31.02-31.02,31.02,13.92,31.02,31.02-13.92,31.02-31.02,31.02Zm0-59.29c-15.59,0-28.27,12.68-28.27,28.27s12.68,28.27,28.27,28.27,28.27-12.68,28.27-28.27-12.68-28.27-28.27-28.27Z"/></g><g><circle class="cls-53" cx="205.54" cy="94.31" r="29.64" transform="translate(65.64 271.99) rotate(-76.43)"/><path class="cls-7" d="M205.54,125.33c-17.1,0-31.02-13.92-31.02-31.02s13.92-31.02,31.02-31.02,31.02,13.92,31.02,31.02-13.92,31.02-31.02,31.02Zm0-59.29c-15.59,0-28.27,12.68-28.27,28.27s12.68,28.27,28.27,28.27,28.27-12.68,28.27-28.27-12.68-28.27-28.27-28.27Z"/></g></g><g><path class="cls-7" d="M199.09,160.72l-13.95-3.68v2.82s-4.51,.02-4.51,.02c-.51,0-.92,.41-.91,.92,0,.51,.41,.91,.92,.91h0l4.52-.02v2.82s13.93-3.79,13.93-3.79Z"/><path class="cls-7" d="M184.36,119.81l-12.98,6.3,1.84,2.13-3.42,2.96c-.38,.33-.43,.91-.09,1.3,.18,.21,.44,.32,.69,.32,.21,0,.43-.07,.6-.22l3.42-2.96,1.84,2.13,8.09-11.95Z"/><path class="cls-7" d="M137.6,102.19l-3.58,13.98,2.82-.03,.05,4.52c0,.5,.42,.91,.92,.91h.01c.51,0,.91-.42,.91-.93l-.05-4.52,2.82-.03-3.89-13.89Z"/><path class="cls-7" d="M102.38,128.86l1.96-2.02-12.6-7.02,7.4,12.39,1.96-2.02,3.25,3.15c.18,.17,.41,.26,.64,.26s.48-.09,.66-.28c.35-.36,.34-.95-.02-1.3l-3.25-3.15Z"/><path class="cls-7" d="M95.18,160.95l-4.52-.18,.11-2.81-14.08,3.17,13.78,4.29,.11-2.81,4.52,.18s.02,0,.04,0c.49,0,.9-.39,.92-.88,.02-.51-.37-.93-.88-.95Z"/></g></g><g><g><path class="cls-52" d="M65.98,142.22h-7.44v-4.92c0-1.73-1.4-3.13-3.13-3.13s-3.13,1.4-3.13,3.13v-6.19c0-1.73-1.4-3.13-3.13-3.13s-3.13,1.4-3.13,3.13v-5.24c0-1.73-1.4-3.13-3.13-3.13s-3.13,1.4-3.13,3.13v4.5c-.34-1.36-1.55-2.38-3.02-2.39-1.73-.01-3.15,1.38-3.17,3.12l-.08,11.12h-7.43c-1.43,0-2.59,1.16-2.59,2.59v21.44c0,1.43,1.16,2.59,2.59,2.59h5.68c.49,.89,.92,1.72,1.25,2.43,.02,.05,.05,.09,.08,.13,.11,.2,.21,.38,.32,.57,1.29,2.3,2.07,3.87,3.05,5.57,.61,1.05,1.58,3.47,2.06,4.69l-4.43,.05,.07,5.81-3.87,.05-.05,7.58,18.16-.29,17.48-.28,.15-7.43-3.87,.05-.07-5.81-5.32,.06c.11-1.15,.28-2.98,.45-4.01,.44-2.78,.92-3.15,1.48-6.13,.02-.1,.19-1.49,.2-1.59,.02-.13,.03-.66,.03-1.43h7.05c1.43,0,2.59-1.16,2.59-2.59v-21.44c0-1.43-1.16-2.59-2.59-2.59Z"/><g><g><path class="cls-18" d="M51.51,161.33c0,1.73-1.4,3.13-3.13,3.13h0c-1.73,0-3.13-1.4-3.13-3.13v-31c0-1.73,1.4-3.13,3.13-3.13h0c1.73,0,3.13,1.4,3.13,3.13v31Z"/><path class="cls-37" d="M57.76,167.52c0,1.73-1.4,3.13-3.13,3.13h0c-1.73,0-3.13-1.4-3.13-3.13v-31c0-1.73,1.4-3.13,3.13-3.13h0c1.73,0,3.13,1.4,3.13,3.13v31Z"/><path class="cls-10" d="M45.26,156.08c0,1.73-1.4,3.13-3.13,3.13h0c-1.73,0-3.13-1.4-3.13-3.13v-31c0-1.73,1.4-3.13,3.13-3.13h0c1.73,0,3.13,1.4,3.13,3.13v31Z"/><path class="cls-20" d="M57.73,156.36l.02-2.98c.02-1.73-1.38-3.15-3.12-3.16-1.74-.01-3.15,1.38-3.17,3.12l-.02,3.09h-.01s.05-6.78,.05-6.78c.02-1.74-1.38-3.15-3.12-3.17-1.7-.01-3.09,1.34-3.16,3.03l.03-3.59c.01-1.73-1.38-3.15-3.12-3.16-1.64-.01-2.99,1.24-3.14,2.85l.13-15.22c.01-1.73-1.38-3.15-3.12-3.17-1.73-.01-3.15,1.38-3.17,3.12l-.16,22.27-.02,3.26v.65s.01,.09,.01,.13v3.32s-.01,11.24-.01,11.24c1.29,2.3,2.07,3.87,3.05,5.57,.83,1.43,2.34,5.42,2.34,5.42l17.86,.08s.29-3.46,.54-5.05c.44-2.78,.92-3.15,1.48-6.13,.02-.1,.19-1.49,.2-1.59,.12-.71-.07-14.56-.39-13.14Z"/><g><path class="cls-18" d="M30.62,155.57c-.72-1.58-2.59-2.27-4.17-1.54-1.58,.72-2.27,2.59-1.54,4.17,0,0,5.44,8.17,7.33,12.3,.02,.05,.05,.09,.08,.13,.11,.2,.21,.38,.32,.57v-11.24l-2.02-4.39Z"/><path class="cls-20" d="M32.64,156.47s0,.03,0,.04v-.04Z"/></g><g><polygon class="cls-48" points="33.39 187.32 33.39 187.32 29.52 187.36 29.46 194.94 47.62 194.65 47.62 187.15 33.39 187.32"/><polygon class="cls-43" points="65.25 186.93 61.38 186.98 61.38 186.98 47.62 187.15 47.62 194.65 65.1 194.37 65.25 186.93"/><polygon class="cls-24" points="61.38 186.98 61.38 186.98 61.31 181.17 47.62 181.34 47.62 187.15 61.38 186.98"/><polygon class="cls-24" points="47.62 187.15 47.62 181.34 33.32 181.51 33.39 187.32 33.39 187.32 47.62 187.15"/></g></g><g><path class="cls-43" d="M25.31,141.44h39.89c1.43,0,2.59,1.16,2.59,2.59v21.44c0,1.43-1.16,2.59-2.59,2.59H25.31c-1.43,0-2.59-1.16-2.59-2.59v-21.44c0-1.43,1.16-2.59,2.59-2.59Z"/><path class="cls-48" d="M64.98,153.53c.68,0,1.22,.55,1.22,1.22s-.55,1.22-1.22,1.22-1.22-.55-1.22-1.22,.55-1.22,1.22-1.22Z"/><rect class="cls-48" x="25.07" y="151.27" width=".94" height="6.96"/><polygon class="cls-46" points="28.19 167.17 62.44 142.83 28.19 142.83 28.19 167.17"/><polygon class="cls-28" points="44.97 155.24 36.88 160.99 28.19 167.17 62.44 167.17 62.44 142.83 44.97 155.24"/></g><g><path class="cls-7" d="M34.17,155.26v11.85h2.53v-11.85c.46-.37,.77-.94,.77-1.58h-4.07c0,.64,.3,1.21,.77,1.58Z"/><path class="cls-7" d="M36.7,150.35v-7.52h-2.53v7.52c-.46,.37-.77,.94-.77,1.58h4.07c0-.64-.3-1.2-.77-1.58Z"/><path class="cls-7" d="M43.4,151.28v-8.45h-2.53v8.45c-.46,.37-.77,.94-.77,1.58h4.07c0-.64-.3-1.21-.77-1.58Z"/><path class="cls-7" d="M40.86,156.2v10.91h2.53v-10.91c.46-.37,.77-.94,.77-1.58h-4.07c0,.64,.3,1.21,.77,1.58Z"/><path class="cls-7" d="M47.02,157.35v9.76h2.53v-9.6c.52-.37,.86-.97,.86-1.66h-4.07c0,.6,.26,1.13,.67,1.5Z"/><path class="cls-7" d="M49.55,152.43v-9.6h-2.53v9.76c-.41,.37-.67,.9-.67,1.5h4.07c0-.68-.34-1.29-.86-1.66Z"/><path class="cls-7" d="M53.37,158.64v8.47h2.53v-8.47c.46-.37,.77-.94,.77-1.58h-4.07c0,.64,.3,1.21,.77,1.58Z"/><path class="cls-7" d="M55.9,153.73v-10.9h-2.53v10.9c-.46,.37-.77,.94-.77,1.58h4.07c0-.64-.3-1.21-.77-1.58Z"/></g></g></g><g><path class="cls-52" d="M166.24,46.48c.01-.8-.62-1.45-1.42-1.46h-.03c-.63,0-1.17,.39-1.37,.95-.05,.11-.08,.22-.1,.35-.09-.01-.13-.02-.2-.03-.03-.02-.05-.04-.08-.06v-.9c.02-.85-.66-1.55-1.51-1.57h-.03c-.48,0-.91,.21-1.2,.55-.02,.02-.04,.04-.05,.06-.19,.25-.31,.56-.32,.9v.19c-.11-.03-.21-.05-.32-.07v-.53s0-.54,0-.54c.01-.85-.67-1.55-1.52-1.56h-.03c-.76-.01-1.39,.53-1.53,1.25-.03,.13-.06,.26-.06,.4v.23c-.12-.04-.22-.09-.33-.14v-5.25c0-.63-.49-1.14-1.12-1.17-1.46-.06-3.13-.14-4.36-.18-.13-2.61-.47-4.84-1.29-6.7,.59-.63,1.18-1.32,1.78-2.07,0,0-6.18-4.91-13.72-4.34-.32-.03-.61-.04-.87-.05-1.91,.02-6.08,.82-7.5,1.44-6.36,2.77-6.67,8.05-6.68,16.2-.05,.08-.11,.18-.15,.3-.77,1.97,1.03,4.68,.69,7.42-.23,1.85,1.23,1.67,2.16,1.15,.35,1.4,.87,3.06,1.7,4.99,.89,2.08,2.64,4.07,4.55,5.52,.07,1.02,.08,2.74-.29,4.83l-.97,.68s0-.02,0-.02c0,0-16.35,3.94-18.49,7.83-.56,1.02-1.11,4.18-1.59,8.07h54.68v-19.58s-.63,0-.63,0l-.02-2.19h0c.25-.52,2.09-3.54,2.09-4.1v-3.76c.02-.1,.04-.21,.03-.32l-.02-1.34c.02-.09,.03-.19,.03-.29l.08-5.11Zm-14.13-5.26c.54,.12,.92,.59,.92,1.14v9.51c-.08,.12-1.71,1.1-2.07,.72-.28-.29-.64-.64-1.07-1.01,0,0,0,0,.01,0,.01,0,.02,0,.04-.01,.05-.02,.1-.04,.15-.07,.01,0,.03-.02,.04-.02,.05-.03,.1-.07,.14-.12,0,0,.01-.01,.02-.02,.05-.05,.09-.12,.12-.19,0-.02,.02-.04,.02-.06,.02-.06,.04-.11,.06-.18,0-.03,.01-.06,.02-.1,.01-.07,.02-.14,.02-.21,0-.04,0-.07,0-.11,0-.11,0-.24-.02-.37-.34-2.74,1.45-5.45,.69-7.42-.13-.33-.28-.49-.45-.56,0-.35,0-.68,0-1.02l1.35,.11Zm-8.49,26.14l-1.21-.77c-.36-2.04-.35-3.72-.29-4.75,0-.05,0-.1,.01-.15,1.26-.98,2.45-2.2,3.37-3.52,.03-.05,.06-.09,.1-.14,.1-.15,.21-.3,.3-.46,.06-.1,.12-.2,.18-.3,.07-.12,.14-.23,.2-.35,.12-.23,.24-.45,.34-.68,.17-.37,.31-.72,.45-1.06,.1-.23,.18-.46,.27-.69l3.22,3.77c.14,.16,.3,.31,.48,.43l3.29,2.3,.02,1.36v1.27s-.6,0-.6,0v6.81s-.03-.01-.05-.02c-.05-.02-.1-.04-.14-.05-.24-.09-.49-.18-.73-.27-.05-.02-.09-.03-.14-.05-.25-.09-.51-.18-.76-.26-.03-.01-.07-.02-.1-.04-3.59-1.22-7.03-2.12-8.21-2.41Z"/><g><g><g><path class="cls-43" d="M143.35,25.47c-1.42-.62-5.59-1.43-7.5-1.44-1.91,.02-6.08,.82-7.5,1.44-6.61,2.87-6.69,8.45-6.69,17.14h28.37c0-8.69-.08-14.27-6.69-17.14Z"/><path class="cls-19" d="M128.3,82.43h15.41l4.11-4.97c-8-7.9-6.32-17.45-6.32-17.45h-10.99s1.68,9.55-6.32,17.45l4.11,4.97Z"/><path class="cls-16" d="M141.5,60.02h-10.99s.81,4.65-1.41,10.15c4.59-1.79,8.25-5.57,12.29-9.04,.04-.7,.11-1.11,.11-1.11Z"/><path class="cls-17" d="M143.71,82.43l4.11-4.97c-3.26-3.22-4.91-6.71-5.73-9.73l-6.03,3.33-6.15-3.33c-.81,3.01-2.46,6.51-5.73,9.73l4.11,4.97h15.41Z"/><path class="cls-43" d="M135.23,75.48l-1.36,6.96h4.36l-1.27-6.87s5.96-4.81,5.15-7.82l-6.03,3.33-6.15-3.33c-.81,3.01,5.32,7.73,5.32,7.73Z"/><path class="cls-19" d="M150.49,41.97c-.42-1.09-1.17-.53-1.74,.19,.17-8.49-4.32-12.81-4.32-12.81h-16.84s-4.51,4.3-4.37,12.74c-.57-.69-1.28-1.19-1.69-.13-.77,1.97,1.03,4.68,.69,7.42-.23,1.85,1.23,1.67,2.16,1.15,.35,1.4,.87,3.06,1.7,4.99,1.76,4.09,6.81,7.82,9.91,7.82s8.08-3.76,9.91-7.82c.84-1.87,1.37-3.42,1.7-5.02,.92,.54,2.44,.76,2.2-1.13-.34-2.74,1.45-5.45,.69-7.42Z"/><polygon class="cls-3" points="144.88 69.5 141.68 67.63 136.06 71.08 130.44 67.63 127.24 69.5 132.76 77.33 136.06 72.42 139.36 77.33 144.88 69.5"/><polygon class="cls-17" points="136.06 71.08 139.36 75.57 144.65 67.74 141.68 65.87 136.06 71.08"/><polygon class="cls-17" points="136.06 71.08 132.76 75.57 127.37 67.94 130.33 65.87 136.06 71.08"/><path class="cls-24" d="M139.35,82.43h23.21c-.49-3.88-1.03-7.05-1.59-8.07-2.14-3.9-18.49-7.83-18.49-7.83,0,0,0,.03,0,.06l-.21-.06s.54,5.41-1.98,13.12c-.3,.93-.62,1.86-.94,2.78Z"/><path class="cls-24" d="M132.47,82.43c-.32-.92-.64-1.85-.94-2.78-2.52-7.71-1.98-13.1-1.98-13.12l-.2,.06s0-.06,0-.06c0,0-16.35,3.93-18.49,7.83-.56,1.02-1.11,4.18-1.59,8.07h23.21Z"/><path class="cls-43" d="M126.17,29.1s9.45,17.72,24.27-.69c0,0-13-10.32-24.27,.69Z"/><path class="cls-43" d="M125.95,49.16c-.61-5.24-1.13-17.5,6.72-20.92l-2.4-1.16s-7.02,1.42-7.66,12.26l1.88,11.44h.02c.87,0,1.55-.75,1.45-1.62Z"/><path class="cls-43" d="M147.41,50.78h.08l1.87-11.37c-.64-10.84-7.66-12.26-7.66-12.26l-2.4,1.16c7.84,3.42,7.33,15.66,6.72,20.91-.1,.83,.56,1.56,1.4,1.56Z"/></g><path class="cls-16" d="M150.49,41.97c-.42-1.09-1.17-.53-1.74,.19,.04-1.83-.15-3.45-.46-4.89-1.12-.05-2.17-.09-2.94-.11-.3,0-2.22,.61-2.46,.8-.11,.09-.24,.2-.37,.32-.31,.3-.43,.69-.39,1.07h-13.8c-.53,0-.96,.43-.96,.96v9.25c0,.53,.43,.96,.96,.96h9.66l6.38,7.46c.61-.79,1.13-1.62,1.51-2.46,.31-.68,.56-1.3,.78-1.91-.11,0-.2-.03-.26-.09-.78-.81-2.18-2.09-3.69-2.99h.84c.2,0,.37-.15,.37-.33v-9.63l.53,.04,3.23,.26c.6,.13,1.02,.66,1.02,1.27v8.74c.66,.05,1.22-.3,1.07-1.5-.34-2.74,1.45-5.45,.69-7.42Z"/><g><path class="cls-47" d="M130.26,39.43v9.44c0,.17,.15,.3,.33,.3h17.08c.18,0,.33-.13,.33-.3v-9.44c0-.17-.15-.3-.33-.3h-17.08c-.18,0-.33,.14-.33,.3Z"/><rect class="cls-7" x="132.1" y="40.05" width="13.54" height="8.21"/><path class="cls-35" d="M131.12,43.31c0,.06,.05,.12,.12,.12s.12-.05,.12-.12-.05-.12-.12-.12-.12,.05-.12,.12Z"/><path class="cls-35" d="M146.48,43.8v.69s.04,.07,.1,.07h.14c.05,0,.1-.03,.1-.07v-.69s-.04-.07-.1-.07h-.14c-.05,0-.1,.03-.1,.07Z"/><path class="cls-35" d="M131.12,43.84v1.13c0,.08,.05,.14,.12,.14s.12-.06,.12-.14v-1.13c0-.08-.05-.15-.12-.15s-.12,.06-.12,.15Z"/></g><path class="cls-51" d="M160.81,82.43v-8.29c-1.43-2.11-6.85-4.2-11.43-5.66v13.95s11.23,0,11.23,0h.19Z"/><g><path class="cls-19" d="M163.3,60.67c.24-.51,2.09-3.54,2.09-4.1v-10.49c0-.87-.61-1.58-1.36-1.58h-.03c-.61,0-1.29,.27-1.4,1.09-.12-.02-.15-.03-.28-.05v-.81c0-.88-.69-1.6-1.54-1.6h-.03c-1.63-.07-1.54,1.6-1.54,1.6-.11-.03-.21-.05-.32-.07v-.98c0-.88-.69-1.59-1.55-1.59h-.03c-.86,0-1.55,.71-1.55,1.59v.23c-.12-.04-.22-.09-.33-.14v-5.25c0-.63-.49-1.14-1.12-1.17-1.75-.07-3.81-.17-5.04-.2-.27,0-1.99,.55-2.21,.72-.1,.08-.22,.18-.33,.29-.68,.65-.36,1.79,.56,1.99l1.19,.1,2.9,.24c.54,.12,.92,.59,.92,1.14v9.51c-.08,.12-1.71,1.1-2.07,.72-1.36-1.41-4.8-4.42-7.02-3.45-.78,.34-.55,.75-.55,.75l7.18,8.39c.14,.16,.3,.31,.48,.43l3.29,2.3,.06,5.13,9.66-.07-.03-4.68Z"/><rect class="cls-16" x="153.65" y="60.7" width="9.69" height="8.21" transform="translate(-.47 1.17) rotate(-.42)"/><polygon class="cls-24" points="163.95 82.43 153.02 82.43 153.03 62.93 163.96 62.85 163.95 82.43"/><g><g class="cls-49"><path class="cls-15" d="M157.47,52.45h-.03c-.85,.01-1.55-.67-1.56-1.52l-.07-5.47c-.01-.85,.67-1.55,1.52-1.56h.03c.6,0,.71,.77,1.99,.89,.27,.02-.02,.4-.02,.65l.07,5.47c.01,.85-1.08,1.53-1.93,1.54Z"/><path class="cls-15" d="M160.99,53.35h-.03c-.85,.01-1.55-.67-1.56-1.52l-.07-5.47c-.01-.85,.67-1.55,1.52-1.56h.03c.58,0,1.19,.51,1.55,.78l.29,.04,.05,6.41c.01,.85-.92,1.31-1.77,1.33Z"/><path class="cls-15" d="M164,53.95h-.03c-.8,.01-1.45-.62-1.46-1.42l-.07-5.11c-.01-.8,.62-1.45,1.42-1.46h.03c.79-.01,1.45,.62,1.46,1.42l.07,5.11c.01,.8-.63,1.45-1.42,1.46Z"/></g><g><path class="cls-21" d="M157.25,50.58h-.03c-.85-.01-1.53-.71-1.52-1.57l.08-5.47c.01-.85,.71-1.53,1.56-1.52h.03c.85,.01,1.53,.71,1.52,1.57l-.08,5.47c-.01,.85-.71,1.53-1.56,1.52Z"/><path class="cls-21" d="M160.67,51.59h-.03c-.85-.01-1.53-.71-1.52-1.57l.08-5.47c.01-.85,.71-1.53,1.56-1.52h.03c.85,.01,1.53,.71,1.52,1.57l-.08,5.47c-.01,.85-.71,1.53-1.56,1.52Z"/><path class="cls-21" d="M163.97,52.28h-.03c-.79-.01-1.43-.67-1.42-1.46l.08-5.11c.01-.8,.67-1.43,1.46-1.42h.03c.8,.01,1.43,.67,1.42,1.46l-.08,5.11c-.01,.8-.67,1.43-1.46,1.42Z"/></g></g></g></g><g><path class="cls-45" d="M133.31,45.41c10.62,3.8,10.75-2.19,10.75-2.19-7.86-4.58-10.75,2.19-10.75,2.19Z"/><path class="cls-22" d="M141.49,42.68c-3.65-1.46-5.69,.38-6.57,1.59-.32,.43-.11,1.05,.4,1.21,3.65,1.14,5.56,.7,6.56-.06,.97-.74,.75-2.29-.39-2.74Z"/><path class="cls-47" d="M138.55,41.94c-1.23,.04-2.19,1.07-2.15,2.3,.04,1.23,1.07,2.19,2.3,2.15,1.23-.04,2.19-1.07,2.15-2.3-.04-1.23-1.07-2.19-2.3-2.15Z"/><path class="cls-27" d="M138.55,42.16c-1.11,.04-1.98,.97-1.95,2.08,.04,1.11,.97,1.98,2.08,1.95,1.11-.04,1.98-.97,1.95-2.08-.04-1.11-.97-1.98-2.08-1.95Z"/><path class="cls-45" d="M138.58,42.96c-.67,.02-1.19,.58-1.17,1.24,.02,.67,.58,1.19,1.24,1.17,.67-.02,1.19-.58,1.17-1.24-.02-.66-.58-1.19-1.24-1.17Z"/><path class="cls-45" d="M133.31,45.41c1.89-1.71,4.28-2.87,5.32-2.87,3.83-.02,5.43,.69,5.43,.69-7.86-4.58-10.75,2.19-10.75,2.19Z"/><path class="cls-45" d="M139.11,46.12c-1.15,.06-5.81-.71-5.81-.71,10.62,3.8,10.75-2.19,10.75-2.19-.76,2.18-2.61,2.78-4.94,2.9Z"/><path class="cls-7" d="M139.67,44.44c-.23,0-.42,.19-.42,.42s.19,.42,.42,.42,.42-.19,.42-.42-.19-.42-.42-.42Z"/><path class="cls-2" d="M136.61,44.86c.21,.69,.64,.92,.64,.92l1.14-1.26-.13-.24-1.65,.58Z"/><path class="cls-2" d="M139.09,43.97v.31l1.61,.06s.21-.64-.18-1.07l-1.43,.7Z"/></g></g></g><g><path class="cls-52" d="M238.86,121.88c-.74-1.43-3.2-1.7-4.47-1.75,.25-.26,.5-.57,.53-.88,.02-.2-.04-.48-.44-.66-.24-.11-.44-.12-.61-.02-.21,.12-.34,.39-.38,.81-.03,.27-.02,.55,0,.77l-.86,.17c-3.29-7.3-2.48-15.11-2.48-15.11l-4.45-6.01,.39-.24c-2.3-1.94-2.05-3.83-1.59-4.92,.57,.2,.92,.32,.92,.32,.27,.15,1.9,1.37,1.96,1.4,.27,.14,.44,.17,.64,.01,.23-.33,.45-.65,.67-.96l.14-.2h0c.13-.18,.26-.37,.39-.56h0l.06-.09c.04-.06,.08-.11,.12-.17,.07-.1,.14-.2,.21-.3,.2-.32-.44-.74-.57-.41-.09,.09-.12,.19-.26,.23-.12,.03-.25,0-.36-.03-.16-.05-.32-.12-.47-.21,.02,0,.04,0,.06,0h0s0,0,0,0c.27,.04,.55,.08,.82,.11,.06,.02,.11-.13,.07-.28,1.93-.63,5.81-2.76,7.78-3.88l.05,.06h0s.11,.13,.11,.13c.1,.12,.19,.24,.29,.35,.06,.07,.16,.26,.25,.29,.03,.01,.07,.01,.1,.01,.12,0,.24,0,.35,0,.04,0,.07,0,.11-.01,.11-.05,.25-.3,.32-.39,.13-.17,.27-.34,.4-.52,.67-.91-.27-2.07-.75-2.56-.06-.08-.12-.17-.2-.23-.01-.01-.03-.02-.04-.03-.14-.07-.35-.03-.48,.05-.12,.07-.24,.14-.35,.21-.17,.1-.34,.21-.52,.31-.12,.07-.17,.23-.11,.36,.04,.08,.08,.14,.13,.2l-7.12,2.61c-.13,.05-.28-.02-.33-.15l-1.38-3.79c1.88-1.58,.87-2.68,.21-3.29-.75-.7-3.47-4.15-3.54-4.25l.09-1.89c.6,.21,1.27,.42,1.98,.64,2.52,.76,2.38-.61,2.38-.61-.16-1.09,.17-2.05,.39-2.14,.28-.12,.68-.31,.94-.44,.15-.08,.2-.27,.12-.41-.77-1.34-.88-3.05-.83-4.34l1.25,.42c1.61-3.64-4.42-8.1-10.02-3.86-.11,.08-.21,.17-.31,.26l-1.07-.66-.26,.45c-1.21-1.11-4.15-3.05-6.41,1.64,0,0-.14,.3-.21,.81h-30.05c-.6,0-1.09,.4-1.09,.89v45.79c0,.49,.49,.89,1.09,.89h34.29c.6,0,1.09-.4,1.09-.89v-7.44l1.59-4.99c.13,.06,.21,.1,.21,.1l.57-.78c.46,.3,.77,.46,.77,.46l1.24-.77,4.21,4.83c-2.68,2.08,0,5.68,.93,6.88,.83,1.08,3.24,6.36,3.73,7.44l-.25,.05,.17,2.75h-.01s.02,.1,.02,.1h0s0,0,0,0l.19,.94c.06,.31,.36,.51,.67,.44l7.01-1.59c.29-.07,.48-.36,.42-.65l-.17-.84Zm-19.58-36.4c.12,1.51,.15,3.01,.16,4.2l-1.88-.9v-1.68c.42-.39,.98-.92,1.72-1.63Zm-1.72,7.71v-1.88c.6,.27,1.22,.53,1.84,.79,0,.03,0,.06,0,.06-.74,.34-1.34,.69-1.84,1.04Zm8.31-.44l-.98-.47,.94-3.49c.33,1.22,.75,2.51,1.21,3.35-1-.05-1.17,.61-1.17,.61Zm-7.48-26.15l-.23,.4,.78,.43c-2.21,3.63,2.46,7.39,2.47,7.4,.12,.16,.28,.34,.41,.49l-.2,1.64h0l-.14,1.1-.42,.61c-.27,.02-.54,.1-.8,.27-.63,.4-1.64,1.69-2.69,3.19v-2.01c1.35-.44,2.35-1.56,2.25-3.5-.1-2.04-1.21-3.28-2.25-4.33v-3.12c0-.49-.49-.89-1.09-.89h-.68c.24-1.28,1.05-1.99,2.6-1.66Zm15.4,52.81c.03-.31,.12-.51,.23-.58,.08-.05,.19-.03,.34,.03,.26,.12,.28,.26,.27,.36-.03,.28-.36,.64-.66,.9-.07,0-.13,0-.18,0-.02-.21-.03-.47,0-.71Z"/><g><g><g><path class="cls-47" d="M215.71,115.09h-34.29c-.6,0-1.09-.4-1.09-.89v-45.79c0-.49,.49-.89,1.09-.89h34.29c.6,0,1.09,.4,1.09,.89v45.79c0,.49-.49,.89-1.09,.89Z"/><rect class="cls-36" x="183.32" y="71.53" width="30.48" height="37.1"/><path class="cls-7" d="M200.67,69.41c0,.19-.16,.35-.35,.35s-.35-.16-.35-.35,.16-.35,.35-.35,.35,.16,.35,.35Z"/><path class="cls-7" d="M199.15,69.41c0,.19-.2,.35-.44,.35h-3.41c-.24,0-.44-.16-.44-.35h0c0-.19,.2-.35,.44-.35h3.41c.24,0,.44,.16,.44,.35h0Z"/><path class="cls-7" d="M199.52,111.46c0,.56-.46,1.02-1.02,1.02s-1.02-.46-1.02-1.02,.46-1.02,1.02-1.02,1.02,.46,1.02,1.02Z"/></g><g><g class="cls-9"><rect class="cls-28" x="183.32" y="71.53" width="30.48" height="37.1"/><path class="cls-44" d="M214.5,74.13v-.21h-3.34v-3.12h-.21v3.12h-3.31v-3.12h-.21v3.12h-3.31v-3.12h-.21v3.12h-3.31v-3.12h-.21v3.12h-3.31v-3.12h-.21v3.12h-3.31v-3.12h-.21v3.12h-3.31v-3.12h-.21v3.12h-3.31v-3.12h-.21v3.12h-3.99v.21h3.99v3.31h-3.99v.21h3.99v3.31h-3.99v.21h3.99v3.31h-3.99v.21h3.99v3.31h-3.99v.21h3.99v3.31h-3.99v.21h3.99v3.1h-3.99v.21h3.99v3.31h-3.99v.21h3.99v3.31h-3.99v.21h3.99v3.31h-3.99v.21h3.99v3.31h-3.99v.21h3.99v1.3h.21v-1.3h3.31v1.3h.21v-1.3h3.31v1.3h.21v-1.3h3.31v1.3h.21v-1.3h3.31v1.3h.21v-1.3h3.31v1.3h.21v-1.3h3.31v1.3h.21v-1.3h3.31v1.3h.21v-1.3h3.34v-.21h-3.34v-3.31h3.34v-.21h-3.34v-3.31h3.34v-.21h-3.34v-3.31h3.34v-.21h-3.34v-3.31h3.34v-.21h-3.34v-3.1h3.34v-.21h-3.34v-3.31h3.34v-.21h-3.34v-3.31h3.34v-.21h-3.34v-3.31h3.34v-.21h-3.34v-3.31h3.34v-.21h-3.34v-3.31h3.34Zm-7.06,0v3.31h-3.31v-3.31h3.31Zm-7.03,20.88v3.31h-3.31v-3.31h3.31Zm-3.31-.21v-3.1h3.31v3.1h-3.31Zm0-3.31v-3.31h3.31v3.31h-3.31Zm0-3.51v-3.31h3.31v3.31h-3.31Zm0-3.51v-3.31h3.31v3.31h-3.31Zm-.21,0h-3.31v-3.31h3.31v3.31Zm0,.21v3.31h-3.31v-3.31h3.31Zm0,3.51v3.31h-3.31v-3.31h3.31Zm0,3.51v3.1h-3.31v-3.1h3.31Zm0,3.31v3.31h-3.31v-3.31h3.31Zm0,3.51v3.31h-3.31v-3.31h3.31Zm.21,0h3.31v3.31h-3.31v-3.31Zm3.51,0h3.31v3.31h-3.31v-3.31Zm0-.21v-3.31h3.31v3.31h-3.31Zm0-3.51v-3.1h3.31v3.1h-3.31Zm0-3.31v-3.31h3.31v3.31h-3.31Zm0-3.51v-3.31h3.31v3.31h-3.31Zm0-3.51v-3.31h3.31v3.31h-3.31Zm0-3.51v-3.31h3.31v3.31h-3.31Zm-.21,0h-3.31v-3.31h3.31v3.31Zm-3.51,0h-3.31v-3.31h3.31v3.31Zm-3.51,0h-3.31v-3.31h3.31v3.31Zm0,.21v3.31h-3.31v-3.31h3.31Zm0,3.51v3.31h-3.31v-3.31h3.31Zm0,3.51v3.31h-3.31v-3.31h3.31Zm0,3.51v3.1h-3.31v-3.1h3.31Zm0,3.31v3.31h-3.31v-3.31h3.31Zm0,3.51v3.31h-3.31v-3.31h3.31Zm0,3.51v3.31h-3.31v-3.31h3.31Zm.21,0h3.31v3.31h-3.31v-3.31Zm3.51,0h3.31v3.31h-3.31v-3.31Zm3.51,0h3.31v3.31h-3.31v-3.31Zm3.51,0h3.31v3.31h-3.31v-3.31Zm0-.21v-3.31h3.31v3.31h-3.31Zm0-3.51v-3.31h3.31v3.31h-3.31Zm0-3.51v-3.1h3.31v3.1h-3.31Zm0-3.31v-3.31h3.31v3.31h-3.31Zm0-3.51v-3.31h3.31v3.31h-3.31Zm0-3.51v-3.31h3.31v3.31h-3.31Zm0-3.51v-3.31h3.31v3.31h-3.31Zm-.21-6.82v3.31h-3.31v-3.31h3.31Zm-3.51,0v3.31h-3.31v-3.31h3.31Zm-3.51,0v3.31h-3.31v-3.31h3.31Zm-3.51,0v3.31h-3.31v-3.31h3.31Zm-6.82,0h3.31v3.31h-3.31v-3.31Zm0,3.51h3.31v3.31h-3.31v-3.31Zm0,3.51h3.31v3.31h-3.31v-3.31Zm0,3.51h3.31v3.31h-3.31v-3.31Zm0,3.51h3.31v3.31h-3.31v-3.31Zm0,3.51h3.31v3.1h-3.31v-3.1Zm0,3.31h3.31v3.31h-3.31v-3.31Zm0,3.51h3.31v3.31h-3.31v-3.31Zm0,3.51h3.31v3.31h-3.31v-3.31Zm0,6.82v-3.31h3.31v3.31h-3.31Zm3.51,0v-3.31h3.31v3.31h-3.31Zm3.51,0v-3.31h3.31v3.31h-3.31Zm3.51,0v-3.31h3.31v3.31h-3.31Zm3.51,0v-3.31h3.31v3.31h-3.31Zm3.51,0v-3.31h3.31v3.31h-3.31Zm6.82,0h-3.31v-3.31h3.31v3.31Zm0-3.51h-3.31v-3.31h3.31v3.31Zm0-3.51h-3.31v-3.31h3.31v3.31Zm0-3.51h-3.31v-3.31h3.31v3.31Zm0-3.51h-3.31v-3.1h3.31v3.1Zm0-3.31h-3.31v-3.31h3.31v3.31Zm0-3.51h-3.31v-3.31h3.31v3.31Zm0-3.51h-3.31v-3.31h3.31v3.31Zm0-3.51h-3.31v-3.31h3.31v3.31Zm0-3.51h-3.31v-3.31h3.31v3.31Z"/></g><path class="cls-24" d="M205.46,77.31c-2.32,.36-3.22,2.12-3.22,2.12,0,0-.9-1.76-3.22-2.12-2.03-.32-5.52,.41-5.52,4.66,0,5.92,8.75,10.44,8.75,10.44,0,0,8.75-4.52,8.75-10.44,0-4.25-3.49-4.97-5.52-4.66Z"/><polygon class="cls-14" points="212.46 85.61 211.75 81.85 209.79 88.7 208.51 83.21 207.94 89.1 206.95 78.65 206.57 78.65 205.65 87.52 204.02 82.99 203.08 86.44 198.73 86.44 197.92 81.45 196.57 85.62 195.89 83.23 194.39 89.89 192.98 75.09 191.51 87.53 189.7 82.36 189.08 86.44 187.33 86.44 185.58 83.73 183.32 83.73 183.32 84.11 185.37 84.11 187.12 86.82 189.41 86.82 189.85 83.94 191.7 89.23 192.94 78.71 194.24 92.33 195.93 84.78 196.55 86.93 197.79 83.08 198.4 86.82 203.37 86.82 204.07 84.26 205.86 89.24 206.75 80.62 207.75 91.13 208.13 91.13 208.67 85.57 209.75 90.22 211.68 83.51 212.15 86 213.8 86 213.8 85.61 212.46 85.61"/></g><g><rect class="cls-7" x="187.26" y="93.86" width="14.1" height="8.74"/><g><path class="cls-43" d="M194.07,95.75h-1.4c-.08,0-.15-.05-.18-.13l-.15-.45c-.04-.12,.05-.25,.18-.25h1.7c.13,0,.22,.13,.18,.25l-.15,.45c-.03,.08-.1,.13-.18,.13Z"/><path class="cls-43" d="M194.1,95.94v1.4c0,.08,.05,.15,.13,.18l.45,.15c.12,.04,.25-.05,.25-.18v-1.7c0-.13-.13-.22-.25-.18l-.45,.15c-.08,.03-.13,.1-.13,.18Z"/><path class="cls-43" d="M192.61,98.73v1.4c0,.08-.05,.15-.13,.18l-.45,.15c-.12,.04-.25-.05-.25-.18v-1.7c0-.13,.13-.22,.25-.18l.45,.15c.08,.03,.13,.1,.13,.18Z"/><path class="cls-43" d="M192.67,100.42h1.4c.08,0,.15,.05,.18,.13l.15,.45c.04,.12-.05,.25-.18,.25h-1.7c-.13,0-.22-.13-.18-.25l.15-.45c.03-.08,.1-.13,.18-.13Z"/><path class="cls-43" d="M193.97,97.68h-1.18c-.06,0-.12,.03-.14,.08l-.14,.25s-.02,.09,0,.14l.14,.25s.08,.08,.14,.08h1.18c.06,0,.12-.03,.14-.08l.14-.25s.02-.09,0-.14l-.14-.25s-.08-.08-.14-.08Z"/><path class="cls-43" d="M189.91,95.4v1.95c0,.11,.05,.21,.13,.25l.5,.21c.13,.06,.27-.07,.28-.25v-2.37c.01-.18-.13-.3-.26-.25l-.5,.21c-.09,.04-.14,.14-.14,.25Z"/><path class="cls-43" d="M189.88,98.73v1.98c0,.11,.05,.21,.13,.25l.5,.21c.13,.06,.27-.07,.28-.25v-2.4c.01-.18-.13-.31-.26-.25l-.5,.21c-.09,.04-.14,.14-.14,.25Z"/><path class="cls-43" d="M197.9,95.73h-1.41c-.08,0-.15-.06-.18-.14l-.15-.45c-.04-.12,.05-.25,.18-.25h1.71c.13,.01,.22,.14,.18,.26l-.15,.45c-.03,.08-.1,.13-.18,.13Z"/><path class="cls-43" d="M196.43,95.94v1.52c-.01,.09-.06,.16-.14,.19l-.45,.16c-.12,.04-.25-.06-.25-.19v-1.85c.02-.14,.14-.24,.26-.19l.45,.17c.08,.03,.13,.11,.13,.19Z"/><path class="cls-43" d="M197.93,95.95v1.52c0,.09,.05,.16,.12,.19l.45,.16c.12,.04,.25-.05,.25-.19v-1.85c0-.14-.12-.24-.24-.19l-.45,.16c-.08,.03-.13,.1-.13,.19Z"/><path class="cls-43" d="M196.41,98.59v1.51c-.01,.09-.06,.16-.14,.19l-.45,.16c-.12,.04-.25-.06-.25-.19v-1.83c.02-.14,.14-.23,.26-.19l.45,.16c.08,.03,.13,.11,.13,.19Z"/><path class="cls-43" d="M197.91,98.59v1.51c0,.09,.05,.16,.12,.19l.45,.16c.12,.04,.25-.05,.25-.19v-1.83c0-.14-.12-.24-.24-.19l-.45,.16c-.08,.03-.13,.1-.13,.19Z"/><path class="cls-43" d="M196.46,100.41h1.41c.08,0,.15,.06,.18,.14l.15,.45c.04,.12-.05,.25-.18,.25h-1.71c-.13-.01-.22-.14-.18-.26l.15-.45c.03-.08,.1-.13,.18-.13Z"/></g></g></g><g class="cls-49"><path class="cls-25" d="M215.71,67.51h-1.59c-.99,2.94,1.94,5.77,2.69,6.42v-5.53c0-.49-.49-.89-1.09-.89Z"/><path class="cls-25" d="M207.79,67.51c-.14,1.04,.04,2.95,2.47,4.93,0,0,1.94,1.85,.15,3.5-.26,.23-1.16,1.16-2.06,.5-.23-.17-.68-1.06,.13-1.34,.43-.15,.52,.31,.52,.31,0,0,.39-1.15-.94-1.05-1.33,.1-1.99,2.93,.7,4.45,2.68,1.52,6.81,.89,6.62-2.96-.19-3.85-3.99-4.86-4.1-7.1-.02-.46,0-.87,.07-1.24h-3.56Z"/><path class="cls-25" d="M216.8,101.21v-23.57l-.18,.25c-.27,.02-.55,.11-.8,.27-1.8,1.15-6.72,9.53-6.72,9.53-.47,.78,2.69,2.33,5.87,3.64,0,.03,0,.06,0,.06-3.84,1.76-4.35,3.76-3.6,5.52l-1.23,2.71c.25,.12,.51,.24,.78,.37l-1.27,4.93c-.49-1.34-2.79-1.83-4.48-.79-1.29,.79-5.41,1.92-7.32,2.42v-.57l-2.73-.38h-1.07c-.31,0-.57,.26-.56,.57l.2,7.19c0,.3,.26,.54,.56,.54h.86c1.38-.31,2.11-2.21,2.46-3.53,.21,.3,.49,.6,.78,.69,.19,.06,.48,.05,.73-.32,.15-.21,.19-.41,.13-.6-.08-.23-.33-.4-.73-.52-.24-.07-.49-.11-.71-.13,.05-.25,.07-.41,.07-.41v-.63c6.88-1.63,15.02-.9,15.02-.9l1.85-5.81c.13,.06,.21,.1,.21,.1l.57-.78c.47,.3,.77,.46,.77,.46l.53-.33Zm-18.4,8.7c.3,.09,.49,.2,.53,.33,.03,.09,0,.2-.09,.33-.16,.24-.31,.23-.4,.2-.27-.08-.56-.46-.77-.79,.01-.06,.03-.13,.04-.19,.21,.02,.46,.06,.69,.12Zm13.75-22.36c-.1-.05-.12-.17-.04-.25,.3-.27,1.02-.96,2.74-2.59,.12,1.51,.15,3.01,.16,4.2l-2.86-1.36Z"/></g><g><polygon class="cls-19" points="223.59 74.35 223.4 78.17 220.64 77.9 221.08 74.35 223.59 74.35"/><path class="cls-4" d="M223.47,76.92l.12-2.57h-2.51l-.23,1.85c.78,.24,2.52,.69,2.62,.72Z"/><path class="cls-30" d="M218.64,65.64s-4.06-5-6.97,1.07c0,0-1.35,2.79,2.25,5.74,0,0,1.94,1.86,.15,3.5-.26,.23-1.16,1.16-2.06,.5-.23-.17-.68-1.06,.13-1.34,.43-.15,.53,.31,.53,.31,0,0,.39-1.15-.94-1.04-1.33,.1-1.99,2.93,.7,4.45,2.68,1.52,6.81,.89,6.62-2.96-.19-3.85-3.99-4.86-4.1-7.1-.11-2.24,.83-3.58,3.31-2.73l.38-.38Z"/><polygon class="cls-40" points="219.82 65.51 218.35 64.6 217.39 66.24 218.89 67.08 219.82 65.51"/><path class="cls-13" d="M226.1,83.36l2.04,5.6c.05,.13,.2,.2,.33,.15l8.34-3.06,.33,1.51s-8.3,4.86-9.89,4.75c-1.58-.11-2.95-7.65-2.95-7.65l1.8-1.31Z"/><path class="cls-13" d="M218.56,101.23l-2.02,6.34s-8.58-.77-15.57,1.04l-.44-1.8s6.61-1.64,8.3-2.68c1.69-1.04,3.99-.55,4.48,.79l1.47-5.69,3.78,2Z"/><path class="cls-19" d="M224.5,97.86l4.88,6.59s-.83,8.02,2.61,15.4c0,0-.32,.93-1.85,.28,0,0-2.9-6.45-3.82-7.65-.93-1.2-3.61-4.81-.93-6.88l-5.19-5.95,4.3-1.78Z"/><path class="cls-19" d="M228.68,66.81c-.15,.85-.56,3.87,.65,5.97,.09,.15,.04,.34-.12,.41-.26,.13-.66,.32-.94,.44-.22,.09-.56,1.05-.39,2.14,0,0,.14,1.37-2.38,.61-2.11-.63-3.88-1.28-4.34-1.71-.28-.27-.76-.91-.76-.91l.31-6.53s-.43-4,7.77-.76c.13,.05,.21,.19,.19,.32Z"/><path class="cls-30" d="M223.27,70.06s-1.16-2.03-2.02-.53c-.82,1.42,.89,1.82,.89,1.82,0,0,.18,2.29-1.5,2.72,0,0-6.25-5.02-.9-9.07,5.6-4.24,11.64,.22,10.02,3.86l-5.31-1.8s.14,1.74-1.18,2.99Z"/><path class="cls-27" d="M218.05,81.12l2.67-3.82,2.71,.33s2.79,3.55,3.55,4.26c.76,.71,2.02,2.08-1.37,4.1l-1.86,6.94-5.11-1.53s.25-6.23-.6-10.27Z"/><path class="cls-12" d="M237.19,89.1c.11-.05,.25-.3,.32-.39,.13-.17,.27-.34,.4-.52,.88-1.18-1-2.8-1-2.8l-.85,.5,.43,.62c-.17,.15-1.4,.74-1.25,.92l.84,1.03c.1,.12,.19,.24,.29,.35,.06,.07,.16,.26,.25,.29,.03,.01,.07,.01,.1,.01,.12,0,.24,0,.35,0,.04,0,.07,0,.11-.01Z"/><path class="cls-12" d="M236.93,85.38s.03,.02,.04,.03c.09,.07,.15,.19,.22,.27-.5,.37-.81,.6-1.31,.97-.2,0-.33-.13-.42-.34-.06-.13-.01-.29,.11-.36,.17-.1,.34-.21,.52-.31,.12-.07,.24-.14,.35-.21,.13-.08,.34-.12,.48-.05Z"/><path class="cls-32" d="M219.95,100.01l-1.34,1.84s-2.9-1.35-4.79-2.23l1.64-3.61,4.5,4Z"/><path class="cls-7" d="M224.3,92.32s-2.53,2.87,1.03,5.88l-5.38,3.34s-10.77-5.8-1.3-10.15l5.65,.93Z"/><path class="cls-7" d="M201.52,105.98v3.11s-.59,4.32-2.73,4.81l-1.2-.55,1.2-7.76,2.73,.38Z"/><path class="cls-24" d="M198.79,105.6v8.3h-.86c-.3,0-.55-.24-.56-.54l-.2-7.19c0-.31,.24-.57,.56-.57h1.07Z"/><path class="cls-7" d="M229.8,119.97l3.05-.6s4.23-.2,5.24,1.75l-.3,1.28-7.82,.42-.17-2.86Z"/><path class="cls-24" d="M229.95,122.73l8.15-1.61,.17,.84c.06,.3-.13,.59-.42,.65l-7.01,1.59c-.31,.07-.61-.13-.67-.44l-.21-1.04Z"/><path class="cls-19" d="M227.25,95.02c.48-.69,.91-1.3,1.39-1.99,.07-.1,.14-.2,.21-.3,.2-.32-.44-.74-.57-.41-.09,.09-.12,.19-.26,.23-.12,.03-.25,0-.36-.03-.16-.05-.32-.12-.47-.21,.29,.04,.59,.09,.89,.12,.09,.03,.18-.32-.07-.51-.13-.1-.31-.17-.46-.23-2.14-.86-2.43,.3-2.43,.3l-9.29-4.43c-.1-.05-.12-.17-.04-.25,.35-.32,1.28-1.2,3.71-3.51,4.48-4.26,1.8-6.77,0-5.63-1.8,1.15-6.72,9.53-6.72,9.53-.92,1.52,11.88,5.91,11.88,5.91,.27,.15,1.9,1.37,1.96,1.4,.27,.14,.44,.17,.64,.01Z"/><path class="cls-24" d="M233.11,117.82c-.21,.12-.34,.39-.38,.81-.04,.34-.01,.72,.01,.95-.33-.05-.9-.09-1.2,.12-.19,.14-.26,.36-.17,.64,.09,.29,.26,.38,.39,.4,.42,.08,.94-.44,1.19-.73,.19,.41,.44,.72,.45,.73l.18-.15s-.27-.35-.46-.77c.03-.03,.07-.05,.11-.09,.18,0,.42,.07,.61,.29l.17-.15c-.17-.19-.37-.29-.56-.33,.31-.28,.66-.67,.7-1.04,.02-.2-.04-.48-.44-.66-.24-.11-.44-.12-.61-.02Zm-1.3,2.63s-.1-.02-.16-.2c-.02-.07-.03-.13-.02-.17,0-.06,.03-.1,.08-.14,.18-.13,.62-.12,.97-.07-.29,.31-.67,.62-.87,.58Zm1.79-2.34c.26,.12,.28,.26,.27,.36-.04,.34-.5,.78-.83,1.05,0,0,0,0,0,0-.02-.22-.04-.56,0-.86,.03-.31,.12-.51,.23-.58,.08-.05,.19-.03,.34,.03Z"/><path class="cls-24" d="M202.88,110.15c-.08-.23-.33-.4-.73-.52-.33-.1-.71-.14-.94-.15,.11-.32,.25-.87,.09-1.21-.1-.21-.31-.32-.6-.28-.3,.04-.42,.19-.46,.31-.15,.39,.27,1,.51,1.3-.44,.12-.78,.31-.8,.32l.11,.2s.39-.21,.84-.32c.02,.04,.04,.08,.07,.13-.04,.18-.14,.4-.39,.56l.12,.19c.22-.14,.35-.32,.42-.49,.22,.35,.55,.76,.9,.87,.19,.06,.48,.05,.73-.32,.15-.21,.19-.41,.13-.6Zm-2.37-1.74s.04-.1,.22-.12c.07,0,.13,0,.18,0,.06,.02,.09,.05,.12,.11,.1,.2,.01,.63-.1,.97-.25-.33-.5-.76-.42-.96Zm2,2.17c-.16,.24-.31,.23-.4,.2-.33-.09-.69-.63-.89-.99,0,0,0,0,0,0,.22,.02,.56,.06,.85,.14,.3,.09,.49,.2,.53,.33,.03,.09,0,.2-.09,.33Z"/><polygon class="cls-33" points="227.83 93.47 226.83 92.88 226.93 92.7 227.87 93.26 228.57 93.13 228.45 93.3 227.83 93.47"/><polygon class="cls-33" points="227.59 94.13 226.5 93.47 226.61 93.3 227.64 93.92 228.07 93.86 227.91 94.08 227.59 94.13"/><polygon class="cls-33" points="227.42 94.78 227.05 94.78 226.2 94.1 226.32 93.95 227.12 94.58 227.57 94.56 227.42 94.78"/><polygon class="cls-33" points="235.99 87.77 236.83 87.16 236.72 87.01 235.94 87.58 235.3 87.54 235.42 87.68 235.99 87.77"/><polygon class="cls-33" points="236.26 88.34 237.18 87.66 237.07 87.51 236.2 88.16 235.81 88.14 235.97 88.33 236.26 88.34"/><polygon class="cls-33" points="236.47 88.91 236.8 88.87 237.5 88.2 237.38 88.07 236.73 88.7 236.32 88.73 236.47 88.91"/></g></g></g><g><path class="cls-52" d="M89.98,62.22H52.93c-.65,0-1.18,.43-1.18,.97v49.47c0,.53,.53,.97,1.18,.97h15.47c-.28,.57-.59,1.13-.89,1.69l.42,.19c-2.4,2.87-6.27,4.74-10.62,4.74h-.29c-7.28,0-13.19-5.22-13.19-11.64v-29.41c2.39-.49,4.18-2.49,4.18-4.9,0-2.77-2.38-5.01-5.3-5.01s-5.3,2.24-5.3,5.01c0,2.44,1.85,4.48,4.3,4.92v29.39c0,7.52,6.87,13.64,15.32,13.64h.29c5.2,0,9.81-2.33,12.58-5.87l.38,.17c.59-.84,1.1-1.84,1.5-2.92h18.21c.65,0,1.18-.43,1.18-.97V63.19c0-.53-.53-.97-1.18-.97Z"/><g><g><path class="cls-40" d="M89.43,113.07H52.39c-.65,0-1.18-.43-1.18-.97V62.64c0-.53,.53-.97,1.18-.97h37.04c.65,0,1.18,.43,1.18,.97v49.47c0,.53-.53,.97-1.18,.97Z"/><rect class="cls-28" x="54.45" y="66.02" width="32.93" height="40.07"/><path class="cls-7" d="M73.18,63.73c0,.21-.17,.37-.37,.37s-.37-.17-.37-.37,.17-.37,.37-.37,.37,.17,.37,.37Z"/><path class="cls-7" d="M71.54,63.73c0,.21-.21,.37-.47,.37h-3.69c-.26,0-.47-.17-.47-.37h0c0-.21,.21-.37,.47-.37h3.69c.26,0,.47,.17,.47,.37h0Z"/><path class="cls-31" d="M71.94,109.15c0,.61-.49,1.1-1.1,1.1s-1.1-.49-1.1-1.1,.49-1.1,1.1-1.1,1.1,.49,1.1,1.1Z"/></g><g><path class="cls-7" d="M68.71,104.39c-10.7-1.28-11.89-25.2-11.34-30.23,.13-1.22,.78-2.15,1.91-2.75,3.25-1.73,9.5-.02,9.76,.06l-.46,1.1c-1.62-.45-6.31-1.36-8.53-.18-.76,.4-1.17,1.02-1.27,1.88-.62,5.62,1.06,27.89,10.13,28.98l-.21,1.15Z"/><path class="cls-43" d="M70.53,72.34s.68-2.09-1.73-1.62c-1.91,.37-2.8-.13-2.8-.13l-.24,.78-.24,.78s1.07-.1,2.54,.96c1.85,1.34,2.46-.77,2.46-.77Z"/><path class="cls-7" d="M73.07,104.39c10.7-1.28,11.89-25.2,11.34-30.23-.13-1.22-.78-2.15-1.91-2.75-3.25-1.73-9.5-.02-9.76,.06l.46,1.1c1.62-.45,6.31-1.36,8.53-.18,.76,.4,1.17,1.02,1.27,1.88,.62,5.62-1.06,27.89-10.13,28.98l.21,1.15Z"/><path class="cls-43" d="M71.25,72.34s-.68-2.09,1.73-1.62c1.91,.37,2.8-.13,2.8-.13l.24,.78,.24,.78s-1.07-.1-2.54,.96c-1.85,1.34-2.46-.77-2.46-.77Z"/><path class="cls-24" d="M69.96,104.07v3.98c0,6.42-5.92,11.64-13.19,11.64h-.29c-7.28,0-13.19-5.22-13.19-11.64v-32.69h-2.12v32.69c0,7.52,6.87,13.64,15.32,13.64h.29c8.45,0,15.32-6.12,15.32-13.64v-3.98h-2.12Z"/><path class="cls-43" d="M82.68,94.13h-2.96c-1.95,4.77-3.67,7.35-7.57,8.05h-2.89c-3.71-.85-5.32-3.43-7.2-8.05h-2.96c2.14,5.4,5.38,9.67,10.16,10.51v3.42c0,2.46-1.16,4.63-2.3,6.7l2.76,1.23c1.46-2.06,2.43-5.05,2.43-7.93v-3.36c4.98-.68,8.33-5.04,10.53-10.57Z"/><path class="cls-43" d="M47.47,73.74c0,2.77-2.38,5.01-5.3,5.01s-5.3-2.24-5.3-5.01,2.37-5.01,5.3-5.01,5.3,2.24,5.3,5.01Z"/><path class="cls-7" d="M45.14,73.74c0,1.56-1.34,2.82-2.98,2.82s-2.98-1.26-2.98-2.82,1.34-2.82,2.98-2.82,2.98,1.26,2.98,2.82Z"/></g><path class="cls-47" d="M89.43,61.68H52.39c-.65,0-1.18,.43-1.18,.97v49.47c0,.53,.53,.97,1.18,.97h37.04c.65,0,1.18-.43,1.18-.97V62.64c0-.53-.53-.97-1.18-.97Zm-16.62,1.68c.21,0,.37,.17,.37,.37s-.17,.37-.37,.37-.37-.17-.37-.37,.17-.37,.37-.37Zm-5.43,0h3.69c.26,0,.47,.17,.47,.37s-.21,.37-.47,.37h-3.69c-.26,0-.47-.17-.47-.37s.21-.37,.47-.37Zm3.45,46.91c-.61,0-1.1-.49-1.1-1.1s.49-1.1,1.1-1.1,1.1,.49,1.1,1.1-.49,1.1-1.1,1.1Zm16.54-4.16H54.45v-40.07h32.93v40.07Z"/><path class="cls-7" d="M72.42,109.15c0,.87-.71,1.58-1.58,1.58s-1.58-.71-1.58-1.58,.71-1.58,1.58-1.58,1.58,.71,1.58,1.58Z"/><path class="cls-24" d="M73.72,79.7c-2.08,.32-2.88,1.9-2.88,1.9,0,0-.8-1.57-2.88-1.9-1.81-.28-4.93,.36-4.93,4.16,0,5.29,7.81,9.32,7.81,9.32,0,0,7.81-4.04,7.81-9.32,0-3.8-3.12-4.44-4.93-4.16Z"/></g></g><g><g><path class="cls-52" d="M236.06,170.19v-3.16c0-.77-.5-1.39-1.12-1.39h-.54v-2.9c.46-.92,3.9-6.44,3.91-7.47l.14-12.85,.08-3.59c0-.15-.01-.3-.03-.44l.03-2.31c0-.08-.01-.15-.02-.22,.07-1.45-1.04-2.68-2.48-2.75h-.05c-1.28-.07-2.39,.8-2.68,2l-.38-.07,.02-1.47c0-.14-.02-.27-.03-.4-.09-1.02-.72-1.88-1.63-2.29-.06-.03-.13-.05-.2-.07-.1-.04-.19-.07-.29-.1-.11-.03-.22-.04-.34-.05-.06,0-.12-.02-.18-.03h-.06s-.01,0-.02,0c-.01,0-.02,0-.03,0h-.06c-2.66-.14-2.84,2.25-2.85,2.78v.11c-.2-.05-.38-.09-.58-.14l.02-1.8c0-.62-.18-1.2-.49-1.67-.47-.75-1.28-1.27-2.24-1.32h-.06c-1.55-.08-2.87,1.11-2.95,2.66l-.03,.66s-.04-.01-.06-.01c-.07-.03-.13-.06-.2-.08l.07-1.32c.08-1.59-1.14-2.95-2.73-3.03h-.06c-1.59-.08-2.95,1.14-3.03,2.73l-.52,10.22c-.02,.45,.07,.88,.24,1.27l-.14,3.42c-.15,.22-.3,.4-.46,.55,0-.32,0-.61,.02-.95,.27-10.64-2.46-13.06-4.3-13.36-1.55-.26-1.55,.83-1.55,.83l.08,18.98c.11,.4,.22,.8,.33,1.2,1.9,3.16,8.1,9.53,8.1,9.53v3.79s-.65,0-.65,0c-.62,0-1.12,.62-1.12,1.39v3.3c-1.02,.37-2.45,1.09-3.66,2.45v14.11s1.74,2.22,5.43,3.91v4.89s17.68,.06,17.68,.06v-4.81c3.91-1.71,5.76-4.05,5.76-4.05v-14.11c-1.38-1.56-3.05-2.28-4.07-2.59Z"/><g><path class="cls-34" d="M224.97,191.97s.04,0,.06,0h0c9.87-.06,14.37-5.8,14.37-5.8v-10.23l-4.85-6.7-9.4-.45v-.02h-.19s-.19,0-.19,0v.02s-9.4,.45-9.4,.45l-4.85,6.7v10.23s4.5,5.74,14.37,5.8h0s.04,0,.06,0Z"/><g><g><path class="cls-19" d="M235.34,132.42h-.05c-1.11-.01-2.37,.47-2.59,1.97-.22-.04-.27-.05-.52-.1l.02-1.47c.02-1.61-1.23-2.93-2.78-2.95h-.06c-2.99-.16-2.85,2.89-2.85,2.89-.2-.05-.38-.09-.58-.14l.02-1.8c.02-1.61-1.24-2.93-2.8-2.95h-.06c-1.57-.02-2.85,1.27-2.87,2.89v.42c-.21-.08-.4-.17-.6-.25v-.13s-5.33,.43-5.33,.43l-.55,13.12c-.15,.22-.3,.4-.46,.55,0-.32,0-.61,.02-.95,.27-10.64-2.46-13.06-4.3-13.36-1.55-.26-1.55,.83-1.55,.83l.08,18.98c.11,.4,.22,.8,.33,1.2,1.9,3.16,8.1,9.53,8.1,9.53v33.85s17.69,.06,17.69,.06l.04-33.02c.46-.92,3.89-6.44,3.91-7.47l.21-19.2c.02-1.6-1.08-2.9-2.46-2.92Z"/><polygon class="cls-16" points="233.68 188.35 215.97 188.23 215.97 161.92 233.68 162.04 233.68 188.35"/></g><g class="cls-49"><path class="cls-15" d="M222.71,146.79h-.06c-1.55-.03-2.78-1.32-2.74-2.87l.22-9.96c.03-1.55,1.32-2.78,2.87-2.74h.06c1.09,.03,1.34,1.28,3.65,1.58,.48,.06-.16,.89-.17,1.35l-.22,9.96c-.03,1.55-2.06,2.72-3.61,2.68Z"/><path class="cls-15" d="M216.67,145.22h-.06c-1.55-.04-2.78-1.32-2.74-2.87l.22-9.96c.03-1.55,1.32-2.78,2.87-2.74h.06c1.09,.02,1.34,1.28,3.65,1.58,.48,.06-.16,.89-.17,1.35l-.22,9.96c-.03,1.55-2.06,2.72-3.61,2.68Z"/><path class="cls-15" d="M229.06,148.66h-.06c-1.55-.04-2.78-1.32-2.74-2.87l.22-9.96c.03-1.55,1.32-2.78,2.87-2.74h.06c1.05,.02,2.14,.7,2.78,1.21l.52,.1-.34,11.97c-.03,1.55-1.75,2.33-3.3,2.3Z"/><path class="cls-15" d="M234.93,149.96h-.05c-1.45-.03-2.6-1.23-2.56-2.68l.2-9.3c.03-1.45,1.23-2.59,2.68-2.56h.05c1.45,.03,2.6,1.23,2.56,2.68l-.2,9.3c-.03,1.45-1.23,2.59-2.68,2.56Z"/></g><g><path class="cls-21" d="M222.44,143.38h-.06c-1.55-.08-2.74-1.4-2.66-2.95l.51-9.95c.08-1.55,1.4-2.74,2.95-2.66h.06c1.55,.08,2.74,1.4,2.66,2.95l-.51,9.95c-.08,1.55-1.4,2.74-2.95,2.66Z"/><path class="cls-21" d="M216.45,142.68h-.06c-1.59-.08-2.81-1.44-2.73-3.03l.52-10.22c.08-1.59,1.44-2.81,3.03-2.73h.06c1.59,.08,2.81,1.44,2.73,3.03l-.52,10.22c-.08,1.59-1.44,2.81-3.03,2.73Z"/><path class="cls-21" d="M228.74,145.43h-.06c-1.55-.08-2.74-1.4-2.66-2.95l.51-9.95c.08-1.55,1.4-2.74,2.95-2.66h.06c1.55,.08,2.74,1.4,2.66,2.95l-.51,9.95c-.08,1.55-1.4,2.74-2.95,2.66Z"/><path class="cls-21" d="M234.56,146.9h-.05c-1.45-.08-2.56-1.31-2.48-2.75l.47-9.29c.07-1.45,1.31-2.56,2.75-2.49h.05c1.45,.08,2.56,1.31,2.48,2.75l-.47,9.29c-.07,1.45-1.31,2.56-2.75,2.49Z"/></g></g><path class="cls-23" d="M234.38,169.23s2.86,.39,5.03,2.82v14.11s-3.33-2.63-5.03-2.47v-14.46Z"/><path class="cls-23" d="M215.57,169.23s-2.86,.39-5.03,2.82v14.11s3.33-2.63,5.03-2.47v-14.46Z"/><g><path class="cls-50" d="M234.38,176.47v7.22c1.7-.15,5.03,2.47,5.03,2.47v-6.88c-2.17-2.44-5.03-2.82-5.03-2.82Z"/><path class="cls-24" d="M234.38,176.47v7.22c1.7-.15,5.03,2.47,5.03,2.47v-6.88c-2.17-2.44-5.03-2.82-5.03-2.82Z"/><path class="cls-50" d="M215.57,176.47s-2.86,.39-5.03,2.82v6.88s3.33-2.63,5.03-2.47v-7.22Z"/><path class="cls-24" d="M215.57,176.47s-2.86,.39-5.03,2.82v6.88s3.33-2.63,5.03-2.47v-7.22Z"/></g><path class="cls-43" d="M214.2,187.06v-20.75c0-.77,.5-1.39,1.12-1.39h18.91c.62,0,1.12,.62,1.12,1.39v20.75c0,.77-.5,1.39-1.12,1.39h-18.91c-.62,0-1.12-.62-1.12-1.39Z"/><path class="cls-7" d="M216.75,184.26v-15.15c0-.77,.5-1.39,1.12-1.39h14.09c.62,0,1.12,.62,1.12,1.39v15.15c0,.77-.5,1.39-1.12,1.39h-14.09c-.62,0-1.12-.62-1.12-1.39Z"/><g><path d="M225.65,178.4h-1.45c-.08,0-.16-.05-.18-.13l-.15-.46c-.04-.12,.05-.25,.18-.25h1.76c.13,0,.23,.13,.18,.25l-.15,.46c-.03,.08-.1,.13-.18,.13Z"/><path d="M224.14,178.59v1.45c0,.08-.06,.16-.14,.18l-.46,.15c-.13,.04-.25-.05-.25-.18v-1.76c0-.13,.13-.22,.26-.18l.46,.16c.08,.03,.13,.1,.13,.18Z"/><path d="M225.68,178.59v1.45c0,.08,.06,.16,.14,.18l.46,.15c.13,.04,.25-.05,.25-.18v-1.76c0-.13-.13-.22-.26-.18l-.46,.16c-.08,.03-.13,.1-.13,.18Z"/><path d="M224.13,181.47v1.45c0,.08-.06,.16-.14,.18l-.46,.15c-.13,.04-.25-.05-.25-.18v-1.76c0-.13,.13-.22,.26-.18l.46,.16c.08,.03,.13,.1,.13,.18Z"/><path d="M225.67,181.47v1.45c0,.08,.06,.16,.14,.18l.46,.15c.13,.04,.25-.05,.25-.18v-1.76c0-.13-.13-.22-.26-.18l-.46,.16c-.08,.03-.13,.1-.13,.18Z"/><path d="M224.2,183.22h1.45c.08,0,.16,.05,.18,.13l.15,.46c.04,.13-.05,.26-.18,.26h-1.76c-.13,0-.23-.13-.18-.26l.15-.46c.03-.08,.1-.13,.18-.13Z"/><path d="M225.54,180.39h-1.22c-.06,0-.12,.03-.15,.08l-.15,.25s-.03,.1,0,.14l.15,.25c.03,.05,.09,.08,.15,.08h1.22c.06,0,.12-.03,.15-.08l.15-.25s.03-.1,0-.14l-.15-.25c-.03-.05-.09-.08-.15-.08Z"/><path d="M229.6,178.38h-1.46c-.08,0-.16-.06-.18-.14l-.15-.47c-.04-.13,.05-.26,.19-.25h1.77c.13,.01,.22,.14,.18,.27l-.16,.46c-.03,.08-.1,.13-.19,.13Z"/><path d="M228.08,178.59v1.57c-.01,.09-.07,.17-.15,.2l-.47,.16c-.13,.04-.26-.06-.25-.2v-1.91c.02-.14,.15-.24,.27-.2l.46,.17c.08,.03,.13,.11,.13,.2Z"/><path d="M229.63,178.6v1.57c0,.09,.05,.17,.13,.2l.47,.17c.13,.05,.26-.05,.26-.2v-1.91c0-.14-.12-.24-.25-.2l-.47,.17c-.08,.03-.13,.11-.13,.2Z"/><path d="M228.06,181.32v1.56c-.01,.09-.07,.17-.15,.2l-.47,.16c-.13,.04-.26-.06-.25-.2v-1.89c.02-.14,.15-.24,.27-.2l.46,.17c.08,.03,.13,.11,.13,.2Z"/><path d="M229.6,181.33v1.56c0,.09,.05,.17,.13,.2l.46,.17c.13,.05,.26-.05,.26-.2v-1.89c0-.14-.12-.24-.25-.2l-.47,.16c-.08,.03-.13,.11-.13,.2Z"/><path d="M228.11,183.21h1.46c.08,0,.16,.06,.18,.14l.15,.47c.04,.13-.05,.26-.19,.26h-1.77c-.13-.01-.23-.14-.18-.27l.16-.47c.03-.08,.1-.13,.19-.13Z"/></g><g><path d="M225.65,170.33h-1.45c-.08,0-.16-.05-.18-.13l-.15-.46c-.04-.13,.05-.26,.18-.26h1.76c.13,0,.23,.13,.18,.26l-.15,.46c-.03,.08-.1,.13-.18,.13Z"/><path d="M225.68,170.52v1.45c0,.08,.06,.16,.14,.18l.46,.15c.13,.04,.25-.05,.25-.18v-1.76c0-.13-.13-.22-.26-.18l-.46,.16c-.08,.03-.13,.1-.13,.18Z"/><path d="M224.13,173.4v1.45c0,.08-.06,.16-.14,.18l-.46,.15c-.13,.04-.25-.05-.25-.18v-1.76c0-.13,.13-.22,.26-.18l.46,.16c.08,.03,.13,.1,.13,.18Z"/><path d="M224.2,175.15h1.45c.08,0,.16,.05,.18,.13l.15,.46c.04,.12-.05,.25-.18,.25h-1.76c-.13,0-.23-.13-.18-.25l.15-.46c.03-.08,.1-.13,.18-.13Z"/><path d="M225.54,172.32h-1.22c-.06,0-.12,.03-.15,.08l-.15,.25s-.03,.1,0,.14l.15,.25c.03,.05,.09,.08,.15,.08h1.22c.06,0,.12-.03,.15-.08l.15-.25s.03-.1,0-.14l-.15-.25c-.03-.05-.09-.08-.15-.08Z"/><path d="M221.34,169.97v2.02c0,.12,.05,.22,.14,.26l.51,.22c.14,.06,.28-.07,.28-.26v-2.45c.01-.18-.13-.31-.27-.26l-.52,.21c-.09,.04-.15,.14-.15,.25Z"/><path d="M221.32,173.4v2.04c0,.12,.05,.22,.14,.26l.51,.22c.14,.06,.28-.07,.28-.26v-2.48c.01-.19-.13-.32-.27-.26l-.52,.22c-.09,.04-.15,.14-.15,.26Z"/><path d="M229.6,170.31h-1.46c-.08,0-.16-.06-.18-.14l-.15-.47c-.04-.13,.05-.26,.19-.26h1.77c.13,.01,.22,.14,.18,.27l-.16,.47c-.03,.08-.1,.13-.19,.13Z"/><path d="M228.08,170.52v1.57c-.01,.09-.07,.17-.15,.2l-.47,.16c-.13,.04-.26-.06-.25-.2v-1.91c.02-.14,.15-.24,.27-.2l.46,.17c.08,.03,.13,.11,.13,.2Z"/><path d="M229.63,170.53v1.57c0,.09,.05,.17,.13,.2l.47,.17c.13,.05,.26-.05,.26-.2v-1.91c0-.14-.12-.24-.25-.2l-.47,.17c-.08,.03-.13,.11-.13,.2Z"/><path d="M228.06,173.25v1.56c-.01,.09-.07,.17-.15,.2l-.47,.16c-.13,.04-.26-.06-.25-.2v-1.89c.02-.14,.15-.24,.27-.2l.46,.17c.08,.03,.13,.11,.13,.2Z"/><path d="M229.6,173.26v1.56c0,.09,.05,.17,.13,.2l.46,.17c.13,.05,.26-.05,.26-.2v-1.89c0-.14-.12-.24-.25-.2l-.47,.17c-.08,.03-.13,.11-.13,.2Z"/><path d="M228.11,175.14h1.46c.08,0,.16,.06,.18,.14l.15,.47c.04,.13-.05,.26-.19,.25h-1.77c-.13-.01-.23-.14-.18-.27l.16-.46c.03-.08,.1-.13,.19-.13Z"/></g></g></g><g><path class="cls-52" d="M256.88,161.13h0v-8.17c0-2.95-2.41-5.36-5.36-5.37h-3.7c-2.95,0-5.37,2.41-5.37,5.37v12.1h0v8.17c0,2.95,2.41,5.36,5.36,5.36h3.69c2.95,0,5.37-2.41,5.37-5.36v-8.17s0,0,0,0v-3.93Z"/><g><path class="cls-43" d="M247.21,146.99h3.7c2.96,0,5.36,2.4,5.36,5.36v20.27c0,2.96-2.4,5.37-5.37,5.37h-3.69c-2.96,0-5.37-2.4-5.37-5.37v-20.27c0-2.96,2.4-5.37,5.37-5.37Z"/><rect class="cls-41" x="241.84" y="160.52" width="14.43" height="3.93"/><rect class="cls-7" x="246.73" y="154.32" width="4.65" height="16.33"/><polygon class="cls-5" points="246.73 165.05 251.38 169.7 251.38 170.65 249.36 170.65 246.73 168.02 246.73 165.05"/><polygon class="cls-5" points="246.74 154.32 248.72 154.32 251.38 156.98 251.38 158.96 246.74 154.32"/><rect class="cls-29" x="247.74" y="162.1" width="2.64" height=".77"/><rect class="cls-29" x="248.67" y="161.16" width=".77" height="2.64"/><path class="cls-6" d="M241.84,152.35v10.13h14.42v-10.13c0-2.95-2.41-5.36-5.36-5.37h-3.7c-2.95,0-5.37,2.41-5.37,5.37Z"/></g></g></g></g></g><g><g><g><g><path class="cls-11" d="M124.61,192.47c.03,.25,.08,.55,.11,.8,0,.01,0,.03,0,.05-.05-.37-.09-.64-.12-.85Z"/><path class="cls-11" d="M124.61,192.47c-.07-.53-.12-.84,0,0h0Z"/><path class="cls-11" d="M124.78,193.75c0-.06-.02-.18-.05-.41,0,0,0,0,0-.01,.03,.2,.05,.35,.06,.42Z"/><path class="cls-11" d="M124.73,193.34s0-.01,0-.02h0s0,.01,0,.02Z"/><path class="cls-11" d="M124.73,193.33s0-.03,0-.05c0,.02,0,.03,0,.05h0Z"/><path class="cls-19" d="M121.34,230.93c-3.61,0-6.56-3.42-6.56-7.6v-41.48c-3.5,1.82-6.68,3.77-6.68,3.77v-20.65s4.82-7.1,6.68-13.02v-7.56c-.55-2.63-1.69-5.22-3.69-6.75-.69-.53-1.4-.46-2.08,.02,1.25,.93,2.84,3.2,2.84,3.2,0,0-2.93,5.1-3.77,5.94-.84,.84-2.3,0-2.3,0l-1.43-.66c-.76,2.1-.57,1.7-.76,2.1-2.77,5.74-8.39,4.99-8.8,11.24-.51,7.85-8.87,21.06-6.86,27.85,1.86,6.31,.48,13.17,.41,19.67-.02,1.76-1.37,4.31-1.34,5.58-3.13,3.52-20.47,14.37-20.47,14.37l20.23,32.05s20.41-15.56,30.18-17.47c14.84-2.91,18.51-7.36,22.23-10.6h-17.83Z"/><path class="cls-24" d="M108.08,146.8c.84-.84,3.77-5.94,3.77-5.94,0,0,.28-6.13-2.84-3.2-1.8,1.25-3.49,5.28-4.66,8.48l1.43,.66s1.46,.84,2.3,0Z"/></g><g><path class="cls-11" d="M168.08,205.65c-.44,0-.82,.09-1.18,.21v10.75c.36,.12,.74,.21,1.18,.21,2.75,0,6.24-2.5,6.24-5.58s-3.48-5.58-6.24-5.58Z"/><path class="cls-11" d="M168.5,191.82c-.63,0-1.15,.16-1.6,.43v11.91c.45,.27,.97,.43,1.6,.43,2.75,0,6.23-2.86,6.23-6.39s-3.48-6.39-6.23-6.39Z"/><path class="cls-18" d="M172.53,154.8c-1.78-.35-3.91-.04-5.63,.72v12.62c4.86,.14,8.04-4.74,9.29-8.98,1.02-3.44-3.66-4.36-3.66-4.36Z"/><path class="cls-18" d="M173.9,178.42c-2.37-2.5-6.08-.68-7-.16v13.31c.6-.27,1.26-.56,2.02-.9,6.94-3.08,10-6.94,4.98-12.25Z"/></g><g><g><path class="cls-39" d="M166.9,223.33c0,4.18-2.95,7.6-6.55,7.6h-39.01c-3.61,0-6.56-3.42-6.56-7.6v-80.11c0-4.18,2.95-7.6,6.56-7.6h39.01c3.61,0,6.55,3.42,6.55,7.6v80.11Z"/><path class="cls-8" d="M160.34,135.62h-23.11l3.06,9.84h22.3v37.45l4.31,13.84v-53.53c0-4.18-2.95-7.6-6.55-7.6Z"/><rect class="cls-7" x="119.09" y="145.46" width="43.5" height="75.63"/></g><path d="M147.58,140.84h-12.14c-.75,0-1.36-.68-1.36-1.52s.61-1.52,1.36-1.52h12.14c.75,0,1.36,.68,1.36,1.52s-.61,1.52-1.36,1.52Zm-12.14-2.39c-.39,0-.71,.39-.71,.87s.32,.87,.71,.87h12.14c.39,0,.71-.39,.71-.87s-.32-.87-.71-.87h-12.14Z"/></g></g><g><path class="cls-47" d="M0,261.16v38.84H45.23s43.41-16.47,46.3-29.94c3-13.98-17.08-45.02-31.05-48.01-17.61-3.78-60.48,39.12-60.48,39.12Z"/><rect class="cls-47" x="74.22" y="217.9" width="22.31" height="44.18" transform="translate(-116.65 84.84) rotate(-32.89)"/></g></g><g><g><g><path class="cls-18" d="M183.13,245.13c-2.81-6.28-5.62-12.57-8.43-18.85-2.62-5.87-5.08-11.75-7.42-17.69l-.03-.05s4.03,25.06,4.57,27.87c1.36,6.96,8.6,12.29,13.25,16.97,.89,.9,14.02,13.25,14.02,13.25h0c-.87-.92-1.78-1.98-2.82-3.27-4.63-5.74-10.08-11.4-13.14-18.24Z"/><path class="cls-19" d="M244.89,250.68c-5.99-6.58-.77-21.22-4.53-29.12-2.73-5.75-7.43-21.36-14.43-22.91-3.27-.72-5.35,1.19-8.29-1.77-3.3-3.33-5.51,.3-8.82-.64-3.18-.9-4.42-5.76-8.39-2.67-2.39,1.12-3.93,3.22-6.87,1.42-2.54-1.56-4.51-4.05-7.7-1.75-1.98,.81-3.06,2.84-5.57,1.72-2.27-1.01-3.53-4.99-4.57-7.03-4.24-8.29-8.48-16.57-12.72-24.86-1.21-2.35-2.58-6.43-4.85-7.64-7.64-4.09-6.68,9.18-5.42,12.77,2.8,7.95,5.59,15.9,8.39,23.85,1.96,5.58,4.01,11.08,6.16,16.53,2.34,5.93,4.8,11.81,7.42,17.69,2.81,6.28,5.62,12.57,8.43,18.85,3.06,6.84,8.51,12.5,13.14,18.24,1.04,1.28,1.95,2.34,2.82,3.26,2.69,2.85,4.98,4.35,9.22,6.97,5.08,3.13,14.11,14.62,14.11,14.62l33.45-19.88s-8.6-15.04-10.99-17.66Z"/></g><path class="cls-24" d="M153.62,156.53s.69,4.67,2.62,5.66c2.96,1.51,5.64-1.12,5.62-1.54-1.01-2.13-2.05-4.13-3.59-5.51-.98-.88-5.33-4.31-4.65,1.39Z"/></g><path class="cls-47" d="M275.51,279.93s-6.18-14.63-10.82-15.44c-14.08-2.48-44.35,18.74-46.83,32.82-.14,.81,1.89,2.69,1.89,2.69h55.76v-20.07Z"/><rect class="cls-47" x="212.78" y="260.61" width="44.18" height="22.31" transform="translate(-113.43 183.99) rotate(-35.02)"/></g><rect class="cls-26" x="136.1" y="191.51" width="16.01" height="1.76"/><rect class="cls-26" x="136.1" y="195.02" width="16.01" height="1.76"/><rect class="cls-26" x="128.65" y="198.53" width="23.47" height="1.76"/><rect class="cls-26" x="128.65" y="202.04" width="23.47" height="1.76"/><rect class="cls-47" x="128.65" y="191.51" width="5.27" height="5.27"/><g><path class="cls-42" d="M136.73,164.92v-1.76c0-.48,.39-.86,.86-.86h5.42c.48,0,.86,.39,.86,.86v1.76h1.42v-3.13c0-.48-.39-.86-.86-.86h-8.26c-.48,0-.86,.39-.86,.86v3.13h1.42Z"/><rect class="cls-24" x="127.25" y="164.55" width="26.12" height="16.61" rx="1.21" ry="1.21"/><polygon class="cls-7" points="144.99 171.25 141.91 171.25 141.91 168.16 138.7 168.16 138.7 171.25 135.62 171.25 135.62 174.46 138.7 174.46 138.7 177.54 141.91 177.54 141.91 174.46 144.99 174.46 144.99 171.25"/></g></g></g></g></g></svg>