<?xml version="1.0" encoding="UTF-8"?><svg id="Camada_1" xmlns="http://www.w3.org/2000/svg" xmlns:xlink="http://www.w3.org/1999/xlink" viewBox="0 0 225 273"><defs><style>.cls-1{fill:none;}.cls-2{clip-path:url(#clippath);}.cls-3{fill:#f49c5a;}.cls-4{fill:#f8bc95;}.cls-5{fill:#f28f38;}.cls-6{fill:#f2904f;}.cls-7{fill:#f1c29d;}.cls-8{fill:#e9f3fb;}.cls-9{fill:#f6aa78;}.cls-10{fill:#f6cdac;}.cls-11{fill:#fff;}.cls-12{fill:#f39253;}.cls-13{fill:#ee7610;}.cls-14{fill:#f18539;}.cls-15{fill:#eff6fd;}.cls-16{fill:#fddcbb;}.cls-17{fill:#9bbee6;}.cls-18{fill:#b5d3f0;}.cls-19{fill:#b83d38;}.cls-20{fill:#9a2928;}.cls-21{fill:#92b1dd;}.cls-22{fill:#adcbec;}.cls-23{fill:#dceaf9;}.cls-24{fill:#cadff5;}.cls-25{fill:#deebf9;}.cls-26{fill:#203865;}.cls-27{fill:#20315d;}.cls-28{fill:#202d4f;}.cls-29{fill:#1a3760;}.cls-30{fill:#1b2948;}.cls-31{fill:#a1d5d5;}.cls-32{fill:#2a3a67;}.cls-33{fill:#2d3555;}.cls-34{fill:#264791;}.cls-35{fill:#71a1d6;}</style><clipPath id="clippath"><rect class="cls-1" width="225" height="273"/></clipPath></defs><g class="cls-2"><g><path class="cls-8" d="M-185.73,268.72c-1.91,0-5.16-23.21-5.48-25.1-9.44-56.02-9.35-117.41,13.47-170.33C-162.26,37.41-134.92,8.81-102.19-12.12-66-35.26-24.26-45.15,18.29-47.06c48.97-2.19,97.57,4.74,146.4,6.82,50.02,2.13,99.5-5.39,148.35-15.42,43.48-8.93,86.69-19.33,130.62-25.9,42.92-6.64,87.64-10.86,131.07-7.53,35.43,2.72,69.38,12.78,99.34,32.09,27.68,17.84,50.76,42.31,79.97,57.84,16.17,8.6,33.78,13.86,51.98,15.85,17.39,1.9,34.59,.84,51.74,5,26.88,6.53,50.69,21.82,68.14,43.24,33.96,41.7,43.91,101.63,32.07,153.35-4.09,17.87-11,35.29-21.45,50.43H-185.73Z"/><path class="cls-23" d="M125.62-43.23V268.72H-222.4s-49.21-160.98,49.21-247.97C-84.9-57.3,13.1-50.74,125.62-43.23Z"/><g><rect class="cls-17" x="20.47" y="17.73" width="40.96" height="39.74" rx="7.23" ry="7.23"/><rect class="cls-15" x="22.25" y="19.45" width="37.41" height="36.3" rx="6.61" ry="6.61"/><g><g><path class="cls-17" d="M40.1,23.08c0-.47,.38-.85,.85-.85s.85,.38,.85,.85-.38,.85-.85,.85-.85-.38-.85-.85Z"/><path class="cls-17" d="M46.95,24.28c.23-.41,.74-.56,1.15-.33,.41,.23,.56,.74,.33,1.15-.23,.41-.74,.56-1.15,.33-.41-.23-.56-.74-.33-1.15Z"/><path class="cls-17" d="M52.82,28.94c.39-.25,.92-.14,1.17,.25,.25,.39,.14,.92-.25,1.17-.39,.25-.92,.14-1.17-.25-.25-.39-.14-.92,.25-1.17Z"/><path class="cls-17" d="M55.72,36.15c.47,0,.85,.38,.85,.85s-.38,.85-.85,.85-.85-.38-.85-.85,.38-.85,.85-.85Z"/><path class="cls-17" d="M54.24,44.52c.33,.33,.33,.87,0,1.2-.33,.33-.87,.33-1.2,0-.33-.33-.33-.87,0-1.2,.33-.33,.87-.33,1.2,0Z"/><path class="cls-17" d="M48.91,49.87c.33,.33,.33,.87,0,1.2-.33,.33-.87,.33-1.2,0-.33-.33-.33-.87,0-1.2,.33-.33,.87-.33,1.2,0Z"/><path class="cls-17" d="M40.1,52.62c0-.47,.38-.85,.85-.85s.85,.38,.85,.85-.38,.85-.85,.85-.85-.38-.85-.85Z"/></g><g><path class="cls-17" d="M34.93,24.28c-.23-.41-.74-.56-1.15-.33-.41,.23-.56,.74-.33,1.15,.23,.41,.74,.56,1.15,.33,.41-.23,.56-.74,.33-1.15Z"/><path class="cls-17" d="M29.06,28.94c-.39-.25-.92-.14-1.17,.25-.25,.39-.14,.92,.25,1.17,.39,.25,.92,.14,1.17-.25,.25-.39,.14-.92-.25-1.17Z"/><path class="cls-17" d="M26.16,36.15c-.47,0-.85,.38-.85,.85s.38,.85,.85,.85,.85-.38,.85-.85-.38-.85-.85-.85Z"/><path class="cls-17" d="M27.64,44.52c-.33,.33-.33,.87,0,1.2,.33,.33,.87,.33,1.2,0,.33-.33,.33-.87,0-1.2-.33-.33-.87-.33-1.2,0Z"/><path class="cls-17" d="M32.97,49.87c-.33,.33-.33,.87,0,1.2,.33,.33,.87,.33,1.2,0,.33-.33,.33-.87,0-1.2-.33-.33-.87-.33-1.2,0Z"/></g></g><g><path class="cls-17" d="M40.72,37c0-.47,.38-.85,.85-.85s.85,.38,.85,.85-.38,.85-.85,.85-.85-.38-.85-.85Z"/><rect class="cls-17" x="41.46" y="26.4" width=".23" height="10.6"/><rect class="cls-17" x="40.7" y="34.43" width="7.14" height=".7" transform="translate(-12.03 34.78) rotate(-38.15)"/></g></g><g><g><g><path class="cls-13" d="M59.07,251.13h.09c.73-.02,1.3-.62,1.23-1.31l-4.9-48.92-4.27,.38,7.03,49.18c.05,.38,.41,.67,.82,.66Z"/><path class="cls-13" d="M11.91,251.13h-.09c-.73-.02-1.3-.62-1.23-1.31l4.9-48.92,4.27,.38-7.03,49.18c-.05,.38-.41,.67-.82,.66Z"/><path class="cls-13" d="M93.63,251.13h.09c.73-.02,1.3-.62,1.23-1.31l-4.9-48.92-4.27,.38,7.03,49.18c.05,.38,.41,.67,.82,.66Z"/><path class="cls-13" d="M13.37,193.79l-8.69-42.94c-1.12-5.81,3.7-11.13,9.96-10.99l16.77,.38c5.78,.13,10.81,4,12.42,9.56l12.72,43.98H13.37Z"/><path class="cls-13" d="M18.63,193.79l-8.69-42.94c-1.12-5.81,3.7-11.13,9.96-10.99l16.77,.38c5.78,.13,10.81,4,12.42,9.56l12.72,43.98H18.63Z"/><path class="cls-13" d="M17.28,193.79h63.36c2.16,0,3.92,1.75,3.92,3.92v3.92H17.28c-2.16,0-3.92-1.75-3.92-3.92h0c0-2.16,1.75-3.92,3.92-3.92Z" transform="translate(97.92 395.42) rotate(-180)"/><rect class="cls-13" x="44.97" y="193.79" width="46.2" height="7.83" rx="3.92" ry="3.92" transform="translate(136.13 395.42) rotate(-180)"/></g><g><path class="cls-31" d="M50.99,149.68l7.05,17.83s6.79,8,12.25,5.42l-17.27-33.53-2.03,10.28Z"/><path class="cls-9" d="M98.87,247.65c-.2,1.97,2.54,2.48,5.72,2.67,3.18,.19,2.21,.83,6.56,1.67,4.35,.84,6.11-.34,6.43-.92,.29-.52-1.73-1.36-3.88-2.3-.27-.12-.54-.24-.81-.36-2.42-1.09-3.76-3.29-5.63-5.33-1.77-1.93-3.41-8.08-3.41-8.08l-5.91-1.33s1.6,5.53,2.16,7.89c.32,1.39-.19,2.93-.65,4.11-.25,.64-.5,1.29-.57,1.99Z"/><path class="cls-30" d="M104.58,250.32c3.18,.19,2.21,.83,6.56,1.67,4.35,.84,6.11-.34,6.43-.92,.29-.52-1.73-1.36-3.88-2.3l-.03,.04s-3.08,1.01-6.6,0c-2.87-.81-5.64-2.57-7.62-3.14-.25,.64-.5,1.29-.57,1.99-.2,1.97,2.54,2.48,5.72,2.67Z"/><path class="cls-20" d="M89.92,179.19c-3.18-2.23-23.81-12.03-34.54-13.18l-12.27-4.48s-10.1,14.96-10.18,26.4c-.04,5.34,2.42,5.87,2.42,5.87,0,0,38.03,.28,39.7,.45,2.73,.28,6.33,7.08,7.23,13.27,.9,6.19,16.76,31.37,16.76,31.37,0,0,3.31,1.06,4.84,.97,1.64-.1,2.41-.65,2.41-.65,0,0-9.19-54.99-16.36-60.02Z"/><path class="cls-9" d="M89.03,247.65c-.2,1.97,2.54,2.48,5.72,2.67,3.18,.19,2.21,.83,6.56,1.67,4.35,.84,6.11-.34,6.43-.92,.29-.52-1.73-1.36-3.88-2.3-.27-.12-.54-.24-.81-.36-2.42-1.09-3.76-3.29-5.63-5.33-1.77-1.93-3.41-8.08-3.41-8.08l-5.91-1.33s1.6,5.53,2.16,7.89c.32,1.39-.19,2.93-.65,4.11-.25,.64-.5,1.29-.57,1.99Z"/><path class="cls-26" d="M94.75,250.32c3.18,.19,2.21,.83,6.56,1.67,4.35,.84,6.11-.34,6.43-.92,.29-.52-1.73-1.36-3.88-2.3l-.03,.04s-3.08,1.01-6.6,0c-2.87-.81-5.64-2.57-7.62-3.14-.25,.64-.5,1.29-.57,1.99-.2,1.97,2.54,2.48,5.72,2.67Z"/><path class="cls-19" d="M79.99,179.19c-2.76-1.94-9.71-2.82-19.81-6.11-2.43-.79-11.8-5.31-12.42-7.79l4.62-2.13-19.2-1.63s-4.86,9.41-4.94,20.86c-.04,5.34,4.68,11.41,4.68,11.41,0,0,30.53,.28,32.19,.45,2.73,.28,6.33,7.08,7.23,13.27,.9,6.19,16.76,31.37,16.76,31.37,0,0,3.31,1.06,4.84,.97,1.64-.1,2.41-.65,2.41-.65,0,0-9.19-54.99-16.36-60.02Z"/><path class="cls-26" d="M51.45,99.39c-2.93-1.54-7.39-1.75-8.12-1.85-8.67-1.17-13.89,11.43-14.2,15.25-.57,7.04-4.29,8.11-9.53,12.52-10.51,8.84-7.43,19.1-1.68,22.92,3.45,2.29,9.52,0,9.52,0,.09,.06,16.62-9.24,24.76-13.73,12.22-1.74,6.7-31.19-.77-35.12Z"/><path class="cls-9" d="M49.64,130.17s-3.85,1.79-6.66,.86c-2.64-.87-4.97-4.85-4.93-4.85,1.15-.17,2.31-1.3,2.64-8l.51,.13,8.54,2.16s-.34,2.7-.48,5.26c-.12,2.15-.09,4.19,.39,4.45Z"/><path class="cls-12" d="M49.73,120.46s0,.56-.32,3.07c-4.83-1.22-6.96-2.82-8.46-4.65l8.78,1.58Z"/><path class="cls-9" d="M51.55,120.8s-11.29,1.84-12.33-5.21c-1.04-7.05-3.19-11.56,3.97-13.03,7.17-1.47,8.96,1.01,9.88,3.28,.92,2.27,1.38,14.3-1.53,14.96Z"/><path class="cls-26" d="M51.56,102.27s-5.13,8.09-9.7,10.01c-4.58,1.92-6.83,.94-6.83,.94,0,0,2.08-3.16,2.62-7.4,.16-1.25,.97-2.32,2.14-2.79,3.28-1.32,9.64-3.39,11.76-.77Z"/><path class="cls-26" d="M47.06,103.05s3.01,1.54,4.24,2.98c1.19,1.39,2.57,5.17,2.48,6.87,0,0,1.48-8.14-1.61-10.94-3.27-2.97-5.11,1.08-5.11,1.08Z"/><path class="cls-11" d="M58.67,147.39c-.34,22.95,8.12,16.53,5.61,18.71-.6,.52-3.08,4.43-12.42,4.89-7.04,.35-19.74-2.97-20.22-4.27-1.62-4.5-.48-5.9-1.83-12.79-.14-.73-.32-1.53-.52-2.39-1.13-4.73-2.23-6.34,1.78-13.94,3.63-6.89,7.91-12.48,8.24-12.28,9.59,5.69,9.91,.92,9.91,.92,0,0,9.61,9.96,9.44,21.16Z"/><path class="cls-22" d="M49.23,126.24s9.81,1.66,10.97,5.91c1.16,4.25,12.48,36.38,12.48,36.38,0,0-12.07,.33-14.39-1.99s-5.51-28.09-5.51-28.09l-3.55-12.21Z"/><path class="cls-9" d="M51.86,165.24s1.45,1.88,1.93,2.1c.48,.22,.78,.17,.78,.17l-.98-1.76-1.74-.5Z"/><path class="cls-9" d="M51.53,163.3l4.23,2.05s-.18,.29-.7,.27c-.52-.02-1.83-.5-1.83-.5l-1.69-1.82Z"/><path class="cls-21" d="M49.32,124.74l-.09,1.5c1.11,3.83,3,15.68,5.35,24.85l1.64-13.12-1.35-1.1,.51-1.86-4.42-8.39-1.64-1.87Z"/><path class="cls-22" d="M43.89,187.45c-15.13,5.06-21.78,1.96-21.78,1.96l2.47-14.63,1.35-7.98,2.9-17.12,4.94-16.28,4.33-2.62,3.77,18.9,.99,18.59,.05,.89,.97,18.29Z"/><path class="cls-21" d="M30.98,151.46c-.25,.4-.26,8.18,7.06,10.08,7.33,1.9-10.73,3.76-10.73,3.76,0,0-5.82-4.47-5.74-5.57,.08-1.1,9.41-8.27,9.41-8.27Z"/><path class="cls-21" d="M42.91,169.16c-3.11,1.58-10.81,5.12-18.33,5.62l1.35-7.98,16.93,1.46,.05,.89Z"/><path class="cls-9" d="M43.46,164.23s6.94-1.55,8.06-.93c1.12,.62,3.86,2.86,4.2,3.64,.34,.78-2.49-.59-3.42-.84-.6-.16-2.17,.39-2.95,.65-3.28,1.09-5.28,.53-5.28,.53l-.61-3.05Z"/><path class="cls-22" d="M39.32,125.32s-9.83,.57-13.05,5.08c-4.54,6.34-13.56,33.34-8.39,36.94,5.82,4.06,26.47,1.06,26.47,1.06,0,0,.69-3.21-.27-4.77-.96-1.55-16.5-4.06-17.22-4.78-.72-.72,8.97-13.99,8.97-16.14s3.49-17.39,3.49-17.39Z"/><path class="cls-21" d="M39.88,124.05l1.99,25.63-4.56-9.81,.78-1.75s-1.67-2.87-1.67-3.21,.47-9.32,.47-9.32l2.98-1.54Z"/></g></g><rect class="cls-26" x="51.33" y="166.54" width="13.08" height=".85"/><g><polygon class="cls-27" points="105.17 160.82 65.33 160.82 72.57 134.05 112.4 134.05 105.17 160.82"/><polygon class="cls-34" points="106.42 160.82 66.59 160.82 73.83 134.05 113.66 134.05 106.42 160.82"/><polygon class="cls-27" points="89.46 167.31 81.1 167.39 86.89 149.77 95.24 149.69 89.46 167.31"/><rect class="cls-27" x="75.95" y="166.55" width="18.24" height=".84"/></g></g><g><rect class="cls-3" x="-82.86" y="172.84" width="225.13" height="96.23"/><rect class="cls-11" x="-90.1" y="167.4" width="239.61" height="7.87"/><rect class="cls-11" x="-82.86" y="236.5" width="225.13" height="15.54"/></g><g><path class="cls-17" d="M165.65,109.66c-2.45,0-4.44,1.99-4.44,4.44v31.69c0,3.64,2.29,6.74,5.51,7.94,1.85,.69,3.12,2.43,3.28,4.4h13.64s.59-3.05,3.09-3.87h0c3.33-1.38,6.15-3.46,5.69-8.41v-31.51c0-2.58-2.09-4.67-4.67-4.67h-22.1Z"/><path class="cls-35" d="M162.09,132.49h29.26c.83,0,1.5,.67,1.5,1.5v1.67c0,.83-.67,1.5-1.5,1.5h-29.26c-.83,0-1.5-.67-1.5-1.5v-1.67c0-.83,.67-1.5,1.5-1.5Z"/><path class="cls-35" d="M162.09,142.39h29.26c.83,0,1.5,.67,1.5,1.5v1.67c0,.83-.67,1.5-1.5,1.5h-29.26c-.83,0-1.5-.67-1.5-1.5v-1.67c0-.83,.67-1.5,1.5-1.5Z"/><path class="cls-18" d="M186.21,159.28h-19.27l.57-1.9c.15-.48,.59-.82,1.1-.82h15.82c.48,0,.92,.3,1.08,.76l.7,1.95Z"/><path class="cls-24" d="M164.33,159.28h25.76c3.68,0,6.66,2.98,6.66,6.66v94.55c0,3.68-2.98,6.66-6.66,6.66h-25.76c-3.68,0-6.66-2.98-6.66-6.66v-94.55c0-3.68,2.98-6.66,6.66-6.66Z"/><rect class="cls-18" x="164.25" y="175.97" width="26.05" height="35.55"/><rect class="cls-17" x="164.25" y="175.97" width="26.05" height="8"/><g><rect class="cls-25" x="180.35" y="186.9" width="3.42" height="7.32"/><rect class="cls-35" x="180.35" y="186.9" width="3.42" height="1.95"/></g><g><rect class="cls-25" x="170.51" y="186.9" width="3.42" height="7.32"/><rect class="cls-5" x="170.51" y="186.9" width="3.42" height="1.95"/></g><path class="cls-25" d="M171.21,194.27l.34,1.68c.03,.14,.15,.24,.29,.24h.6c.14,0,.26-.1,.29-.24l.35-1.68c.04-.18-.1-.36-.29-.36h-1.29c-.19,0-.33,.17-.29,.36Z"/><path class="cls-25" d="M181.12,194.27l.34,1.68c.03,.14,.15,.24,.29,.24h.6c.14,0,.26-.1,.29-.24l.35-1.68c.04-.18-.1-.36-.29-.36h-1.29c-.19,0-.33,.17-.29,.36Z"/><rect class="cls-17" x="166.42" y="210.64" width="21.37" height=".88"/><path class="cls-17" d="M188.77,226.24h-22.99c-.96,0-1.73-.78-1.73-1.73v-7.79c0-.96,.78-1.73,1.73-1.73h22.99c.96,0,1.73,.78,1.73,1.73v7.79c0,.96-.78,1.73-1.73,1.73Zm-22.99-10.85c-.73,0-1.33,.6-1.33,1.33v7.79c0,.73,.6,1.33,1.33,1.33h22.99c.73,0,1.33-.59,1.33-1.33v-7.79c0-.73-.6-1.33-1.33-1.33h-22.99Z"/><rect class="cls-26" x="162.69" y="267.15" width="2.51" height="1.29"/><rect class="cls-26" x="189.83" y="267.15" width="2.51" height="1.29"/></g><rect class="cls-33" x="-239.02" y="268.72" width="1195.76" height="4.4" rx="2.2" ry="2.2"/></g><g><g><path class="cls-9" d="M107.73,162.75c-.23,.18-4.34-.35-5.66,.49-1.32,.83-2.59,3.15-2,3.97,.59,.83,3.4-1.65,4.23-1.61,.83,.04,3.2-.69,3.2-.69l.23-2.16Z"/><path class="cls-16" d="M106.48,162.43s-.43,.75-.42,1.4c.01,1.1,.42,1.62,.42,1.62,0,0,4.97,.4,10.31-.37,2.97-.43,6.06-1.22,8.48-2.64,3.28-1.93,6.34-8.81,8.61-15.37,2.41-6.96,3.94-13.57,3.94-13.57-1.12-2.71-4.08-4.34-6.57-3.94-1.36,.22-4.57,1.27-5.29,2.22-1.11,1.46-4.25,14.78-6.71,21.08-.54,1.38-12.77,9.57-12.77,9.57Z"/><path class="cls-7" d="M116.79,165.07c2.97-.43,6.06-1.22,8.48-2.64,3.28-1.93,6.34-8.81,8.61-15.37,.04-4.74,.04-8.65,.04-8.65l-5.38,2.23c-.17,.33-1.9,16.6-5.78,19.91-3.3,2.81-5.4,4.18-5.96,4.53Z"/><path class="cls-29" d="M145.33,100.54c-3.2-1.66-5.76-.62-5.76-.62-9.79-1.15-12.64,10.26-12.51,14.19,.13,3.93,.58,8.14-3.79,13.25-12.62,14.74,13.81,15.39,13.81,15.39,.22-11.77,14.34-7.48,13.72-6.28,18.09,4.34,1.8-32.15-5.47-35.92Z"/><path class="cls-26" d="M168.69,255.27s2.96,2.7,2.38,4.62c-.58,1.92-3.25,3.2-3.61,5.55s-1.81,3.63-3.11,3.63h-6.2s-.96-1.65,1.35-2.15c2.31-.5,3.18-3.26,3.04-5.82-.14-2.56,.22-5.98,.22-5.98l4.91-1.14,1.01,1.28Z"/><path class="cls-26" d="M143.61,256.42s1.06,11.59-.24,12.23h-16.79s.15-2.09,2.82-2.52c2.67-.43,7.37-1.99,8.16-5.48,.79-3.49,6.04-4.23,6.04-4.23Z"/><path class="cls-9" d="M155.48,174.25c-3.43-7.68-5.52-9.89-5.12-12.27,.3-1.77-.91-33.08-.91-33.08-.41-.13-1.22-.24-1.67-.34-1.4-.31-2.57-1.3-3.05-2.65-.58-1.63-1.05-4.04-1.04-7.06l-.44,.09-7.38,1.46s.17,2.32,.17,4.51c0,.02,0,.04,0,.05,0,1.9-1.24,3.58-3.06,4.1-.93,.27-1.74,.5-1.74,.5,0,0-2.71,7.73-3.23,15.68-.52,7.95,4.93,11.4-.04,27.27-5.07,16.22,29.39,5.99,27.5,1.75Z"/><path class="cls-6" d="M135.88,120.39s.17,2.32,.17,4.51c4.13-.12,6.31-3.88,7.2-5.97l-7.38,1.46Z"/><path class="cls-9" d="M134.5,122.46s9.77,.16,9.77-5.92c0-6.08,1.27-10.16-4.96-10.52-6.24-.36-7.45,1.96-7.95,3.99-.5,2.03,.6,12.26,3.14,12.45Z"/><path class="cls-29" d="M134.86,105.86s2.67,7.14,6.78,8.19c4.1,1.06,5.88-.04,5.88-.04,0,0-3.15-2.5-3.8-6.87,0,0-6.84-4.68-8.86-1.28Z"/><path class="cls-29" d="M135.52,106.44s-1.98,.74-2.8,2.19c-.8,1.41-1.48,3.29-1.32,5.59,0,0-2.01-4.85,.25-7.6,2.4-2.91,3.87-.18,3.87-.18Z"/><path class="cls-8" d="M136.62,118.68s-.67,.89-2.02,.82c-1.09-.05-1.5-.99-1.5-.99,0,0,1.99-.48,3.53,.17Z"/><path class="cls-16" d="M129.41,160.56l9.69,2.89,3.07-.75,8.74-2.14s1.13-.38,2.13-2.69c.19-.44,.53-1.77,.89-3.34,.39-1.75,.8-3.8,1.04-5.25,.34-2.13,1.02-4.78,1.61-7.64h0c.43-2.09,.82-4.29,.99-6.48,.23-2.96-1.92-5.57-4.88-5.9l-3.24-.36c-10.29,8.4-18.2,.66-18.2,.66,0,0-2.71,4.82-4.48,11.75-1.77,6.93,2.64,19.25,2.64,19.25Z"/><path class="cls-14" d="M130.02,162.43s-4.8,14.94-5.11,20.02c-.31,5.09,9.17,72.24,9.55,74.59,.36,2.21,3.1,3.62,3.1,3.62,0,0,1.26,.74,3.06,.24,2.5-.71,3.29-1.55,3.29-1.55,0,0,3.74-47.9,1.42-65.01-2.31-17.11-2.34-31.91-2.34-31.91h-12.98Z"/><path class="cls-3" d="M150.36,161.98s7.32,9.82,8,16.46c.68,6.64,1.07,29.96,2.52,36.43,1.45,6.47,6.8,18.93,6.8,39.12,0,0-.56,1.16-2.27,1.77-.55,.2-1.28,.39-2,.55-1.41,.32-2.86-.37-3.51-1.67-3.61-7.27-15.11-30.72-15.7-35.59-.42-3.44-4.05-26.25-11.97-39.62-1.9-3.21,1.17-15.99,1.17-15.99l16.96-1.47Z"/><path class="cls-11" d="M136.41,118.85s-.17,.72-1.95,.61c0,0-1.5-.09-1.45-.88,0,0,1.45-.56,3.4,.27Z"/><path class="cls-26" d="M129.26,160.12s1.93,1.52,5.75,1.6c4.57,.09,15.9-1.17,15.9-1.17,0,0,.5,1.41,.48,2.89,0,0-13.83,3.49-21.85,.51,0,0-1.03-1.95-.28-3.84Z"/><path class="cls-11" d="M133.91,165.66c-1.15,0-2.09-1.06-2.09-2.36s.94-2.36,2.09-2.36,2.09,1.06,2.09,2.36-.94,2.36-2.09,2.36Zm0-4.03c-.77,0-1.39,.75-1.39,1.67s.63,1.67,1.39,1.67,1.39-.75,1.39-1.67-.63-1.67-1.39-1.67Z"/><path class="cls-7" d="M145.7,160.12c3.74-1.91,6.38-3.8,8.23-5.6,.39-1.75,.8-3.8,1.04-5.25,.34-2.13,1.52-7.4,2.11-10.26l-15.56,22.42s-.7,1.19,4.19-1.31Z"/><path class="cls-7" d="M140.19,145.18s-6.92,10.99-8.93,12.96c-2.01,1.98,8.19-1.57,8.19-1.57l.74-11.39Z"/></g><g><path class="cls-9" d="M115.93,234.34c.14,1.25,.02,3.16-.26,5.4-1.11,8.89-4.73,23.08-4.73,23.08l-4.54,.55c.33-2.51-.61-12.12-1.87-22.77-1.89-16.07-4.49-34.5-4.49-34.5,0,0,9.87-8.16,15.69-5.91,5.82,2.26-.49,27.92,.19,34.15Z"/><path class="cls-10" d="M115.66,239.74c-1.11,8.89-4.73,23.08-4.73,23.08l-4.54,.55c.33-2.51-.61-12.12-1.87-22.77,1.61,.28,5.99,.85,9.66-.53,.56-.21,1.05-.31,1.47-.33Z"/><path class="cls-32" d="M111.51,140.13s-2.39-1.15-5.07,0c-2.68,1.15-4.64,6.03-3.44,10.6,1.2,4.56-2.86,4.64-.98,8.3,.67,1.3,9.49,2.4,9.79-2.65,.19-3.13-2.65-3.29-1.82-6.69,.83-3.4,1.52-9.56,1.52-9.56Z"/><path class="cls-4" d="M124.18,233.37c.27,1.54,.19,4.11-.06,7.11-.77,9.06-3.23,22.01-3.23,22.01l-4.49,1.04c.17-2.48-1.29-11.8-3.14-22.23-2.87-16.22-6.67-35.13-6.67-35.13,0,0,9.35-8.76,15.3-6.86,5.94,1.89,1.23,27.9,2.3,34.07Z"/><path class="cls-28" d="M106.45,262.48s-1.08,1.98-3.13,2.44c-1.29,.29-2.4,.97-3.08,1.92-.58,.8,0,1.92,.98,1.92l10.44-.06c.89,0,1.58-.78,1.48-1.66-.08-.77-.17-1.67-.21-2.36-.09-1.51-1.72-2.86-1.72-2.86,0,0-1.43,.82-1.99,.92-1.2,.21-2.77-.25-2.77-.25Z"/><path class="cls-9" d="M104.46,161.93s-6.82,11.5-8.19,20.87c0,0,3.32,4.48,4.67,1.33,1.35-3.14,11.03-19.96,3.53-22.2Z"/><path class="cls-32" d="M105.76,141.52c.07-.12,3.12-4.95,8.83-5.91,4.62-.78,8.95,2.48,9.66,7.12,.71,4.65-.01,10.69-7.61,12.86l-10.88-14.07Z"/><path class="cls-9" d="M107.16,162.26l8.59,5.1,2.17-6.05s-1-2.2-1.29-5.73c-.12-1.48-.12-3.2,.14-5.08l-7.47,3.25s.13,.68,.18,1.68c.06,1.08,.02,2.52-.37,3.86-.34,1.16-.93,2.24-1.96,2.97Z"/><path class="cls-12" d="M109.12,159.29c4.12,.15,7.52-3.7,7.52-3.7l-7.15-.16c.06,1.08,.02,2.52-.37,3.86Z"/><path class="cls-9" d="M107.27,156.87s8.07,2.69,11.32-3.66c3.5-6.85,.48-12.2-2.29-12.72-5.51-1.04-8.88,.87-10,3.05-1.12,2.18-3.49,11.89,.97,13.33Z"/><path class="cls-11" d="M110.75,153.4s-.4,.83-2.53,.21c0,0-1.79-.51-1.53-1.46,0,0,1.91-.29,4.06,1.25Z"/><path class="cls-16" d="M127.73,227.75c-2.33,2.23-19.56,6.84-29.27,3.52-1.74-.59,1.04-54.28,2.7-64.65,.46-2.84,2.71-5.05,5.57-5.44,.48-.07,1-.13,1.57-.18-.12,1.28,.32,2.47,2.54,2.91,2.96,.58,5.75-1.29,7.19-2.58,2.31,.48,3.66,.66,5.5,1.43,2.02,.84,3.22,2.94,2.92,5.1l-.56,4.09-1.77,13.04c-.22,1.64-.21,3.3,.04,4.93,.75,4.96,1.95,17.03,2.75,26.22,.56,6.46,.93,11.49,.82,11.61Z"/><path class="cls-32" d="M112.92,141.25s-.76,7.57,6.42,10.25c2.86,1.07,4.34-10.5-1.63-12.81-5.97-2.31-11.85,.43-12.56,4.47-.7,4.04-.17,4.88-.17,4.88,0,0,2.79-7.68,7.93-6.8Z"/><path class="cls-9" d="M117.28,166.01s-3.29,13.03-3.42,18.21c0,0-7.23,12.63-7.65,13.52-.42,.9,2.61,2.13,2.61,2.13,0,0,9.07-9.67,10.82-13.74s7.95-17.28,5.47-21.23c-2.48-3.95-7.82,1.1-7.82,1.1Z"/><path class="cls-9" d="M96.27,182.8s-.65,8.88,5.67,15.87c0,0,1.72-2.08,1.51-2.72-.22-.64-2.69-10.54-4.5-11.94-1.81-1.41-2.68-1.2-2.68-1.2Z"/><path class="cls-9" d="M106.21,197.75s-4.04-.03-4.27,.92c-.23,.95,1.04,3.93,4,2.89,2.96-1.04,2.88-1.68,2.88-1.68l-2.61-2.13Z"/><path class="cls-9" d="M103.44,195.95s3.25,1.5,2.14,3.1c-1.1,1.6-3.31,.64-3.65-.38-.34-1.02,1.51-2.72,1.51-2.72Z"/><path class="cls-16" d="M114.9,172.89s4.24,3.94,10.78,3.33c0,0,3.22-11.42-1.94-12.82-5.17-1.4-9.43,5.36-8.83,9.49Z"/><path class="cls-16" d="M102.24,163.94l-3.74,6.39s.48,2.96,3.28,3.26c2.8,.3,.46-9.65,.46-9.65Z"/><path class="cls-32" d="M121.84,140.2s2.39-1.29,5.07,0c2.68,1.29,4.64,6.79,3.44,11.93-1.2,5.14,2.86,5.23,.98,9.35-.67,1.46-9.49,2.71-9.79-2.99-.19-3.53,2.65-3.7,1.82-7.53-.83-3.83-1.52-10.76-1.52-10.76Z"/><path class="cls-16" d="M124.11,240.48c-.77,9.06-3.23,22.01-3.23,22.01l-4.49,1.04c.17-2.48-1.29-11.8-3.14-22.23,2.39,.25,6.8,.44,10.86-.81Z"/><path class="cls-32" d="M116.27,262.48s-1.08,1.98-3.13,2.44c-1.29,.29-2.4,.97-3.08,1.92-.58,.8,0,1.92,.98,1.92l10.44-.06c.89,0,1.58-.78,1.48-1.66-.08-.77-.17-1.67-.21-2.36-.09-1.51-1.72-2.86-1.72-2.86,0,0-1.43,.82-1.99,.92-1.2,.21-2.77-.25-2.77-.25Z"/></g><path class="cls-9" d="M124.45,162.81c-.23,.18-4.34-.35-5.66,.49-1.32,.83-2.59,3.15-2,3.97,.59,.83,3.4-1.65,4.23-1.61,.83,.04,3.2-.69,3.2-.69l.23-2.16Z"/><path class="cls-16" d="M157.07,139.02s-7.3,19.43-14.06,23.41c-6.77,3.98-18.79,3.02-18.79,3.02,0,0-.35-.53-.44-1.67-.05-.56,.44-1.35,.44-1.35,0,0,12.23-8.18,12.77-9.57,2.46-6.3,6.03-14.37,7.52-15.45,1.49-1.07,10.9-2.44,12.57,1.6Z"/></g></g></svg>