<?xml version="1.0" encoding="UTF-8"?><svg id="Camada_1" xmlns="http://www.w3.org/2000/svg" viewBox="0 0 786.76 61.63"><defs><style>.cls-1{fill:#fff;}.cls-2{fill:#f2bb30;}.cls-3{fill:#f25522;}.cls-4{fill:#fe725e;}.cls-5{fill:#6dafcc;}</style></defs><polygon class="cls-5" points="182.26 61.63 0 61.63 31.07 29.22 0 0 182.26 0 213.34 30.81 182.26 61.63"/><polygon class="cls-4" points="373.41 61.63 191.14 61.63 222.22 29.22 191.14 0 373.41 0 404.48 30.81 373.41 61.63"/><polygon class="cls-3" points="564.55 61.63 382.28 61.63 413.36 29.22 382.28 0 564.55 0 595.62 30.81 564.55 61.63"/><polygon class="cls-2" points="755.69 61.63 573.43 61.63 604.5 29.22 573.43 0 755.69 0 786.76 30.81 755.69 61.63"/><g><path class="cls-1" d="M45.72,17.49c.67,.34,1.18,.83,1.55,1.47,.36,.64,.55,1.37,.55,2.21s-.18,1.57-.55,2.2c-.36,.63-.88,1.11-1.55,1.46-.67,.34-1.44,.52-2.32,.52h-2.93v-8.38h2.93c.88,0,1.65,.17,2.32,.52Zm-.34,5.71c.48-.48,.72-1.16,.72-2.03s-.24-1.55-.72-2.05c-.48-.49-1.16-.74-2.04-.74h-1.19v5.53h1.19c.88,0,1.56-.24,2.04-.72Z"/><path class="cls-1" d="M55.2,22.53h-4.86c.04,.48,.21,.86,.5,1.13,.3,.27,.66,.41,1.09,.41,.62,0,1.07-.27,1.33-.8h1.81c-.19,.64-.56,1.17-1.1,1.58s-1.21,.62-2,.62c-.64,0-1.21-.14-1.72-.43-.51-.28-.9-.69-1.19-1.21-.28-.52-.43-1.12-.43-1.8s.14-1.29,.42-1.81c.28-.52,.67-.92,1.18-1.2,.5-.28,1.08-.42,1.74-.42s1.2,.14,1.7,.41c.5,.27,.89,.66,1.16,1.16,.28,.5,.41,1.07,.41,1.72,0,.24-.02,.46-.05,.65Zm-1.69-1.13c0-.43-.16-.78-.47-1.04-.3-.26-.68-.39-1.12-.39-.42,0-.77,.13-1.05,.38-.28,.25-.46,.6-.52,1.05h3.16Z"/><path class="cls-1" d="M59.52,20.09h-1.16v5.27h-1.7v-5.27h-.76v-1.38h.76v-.34c0-.82,.23-1.42,.7-1.8,.46-.38,1.16-.56,2.1-.54v1.42c-.41,0-.69,.06-.85,.2-.16,.14-.24,.4-.24,.78v.28h1.16v1.38Z"/><path class="cls-1" d="M60.73,17.63c-.2-.19-.29-.42-.29-.7s.1-.51,.29-.7c.2-.19,.44-.28,.74-.28s.54,.09,.74,.28c.2,.19,.29,.42,.29,.7s-.1,.51-.29,.7c-.2,.19-.44,.28-.74,.28s-.54-.09-.74-.28Zm1.57,1.07v6.65h-1.68v-6.65h1.68Z"/><path class="cls-1" d="M69.56,19.36c.49,.5,.73,1.2,.73,2.09v3.9h-1.68v-3.67c0-.53-.13-.93-.4-1.22-.26-.28-.62-.43-1.08-.43s-.83,.14-1.1,.43c-.27,.28-.4,.69-.4,1.22v3.67h-1.68v-6.65h1.68v.83c.22-.29,.51-.51,.86-.68,.35-.16,.73-.25,1.15-.25,.79,0,1.43,.25,1.92,.75Z"/><path class="cls-1" d="M72,17.63c-.2-.19-.29-.42-.29-.7s.1-.51,.29-.7c.2-.19,.44-.28,.74-.28s.54,.09,.74,.28c.2,.19,.29,.42,.29,.7s-.1,.51-.29,.7c-.2,.19-.44,.28-.74,.28s-.54-.09-.74-.28Zm1.57,1.07v6.65h-1.68v-6.65h1.68Z"/><path class="cls-1" d="M77.75,18.91c.35-.2,.75-.3,1.19-.3v1.76h-.44c-.53,0-.93,.12-1.19,.37-.27,.25-.4,.68-.4,1.3v3.31h-1.68v-6.65h1.68v1.03c.22-.35,.5-.63,.85-.83Z"/><path class="cls-1" d="M89.06,22.53h-4.86c.04,.48,.21,.86,.5,1.13,.3,.27,.66,.41,1.09,.41,.62,0,1.07-.27,1.33-.8h1.81c-.19,.64-.56,1.17-1.1,1.58s-1.21,.62-2,.62c-.64,0-1.21-.14-1.72-.43-.51-.28-.9-.69-1.19-1.21-.28-.52-.43-1.12-.43-1.8s.14-1.29,.42-1.81c.28-.52,.67-.92,1.18-1.2,.5-.28,1.08-.42,1.74-.42s1.2,.14,1.7,.41c.5,.27,.89,.66,1.16,1.16,.28,.5,.41,1.07,.41,1.72,0,.24-.02,.46-.05,.65Zm-1.69-1.13c0-.43-.16-.78-.47-1.04-.3-.26-.68-.39-1.12-.39-.42,0-.77,.13-1.05,.38-.28,.25-.46,.6-.52,1.05h3.16Z"/><path class="cls-1" d="M93.17,20.22c.28-.52,.67-.92,1.16-1.2s1.06-.43,1.7-.43c.82,0,1.51,.21,2.05,.62s.9,.99,1.09,1.73h-1.81c-.1-.29-.26-.51-.49-.68s-.51-.25-.85-.25c-.48,0-.86,.17-1.14,.52-.28,.35-.42,.84-.42,1.48s.14,1.12,.42,1.47c.28,.35,.66,.52,1.14,.52,.68,0,1.12-.3,1.33-.91h1.81c-.18,.72-.55,1.29-1.09,1.72-.54,.42-1.22,.64-2.04,.64-.64,0-1.21-.14-1.7-.43-.5-.28-.88-.68-1.16-1.2-.28-.52-.42-1.12-.42-1.81s.14-1.29,.42-1.81Z"/><path class="cls-1" d="M100.38,20.22c.27-.52,.63-.92,1.09-1.2,.46-.28,.97-.42,1.54-.42,.5,0,.93,.1,1.3,.3s.67,.45,.89,.76v-.95h1.69v6.65h-1.69v-.97c-.22,.31-.51,.57-.89,.77s-.82,.31-1.31,.31c-.56,0-1.07-.14-1.53-.43-.46-.29-.82-.69-1.09-1.22-.27-.52-.4-1.13-.4-1.81s.13-1.27,.4-1.79Zm4.59,.76c-.16-.29-.38-.52-.65-.67-.27-.16-.56-.23-.88-.23s-.6,.08-.86,.23c-.26,.15-.48,.37-.64,.67s-.25,.64-.25,1.04,.08,.75,.25,1.05,.38,.53,.65,.69c.27,.16,.55,.24,.86,.24s.6-.08,.88-.23c.27-.16,.49-.38,.65-.67,.16-.29,.24-.64,.24-1.05s-.08-.76-.24-1.05Z"/><path class="cls-1" d="M111.07,18.91c.35-.2,.75-.3,1.19-.3v1.76h-.44c-.53,0-.93,.12-1.19,.37-.27,.25-.4,.68-.4,1.3v3.31h-1.68v-6.65h1.68v1.03c.22-.35,.5-.63,.85-.83Z"/><path class="cls-1" d="M113.36,20.22c.27-.52,.63-.92,1.09-1.2,.46-.28,.97-.42,1.54-.42,.5,0,.93,.1,1.3,.3s.67,.45,.89,.76v-.95h1.69v6.65h-1.69v-.97c-.22,.31-.51,.57-.89,.77s-.82,.31-1.31,.31c-.56,0-1.07-.14-1.53-.43-.46-.29-.82-.69-1.09-1.22-.27-.52-.4-1.13-.4-1.81s.13-1.27,.4-1.79Zm4.59,.76c-.16-.29-.38-.52-.65-.67-.27-.16-.56-.23-.88-.23s-.6,.08-.86,.23c-.26,.15-.48,.37-.64,.67s-.25,.64-.25,1.04,.08,.75,.25,1.05,.38,.53,.65,.69c.27,.16,.55,.24,.86,.24s.6-.08,.88-.23c.27-.16,.49-.38,.65-.67,.16-.29,.24-.64,.24-1.05s-.08-.76-.24-1.05Z"/><path class="cls-1" d="M121.52,20.22c.28-.52,.67-.92,1.16-1.2s1.06-.43,1.7-.43c.82,0,1.51,.21,2.05,.62s.9,.99,1.09,1.73h-1.81c-.1-.29-.26-.51-.49-.68s-.51-.25-.85-.25c-.48,0-.86,.17-1.14,.52-.28,.35-.42,.84-.42,1.48s.14,1.12,.42,1.47c.28,.35,.66,.52,1.14,.52,.68,0,1.12-.3,1.33-.91h1.81c-.18,.72-.55,1.29-1.09,1.72-.54,.42-1.22,.64-2.04,.64-.64,0-1.21-.14-1.7-.43-.5-.28-.88-.68-1.16-1.2-.28-.52-.42-1.12-.42-1.81s.14-1.29,.42-1.81Z"/><path class="cls-1" d="M130.71,20.09v3.22c0,.22,.05,.39,.16,.49,.11,.1,.29,.15,.55,.15h.78v1.42h-1.06c-1.42,0-2.12-.69-2.12-2.06v-3.2h-.79v-1.38h.79v-1.64h1.69v1.64h1.49v1.38h-1.49Z"/><path class="cls-1" d="M139.54,22.53h-4.86c.04,.48,.21,.86,.5,1.13,.3,.27,.66,.41,1.09,.41,.62,0,1.07-.27,1.33-.8h1.81c-.19,.64-.56,1.17-1.1,1.58s-1.21,.62-2,.62c-.64,0-1.21-.14-1.72-.43-.51-.28-.9-.69-1.19-1.21-.28-.52-.43-1.12-.43-1.8s.14-1.29,.42-1.81c.28-.52,.67-.92,1.18-1.2,.5-.28,1.08-.42,1.74-.42s1.2,.14,1.7,.41c.5,.27,.89,.66,1.16,1.16,.28,.5,.41,1.07,.41,1.72,0,.24-.02,.46-.05,.65Zm-1.69-1.13c0-.43-.16-.78-.47-1.04-.3-.26-.68-.39-1.12-.39-.42,0-.77,.13-1.05,.38-.28,.25-.46,.6-.52,1.05h3.16Z"/><path class="cls-1" d="M143.34,18.91c.35-.2,.75-.3,1.19-.3v1.76h-.44c-.53,0-.93,.12-1.19,.37-.27,.25-.4,.68-.4,1.3v3.31h-1.68v-6.65h1.68v1.03c.22-.35,.5-.63,.85-.83Z"/><path class="cls-1" d="M145.77,17.63c-.2-.19-.29-.42-.29-.7s.1-.51,.29-.7c.2-.19,.44-.28,.74-.28s.54,.09,.74,.28c.2,.19,.29,.42,.29,.7s-.1,.51-.29,.7c-.2,.19-.44,.28-.74,.28s-.54-.09-.74-.28Zm1.57,1.07v6.65h-1.68v-6.65h1.68Z"/><path class="cls-1" d="M150.53,23.97h2.96v1.38h-4.87v-1.36l2.9-3.91h-2.89v-1.38h4.82v1.36l-2.93,3.91Z"/><path class="cls-1" d="M154.76,20.22c.27-.52,.63-.92,1.09-1.2,.46-.28,.97-.42,1.54-.42,.5,0,.93,.1,1.3,.3s.67,.45,.89,.76v-.95h1.69v6.65h-1.69v-.97c-.22,.31-.51,.57-.89,.77s-.82,.31-1.31,.31c-.56,0-1.07-.14-1.53-.43-.46-.29-.82-.69-1.09-1.22-.27-.52-.4-1.13-.4-1.81s.13-1.27,.4-1.79Zm4.59,.76c-.16-.29-.38-.52-.65-.67-.27-.16-.56-.23-.88-.23s-.6,.08-.86,.23c-.26,.15-.48,.37-.64,.67s-.25,.64-.25,1.04,.08,.75,.25,1.05,.38,.53,.65,.69c.27,.16,.55,.24,.86,.24s.6-.08,.88-.23c.27-.16,.49-.38,.65-.67,.16-.29,.24-.64,.24-1.05s-.08-.76-.24-1.05Z"/><path class="cls-1" d="M165.45,18.91c.35-.2,.75-.3,1.19-.3v1.76h-.44c-.53,0-.93,.12-1.19,.37-.27,.25-.4,.68-.4,1.3v3.31h-1.68v-6.65h1.68v1.03c.22-.35,.5-.63,.85-.83Z"/><path class="cls-1" d="M40.44,34.62c.27-.52,.63-.92,1.09-1.2,.46-.28,.97-.42,1.54-.42,.5,0,.93,.1,1.3,.3s.67,.45,.89,.76v-.95h1.69v6.65h-1.69v-.97c-.22,.31-.51,.57-.89,.77s-.82,.31-1.31,.31c-.56,0-1.07-.14-1.53-.43-.46-.29-.82-.69-1.09-1.22-.27-.52-.4-1.13-.4-1.81s.13-1.27,.4-1.79Zm4.59,.76c-.16-.29-.38-.52-.65-.67-.27-.16-.56-.23-.88-.23s-.6,.08-.86,.23c-.26,.15-.48,.37-.64,.67s-.25,.64-.25,1.04,.08,.75,.25,1.05,.38,.53,.65,.69c.27,.16,.55,.24,.86,.24s.6-.08,.88-.23c.27-.16,.49-.38,.65-.67,.16-.29,.24-.64,.24-1.05s-.08-.76-.24-1.05Z"/><path class="cls-1" d="M51.45,34.62c.28-.52,.67-.92,1.16-1.2s1.06-.43,1.7-.43c.82,0,1.51,.21,2.05,.62s.9,.99,1.09,1.73h-1.81c-.1-.29-.26-.51-.49-.68s-.51-.25-.85-.25c-.48,0-.86,.17-1.14,.52-.28,.35-.42,.84-.42,1.48s.14,1.12,.42,1.47c.28,.35,.66,.52,1.14,.52,.68,0,1.12-.3,1.33-.91h1.81c-.18,.72-.55,1.29-1.09,1.72-.54,.42-1.22,.64-2.04,.64-.64,0-1.21-.14-1.7-.43-.5-.28-.88-.68-1.16-1.2-.28-.52-.42-1.12-.42-1.81s.14-1.29,.42-1.81Z"/><path class="cls-1" d="M59.91,39.43c-.51-.28-.91-.69-1.21-1.21-.29-.52-.44-1.12-.44-1.8s.15-1.28,.45-1.8c.3-.52,.71-.92,1.23-1.21s1.1-.43,1.74-.43,1.22,.14,1.74,.43,.93,.69,1.23,1.21c.3,.52,.45,1.12,.45,1.8s-.15,1.28-.46,1.8c-.31,.52-.72,.92-1.25,1.21-.52,.28-1.11,.43-1.76,.43s-1.22-.14-1.73-.43Zm2.59-1.26c.27-.15,.48-.37,.64-.67,.16-.3,.24-.66,.24-1.08,0-.63-.17-1.12-.5-1.46-.33-.34-.74-.51-1.22-.51s-.88,.17-1.21,.51c-.32,.34-.49,.83-.49,1.46s.16,1.12,.47,1.46c.32,.34,.71,.51,1.19,.51,.3,0,.59-.07,.86-.22Z"/><path class="cls-1" d="M76.57,33.76c.5,.5,.75,1.2,.75,2.09v3.9h-1.68v-3.67c0-.52-.13-.92-.4-1.19-.26-.28-.62-.41-1.08-.41s-.82,.14-1.09,.41c-.27,.28-.4,.67-.4,1.19v3.67h-1.68v-3.67c0-.52-.13-.92-.4-1.19-.26-.28-.62-.41-1.08-.41s-.83,.14-1.1,.41c-.27,.28-.4,.67-.4,1.19v3.67h-1.68v-6.65h1.68v.8c.22-.28,.49-.5,.83-.66,.34-.16,.71-.24,1.12-.24,.52,0,.98,.11,1.39,.33,.41,.22,.72,.53,.95,.94,.22-.38,.53-.69,.94-.92,.41-.23,.86-.35,1.34-.35,.82,0,1.47,.25,1.97,.75Z"/><path class="cls-1" d="M85.19,33.1v6.65h-1.69v-.84c-.22,.29-.5,.51-.85,.68s-.73,.25-1.13,.25c-.52,0-.98-.11-1.38-.33-.4-.22-.71-.54-.94-.97s-.34-.94-.34-1.53v-3.9h1.68v3.66c0,.53,.13,.93,.4,1.22,.26,.28,.62,.43,1.08,.43s.83-.14,1.09-.43c.26-.28,.4-.69,.4-1.22v-3.66h1.69Z"/><path class="cls-1" d="M92.45,33.76c.49,.5,.73,1.2,.73,2.09v3.9h-1.68v-3.67c0-.53-.13-.93-.4-1.22-.26-.28-.62-.43-1.08-.43s-.83,.14-1.1,.43c-.27,.28-.4,.69-.4,1.22v3.67h-1.68v-6.65h1.68v.83c.22-.29,.51-.51,.86-.68,.35-.16,.73-.25,1.15-.25,.79,0,1.43,.25,1.92,.75Z"/><path class="cls-1" d="M94.89,32.03c-.2-.19-.29-.42-.29-.7s.1-.51,.29-.7c.2-.19,.44-.28,.74-.28s.54,.09,.74,.28c.2,.19,.29,.42,.29,.7s-.1,.51-.29,.7c-.2,.19-.44,.28-.74,.28s-.54-.09-.74-.28Zm1.57,1.07v6.65h-1.68v-6.65h1.68Z"/><path class="cls-1" d="M98.09,34.62c.27-.52,.63-.92,1.1-1.2s.98-.42,1.55-.42c.43,0,.84,.09,1.24,.28,.39,.19,.7,.44,.94,.75v-3.16h1.7v8.88h-1.7v-.98c-.21,.33-.5,.59-.88,.79-.38,.2-.81,.3-1.31,.3-.56,0-1.07-.14-1.54-.43s-.83-.69-1.1-1.22c-.27-.52-.4-1.13-.4-1.81s.13-1.27,.4-1.79Zm4.59,.76c-.16-.29-.38-.52-.65-.67-.27-.16-.56-.23-.88-.23s-.6,.08-.86,.23c-.26,.15-.48,.37-.64,.67s-.25,.64-.25,1.04,.08,.75,.25,1.05,.38,.53,.65,.69c.27,.16,.55,.24,.86,.24s.6-.08,.88-.23c.27-.16,.49-.38,.65-.67,.16-.29,.24-.64,.24-1.05s-.08-.76-.24-1.05Z"/><path class="cls-1" d="M106.22,34.62c.27-.52,.63-.92,1.09-1.2,.46-.28,.97-.42,1.54-.42,.5,0,.93,.1,1.3,.3s.67,.45,.89,.76v-.95h1.69v6.65h-1.69v-.97c-.22,.31-.51,.57-.89,.77s-.82,.31-1.31,.31c-.56,0-1.07-.14-1.53-.43-.46-.29-.82-.69-1.09-1.22-.27-.52-.4-1.13-.4-1.81s.13-1.27,.4-1.79Zm4.59,.76c-.16-.29-.38-.52-.65-.67-.27-.16-.56-.23-.88-.23s-.6,.08-.86,.23c-.26,.15-.48,.37-.64,.67s-.25,.64-.25,1.04,.08,.75,.25,1.05,.38,.53,.65,.69c.27,.16,.55,.24,.86,.24s.6-.08,.88-.23c.27-.16,.49-.38,.65-.67,.16-.29,.24-.64,.24-1.05s-.08-.76-.24-1.05Z"/><path class="cls-1" d="M114.36,34.62c.27-.52,.63-.92,1.1-1.2s.98-.42,1.55-.42c.43,0,.84,.09,1.24,.28,.39,.19,.7,.44,.94,.75v-3.16h1.7v8.88h-1.7v-.98c-.21,.33-.5,.59-.88,.79-.38,.2-.81,.3-1.31,.3-.56,0-1.07-.14-1.54-.43s-.83-.69-1.1-1.22c-.27-.52-.4-1.13-.4-1.81s.13-1.27,.4-1.79Zm4.59,.76c-.16-.29-.38-.52-.65-.67-.27-.16-.56-.23-.88-.23s-.6,.08-.86,.23c-.26,.15-.48,.37-.64,.67s-.25,.64-.25,1.04,.08,.75,.25,1.05,.38,.53,.65,.69c.27,.16,.55,.24,.86,.24s.6-.08,.88-.23c.27-.16,.49-.38,.65-.67,.16-.29,.24-.64,.24-1.05s-.08-.76-.24-1.05Z"/><path class="cls-1" d="M128.66,36.93h-4.86c.04,.48,.21,.86,.5,1.13,.3,.27,.66,.41,1.09,.41,.62,0,1.07-.27,1.33-.8h1.81c-.19,.64-.56,1.17-1.1,1.58s-1.21,.62-2,.62c-.64,0-1.21-.14-1.72-.43-.51-.28-.9-.69-1.19-1.21-.28-.52-.43-1.12-.43-1.8s.14-1.29,.42-1.81c.28-.52,.67-.92,1.18-1.2,.5-.28,1.08-.42,1.74-.42s1.2,.14,1.7,.41c.5,.27,.89,.66,1.16,1.16,.28,.5,.41,1.07,.41,1.72,0,.24-.02,.46-.05,.65Zm-1.69-1.13c0-.43-.16-.78-.47-1.04-.3-.26-.68-.39-1.12-.39-.42,0-.77,.13-1.05,.38-.28,.25-.46,.6-.52,1.05h3.16Z"/><path class="cls-1" d="M129.92,39.55c-.2-.19-.29-.42-.29-.7s.1-.51,.29-.7c.2-.19,.45-.28,.75-.28s.54,.09,.73,.28c.19,.19,.29,.42,.29,.7s-.1,.51-.29,.7c-.19,.19-.44,.28-.73,.28s-.55-.09-.75-.28Z"/></g><g><path class="cls-1" d="M244.49,11.54v8.38h-1.68V11.54h1.68Z"/><path class="cls-1" d="M246.11,14.78c.27-.52,.63-.92,1.1-1.2s.98-.42,1.55-.42c.43,0,.84,.09,1.24,.28,.39,.19,.7,.44,.94,.75v-3.16h1.7v8.88h-1.7v-.98c-.21,.33-.5,.59-.88,.79-.38,.2-.81,.3-1.31,.3-.56,0-1.07-.14-1.54-.43s-.83-.69-1.1-1.22c-.27-.52-.4-1.13-.4-1.81s.13-1.27,.4-1.79Zm4.59,.76c-.16-.29-.38-.52-.65-.67-.27-.16-.56-.23-.88-.23s-.6,.08-.86,.23c-.26,.15-.48,.37-.64,.67s-.25,.64-.25,1.04,.08,.75,.25,1.05,.38,.53,.65,.69c.27,.16,.55,.24,.86,.24s.6-.08,.88-.23c.27-.16,.49-.38,.65-.67,.16-.29,.24-.64,.24-1.05s-.08-.76-.24-1.05Z"/><path class="cls-1" d="M260.41,17.09h-4.86c.04,.48,.21,.86,.5,1.13,.3,.27,.66,.41,1.09,.41,.62,0,1.07-.27,1.33-.8h1.81c-.19,.64-.56,1.17-1.1,1.58s-1.21,.62-2,.62c-.64,0-1.21-.14-1.72-.43-.51-.28-.9-.69-1.19-1.21-.28-.52-.43-1.12-.43-1.8s.14-1.29,.42-1.81c.28-.52,.67-.92,1.18-1.2,.5-.28,1.08-.42,1.74-.42s1.2,.14,1.7,.41c.5,.27,.89,.66,1.16,1.16,.28,.5,.41,1.07,.41,1.72,0,.24-.02,.46-.05,.65Zm-1.69-1.13c0-.43-.16-.78-.47-1.04-.3-.26-.68-.39-1.12-.39-.42,0-.77,.13-1.05,.38-.28,.25-.46,.6-.52,1.05h3.16Z"/><path class="cls-1" d="M267.29,13.92c.49,.5,.73,1.2,.73,2.09v3.9h-1.68v-3.67c0-.53-.13-.93-.4-1.22-.26-.28-.62-.43-1.08-.43s-.83,.14-1.1,.43c-.27,.28-.4,.69-.4,1.22v3.67h-1.68v-6.65h1.68v.83c.22-.29,.51-.51,.86-.68,.35-.16,.73-.25,1.15-.25,.79,0,1.43,.25,1.92,.75Z"/><path class="cls-1" d="M271.57,14.64v3.22c0,.22,.05,.39,.16,.49,.11,.1,.29,.15,.55,.15h.78v1.42h-1.06c-1.42,0-2.12-.69-2.12-2.06v-3.2h-.79v-1.38h.79v-1.64h1.69v1.64h1.49v1.38h-1.49Z"/><path class="cls-1" d="M274.38,12.19c-.2-.19-.29-.42-.29-.7s.1-.51,.29-.7c.2-.19,.44-.28,.74-.28s.54,.09,.74,.28c.2,.19,.29,.42,.29,.7s-.1,.51-.29,.7c-.2,.19-.44,.28-.74,.28s-.54-.09-.74-.28Zm1.57,1.07v6.65h-1.68v-6.65h1.68Z"/><path class="cls-1" d="M280.65,14.64h-1.16v5.27h-1.7v-5.27h-.76v-1.38h.76v-.34c0-.82,.23-1.42,.7-1.8,.46-.38,1.16-.56,2.1-.54v1.42c-.41,0-.69,.06-.85,.2-.16,.14-.24,.4-.24,.78v.28h1.16v1.38Z"/><path class="cls-1" d="M281.86,12.19c-.2-.19-.29-.42-.29-.7s.1-.51,.29-.7c.2-.19,.44-.28,.74-.28s.54,.09,.74,.28c.2,.19,.29,.42,.29,.7s-.1,.51-.29,.7c-.2,.19-.44,.28-.74,.28s-.54-.09-.74-.28Zm1.57,1.07v6.65h-1.68v-6.65h1.68Z"/><path class="cls-1" d="M285.07,14.78c.28-.52,.67-.92,1.16-1.2s1.06-.43,1.7-.43c.82,0,1.51,.21,2.05,.62s.9,.99,1.09,1.73h-1.81c-.1-.29-.26-.51-.49-.68s-.51-.25-.85-.25c-.48,0-.86,.17-1.14,.52-.28,.35-.42,.84-.42,1.48s.14,1.12,.42,1.47c.28,.35,.66,.52,1.14,.52,.68,0,1.12-.3,1.33-.91h1.81c-.18,.72-.55,1.29-1.09,1.72-.54,.42-1.22,.64-2.04,.64-.64,0-1.21-.14-1.7-.43-.5-.28-.88-.68-1.16-1.2-.28-.52-.42-1.12-.42-1.81s.14-1.29,.42-1.81Z"/><path class="cls-1" d="M292.28,14.78c.27-.52,.63-.92,1.09-1.2,.46-.28,.97-.42,1.54-.42,.5,0,.93,.1,1.3,.3s.67,.45,.89,.76v-.95h1.69v6.65h-1.69v-.97c-.22,.31-.51,.57-.89,.77s-.82,.31-1.31,.31c-.56,0-1.07-.14-1.53-.43-.46-.29-.82-.69-1.09-1.22-.27-.52-.4-1.13-.4-1.81s.13-1.27,.4-1.79Zm4.59,.76c-.16-.29-.38-.52-.65-.67-.27-.16-.56-.23-.88-.23s-.6,.08-.86,.23c-.26,.15-.48,.37-.64,.67s-.25,.64-.25,1.04,.08,.75,.25,1.05,.38,.53,.65,.69c.27,.16,.55,.24,.86,.24s.6-.08,.88-.23c.27-.16,.49-.38,.65-.67,.16-.29,.24-.64,.24-1.05s-.08-.76-.24-1.05Z"/><path class="cls-1" d="M302.97,13.47c.35-.2,.75-.3,1.19-.3v1.76h-.44c-.53,0-.93,.12-1.19,.37-.27,.25-.4,.68-.4,1.3v3.31h-1.68v-6.65h1.68v1.03c.22-.35,.5-.63,.85-.83Z"/><path class="cls-1" d="M309.37,19.59c-.51-.28-.91-.69-1.21-1.21-.29-.52-.44-1.12-.44-1.8s.15-1.28,.45-1.8c.3-.52,.71-.92,1.23-1.21s1.1-.43,1.74-.43,1.22,.14,1.74,.43,.93,.69,1.23,1.21c.3,.52,.45,1.12,.45,1.8s-.15,1.28-.46,1.8c-.31,.52-.72,.92-1.25,1.21-.52,.28-1.11,.43-1.76,.43s-1.22-.14-1.73-.43Zm2.59-1.26c.27-.15,.48-.37,.64-.67,.16-.3,.24-.66,.24-1.08,0-.63-.17-1.12-.5-1.46-.33-.34-.74-.51-1.22-.51s-.88,.17-1.21,.51c-.32,.34-.49,.83-.49,1.46s.16,1.12,.47,1.46c.32,.34,.71,.51,1.19,.51,.3,0,.59-.07,.86-.22Z"/><path class="cls-1" d="M316.88,19.73c-.43-.2-.77-.46-1.03-.8s-.39-.71-.41-1.12h1.69c.03,.26,.16,.47,.38,.64,.22,.17,.49,.25,.82,.25s.57-.06,.75-.19c.18-.13,.27-.29,.27-.49,0-.22-.11-.38-.33-.49-.22-.11-.57-.23-1.05-.35-.5-.12-.9-.24-1.22-.37-.32-.13-.59-.32-.82-.59-.23-.26-.34-.62-.34-1.07,0-.37,.11-.7,.32-1.01,.21-.3,.52-.54,.91-.72s.86-.26,1.4-.26c.79,0,1.42,.2,1.9,.59,.47,.4,.73,.93,.78,1.6h-1.61c-.02-.26-.13-.47-.33-.63-.2-.16-.46-.23-.79-.23-.3,0-.54,.06-.7,.17s-.25,.27-.25,.47c0,.22,.11,.39,.34,.51,.22,.12,.57,.23,1.04,.35,.48,.12,.88,.24,1.19,.37s.58,.33,.81,.59c.23,.27,.35,.62,.35,1.06,0,.38-.11,.73-.32,1.03-.21,.3-.52,.54-.91,.71s-.86,.26-1.39,.26-1.03-.1-1.46-.29Z"/><path class="cls-1" d="M245.38,27.86c.38-.2,.81-.31,1.3-.31,.57,0,1.08,.14,1.54,.42,.46,.28,.82,.68,1.09,1.19,.27,.52,.4,1.11,.4,1.79s-.13,1.28-.4,1.81c-.27,.52-.63,.93-1.09,1.22-.46,.29-.97,.43-1.54,.43-.49,0-.92-.1-1.29-.3-.37-.2-.67-.45-.91-.76v4.12h-1.68v-9.82h1.68v.96c.22-.3,.51-.56,.89-.76Zm2.38,2.06c-.16-.29-.38-.51-.65-.67-.27-.15-.56-.23-.87-.23s-.59,.08-.86,.23-.48,.38-.65,.68-.25,.64-.25,1.04,.08,.75,.25,1.04,.38,.52,.65,.68c.27,.16,.55,.23,.86,.23s.6-.08,.87-.24c.27-.16,.48-.39,.65-.68s.25-.65,.25-1.06-.08-.75-.25-1.04Z"/><path class="cls-1" d="M253.47,27.87c.35-.2,.75-.3,1.19-.3v1.76h-.44c-.53,0-.93,.12-1.19,.37-.27,.25-.4,.68-.4,1.3v3.31h-1.68v-6.65h1.68v1.03c.22-.35,.5-.63,.85-.83Z"/><path class="cls-1" d="M257.01,33.99c-.51-.28-.91-.69-1.21-1.21-.29-.52-.44-1.12-.44-1.8s.15-1.28,.45-1.8c.3-.52,.71-.92,1.23-1.21s1.1-.43,1.74-.43,1.22,.14,1.74,.43,.93,.69,1.23,1.21c.3,.52,.45,1.12,.45,1.8s-.15,1.28-.46,1.8c-.31,.52-.72,.92-1.25,1.21-.52,.28-1.11,.43-1.76,.43s-1.22-.14-1.73-.43Zm2.59-1.26c.27-.15,.48-.37,.64-.67,.16-.3,.24-.66,.24-1.08,0-.63-.17-1.12-.5-1.46-.33-.34-.74-.51-1.22-.51s-.88,.17-1.21,.51c-.32,.34-.49,.83-.49,1.46s.16,1.12,.47,1.46c.32,.34,.71,.51,1.19,.51,.3,0,.59-.07,.86-.22Z"/><path class="cls-1" d="M266.02,27.86c.38-.2,.81-.3,1.3-.3,.57,0,1.08,.14,1.54,.42,.46,.28,.82,.68,1.09,1.19,.27,.52,.4,1.11,.4,1.79s-.13,1.28-.4,1.81c-.27,.52-.63,.93-1.09,1.22-.46,.29-.97,.43-1.54,.43-.5,0-.93-.1-1.3-.29-.37-.2-.67-.45-.89-.76v.95h-1.68v-8.88h1.68v3.2c.22-.32,.51-.58,.89-.78Zm2.38,2.07c-.16-.29-.38-.51-.65-.67-.27-.15-.56-.23-.87-.23s-.59,.08-.86,.23-.48,.38-.65,.68-.25,.64-.25,1.04,.08,.75,.25,1.04,.38,.52,.65,.68c.27,.16,.55,.23,.86,.23s.6-.08,.87-.24c.27-.16,.48-.39,.65-.68s.25-.65,.25-1.06-.08-.75-.25-1.04Z"/><path class="cls-1" d="M273.26,25.43v8.88h-1.68v-8.88h1.68Z"/><path class="cls-1" d="M281.05,31.49h-4.86c.04,.48,.21,.86,.5,1.13,.3,.27,.66,.41,1.09,.41,.62,0,1.07-.27,1.33-.8h1.81c-.19,.64-.56,1.17-1.1,1.58s-1.21,.62-2,.62c-.64,0-1.21-.14-1.72-.43-.51-.28-.9-.69-1.19-1.21-.28-.52-.43-1.12-.43-1.8s.14-1.29,.42-1.81c.28-.52,.67-.92,1.18-1.2,.5-.28,1.08-.42,1.74-.42s1.2,.14,1.7,.41c.5,.27,.89,.66,1.16,1.16,.28,.5,.41,1.07,.41,1.72,0,.24-.02,.46-.05,.65Zm-1.69-1.13c0-.43-.16-.78-.47-1.04-.3-.26-.68-.39-1.12-.39-.42,0-.77,.13-1.05,.38-.28,.25-.46,.6-.52,1.05h3.16Z"/><path class="cls-1" d="M292.55,28.32c.5,.5,.75,1.2,.75,2.09v3.9h-1.68v-3.67c0-.52-.13-.92-.4-1.19-.26-.28-.62-.41-1.08-.41s-.82,.14-1.09,.41c-.27,.28-.4,.67-.4,1.19v3.67h-1.68v-3.67c0-.52-.13-.92-.4-1.19-.26-.28-.62-.41-1.08-.41s-.83,.14-1.1,.41c-.27,.28-.4,.67-.4,1.19v3.67h-1.68v-6.65h1.68v.8c.22-.28,.49-.5,.83-.66,.34-.16,.71-.24,1.12-.24,.52,0,.98,.11,1.39,.33,.41,.22,.72,.53,.95,.94,.22-.38,.53-.69,.94-.92,.41-.23,.86-.35,1.34-.35,.82,0,1.47,.25,1.97,.75Z"/><path class="cls-1" d="M294.87,29.18c.27-.52,.63-.92,1.09-1.2,.46-.28,.97-.42,1.54-.42,.5,0,.93,.1,1.3,.3s.67,.45,.89,.76v-.95h1.69v6.65h-1.69v-.97c-.22,.31-.51,.57-.89,.77s-.82,.31-1.31,.31c-.56,0-1.07-.14-1.53-.43-.46-.29-.82-.69-1.09-1.22-.27-.52-.4-1.13-.4-1.81s.13-1.27,.4-1.79Zm4.59,.76c-.16-.29-.38-.52-.65-.67-.27-.16-.56-.23-.88-.23s-.6,.08-.86,.23c-.26,.15-.48,.37-.64,.67s-.25,.64-.25,1.04,.08,.75,.25,1.05,.38,.53,.65,.69c.27,.16,.55,.24,.86,.24s.6-.08,.88-.23c.27-.16,.49-.38,.65-.67,.16-.29,.24-.64,.24-1.05s-.08-.76-.24-1.05Z"/><path class="cls-1" d="M304.11,34.13c-.43-.2-.77-.46-1.03-.8s-.39-.71-.41-1.12h1.69c.03,.26,.16,.47,.38,.64,.22,.17,.49,.25,.82,.25s.57-.06,.75-.19c.18-.13,.27-.29,.27-.49,0-.22-.11-.38-.33-.49-.22-.11-.57-.23-1.05-.35-.5-.12-.9-.24-1.22-.37-.32-.13-.59-.32-.82-.59-.23-.26-.34-.62-.34-1.07,0-.37,.11-.7,.32-1.01,.21-.3,.52-.54,.91-.72s.86-.26,1.4-.26c.79,0,1.42,.2,1.9,.59,.47,.4,.73,.93,.78,1.6h-1.61c-.02-.26-.13-.47-.33-.63-.2-.16-.46-.23-.79-.23-.3,0-.54,.06-.7,.17s-.25,.27-.25,.47c0,.22,.11,.39,.34,.51,.22,.12,.57,.23,1.04,.35,.48,.12,.88,.24,1.19,.37s.58,.33,.81,.59c.23,.27,.35,.62,.35,1.06,0,.38-.11,.73-.32,1.03-.21,.3-.52,.54-.91,.71s-.86,.26-1.39,.26-1.03-.1-1.46-.29Z"/><path class="cls-1" d="M312.4,29.18c.27-.52,.63-.92,1.1-1.2s.98-.42,1.55-.42c.43,0,.84,.09,1.24,.28,.39,.19,.7,.44,.94,.75v-3.16h1.7v8.88h-1.7v-.98c-.21,.33-.5,.59-.88,.79-.38,.2-.81,.3-1.31,.3-.56,0-1.07-.14-1.54-.43s-.83-.69-1.1-1.22c-.27-.52-.4-1.13-.4-1.81s.13-1.27,.4-1.79Zm4.59,.76c-.16-.29-.38-.52-.65-.67-.27-.16-.56-.23-.88-.23s-.6,.08-.86,.23c-.26,.15-.48,.37-.64,.67s-.25,.64-.25,1.04,.08,.75,.25,1.05,.38,.53,.65,.69c.27,.16,.55,.24,.86,.24s.6-.08,.88-.23c.27-.16,.49-.38,.65-.67,.16-.29,.24-.64,.24-1.05s-.08-.76-.24-1.05Z"/><path class="cls-1" d="M326.7,31.49h-4.86c.04,.48,.21,.86,.5,1.13,.3,.27,.66,.41,1.09,.41,.62,0,1.07-.27,1.33-.8h1.81c-.19,.64-.56,1.17-1.1,1.58s-1.21,.62-2,.62c-.64,0-1.21-.14-1.72-.43-.51-.28-.9-.69-1.19-1.21-.28-.52-.43-1.12-.43-1.8s.14-1.29,.42-1.81c.28-.52,.67-.92,1.18-1.2,.5-.28,1.08-.42,1.74-.42s1.2,.14,1.7,.41c.5,.27,.89,.66,1.16,1.16,.28,.5,.41,1.07,.41,1.72,0,.24-.02,.46-.05,.65Zm-1.69-1.13c0-.43-.16-.78-.47-1.04-.3-.26-.68-.39-1.12-.39-.42,0-.77,.13-1.05,.38-.28,.25-.46,.6-.52,1.05h3.16Z"/><path class="cls-1" d="M331.91,34.13c-.43-.2-.77-.46-1.03-.8s-.39-.71-.41-1.12h1.69c.03,.26,.16,.47,.38,.64,.22,.17,.49,.25,.82,.25s.57-.06,.75-.19c.18-.13,.27-.29,.27-.49,0-.22-.11-.38-.33-.49-.22-.11-.57-.23-1.05-.35-.5-.12-.9-.24-1.22-.37-.32-.13-.59-.32-.82-.59-.23-.26-.34-.62-.34-1.07,0-.37,.11-.7,.32-1.01,.21-.3,.52-.54,.91-.72s.86-.26,1.4-.26c.79,0,1.42,.2,1.9,.59,.47,.4,.73,.93,.78,1.6h-1.61c-.02-.26-.13-.47-.33-.63-.2-.16-.46-.23-.79-.23-.3,0-.54,.06-.7,.17s-.25,.27-.25,.47c0,.22,.11,.39,.34,.51,.22,.12,.57,.23,1.04,.35,.48,.12,.88,.24,1.19,.37s.58,.33,.81,.59c.23,.27,.35,.62,.35,1.06,0,.38-.11,.73-.32,1.03-.21,.3-.52,.54-.91,.71s-.86,.26-1.39,.26-1.03-.1-1.46-.29Z"/><path class="cls-1" d="M337.33,29.18c.27-.52,.63-.92,1.09-1.2,.46-.28,.97-.42,1.54-.42,.5,0,.93,.1,1.3,.3s.67,.45,.89,.76v-.95h1.69v6.65h-1.69v-.97c-.22,.31-.51,.57-.89,.77s-.82,.31-1.31,.31c-.56,0-1.07-.14-1.53-.43-.46-.29-.82-.69-1.09-1.22-.27-.52-.4-1.13-.4-1.81s.13-1.27,.4-1.79Zm4.59,.76c-.16-.29-.38-.52-.65-.67-.27-.16-.56-.23-.88-.23s-.6,.08-.86,.23c-.26,.15-.48,.37-.64,.67s-.25,.64-.25,1.04,.08,.75,.25,1.05,.38,.53,.65,.69c.27,.16,.55,.24,.86,.24s.6-.08,.88-.23c.27-.16,.49-.38,.65-.67,.16-.29,.24-.64,.24-1.05s-.08-.76-.24-1.05Z"/><path class="cls-1" d="M351.78,27.66v6.65h-1.69v-.84c-.22,.29-.5,.51-.85,.68s-.73,.25-1.13,.25c-.52,0-.98-.11-1.38-.33-.4-.22-.71-.54-.94-.97s-.34-.94-.34-1.53v-3.9h1.68v3.66c0,.53,.13,.93,.4,1.22,.26,.28,.62,.43,1.08,.43s.83-.14,1.09-.43c.26-.28,.4-.69,.4-1.22v-3.66h1.69Zm-1.82-1.73l-2.76,1.26v-1.2l2.76-1.43v1.37Z"/><path class="cls-1" d="M353.4,29.18c.27-.52,.63-.92,1.1-1.2s.98-.42,1.55-.42c.43,0,.84,.09,1.24,.28,.39,.19,.7,.44,.94,.75v-3.16h1.7v8.88h-1.7v-.98c-.21,.33-.5,.59-.88,.79-.38,.2-.81,.3-1.31,.3-.56,0-1.07-.14-1.54-.43s-.83-.69-1.1-1.22c-.27-.52-.4-1.13-.4-1.81s.13-1.27,.4-1.79Zm4.59,.76c-.16-.29-.38-.52-.65-.67-.27-.16-.56-.23-.88-.23s-.6,.08-.86,.23c-.26,.15-.48,.37-.64,.67s-.25,.64-.25,1.04,.08,.75,.25,1.05,.38,.53,.65,.69c.27,.16,.55,.24,.86,.24s.6-.08,.88-.23c.27-.16,.49-.38,.65-.67,.16-.29,.24-.64,.24-1.05s-.08-.76-.24-1.05Z"/><path class="cls-1" d="M367.7,31.49h-4.86c.04,.48,.21,.86,.5,1.13,.3,.27,.66,.41,1.09,.41,.62,0,1.07-.27,1.33-.8h1.81c-.19,.64-.56,1.17-1.1,1.58s-1.21,.62-2,.62c-.64,0-1.21-.14-1.72-.43-.51-.28-.9-.69-1.19-1.21-.28-.52-.43-1.12-.43-1.8s.14-1.29,.42-1.81c.28-.52,.67-.92,1.18-1.2,.5-.28,1.08-.42,1.74-.42s1.2,.14,1.7,.41c.5,.27,.89,.66,1.16,1.16,.28,.5,.41,1.07,.41,1.72,0,.24-.02,.46-.05,.65Zm-1.69-1.13c0-.43-.16-.78-.47-1.04-.3-.26-.68-.39-1.12-.39-.42,0-.77,.13-1.05,.38-.28,.25-.46,.6-.52,1.05h3.16Z"/><path class="cls-1" d="M242.78,43.58c.27-.52,.63-.92,1.1-1.2s.98-.42,1.55-.42c.43,0,.84,.09,1.24,.28,.39,.19,.7,.44,.94,.75v-3.16h1.7v8.88h-1.7v-.98c-.21,.33-.5,.59-.88,.79-.38,.2-.81,.3-1.31,.3-.56,0-1.07-.14-1.54-.43s-.83-.69-1.1-1.22c-.27-.52-.4-1.13-.4-1.81s.13-1.27,.4-1.79Zm4.59,.76c-.16-.29-.38-.52-.65-.67-.27-.16-.56-.23-.88-.23s-.6,.08-.86,.23c-.26,.15-.48,.37-.64,.67s-.25,.64-.25,1.04,.08,.75,.25,1.05,.38,.53,.65,.69c.27,.16,.55,.24,.86,.24s.6-.08,.88-.23c.27-.16,.49-.38,.65-.67,.16-.29,.24-.64,.24-1.05s-.08-.76-.24-1.05Z"/><path class="cls-1" d="M250.91,43.58c.27-.52,.63-.92,1.09-1.2,.46-.28,.97-.42,1.54-.42,.5,0,.93,.1,1.3,.3s.67,.45,.89,.76v-.95h1.69v6.65h-1.69v-.97c-.22,.31-.51,.57-.89,.77s-.82,.31-1.31,.31c-.56,0-1.07-.14-1.53-.43-.46-.29-.82-.69-1.09-1.22-.27-.52-.4-1.13-.4-1.81s.13-1.27,.4-1.79Zm4.59,.76c-.16-.29-.38-.52-.65-.67-.27-.16-.56-.23-.88-.23s-.6,.08-.86,.23c-.26,.15-.48,.37-.64,.67s-.25,.64-.25,1.04,.08,.75,.25,1.05,.38,.53,.65,.69c.27,.16,.55,.24,.86,.24s.6-.08,.88-.23c.27-.16,.49-.38,.65-.67,.16-.29,.24-.64,.24-1.05s-.08-.76-.24-1.05Z"/><path class="cls-1" d="M261.92,43.58c.28-.52,.67-.92,1.16-1.2s1.06-.43,1.7-.43c.82,0,1.51,.21,2.05,.62s.9,.99,1.09,1.73h-1.81c-.1-.29-.26-.51-.49-.68s-.51-.25-.85-.25c-.48,0-.86,.17-1.14,.52-.28,.35-.42,.84-.42,1.48s.14,1.12,.42,1.47c.28,.35,.66,.52,1.14,.52,.68,0,1.12-.3,1.33-.91h1.81c-.18,.72-.55,1.29-1.09,1.72-.54,.42-1.22,.64-2.04,.64-.64,0-1.21-.14-1.7-.43-.5-.28-.88-.68-1.16-1.2-.28-.52-.42-1.12-.42-1.81s.14-1.29,.42-1.81Z"/><path class="cls-1" d="M270.38,48.39c-.51-.28-.91-.69-1.21-1.21-.29-.52-.44-1.12-.44-1.8s.15-1.28,.45-1.8c.3-.52,.71-.92,1.23-1.21s1.1-.43,1.74-.43,1.22,.14,1.74,.43,.93,.69,1.23,1.21c.3,.52,.45,1.12,.45,1.8s-.15,1.28-.46,1.8c-.31,.52-.72,.92-1.25,1.21-.52,.28-1.11,.43-1.76,.43s-1.22-.14-1.73-.43Zm2.59-1.26c.27-.15,.48-.37,.64-.67,.16-.3,.24-.66,.24-1.08,0-.63-.17-1.12-.5-1.46-.33-.34-.74-.51-1.22-.51s-.88,.17-1.21,.51c-.32,.34-.49,.83-.49,1.46s.16,1.12,.47,1.46c.32,.34,.71,.51,1.19,.51,.3,0,.59-.07,.86-.22Z"/><path class="cls-1" d="M287.04,42.72c.5,.5,.75,1.2,.75,2.09v3.9h-1.68v-3.67c0-.52-.13-.92-.4-1.19-.26-.28-.62-.41-1.08-.41s-.82,.14-1.09,.41c-.27,.28-.4,.67-.4,1.19v3.67h-1.68v-3.67c0-.52-.13-.92-.4-1.19-.26-.28-.62-.41-1.08-.41s-.83,.14-1.1,.41c-.27,.28-.4,.67-.4,1.19v3.67h-1.68v-6.65h1.68v.8c.22-.28,.49-.5,.83-.66,.34-.16,.71-.24,1.12-.24,.52,0,.98,.11,1.39,.33,.41,.22,.72,.53,.95,.94,.22-.38,.53-.69,.94-.92,.41-.23,.86-.35,1.34-.35,.82,0,1.47,.25,1.97,.75Z"/><path class="cls-1" d="M295.67,42.06v6.65h-1.69v-.84c-.22,.29-.5,.51-.85,.68s-.73,.25-1.13,.25c-.52,0-.98-.11-1.38-.33-.4-.22-.71-.54-.94-.97s-.34-.94-.34-1.53v-3.9h1.68v3.66c0,.53,.13,.93,.4,1.22,.26,.28,.62,.43,1.08,.43s.83-.14,1.09-.43c.26-.28,.4-.69,.4-1.22v-3.66h1.69Z"/><path class="cls-1" d="M302.93,42.72c.49,.5,.73,1.2,.73,2.09v3.9h-1.68v-3.67c0-.53-.13-.93-.4-1.22-.26-.28-.62-.43-1.08-.43s-.83,.14-1.1,.43c-.27,.28-.4,.69-.4,1.22v3.67h-1.68v-6.65h1.68v.83c.22-.29,.51-.51,.86-.68,.35-.16,.73-.25,1.15-.25,.79,0,1.43,.25,1.92,.75Z"/><path class="cls-1" d="M305.37,40.99c-.2-.19-.29-.42-.29-.7s.1-.51,.29-.7c.2-.19,.44-.28,.74-.28s.54,.09,.74,.28c.2,.19,.29,.42,.29,.7s-.1,.51-.29,.7c-.2,.19-.44,.28-.74,.28s-.54-.09-.74-.28Zm1.57,1.07v6.65h-1.68v-6.65h1.68Z"/><path class="cls-1" d="M308.56,43.58c.27-.52,.63-.92,1.1-1.2s.98-.42,1.55-.42c.43,0,.84,.09,1.24,.28,.39,.19,.7,.44,.94,.75v-3.16h1.7v8.88h-1.7v-.98c-.21,.33-.5,.59-.88,.79-.38,.2-.81,.3-1.31,.3-.56,0-1.07-.14-1.54-.43s-.83-.69-1.1-1.22c-.27-.52-.4-1.13-.4-1.81s.13-1.27,.4-1.79Zm4.59,.76c-.16-.29-.38-.52-.65-.67-.27-.16-.56-.23-.88-.23s-.6,.08-.86,.23c-.26,.15-.48,.37-.64,.67s-.25,.64-.25,1.04,.08,.75,.25,1.05,.38,.53,.65,.69c.27,.16,.55,.24,.86,.24s.6-.08,.88-.23c.27-.16,.49-.38,.65-.67,.16-.29,.24-.64,.24-1.05s-.08-.76-.24-1.05Z"/><path class="cls-1" d="M316.7,43.58c.27-.52,.63-.92,1.09-1.2,.46-.28,.97-.42,1.54-.42,.5,0,.93,.1,1.3,.3s.67,.45,.89,.76v-.95h1.69v6.65h-1.69v-.97c-.22,.31-.51,.57-.89,.77s-.82,.31-1.31,.31c-.56,0-1.07-.14-1.53-.43-.46-.29-.82-.69-1.09-1.22-.27-.52-.4-1.13-.4-1.81s.13-1.27,.4-1.79Zm4.59,.76c-.16-.29-.38-.52-.65-.67-.27-.16-.56-.23-.88-.23s-.6,.08-.86,.23c-.26,.15-.48,.37-.64,.67s-.25,.64-.25,1.04,.08,.75,.25,1.05,.38,.53,.65,.69c.27,.16,.55,.24,.86,.24s.6-.08,.88-.23c.27-.16,.49-.38,.65-.67,.16-.29,.24-.64,.24-1.05s-.08-.76-.24-1.05Z"/><path class="cls-1" d="M324.83,43.58c.27-.52,.63-.92,1.1-1.2s.98-.42,1.55-.42c.43,0,.84,.09,1.24,.28,.39,.19,.7,.44,.94,.75v-3.16h1.7v8.88h-1.7v-.98c-.21,.33-.5,.59-.88,.79-.38,.2-.81,.3-1.31,.3-.56,0-1.07-.14-1.54-.43s-.83-.69-1.1-1.22c-.27-.52-.4-1.13-.4-1.81s.13-1.27,.4-1.79Zm4.59,.76c-.16-.29-.38-.52-.65-.67-.27-.16-.56-.23-.88-.23s-.6,.08-.86,.23c-.26,.15-.48,.37-.64,.67s-.25,.64-.25,1.04,.08,.75,.25,1.05,.38,.53,.65,.69c.27,.16,.55,.24,.86,.24s.6-.08,.88-.23c.27-.16,.49-.38,.65-.67,.16-.29,.24-.64,.24-1.05s-.08-.76-.24-1.05Z"/><path class="cls-1" d="M339.13,45.89h-4.86c.04,.48,.21,.86,.5,1.13,.3,.27,.66,.41,1.09,.41,.62,0,1.07-.27,1.33-.8h1.81c-.19,.64-.56,1.17-1.1,1.58s-1.21,.62-2,.62c-.64,0-1.21-.14-1.72-.43-.51-.28-.9-.69-1.19-1.21-.28-.52-.43-1.12-.43-1.8s.14-1.29,.42-1.81c.28-.52,.67-.92,1.18-1.2,.5-.28,1.08-.42,1.74-.42s1.2,.14,1.7,.41c.5,.27,.89,.66,1.16,1.16,.28,.5,.41,1.07,.41,1.72,0,.24-.02,.46-.05,.65Zm-1.69-1.13c0-.43-.16-.78-.47-1.04-.3-.26-.68-.39-1.12-.39-.42,0-.77,.13-1.05,.38-.28,.25-.46,.6-.52,1.05h3.16Z"/><path class="cls-1" d="M340.4,48.51c-.2-.19-.29-.42-.29-.7s.1-.51,.29-.7c.2-.19,.45-.28,.75-.28s.54,.09,.73,.28c.19,.19,.29,.42,.29,.7s-.1,.51-.29,.7c-.19,.19-.44,.28-.73,.28s-.55-.09-.75-.28Z"/></g><g><path class="cls-1" d="M417.67,12.86l-1.69-2.99h-.73v2.99h-1.54V5.18h2.88c.59,0,1.1,.1,1.52,.31s.73,.49,.94,.85,.31,.75,.31,1.19c0,.51-.15,.96-.44,1.37-.29,.41-.73,.69-1.31,.84l1.84,3.11h-1.78Zm-2.42-4.15h1.29c.42,0,.73-.1,.94-.3,.21-.2,.31-.48,.31-.84s-.1-.62-.31-.82c-.21-.19-.52-.29-.94-.29h-1.29v2.25Z"/><path class="cls-1" d="M426.38,10.27h-4.46c.04,.44,.19,.79,.46,1.03,.27,.25,.6,.37,1,.37,.57,0,.98-.25,1.22-.74h1.66c-.18,.59-.51,1.07-1.01,1.45-.5,.38-1.11,.57-1.84,.57-.59,0-1.11-.13-1.58-.39-.47-.26-.83-.63-1.09-1.11-.26-.48-.39-1.03-.39-1.65s.13-1.18,.39-1.66c.26-.48,.62-.84,1.08-1.1,.46-.26,.99-.39,1.59-.39s1.1,.12,1.56,.37c.46,.25,.81,.6,1.07,1.06,.25,.46,.38,.98,.38,1.58,0,.22-.01,.42-.04,.59Zm-1.55-1.03c0-.4-.15-.71-.43-.95s-.62-.36-1.02-.36c-.38,0-.7,.12-.96,.35-.26,.23-.42,.55-.48,.96h2.89Z"/><path class="cls-1" d="M427.52,8.15c.25-.48,.58-.84,1-1.1s.89-.39,1.41-.39c.45,0,.85,.09,1.19,.28,.34,.18,.61,.41,.82,.69v-.87h1.55v6.09h-1.55v-.89c-.2,.29-.47,.52-.82,.71-.35,.19-.75,.28-1.2,.28-.51,0-.98-.13-1.4-.4s-.76-.64-1-1.12c-.25-.48-.37-1.03-.37-1.66s.12-1.16,.37-1.64Zm4.21,.7c-.15-.27-.34-.47-.59-.62-.25-.14-.52-.21-.8-.21s-.55,.07-.79,.21-.44,.34-.59,.61c-.15,.27-.23,.58-.23,.95s.08,.69,.23,.96c.15,.28,.35,.49,.59,.63,.25,.15,.51,.22,.79,.22s.55-.07,.8-.21c.25-.14,.45-.35,.59-.62,.15-.27,.22-.59,.22-.96s-.07-.7-.22-.96Z"/><path class="cls-1" d="M436.55,4.72V12.86h-1.54V4.72h1.54Z"/><path class="cls-1" d="M438.17,5.78c-.18-.17-.27-.39-.27-.64s.09-.47,.27-.64c.18-.17,.41-.26,.68-.26s.5,.09,.68,.26c.18,.17,.27,.39,.27,.64s-.09,.47-.27,.64c-.18,.17-.41,.26-.68,.26s-.5-.09-.68-.26Zm1.44,.98v6.09h-1.54V6.76h1.54Z"/><path class="cls-1" d="M442.53,11.59h2.72v1.26h-4.47v-1.24l2.66-3.59h-2.65v-1.26h4.42v1.24l-2.68,3.59Z"/><path class="cls-1" d="M446.41,8.15c.25-.48,.58-.84,1-1.1s.89-.39,1.41-.39c.45,0,.85,.09,1.19,.28s.61,.41,.82,.69v-.87h1.55v6.09h-1.55v-.89c-.2,.29-.47,.52-.82,.71-.35,.19-.75,.28-1.21,.28-.51,0-.98-.13-1.4-.4s-.75-.64-1-1.12c-.25-.48-.37-1.03-.37-1.66s.12-1.16,.37-1.64Zm4.21,.7c-.15-.27-.34-.47-.59-.62-.25-.14-.52-.21-.8-.21s-.55,.07-.79,.21-.44,.34-.59,.61c-.15,.27-.23,.58-.23,.95s.08,.69,.23,.96c.15,.28,.35,.49,.59,.63,.25,.15,.51,.22,.79,.22s.55-.07,.8-.21c.25-.14,.45-.35,.59-.62,.15-.27,.22-.59,.22-.96s-.07-.7-.22-.96Z"/><path class="cls-1" d="M456.21,6.95c.32-.18,.68-.27,1.09-.27v1.62h-.41c-.48,0-.85,.11-1.09,.34-.25,.23-.37,.62-.37,1.19v3.04h-1.54V6.76h1.54v.95c.2-.32,.46-.58,.78-.76Z"/><path class="cls-1" d="M462.08,12.57c-.47-.26-.84-.63-1.11-1.11-.27-.48-.4-1.03-.4-1.65s.14-1.17,.41-1.65c.27-.48,.65-.84,1.13-1.11,.48-.26,1.01-.39,1.59-.39s1.12,.13,1.6,.39c.48,.26,.85,.63,1.13,1.11,.28,.48,.41,1.03,.41,1.65s-.14,1.17-.42,1.65c-.28,.48-.66,.85-1.14,1.11-.48,.26-1.02,.39-1.61,.39s-1.11-.13-1.58-.39Zm2.37-1.16c.25-.14,.44-.34,.59-.61,.15-.27,.22-.6,.22-.99,0-.58-.15-1.02-.46-1.34-.3-.31-.68-.47-1.12-.47s-.81,.16-1.11,.47c-.3,.31-.45,.76-.45,1.34s.14,1.02,.43,1.34c.29,.31,.65,.47,1.09,.47,.28,0,.54-.07,.79-.2Z"/><path class="cls-1" d="M468.96,12.69c-.4-.18-.71-.42-.94-.73-.23-.31-.36-.65-.38-1.02h1.55c.03,.23,.14,.43,.35,.58,.2,.15,.45,.23,.75,.23s.52-.06,.69-.18,.25-.27,.25-.45c0-.2-.1-.35-.3-.45-.2-.1-.52-.21-.96-.32-.46-.11-.83-.22-1.12-.34-.29-.12-.54-.3-.75-.54-.21-.24-.31-.57-.31-.98,0-.34,.1-.65,.29-.92s.47-.5,.84-.66,.79-.24,1.28-.24c.73,0,1.31,.18,1.74,.54s.67,.85,.71,1.47h-1.47c-.02-.24-.12-.43-.3-.58-.18-.14-.42-.21-.72-.21-.28,0-.49,.05-.64,.15-.15,.1-.23,.25-.23,.43,0,.21,.1,.36,.31,.47,.21,.11,.52,.21,.96,.33,.44,.11,.8,.22,1.09,.34s.53,.3,.74,.54c.21,.25,.32,.57,.32,.97,0,.35-.1,.67-.29,.95s-.47,.5-.84,.65c-.36,.16-.79,.24-1.27,.24s-.95-.09-1.34-.27Z"/><path class="cls-1" d="M476.56,8.15c.25-.48,.58-.84,1-1.1s.89-.39,1.41-.39c.45,0,.85,.09,1.19,.28s.61,.41,.82,.69v-.87h1.55v6.09h-1.55v-.89c-.2,.29-.47,.52-.82,.71-.35,.19-.75,.28-1.21,.28-.51,0-.98-.13-1.4-.4s-.75-.64-1-1.12c-.25-.48-.37-1.03-.37-1.66s.12-1.16,.37-1.64Zm4.21,.7c-.15-.27-.34-.47-.59-.62-.25-.14-.52-.21-.8-.21s-.55,.07-.79,.21-.44,.34-.59,.61c-.15,.27-.23,.58-.23,.95s.08,.69,.23,.96c.15,.28,.35,.49,.59,.63,.25,.15,.51,.22,.79,.22s.55-.07,.8-.21c.25-.14,.45-.35,.59-.62,.15-.27,.22-.59,.22-.96s-.07-.7-.22-.96Z"/><path class="cls-1" d="M485.58,13.86c0,.67-.17,1.16-.5,1.46-.33,.3-.81,.45-1.44,.45h-.68v-1.31h.44c.23,0,.4-.05,.5-.14s.14-.24,.14-.45V6.76h1.54v7.09Zm-1.45-8.08c-.18-.17-.27-.39-.27-.64s.09-.47,.27-.64c.18-.17,.41-.26,.69-.26s.5,.09,.67,.26c.18,.17,.26,.39,.26,.64s-.09,.47-.26,.64c-.18,.17-.4,.26-.67,.26s-.51-.09-.69-.26Z"/><path class="cls-1" d="M492.85,6.76v6.09h-1.55v-.77c-.2,.26-.46,.47-.78,.62-.32,.15-.67,.23-1.04,.23-.48,0-.9-.1-1.26-.3-.37-.2-.65-.5-.86-.89s-.31-.86-.31-1.4v-3.58h1.54v3.35c0,.48,.12,.86,.36,1.12,.24,.26,.57,.39,.99,.39s.76-.13,1-.39c.24-.26,.36-.63,.36-1.12v-3.35h1.55Z"/><path class="cls-1" d="M495.36,12.69c-.4-.18-.71-.42-.94-.73-.23-.31-.36-.65-.38-1.02h1.55c.03,.23,.14,.43,.35,.58,.2,.15,.45,.23,.75,.23s.52-.06,.69-.18,.25-.27,.25-.45c0-.2-.1-.35-.3-.45-.2-.1-.52-.21-.96-.32-.45-.11-.83-.22-1.12-.34s-.54-.3-.75-.54c-.21-.24-.31-.57-.31-.98,0-.34,.1-.65,.29-.92s.47-.5,.84-.66c.36-.16,.79-.24,1.28-.24,.73,0,1.3,.18,1.74,.54,.43,.36,.67,.85,.71,1.47h-1.47c-.02-.24-.12-.43-.3-.58-.18-.14-.42-.21-.72-.21-.28,0-.49,.05-.64,.15-.15,.1-.23,.25-.23,.43,0,.21,.1,.36,.31,.47,.21,.11,.52,.21,.96,.33,.44,.11,.8,.22,1.09,.34,.29,.12,.53,.3,.74,.54,.21,.25,.32,.57,.32,.97,0,.35-.1,.67-.29,.95s-.47,.5-.84,.65c-.36,.16-.79,.24-1.27,.24s-.95-.09-1.34-.27Z"/><path class="cls-1" d="M502.16,8.03v2.95c0,.21,.05,.35,.15,.45,.1,.09,.27,.14,.5,.14h.71v1.3h-.97c-1.3,0-1.95-.63-1.95-1.89v-2.94h-.73v-1.26h.73v-1.51h1.55v1.51h1.36v1.26h-1.36Z"/><path class="cls-1" d="M510.26,10.27h-4.46c.04,.44,.19,.79,.46,1.03s.61,.37,1,.37c.57,0,.98-.25,1.22-.74h1.66c-.18,.59-.51,1.07-1.01,1.45-.5,.38-1.11,.57-1.84,.57-.59,0-1.11-.13-1.58-.39-.46-.26-.83-.63-1.09-1.11-.26-.48-.39-1.03-.39-1.65s.13-1.18,.39-1.66c.26-.48,.62-.84,1.08-1.1,.46-.26,.99-.39,1.59-.39s1.1,.12,1.56,.37c.46,.25,.81,.6,1.07,1.06,.25,.46,.38,.98,.38,1.58,0,.22-.01,.42-.04,.59Zm-1.55-1.03c0-.4-.15-.71-.43-.95-.28-.24-.62-.36-1.02-.36-.38,0-.7,.12-.96,.35-.26,.23-.42,.55-.48,.96h2.89Z"/><path class="cls-1" d="M512.41,12.69c-.4-.18-.71-.42-.94-.73-.23-.31-.36-.65-.38-1.02h1.55c.03,.23,.14,.43,.35,.58,.2,.15,.45,.23,.75,.23s.52-.06,.69-.18,.25-.27,.25-.45c0-.2-.1-.35-.3-.45-.2-.1-.52-.21-.96-.32-.46-.11-.83-.22-1.12-.34-.29-.12-.54-.3-.75-.54-.21-.24-.31-.57-.31-.98,0-.34,.1-.65,.29-.92s.47-.5,.84-.66,.79-.24,1.28-.24c.73,0,1.31,.18,1.74,.54s.67,.85,.71,1.47h-1.47c-.02-.24-.12-.43-.3-.58-.18-.14-.42-.21-.72-.21-.28,0-.49,.05-.64,.15-.15,.1-.23,.25-.23,.43,0,.21,.1,.36,.31,.47,.21,.11,.52,.21,.96,.33,.44,.11,.8,.22,1.09,.34s.53,.3,.74,.54c.21,.25,.32,.57,.32,.97,0,.35-.1,.67-.29,.95s-.47,.5-.84,.65c-.36,.16-.79,.24-1.27,.24s-.95-.09-1.34-.27Z"/><path class="cls-1" d="M418.85,20.56c.45,.46,.67,1.1,.67,1.92v3.58h-1.54v-3.37c0-.48-.12-.86-.36-1.12-.24-.26-.57-.39-.99-.39s-.76,.13-1.01,.39-.37,.63-.37,1.12v3.37h-1.54v-6.09h1.54v.76c.21-.26,.47-.47,.79-.62s.67-.23,1.05-.23c.73,0,1.31,.23,1.76,.69Z"/><path class="cls-1" d="M426.6,23.47h-4.46c.04,.44,.19,.79,.46,1.03,.27,.25,.6,.37,1,.37,.57,0,.98-.25,1.22-.74h1.66c-.18,.59-.51,1.07-1.01,1.45-.5,.38-1.11,.57-1.84,.57-.59,0-1.11-.13-1.58-.39-.47-.26-.83-.63-1.09-1.11-.26-.48-.39-1.03-.39-1.65s.13-1.18,.39-1.66c.26-.48,.62-.84,1.08-1.1,.46-.26,.99-.39,1.59-.39s1.1,.12,1.56,.37c.46,.25,.81,.6,1.07,1.06,.25,.46,.38,.98,.38,1.58,0,.22-.01,.42-.04,.59Zm-1.55-1.03c0-.4-.15-.71-.43-.95s-.62-.36-1.02-.36c-.38,0-.7,.12-.96,.35-.26,.23-.42,.55-.48,.96h2.89Z"/><path class="cls-1" d="M427.76,21.36c.26-.47,.61-.84,1.07-1.1,.45-.26,.98-.39,1.56-.39,.76,0,1.38,.19,1.88,.57,.5,.38,.83,.91,1,1.59h-1.66c-.09-.26-.24-.47-.45-.62s-.47-.23-.78-.23c-.44,0-.79,.16-1.05,.48-.26,.32-.38,.77-.38,1.36s.13,1.03,.38,1.35c.26,.32,.6,.48,1.05,.48,.62,0,1.03-.28,1.22-.84h1.66c-.17,.66-.5,1.18-1,1.57-.5,.39-1.12,.58-1.87,.58-.59,0-1.11-.13-1.56-.39-.45-.26-.81-.63-1.07-1.1-.26-.47-.39-1.02-.39-1.66s.13-1.18,.39-1.66Z"/><path class="cls-1" d="M440.01,23.47h-4.46c.04,.44,.19,.79,.46,1.03,.27,.25,.6,.37,1,.37,.57,0,.98-.25,1.22-.74h1.66c-.18,.59-.51,1.07-1.01,1.45-.5,.38-1.11,.57-1.84,.57-.59,0-1.11-.13-1.58-.39-.47-.26-.83-.63-1.09-1.11-.26-.48-.39-1.03-.39-1.65s.13-1.18,.38-1.66,.62-.84,1.08-1.1,.99-.39,1.59-.39,1.1,.12,1.56,.37c.46,.25,.81,.6,1.07,1.06,.25,.46,.38,.98,.38,1.58,0,.22-.01,.42-.04,.59Zm-1.55-1.03c0-.4-.15-.71-.43-.95-.28-.24-.62-.36-1.02-.36-.38,0-.7,.12-.96,.35-.26,.23-.42,.55-.48,.96h2.89Z"/><path class="cls-1" d="M442.17,25.89c-.4-.18-.71-.42-.94-.73-.23-.31-.36-.65-.38-1.02h1.55c.03,.23,.14,.43,.35,.58,.2,.15,.45,.23,.75,.23s.52-.06,.69-.18,.25-.27,.25-.45c0-.2-.1-.35-.3-.45-.2-.1-.52-.21-.96-.32-.45-.11-.83-.22-1.12-.34s-.54-.3-.75-.54c-.21-.24-.31-.57-.31-.98,0-.34,.1-.65,.29-.92s.47-.5,.84-.66c.36-.16,.79-.24,1.28-.24,.73,0,1.3,.18,1.74,.54,.43,.36,.67,.85,.71,1.47h-1.47c-.02-.24-.12-.43-.3-.58-.18-.14-.42-.21-.72-.21-.28,0-.49,.05-.64,.15-.15,.1-.23,.25-.23,.43,0,.21,.1,.36,.31,.47,.21,.11,.52,.21,.96,.33,.44,.11,.8,.22,1.09,.34,.29,.12,.53,.3,.74,.54,.21,.25,.32,.57,.32,.97,0,.35-.1,.67-.29,.95s-.47,.5-.84,.65c-.36,.16-.79,.24-1.27,.24s-.95-.09-1.34-.27Z"/><path class="cls-1" d="M448.16,25.89c-.4-.18-.71-.42-.94-.73-.23-.31-.36-.65-.38-1.02h1.55c.03,.23,.14,.43,.35,.58,.2,.15,.45,.23,.75,.23s.52-.06,.69-.18,.25-.27,.25-.45c0-.2-.1-.35-.3-.45-.2-.1-.52-.21-.96-.32-.45-.11-.83-.22-1.12-.34s-.54-.3-.75-.54c-.21-.24-.31-.57-.31-.98,0-.34,.1-.65,.29-.92s.47-.5,.84-.66c.36-.16,.79-.24,1.28-.24,.73,0,1.3,.18,1.74,.54,.43,.36,.67,.85,.71,1.47h-1.47c-.02-.24-.12-.43-.3-.58-.18-.14-.42-.21-.72-.21-.28,0-.49,.05-.64,.15-.15,.1-.23,.25-.23,.43,0,.21,.1,.36,.31,.47,.21,.11,.52,.21,.96,.33,.44,.11,.8,.22,1.09,.34,.29,.12,.53,.3,.74,.54,.21,.25,.32,.57,.32,.97,0,.35-.1,.67-.29,.95s-.47,.5-.84,.65c-.36,.16-.79,.24-1.27,.24s-.95-.09-1.34-.27Z"/><path class="cls-1" d="M453.14,21.35c.25-.48,.58-.84,1-1.1s.89-.39,1.41-.39c.45,0,.85,.09,1.19,.28s.61,.41,.82,.69v-.87h1.55v6.09h-1.55v-.89c-.2,.29-.47,.52-.82,.71-.35,.19-.75,.28-1.21,.28-.51,0-.98-.13-1.4-.4s-.75-.64-1-1.12c-.25-.48-.37-1.03-.37-1.66s.12-1.16,.37-1.64Zm4.21,.7c-.15-.27-.34-.47-.59-.62-.25-.14-.52-.21-.8-.21s-.55,.07-.79,.21-.44,.34-.59,.61c-.15,.27-.23,.58-.23,.95s.08,.69,.23,.96c.15,.28,.35,.49,.59,.63,.25,.15,.51,.22,.79,.22s.55-.07,.8-.21c.25-.14,.45-.35,.59-.62,.15-.27,.22-.59,.22-.96s-.07-.7-.22-.96Zm.01-3.67l-2.53,1.15v-1.1l2.53-1.31v1.25Z"/><path class="cls-1" d="M462.94,20.15c.32-.18,.68-.27,1.09-.27v1.62h-.41c-.48,0-.85,.11-1.09,.34-.25,.23-.37,.62-.37,1.19v3.04h-1.54v-6.09h1.54v.95c.2-.32,.46-.58,.78-.76Z"/><path class="cls-1" d="M465.17,18.98c-.18-.17-.27-.39-.27-.64s.09-.47,.27-.64c.18-.17,.41-.26,.68-.26s.5,.09,.68,.26c.18,.17,.27,.39,.27,.64s-.09,.47-.27,.64c-.18,.17-.41,.26-.68,.26s-.5-.09-.68-.26Zm1.44,.98v6.09h-1.54v-6.09h1.54Z"/><path class="cls-1" d="M469.25,25.77c-.47-.26-.84-.63-1.11-1.11-.27-.48-.4-1.03-.4-1.65s.14-1.17,.41-1.65c.27-.48,.65-.84,1.13-1.11,.48-.26,1.01-.39,1.59-.39s1.12,.13,1.6,.39c.48,.26,.85,.63,1.13,1.11,.28,.48,.41,1.03,.41,1.65s-.14,1.17-.42,1.65c-.28,.48-.66,.85-1.14,1.11-.48,.26-1.02,.39-1.61,.39s-1.11-.13-1.58-.39Zm2.37-1.16c.25-.14,.44-.34,.59-.61,.15-.27,.22-.6,.22-.99,0-.58-.15-1.02-.46-1.34-.3-.31-.68-.47-1.12-.47s-.81,.16-1.11,.47c-.3,.31-.45,.76-.45,1.34s.14,1.02,.43,1.34c.29,.31,.65,.47,1.09,.47,.28,0,.54-.07,.79-.2Z"/><path class="cls-1" d="M476.14,25.89c-.4-.18-.71-.42-.94-.73-.23-.31-.36-.65-.38-1.02h1.55c.03,.23,.14,.43,.35,.58,.2,.15,.45,.23,.75,.23s.52-.06,.69-.18,.25-.27,.25-.45c0-.2-.1-.35-.3-.45-.2-.1-.52-.21-.96-.32-.46-.11-.83-.22-1.12-.34-.29-.12-.54-.3-.75-.54-.21-.24-.31-.57-.31-.98,0-.34,.1-.65,.29-.92s.47-.5,.84-.66,.79-.24,1.28-.24c.73,0,1.31,.18,1.74,.54s.67,.85,.71,1.47h-1.47c-.02-.24-.12-.43-.3-.58-.18-.14-.42-.21-.72-.21-.28,0-.49,.05-.64,.15-.15,.1-.23,.25-.23,.43,0,.21,.1,.36,.31,.47,.21,.11,.52,.21,.96,.33,.44,.11,.8,.22,1.09,.34s.53,.3,.74,.54c.21,.25,.32,.57,.32,.97,0,.35-.1,.67-.29,.95s-.47,.5-.84,.65c-.36,.16-.79,.24-1.27,.24s-.95-.09-1.34-.27Z"/><path class="cls-1" d="M488.9,20.56c.45,.46,.67,1.1,.67,1.92v3.58h-1.54v-3.37c0-.48-.12-.86-.36-1.12s-.57-.39-.99-.39-.76,.13-1.01,.39c-.25,.26-.37,.63-.37,1.12v3.37h-1.54v-6.09h1.54v.76c.21-.26,.47-.47,.79-.62,.32-.15,.67-.23,1.05-.23,.73,0,1.31,.23,1.76,.69Z"/><path class="cls-1" d="M492.15,25.77c-.47-.26-.84-.63-1.11-1.11-.27-.48-.4-1.03-.4-1.65s.14-1.17,.41-1.65c.28-.48,.65-.84,1.13-1.11,.48-.26,1.01-.39,1.59-.39s1.12,.13,1.59,.39c.48,.26,.85,.63,1.13,1.11,.27,.48,.41,1.03,.41,1.65s-.14,1.17-.42,1.65c-.28,.48-.66,.85-1.14,1.11-.48,.26-1.02,.39-1.61,.39s-1.12-.13-1.58-.39Zm2.37-1.16c.25-.14,.44-.34,.59-.61s.22-.6,.22-.99c0-.58-.15-1.02-.46-1.34-.3-.31-.68-.47-1.12-.47s-.81,.16-1.11,.47c-.3,.31-.45,.76-.45,1.34s.14,1.02,.43,1.34c.29,.31,.65,.47,1.09,.47,.28,0,.54-.07,.79-.2Z"/><path class="cls-1" d="M499.04,25.89c-.4-.18-.71-.42-.94-.73-.23-.31-.36-.65-.38-1.02h1.55c.03,.23,.14,.43,.35,.58,.2,.15,.45,.23,.75,.23s.52-.06,.69-.18,.25-.27,.25-.45c0-.2-.1-.35-.3-.45-.2-.1-.52-.21-.96-.32-.45-.11-.83-.22-1.12-.34s-.54-.3-.75-.54c-.21-.24-.31-.57-.31-.98,0-.34,.1-.65,.29-.92s.47-.5,.84-.66c.36-.16,.79-.24,1.28-.24,.73,0,1.3,.18,1.74,.54,.43,.36,.67,.85,.71,1.47h-1.47c-.02-.24-.12-.43-.3-.58-.18-.14-.42-.21-.72-.21-.28,0-.49,.05-.64,.15-.15,.1-.23,.25-.23,.43,0,.21,.1,.36,.31,.47,.21,.11,.52,.21,.96,.33,.44,.11,.8,.22,1.09,.34,.29,.12,.53,.3,.74,.54,.21,.25,.32,.57,.32,.97,0,.35-.1,.67-.29,.95s-.47,.5-.84,.65c-.36,.16-.79,.24-1.27,.24s-.95-.09-1.34-.27Z"/><path class="cls-1" d="M509.02,20.15c.35-.19,.75-.28,1.19-.28,.52,0,.99,.13,1.41,.39,.42,.26,.75,.62,1,1.09,.25,.47,.37,1.02,.37,1.64s-.12,1.18-.37,1.66c-.25,.48-.58,.85-1,1.12-.42,.26-.89,.4-1.41,.4-.45,0-.84-.09-1.18-.27-.34-.18-.62-.41-.83-.69v3.77h-1.54v-9h1.54v.88c.2-.28,.47-.51,.82-.7Zm2.18,1.89c-.15-.27-.35-.47-.59-.61s-.51-.21-.8-.21-.54,.07-.79,.21c-.25,.14-.44,.35-.59,.62s-.23,.59-.23,.96,.08,.69,.23,.96,.35,.48,.59,.62c.25,.14,.51,.21,.79,.21s.55-.07,.8-.22c.25-.15,.44-.36,.59-.63,.15-.27,.23-.59,.23-.97s-.08-.68-.23-.95Z"/><path class="cls-1" d="M516.43,20.15c.32-.18,.68-.27,1.09-.27v1.62h-.41c-.48,0-.85,.11-1.09,.34-.25,.23-.37,.62-.37,1.19v3.04h-1.54v-6.09h1.54v.95c.2-.32,.46-.58,.78-.76Z"/><path class="cls-1" d="M519.68,25.77c-.47-.26-.84-.63-1.11-1.11-.27-.48-.4-1.03-.4-1.65s.14-1.17,.41-1.65c.27-.48,.65-.84,1.13-1.11,.48-.26,1.01-.39,1.59-.39s1.12,.13,1.6,.39c.48,.26,.85,.63,1.13,1.11,.28,.48,.41,1.03,.41,1.65s-.14,1.17-.42,1.65c-.28,.48-.66,.85-1.14,1.11-.48,.26-1.02,.39-1.61,.39s-1.11-.13-1.58-.39Zm2.37-1.16c.25-.14,.44-.34,.59-.61,.15-.27,.22-.6,.22-.99,0-.58-.15-1.02-.46-1.34-.3-.31-.68-.47-1.12-.47s-.81,.16-1.11,.47c-.3,.31-.45,.76-.45,1.34s.14,1.02,.43,1.34c.29,.31,.65,.47,1.09,.47,.28,0,.54-.07,.79-.2Z"/><path class="cls-1" d="M529.17,20.13c.34,.18,.62,.41,.81,.7v-.87h1.55v6.14c0,.56-.11,1.07-.34,1.51-.23,.44-.57,.8-1.02,1.06-.46,.26-1,.39-1.65,.39-.87,0-1.57-.2-2.13-.6-.55-.4-.87-.95-.94-1.65h1.53c.08,.28,.25,.5,.52,.67,.27,.17,.59,.25,.97,.25,.45,0,.81-.13,1.09-.4,.28-.27,.42-.67,.42-1.22v-.95c-.2,.29-.47,.52-.82,.72-.35,.19-.75,.29-1.19,.29-.51,0-.98-.13-1.41-.4-.42-.26-.76-.64-1.01-1.12-.25-.48-.37-1.03-.37-1.66s.12-1.16,.37-1.64c.25-.48,.58-.84,1-1.1s.89-.39,1.41-.39c.46,0,.85,.09,1.2,.27Zm.59,1.91c-.15-.27-.34-.47-.59-.62-.25-.14-.52-.21-.8-.21s-.55,.07-.79,.21-.44,.34-.59,.61-.23,.58-.23,.95,.08,.69,.23,.96,.35,.49,.59,.63c.25,.15,.51,.22,.79,.22s.55-.07,.8-.21c.25-.14,.45-.35,.59-.62,.15-.27,.22-.59,.22-.96s-.07-.7-.22-.96Z"/><path class="cls-1" d="M535.35,20.15c.32-.18,.68-.27,1.09-.27v1.62h-.41c-.48,0-.85,.11-1.09,.34-.25,.23-.37,.62-.37,1.19v3.04h-1.54v-6.09h1.54v.95c.2-.32,.46-.58,.78-.76Z"/><path class="cls-1" d="M537.45,21.35c.25-.48,.58-.84,1-1.1s.89-.39,1.41-.39c.45,0,.85,.09,1.19,.28s.61,.41,.82,.69v-.87h1.55v6.09h-1.55v-.89c-.2,.29-.47,.52-.82,.71-.35,.19-.75,.28-1.21,.28-.51,0-.98-.13-1.4-.4s-.75-.64-1-1.12c-.25-.48-.37-1.03-.37-1.66s.12-1.16,.37-1.64Zm4.21,.7c-.15-.27-.34-.47-.59-.62-.25-.14-.52-.21-.8-.21s-.55,.07-.79,.21-.44,.34-.59,.61c-.15,.27-.23,.58-.23,.95s.08,.69,.23,.96c.15,.28,.35,.49,.59,.63,.25,.15,.51,.22,.79,.22s.55-.07,.8-.21c.25-.14,.45-.35,.59-.62,.15-.27,.22-.59,.22-.96s-.07-.7-.22-.96Z"/><path class="cls-1" d="M554.32,20.56c.46,.46,.69,1.1,.69,1.92v3.58h-1.54v-3.37c0-.48-.12-.84-.36-1.09-.24-.25-.57-.38-.99-.38s-.75,.13-1,.38c-.25,.25-.37,.62-.37,1.09v3.37h-1.54v-3.37c0-.48-.12-.84-.36-1.09-.24-.25-.57-.38-.99-.38s-.76,.13-1.01,.38c-.25,.25-.37,.62-.37,1.09v3.37h-1.54v-6.09h1.54v.74c.2-.26,.45-.46,.76-.6s.65-.22,1.03-.22c.48,0,.9,.1,1.28,.3,.37,.2,.66,.49,.87,.86,.2-.35,.49-.63,.86-.85,.38-.21,.79-.32,1.23-.32,.75,0,1.35,.23,1.81,.69Z"/><path class="cls-1" d="M556.44,21.35c.25-.48,.58-.84,1-1.1s.89-.39,1.41-.39c.46,0,.85,.09,1.19,.28,.34,.18,.61,.41,.82,.69v-.87h1.55v6.09h-1.55v-.89c-.2,.29-.47,.52-.82,.71-.35,.19-.75,.28-1.2,.28-.51,0-.98-.13-1.4-.4s-.76-.64-1-1.12c-.25-.48-.37-1.03-.37-1.66s.12-1.16,.37-1.64Zm4.21,.7c-.15-.27-.34-.47-.59-.62-.25-.14-.52-.21-.8-.21s-.55,.07-.79,.21-.44,.34-.59,.61-.23,.58-.23,.95,.08,.69,.23,.96,.35,.49,.59,.63c.25,.15,.51,.22,.79,.22s.55-.07,.8-.21c.25-.14,.45-.35,.59-.62,.15-.27,.22-.59,.22-.96s-.07-.7-.22-.96Z"/><path class="cls-1" d="M564.92,25.89c-.4-.18-.71-.42-.94-.73-.23-.31-.36-.65-.38-1.02h1.55c.03,.23,.14,.43,.35,.58,.2,.15,.45,.23,.75,.23s.52-.06,.69-.18,.25-.27,.25-.45c0-.2-.1-.35-.3-.45-.2-.1-.52-.21-.96-.32-.46-.11-.83-.22-1.12-.34-.29-.12-.54-.3-.75-.54-.21-.24-.31-.57-.31-.98,0-.34,.1-.65,.29-.92s.47-.5,.84-.66,.79-.24,1.28-.24c.73,0,1.31,.18,1.74,.54s.67,.85,.71,1.47h-1.47c-.02-.24-.12-.43-.3-.58-.18-.14-.42-.21-.72-.21-.28,0-.49,.05-.64,.15-.15,.1-.23,.25-.23,.43,0,.21,.1,.36,.31,.47,.21,.11,.52,.21,.96,.33,.44,.11,.8,.22,1.09,.34s.53,.3,.74,.54c.21,.25,.32,.57,.32,.97,0,.35-.1,.67-.29,.95s-.47,.5-.84,.65c-.36,.16-.79,.24-1.27,.24s-.95-.09-1.34-.27Z"/><path class="cls-1" d="M416.07,33.35c.35-.19,.75-.28,1.19-.28,.52,0,.99,.13,1.41,.39,.42,.26,.76,.62,1,1.09,.25,.47,.37,1.02,.37,1.64s-.12,1.18-.37,1.66c-.25,.48-.58,.85-1,1.12-.42,.26-.89,.4-1.41,.4-.45,0-.84-.09-1.18-.27-.34-.18-.62-.41-.83-.69v3.77h-1.54v-9h1.54v.88c.2-.28,.47-.51,.82-.7Zm2.18,1.89c-.15-.27-.35-.47-.59-.61-.25-.14-.51-.21-.8-.21s-.54,.07-.79,.21c-.25,.14-.44,.35-.59,.62s-.23,.59-.23,.96,.08,.69,.23,.96,.35,.48,.59,.62c.25,.14,.51,.21,.79,.21s.55-.07,.8-.22c.25-.15,.44-.36,.59-.63,.15-.27,.23-.59,.23-.97s-.08-.68-.23-.95Z"/><path class="cls-1" d="M421.14,34.55c.25-.48,.58-.84,1-1.1s.89-.39,1.41-.39c.45,0,.85,.09,1.19,.28,.34,.18,.61,.41,.82,.69v-.87h1.55v6.09h-1.55v-.89c-.2,.29-.47,.52-.82,.71-.35,.19-.75,.28-1.2,.28-.51,0-.98-.13-1.4-.4s-.76-.64-1-1.12c-.25-.48-.37-1.03-.37-1.66s.12-1.16,.37-1.64Zm4.21,.7c-.15-.27-.34-.47-.59-.62-.25-.14-.52-.21-.8-.21s-.55,.07-.79,.21-.44,.34-.59,.61c-.15,.27-.23,.58-.23,.95s.08,.69,.23,.96c.15,.28,.35,.49,.59,.63,.25,.15,.51,.22,.79,.22s.55-.07,.8-.21c.25-.14,.45-.35,.59-.62,.15-.27,.22-.59,.22-.96s-.07-.7-.22-.96Z"/><path class="cls-1" d="M430.94,33.35c.32-.18,.68-.27,1.09-.27v1.62h-.41c-.48,0-.85,.11-1.09,.34-.25,.23-.37,.62-.37,1.19v3.04h-1.54v-6.09h1.54v.95c.2-.32,.46-.58,.78-.76Z"/><path class="cls-1" d="M433.04,34.55c.25-.48,.58-.84,1-1.1s.89-.39,1.41-.39c.45,0,.85,.09,1.19,.28s.61,.41,.82,.69v-.87h1.55v6.09h-1.55v-.89c-.2,.29-.47,.52-.82,.71-.35,.19-.75,.28-1.21,.28-.51,0-.98-.13-1.4-.4s-.75-.64-1-1.12c-.25-.48-.37-1.03-.37-1.66s.12-1.16,.37-1.64Zm4.21,.7c-.15-.27-.34-.47-.59-.62-.25-.14-.52-.21-.8-.21s-.55,.07-.79,.21-.44,.34-.59,.61c-.15,.27-.23,.58-.23,.95s.08,.69,.23,.96c.15,.28,.35,.49,.59,.63,.25,.15,.51,.22,.79,.22s.55-.07,.8-.21c.25-.14,.45-.35,.59-.62,.15-.27,.22-.59,.22-.96s-.07-.7-.22-.96Z"/><path class="cls-1" d="M443.12,34.55c.25-.48,.58-.84,1-1.1s.89-.39,1.41-.39c.46,0,.85,.09,1.19,.28,.34,.18,.61,.41,.82,.69v-.87h1.55v6.09h-1.55v-.89c-.2,.29-.47,.52-.82,.71-.35,.19-.75,.28-1.2,.28-.51,0-.98-.13-1.4-.4s-.76-.64-1-1.12c-.25-.48-.37-1.03-.37-1.66s.12-1.16,.37-1.64Zm4.21,.7c-.15-.27-.34-.47-.59-.62-.25-.14-.52-.21-.8-.21s-.55,.07-.79,.21-.44,.34-.59,.61-.23,.58-.23,.95,.08,.69,.23,.96,.35,.49,.59,.63c.25,.15,.51,.22,.79,.22s.55-.07,.8-.21c.25-.14,.45-.35,.59-.62,.15-.27,.22-.59,.22-.96s-.07-.7-.22-.96Z"/><path class="cls-1" d="M452.96,33.34c.35-.18,.75-.28,1.19-.28,.52,0,.99,.13,1.41,.39,.42,.26,.75,.62,1,1.09,.25,.47,.37,1.02,.37,1.64s-.12,1.18-.37,1.66c-.25,.48-.58,.85-1,1.12-.42,.26-.89,.4-1.41,.4-.45,0-.85-.09-1.19-.27s-.61-.41-.82-.7v.87h-1.54v-8.14h1.54v2.94c.2-.29,.47-.53,.82-.71Zm2.18,1.9c-.15-.27-.35-.47-.59-.61s-.51-.21-.8-.21-.54,.07-.79,.21c-.25,.14-.44,.35-.59,.62s-.23,.59-.23,.96,.08,.69,.23,.96,.35,.48,.59,.62c.25,.14,.51,.21,.79,.21s.55-.07,.8-.22c.25-.15,.44-.36,.59-.63,.15-.27,.23-.59,.23-.97s-.08-.68-.23-.95Z"/><path class="cls-1" d="M459.18,38.97c-.47-.26-.84-.63-1.11-1.11-.27-.48-.4-1.03-.4-1.65s.14-1.17,.41-1.65c.28-.48,.65-.84,1.13-1.11,.48-.26,1.01-.39,1.59-.39s1.12,.13,1.59,.39c.48,.26,.85,.63,1.13,1.11,.27,.48,.41,1.03,.41,1.65s-.14,1.17-.42,1.65c-.28,.48-.66,.85-1.14,1.11-.48,.26-1.02,.39-1.61,.39s-1.12-.13-1.58-.39Zm2.37-1.16c.25-.14,.44-.34,.59-.61s.22-.6,.22-.99c0-.58-.15-1.02-.46-1.34-.3-.31-.68-.47-1.12-.47s-.81,.16-1.11,.47c-.3,.31-.45,.76-.45,1.34s.14,1.02,.43,1.34c.29,.31,.65,.47,1.09,.47,.28,0,.54-.07,.79-.2Z"/><path class="cls-1" d="M467.4,33.35c.32-.18,.68-.27,1.09-.27v1.62h-.41c-.48,0-.85,.11-1.09,.34-.25,.23-.37,.62-.37,1.19v3.04h-1.54v-6.09h1.54v.95c.2-.32,.46-.58,.78-.76Z"/><path class="cls-1" d="M469.5,34.55c.25-.48,.58-.84,1.01-1.1,.43-.26,.9-.39,1.42-.39,.4,0,.77,.09,1.13,.26,.36,.17,.64,.4,.86,.69v-2.89h1.56v8.14h-1.56v-.9c-.19,.3-.46,.54-.8,.73-.34,.18-.74,.27-1.2,.27-.51,0-.98-.13-1.41-.4-.42-.26-.76-.64-1.01-1.12-.25-.48-.37-1.03-.37-1.66s.12-1.16,.37-1.64Zm4.21,.7c-.15-.27-.34-.47-.59-.62-.25-.14-.52-.21-.8-.21s-.55,.07-.79,.21-.44,.34-.59,.61-.23,.58-.23,.95,.08,.69,.23,.96,.35,.49,.59,.63c.25,.15,.51,.22,.79,.22s.55-.07,.8-.21c.25-.14,.45-.35,.59-.62,.15-.27,.22-.59,.22-.96s-.07-.7-.22-.96Z"/><path class="cls-1" d="M476.95,34.55c.25-.48,.58-.84,1-1.1s.89-.39,1.41-.39c.46,0,.85,.09,1.19,.28,.34,.18,.61,.41,.82,.69v-.87h1.55v6.09h-1.55v-.89c-.2,.29-.47,.52-.82,.71-.35,.19-.75,.28-1.2,.28-.51,0-.98-.13-1.4-.4s-.76-.64-1-1.12c-.25-.48-.37-1.03-.37-1.66s.12-1.16,.37-1.64Zm4.21,.7c-.15-.27-.34-.47-.59-.62-.25-.14-.52-.21-.8-.21s-.55,.07-.79,.21-.44,.34-.59,.61-.23,.58-.23,.95,.08,.69,.23,.96,.35,.49,.59,.63c.25,.15,.51,.22,.79,.22s.55-.07,.8-.21c.25-.14,.45-.35,.59-.62,.15-.27,.22-.59,.22-.96s-.07-.7-.22-.96Z"/><path class="cls-1" d="M486.75,33.35c.32-.18,.68-.27,1.09-.27v1.62h-.41c-.48,0-.85,.11-1.09,.34-.25,.23-.37,.62-.37,1.19v3.04h-1.54v-6.09h1.54v.95c.2-.32,.46-.58,.78-.76Z"/><path class="cls-1" d="M492.62,38.97c-.47-.26-.84-.63-1.11-1.11-.27-.48-.4-1.03-.4-1.65s.14-1.17,.41-1.65c.28-.48,.65-.84,1.13-1.11,.48-.26,1.01-.39,1.59-.39s1.12,.13,1.59,.39c.48,.26,.85,.63,1.13,1.11,.27,.48,.41,1.03,.41,1.65s-.14,1.17-.42,1.65c-.28,.48-.66,.85-1.14,1.11-.48,.26-1.02,.39-1.61,.39s-1.12-.13-1.58-.39Zm2.37-1.16c.25-.14,.44-.34,.59-.61s.22-.6,.22-.99c0-.58-.15-1.02-.46-1.34-.3-.31-.68-.47-1.12-.47s-.81,.16-1.11,.47c-.3,.31-.45,.76-.45,1.34s.14,1.02,.43,1.34c.29,.31,.65,.47,1.09,.47,.28,0,.54-.07,.79-.2Z"/><path class="cls-1" d="M499.51,39.09c-.4-.18-.71-.42-.94-.73-.23-.31-.36-.65-.38-1.02h1.55c.03,.23,.14,.43,.35,.58,.2,.15,.45,.23,.75,.23s.52-.06,.69-.18,.25-.27,.25-.45c0-.2-.1-.35-.3-.45-.2-.1-.52-.21-.96-.32-.45-.11-.83-.22-1.12-.34s-.54-.3-.75-.54c-.21-.24-.31-.57-.31-.98,0-.34,.1-.65,.29-.92s.47-.5,.84-.66c.36-.16,.79-.24,1.28-.24,.73,0,1.3,.18,1.74,.54,.43,.36,.67,.85,.71,1.47h-1.47c-.02-.24-.12-.43-.3-.58-.18-.14-.42-.21-.72-.21-.28,0-.49,.05-.64,.15-.15,.1-.23,.25-.23,.43,0,.21,.1,.36,.31,.47,.21,.11,.52,.21,.96,.33,.44,.11,.8,.22,1.09,.34,.29,.12,.53,.3,.74,.54,.21,.25,.32,.57,.32,.97,0,.35-.1,.67-.29,.95s-.47,.5-.84,.65c-.36,.16-.79,.24-1.27,.24s-.95-.09-1.34-.27Z"/><path class="cls-1" d="M509.49,33.35c.35-.19,.75-.28,1.19-.28,.52,0,.99,.13,1.41,.39,.42,.26,.75,.62,1,1.09,.25,.47,.37,1.02,.37,1.64s-.12,1.18-.37,1.66c-.25,.48-.58,.85-1,1.12-.42,.26-.89,.4-1.41,.4-.45,0-.84-.09-1.18-.27-.34-.18-.62-.41-.83-.69v3.77h-1.54v-9h1.54v.88c.2-.28,.47-.51,.82-.7Zm2.18,1.89c-.15-.27-.35-.47-.59-.61s-.51-.21-.8-.21-.54,.07-.79,.21c-.25,.14-.44,.35-.59,.62s-.23,.59-.23,.96,.08,.69,.23,.96,.35,.48,.59,.62c.25,.14,.51,.21,.79,.21s.55-.07,.8-.22c.25-.15,.44-.36,.59-.63,.15-.27,.23-.59,.23-.97s-.08-.68-.23-.95Z"/><path class="cls-1" d="M516.91,33.35c.32-.18,.68-.27,1.09-.27v1.62h-.41c-.48,0-.85,.11-1.09,.34-.25,.23-.37,.62-.37,1.19v3.04h-1.54v-6.09h1.54v.95c.2-.32,.46-.58,.78-.76Z"/><path class="cls-1" d="M520.16,38.97c-.47-.26-.84-.63-1.11-1.11-.27-.48-.4-1.03-.4-1.65s.14-1.17,.41-1.65c.27-.48,.65-.84,1.13-1.11,.48-.26,1.01-.39,1.59-.39s1.12,.13,1.6,.39c.48,.26,.85,.63,1.13,1.11,.28,.48,.41,1.03,.41,1.65s-.14,1.17-.42,1.65c-.28,.48-.66,.85-1.14,1.11-.48,.26-1.02,.39-1.61,.39s-1.11-.13-1.58-.39Zm2.37-1.16c.25-.14,.44-.34,.59-.61,.15-.27,.22-.6,.22-.99,0-.58-.15-1.02-.46-1.34-.3-.31-.68-.47-1.12-.47s-.81,.16-1.11,.47c-.3,.31-.45,.76-.45,1.34s.14,1.02,.43,1.34c.29,.31,.65,.47,1.09,.47,.28,0,.54-.07,.79-.2Z"/><path class="cls-1" d="M528.41,33.34c.35-.18,.75-.28,1.19-.28,.52,0,.99,.13,1.41,.39,.42,.26,.75,.62,1,1.09,.25,.47,.37,1.02,.37,1.64s-.12,1.18-.37,1.66c-.25,.48-.58,.85-1,1.12-.42,.26-.89,.4-1.41,.4-.45,0-.85-.09-1.19-.27s-.61-.41-.82-.7v.87h-1.54v-8.14h1.54v2.94c.2-.29,.47-.53,.82-.71Zm2.18,1.9c-.15-.27-.35-.47-.59-.61s-.51-.21-.8-.21-.54,.07-.79,.21c-.25,.14-.44,.35-.59,.62s-.23,.59-.23,.96,.08,.69,.23,.96,.35,.48,.59,.62c.25,.14,.51,.21,.79,.21s.55-.07,.8-.22c.25-.15,.44-.36,.59-.63,.15-.27,.23-.59,.23-.97s-.08-.68-.23-.95Z"/><path class="cls-1" d="M535.05,31.12v8.14h-1.54v-8.14h1.54Z"/><path class="cls-1" d="M542.19,36.67h-4.46c.04,.44,.19,.79,.46,1.03,.27,.25,.6,.37,1,.37,.57,0,.98-.25,1.22-.74h1.66c-.18,.59-.51,1.07-1.01,1.45-.5,.38-1.11,.57-1.84,.57-.59,0-1.11-.13-1.58-.39-.47-.26-.83-.63-1.09-1.11-.26-.48-.39-1.03-.39-1.65s.13-1.18,.38-1.66,.62-.84,1.08-1.1,.99-.39,1.59-.39,1.1,.12,1.56,.37c.46,.25,.81,.6,1.07,1.06,.25,.46,.38,.98,.38,1.58,0,.22-.01,.42-.04,.59Zm-1.55-1.03c0-.4-.15-.71-.43-.95-.28-.24-.62-.36-1.02-.36-.38,0-.7,.12-.96,.35-.26,.23-.42,.55-.48,.96h2.89Z"/><path class="cls-1" d="M552.73,33.76c.46,.46,.69,1.1,.69,1.92v3.58h-1.54v-3.37c0-.48-.12-.84-.36-1.09-.24-.25-.57-.38-.99-.38s-.75,.13-1,.38c-.25,.25-.37,.62-.37,1.09v3.37h-1.54v-3.37c0-.48-.12-.84-.36-1.09-.24-.25-.57-.38-.99-.38s-.76,.13-1.01,.38c-.25,.25-.37,.62-.37,1.09v3.37h-1.54v-6.09h1.54v.74c.2-.26,.45-.46,.76-.6s.65-.22,1.03-.22c.48,0,.9,.1,1.28,.3,.37,.2,.66,.49,.87,.86,.2-.35,.49-.63,.86-.85,.38-.21,.79-.32,1.23-.32,.75,0,1.35,.23,1.81,.69Z"/><path class="cls-1" d="M554.86,34.55c.25-.48,.58-.84,1-1.1s.89-.39,1.41-.39c.46,0,.85,.09,1.19,.28,.34,.18,.61,.41,.82,.69v-.87h1.55v6.09h-1.55v-.89c-.2,.29-.47,.52-.82,.71-.35,.19-.75,.28-1.2,.28-.51,0-.98-.13-1.4-.4s-.76-.64-1-1.12c-.25-.48-.37-1.03-.37-1.66s.12-1.16,.37-1.64Zm4.21,.7c-.15-.27-.34-.47-.59-.62-.25-.14-.52-.21-.8-.21s-.55,.07-.79,.21-.44,.34-.59,.61-.23,.58-.23,.95,.08,.69,.23,.96,.35,.49,.59,.63c.25,.15,.51,.22,.79,.22s.55-.07,.8-.21c.25-.14,.45-.35,.59-.62,.15-.27,.22-.59,.22-.96s-.07-.7-.22-.96Z"/><path class="cls-1" d="M563.33,39.09c-.4-.18-.71-.42-.94-.73-.23-.31-.36-.65-.38-1.02h1.55c.03,.23,.14,.43,.35,.58,.2,.15,.45,.23,.75,.23s.52-.06,.69-.18,.25-.27,.25-.45c0-.2-.1-.35-.3-.45-.2-.1-.52-.21-.96-.32-.46-.11-.83-.22-1.12-.34-.29-.12-.54-.3-.75-.54-.21-.24-.31-.57-.31-.98,0-.34,.1-.65,.29-.92s.47-.5,.84-.66,.79-.24,1.28-.24c.73,0,1.31,.18,1.74,.54s.67,.85,.71,1.47h-1.47c-.02-.24-.12-.43-.3-.58-.18-.14-.42-.21-.72-.21-.28,0-.49,.05-.64,.15-.15,.1-.23,.25-.23,.43,0,.21,.1,.36,.31,.47,.21,.11,.52,.21,.96,.33,.44,.11,.8,.22,1.09,.34s.53,.3,.74,.54c.21,.25,.32,.57,.32,.97,0,.35-.1,.67-.29,.95s-.47,.5-.84,.65c-.36,.16-.79,.24-1.27,.24s-.95-.09-1.34-.27Z"/><path class="cls-1" d="M413.81,45.38c-.18-.17-.27-.39-.27-.64s.09-.47,.27-.64c.18-.17,.41-.26,.68-.26s.5,.09,.68,.26c.18,.17,.27,.39,.27,.64s-.09,.47-.27,.64c-.18,.17-.41,.26-.68,.26s-.5-.09-.68-.26Zm1.44,.98v6.09h-1.54v-6.09h1.54Z"/><path class="cls-1" d="M416.74,47.75c.25-.48,.58-.84,1.01-1.1s.9-.39,1.42-.39c.4,0,.77,.09,1.13,.26,.36,.17,.65,.4,.86,.69v-2.89h1.56v8.14h-1.56v-.9c-.19,.3-.46,.54-.8,.73-.35,.18-.74,.27-1.2,.27-.51,0-.98-.13-1.41-.4s-.76-.64-1.01-1.12c-.25-.48-.37-1.03-.37-1.66s.12-1.16,.37-1.64Zm4.21,.7c-.15-.27-.34-.47-.59-.62-.25-.14-.52-.21-.8-.21s-.55,.07-.79,.21-.44,.34-.59,.61c-.15,.27-.23,.58-.23,.95s.08,.69,.23,.96c.15,.28,.35,.49,.59,.63,.25,.15,.51,.22,.79,.22s.55-.07,.8-.21c.25-.14,.45-.35,.59-.62,.15-.27,.22-.59,.22-.96s-.07-.7-.22-.96Z"/><path class="cls-1" d="M429.85,49.87h-4.46c.04,.44,.19,.79,.46,1.03,.27,.25,.6,.37,1,.37,.57,0,.98-.25,1.22-.74h1.66c-.18,.59-.51,1.07-1.01,1.45-.5,.38-1.11,.57-1.84,.57-.59,0-1.11-.13-1.58-.39-.47-.26-.83-.63-1.09-1.11-.26-.48-.39-1.03-.39-1.65s.13-1.18,.39-1.66c.26-.48,.62-.84,1.08-1.1,.46-.26,.99-.39,1.59-.39s1.1,.12,1.56,.37c.46,.25,.81,.6,1.07,1.06,.25,.46,.38,.98,.38,1.58,0,.22-.01,.42-.04,.59Zm-1.55-1.03c0-.4-.15-.71-.43-.95s-.62-.36-1.02-.36c-.38,0-.7,.12-.96,.35-.26,.23-.42,.55-.48,.96h2.89Z"/><path class="cls-1" d="M436.15,46.96c.45,.46,.67,1.1,.67,1.92v3.58h-1.54v-3.37c0-.48-.12-.86-.36-1.12s-.57-.39-.99-.39-.76,.13-1.01,.39c-.25,.26-.37,.63-.37,1.12v3.37h-1.54v-6.09h1.54v.76c.21-.26,.47-.47,.79-.62,.32-.15,.67-.23,1.05-.23,.73,0,1.31,.23,1.76,.69Z"/><path class="cls-1" d="M440.08,47.63v2.95c0,.21,.05,.35,.15,.45s.27,.14,.5,.14h.71v1.3h-.97c-1.3,0-1.95-.63-1.95-1.89v-2.94h-.73v-1.26h.73v-1.51h1.55v1.51h1.36v1.26h-1.36Z"/><path class="cls-1" d="M442.66,45.38c-.18-.17-.27-.39-.27-.64s.09-.47,.27-.64c.18-.17,.41-.26,.68-.26s.5,.09,.68,.26c.18,.17,.27,.39,.27,.64s-.09,.47-.27,.64c-.18,.17-.41,.26-.68,.26s-.5-.09-.68-.26Zm1.44,.98v6.09h-1.54v-6.09h1.54Z"/><path class="cls-1" d="M448.4,47.63h-1.07v4.83h-1.56v-4.83h-.69v-1.26h.69v-.31c0-.75,.21-1.3,.64-1.65,.43-.35,1.07-.52,1.92-.5v1.3c-.37,0-.63,.05-.78,.19-.15,.13-.22,.37-.22,.71v.25h1.07v1.26Z"/><path class="cls-1" d="M449.51,45.38c-.18-.17-.27-.39-.27-.64s.09-.47,.27-.64c.18-.17,.41-.26,.68-.26s.5,.09,.68,.26c.18,.17,.27,.39,.27,.64s-.09,.47-.27,.64c-.18,.17-.41,.26-.68,.26s-.5-.09-.68-.26Zm1.44,.98v6.09h-1.54v-6.09h1.54Z"/><path class="cls-1" d="M452.45,47.76c.26-.47,.61-.84,1.07-1.1,.45-.26,.97-.39,1.56-.39,.76,0,1.38,.19,1.88,.57,.5,.38,.83,.91,1,1.59h-1.66c-.09-.26-.24-.47-.45-.62s-.47-.23-.78-.23c-.44,0-.79,.16-1.04,.48-.26,.32-.38,.77-.38,1.36s.13,1.03,.38,1.35c.26,.32,.6,.48,1.04,.48,.62,0,1.03-.28,1.22-.84h1.66c-.17,.66-.5,1.18-1,1.57s-1.12,.58-1.87,.58c-.59,0-1.11-.13-1.56-.39-.46-.26-.81-.63-1.07-1.1s-.38-1.02-.38-1.66,.13-1.18,.38-1.66Z"/><path class="cls-1" d="M459.06,47.75c.25-.48,.58-.84,1-1.1s.89-.39,1.41-.39c.45,0,.85,.09,1.19,.28s.61,.41,.82,.69v-.87h1.55v6.09h-1.55v-.89c-.2,.29-.47,.52-.82,.71-.35,.19-.75,.28-1.21,.28-.51,0-.98-.13-1.4-.4s-.75-.64-1-1.12c-.25-.48-.37-1.03-.37-1.66s.12-1.16,.37-1.64Zm4.21,.7c-.15-.27-.34-.47-.59-.62-.25-.14-.52-.21-.8-.21s-.55,.07-.79,.21-.44,.34-.59,.61c-.15,.27-.23,.58-.23,.95s.08,.69,.23,.96c.15,.28,.35,.49,.59,.63,.25,.15,.51,.22,.79,.22s.55-.07,.8-.21c.25-.14,.45-.35,.59-.62,.15-.27,.22-.59,.22-.96s-.07-.7-.22-.96Z"/><path class="cls-1" d="M466.52,47.75c.25-.48,.58-.84,1.01-1.1,.42-.26,.9-.39,1.42-.39,.4,0,.77,.09,1.13,.26,.36,.17,.65,.4,.86,.69v-2.89h1.56v8.14h-1.56v-.9c-.19,.3-.46,.54-.8,.73-.35,.18-.75,.27-1.2,.27-.51,0-.98-.13-1.41-.4-.43-.26-.76-.64-1.01-1.12-.25-.48-.37-1.03-.37-1.66s.12-1.16,.37-1.64Zm4.21,.7c-.15-.27-.34-.47-.59-.62-.25-.14-.52-.21-.8-.21s-.55,.07-.79,.21-.44,.34-.59,.61c-.15,.27-.23,.58-.23,.95s.08,.69,.23,.96c.15,.28,.35,.49,.59,.63,.25,.15,.51,.22,.79,.22s.55-.07,.8-.21c.25-.14,.45-.35,.59-.62,.15-.27,.22-.59,.22-.96s-.07-.7-.22-.96Z"/><path class="cls-1" d="M475.12,52.17c-.47-.26-.84-.63-1.11-1.11-.27-.48-.4-1.03-.4-1.65s.14-1.17,.41-1.65c.27-.48,.65-.84,1.13-1.11,.48-.26,1.01-.39,1.59-.39s1.12,.13,1.6,.39c.48,.26,.85,.63,1.13,1.11,.28,.48,.41,1.03,.41,1.65s-.14,1.17-.42,1.65c-.28,.48-.66,.85-1.14,1.11-.48,.26-1.02,.39-1.61,.39s-1.11-.13-1.58-.39Zm2.37-1.16c.25-.14,.44-.34,.59-.61,.15-.27,.22-.6,.22-.99,0-.58-.15-1.02-.46-1.34-.3-.31-.68-.47-1.12-.47s-.81,.16-1.11,.47c-.3,.31-.45,.76-.45,1.34s.14,1.02,.43,1.34c.29,.31,.65,.47,1.09,.47,.28,0,.54-.07,.79-.2Z"/><path class="cls-1" d="M482.01,52.29c-.4-.18-.71-.42-.94-.73-.23-.31-.36-.65-.38-1.02h1.55c.03,.23,.14,.43,.35,.58,.2,.15,.45,.23,.75,.23s.52-.06,.69-.18,.25-.27,.25-.45c0-.2-.1-.35-.3-.45-.2-.1-.52-.21-.96-.32-.46-.11-.83-.22-1.12-.34-.29-.12-.54-.3-.75-.54-.21-.24-.31-.57-.31-.98,0-.34,.1-.65,.29-.92s.47-.5,.84-.66,.79-.24,1.28-.24c.73,0,1.31,.18,1.74,.54s.67,.85,.71,1.47h-1.47c-.02-.24-.12-.43-.3-.58-.18-.14-.42-.21-.72-.21-.28,0-.49,.05-.64,.15-.15,.1-.23,.25-.23,.43,0,.21,.1,.36,.31,.47,.21,.11,.52,.21,.96,.33,.44,.11,.8,.22,1.09,.34s.53,.3,.74,.54c.21,.25,.32,.57,.32,.97,0,.35-.1,.67-.29,.95s-.47,.5-.84,.65c-.36,.16-.79,.24-1.27,.24s-.95-.09-1.34-.27Z"/><path class="cls-1" d="M487.01,52.28c-.18-.17-.27-.39-.27-.64s.09-.47,.27-.64c.18-.17,.41-.26,.69-.26s.5,.09,.67,.26c.18,.17,.26,.39,.26,.64s-.09,.47-.26,.64c-.18,.17-.4,.26-.67,.26s-.51-.09-.69-.26Z"/></g><g><path class="cls-1" d="M624.09,9.78v8.38h-1.68v-5.45l-2.24,5.45h-1.27l-2.26-5.45v5.45h-1.68V9.78h1.91l2.66,6.23,2.66-6.23h1.9Z"/><path class="cls-1" d="M626.97,17.84c-.51-.28-.91-.69-1.21-1.21-.29-.52-.44-1.12-.44-1.8s.15-1.28,.45-1.8c.3-.52,.71-.92,1.23-1.21,.52-.28,1.1-.43,1.74-.43s1.22,.14,1.74,.43c.52,.28,.93,.69,1.23,1.21,.3,.52,.45,1.12,.45,1.8s-.15,1.28-.46,1.8c-.31,.52-.72,.92-1.25,1.21-.52,.28-1.11,.43-1.76,.43s-1.22-.14-1.73-.43Zm2.59-1.26c.27-.15,.48-.37,.64-.67s.24-.66,.24-1.08c0-.63-.17-1.12-.5-1.46-.33-.34-.74-.51-1.22-.51s-.88,.17-1.21,.51c-.32,.34-.49,.83-.49,1.46s.16,1.12,.47,1.46c.32,.34,.71,.51,1.19,.51,.3,0,.59-.07,.86-.22Z"/><path class="cls-1" d="M639.01,12.16c.49,.5,.73,1.2,.73,2.09v3.9h-1.68v-3.67c0-.53-.13-.93-.4-1.22s-.62-.43-1.08-.43-.83,.14-1.1,.43c-.27,.28-.4,.69-.4,1.22v3.67h-1.68v-6.65h1.68v.83c.22-.29,.51-.51,.86-.68,.35-.16,.73-.25,1.15-.25,.79,0,1.43,.25,1.92,.75Z"/><path class="cls-1" d="M641.45,10.44c-.2-.19-.29-.42-.29-.7s.1-.51,.29-.7c.2-.19,.44-.28,.74-.28s.54,.09,.74,.28c.2,.19,.29,.42,.29,.7s-.1,.51-.29,.7c-.2,.19-.44,.28-.74,.28s-.54-.09-.74-.28Zm1.57,1.07v6.65h-1.68v-6.65h1.68Z"/><path class="cls-1" d="M646.63,12.89v3.22c0,.22,.05,.39,.16,.49,.11,.1,.29,.15,.55,.15h.78v1.42h-1.06c-1.42,0-2.12-.69-2.12-2.06v-3.2h-.79v-1.38h.79v-1.64h1.69v1.64h1.49v1.38h-1.49Z"/><path class="cls-1" d="M650.55,17.84c-.51-.28-.91-.69-1.21-1.21-.29-.52-.44-1.12-.44-1.8s.15-1.28,.45-1.8c.3-.52,.71-.92,1.23-1.21,.52-.28,1.1-.43,1.74-.43s1.22,.14,1.74,.43c.52,.28,.93,.69,1.23,1.21,.3,.52,.45,1.12,.45,1.8s-.15,1.28-.46,1.8c-.31,.52-.72,.92-1.25,1.21-.52,.28-1.11,.43-1.76,.43s-1.22-.14-1.73-.43Zm2.59-1.26c.27-.15,.48-.37,.64-.67,.16-.3,.24-.66,.24-1.08,0-.63-.17-1.12-.5-1.46-.33-.34-.74-.51-1.22-.51s-.88,.17-1.21,.51c-.32,.34-.49,.83-.49,1.46s.16,1.12,.47,1.46c.32,.34,.71,.51,1.19,.51,.3,0,.59-.07,.86-.22Z"/><path class="cls-1" d="M659.51,11.71c.35-.2,.75-.3,1.19-.3v1.76h-.44c-.53,0-.93,.12-1.19,.37-.27,.25-.4,.68-.4,1.3v3.31h-1.68v-6.65h1.68v1.03c.22-.35,.5-.63,.85-.83Z"/><path class="cls-1" d="M661.8,13.02c.27-.52,.63-.92,1.09-1.2,.46-.28,.97-.42,1.54-.42,.5,0,.93,.1,1.3,.3s.67,.45,.89,.76v-.95h1.69v6.65h-1.69v-.97c-.22,.31-.51,.57-.89,.77s-.82,.31-1.31,.31c-.56,0-1.07-.14-1.53-.43-.46-.29-.82-.69-1.09-1.22-.27-.52-.4-1.13-.4-1.81s.13-1.27,.4-1.79Zm4.59,.76c-.16-.29-.38-.52-.65-.67-.27-.16-.56-.23-.88-.23s-.6,.08-.86,.23c-.26,.15-.48,.37-.64,.67s-.25,.64-.25,1.04,.08,.75,.25,1.05,.38,.53,.65,.69c.27,.16,.55,.24,.86,.24s.6-.08,.88-.23c.27-.16,.49-.38,.65-.67,.16-.29,.24-.64,.24-1.05s-.08-.76-.24-1.05Z"/><path class="cls-1" d="M672.49,11.71c.35-.2,.75-.3,1.19-.3v1.76h-.44c-.53,0-.93,.12-1.19,.37-.27,.25-.4,.68-.4,1.3v3.31h-1.68v-6.65h1.68v1.03c.22-.35,.5-.63,.85-.83Z"/><path class="cls-1" d="M677.64,13.02c.27-.52,.63-.92,1.09-1.2s.97-.42,1.54-.42c.5,0,.93,.1,1.3,.3s.67,.45,.89,.76v-.95h1.69v6.65h-1.69v-.97c-.22,.31-.51,.57-.89,.77s-.82,.31-1.31,.31c-.56,0-1.07-.14-1.53-.43s-.82-.69-1.09-1.22c-.27-.52-.4-1.13-.4-1.81s.13-1.27,.4-1.79Zm4.59,.76c-.16-.29-.38-.52-.65-.67-.27-.16-.56-.23-.88-.23s-.6,.08-.86,.23c-.26,.15-.48,.37-.64,.67s-.25,.64-.25,1.04,.08,.75,.25,1.05,.38,.53,.65,.69c.27,.16,.55,.24,.86,.24s.6-.08,.88-.23c.27-.16,.49-.38,.65-.67,.16-.29,.24-.64,.24-1.05s-.08-.76-.24-1.05Z"/><path class="cls-1" d="M694.79,15.34h-4.86c.04,.48,.21,.86,.5,1.13,.3,.27,.66,.41,1.09,.41,.62,0,1.07-.27,1.33-.8h1.81c-.19,.64-.56,1.17-1.1,1.58s-1.21,.62-2,.62c-.64,0-1.21-.14-1.72-.43-.51-.28-.9-.69-1.19-1.21-.28-.52-.43-1.12-.43-1.8s.14-1.29,.42-1.81c.28-.52,.67-.92,1.18-1.2s1.08-.42,1.74-.42,1.2,.14,1.7,.41c.5,.27,.89,.66,1.16,1.16,.28,.5,.41,1.07,.41,1.72,0,.24-.02,.46-.05,.65Zm-1.69-1.13c0-.43-.16-.78-.47-1.04-.3-.26-.68-.39-1.12-.39-.42,0-.77,.13-1.05,.38-.28,.25-.46,.6-.52,1.05h3.16Z"/><path class="cls-1" d="M699.11,12.89h-1.16v5.27h-1.7v-5.27h-.76v-1.38h.76v-.34c0-.82,.23-1.42,.7-1.8,.46-.38,1.16-.56,2.1-.54v1.42c-.41,0-.69,.06-.85,.2-.16,.14-.24,.4-.24,.78v.28h1.16v1.38Z"/><path class="cls-1" d="M706.34,15.34h-4.86c.04,.48,.21,.86,.5,1.13,.3,.27,.66,.41,1.09,.41,.62,0,1.07-.27,1.33-.8h1.81c-.19,.64-.56,1.17-1.1,1.58s-1.21,.62-2,.62c-.64,0-1.21-.14-1.72-.43-.51-.28-.9-.69-1.19-1.21-.28-.52-.43-1.12-.43-1.8s.14-1.29,.42-1.81c.28-.52,.67-.92,1.18-1.2,.5-.28,1.08-.42,1.74-.42s1.2,.14,1.7,.41c.5,.27,.89,.66,1.16,1.16,.28,.5,.41,1.07,.41,1.72,0,.24-.02,.46-.05,.65Zm-1.69-1.13c0-.43-.16-.78-.47-1.04-.3-.26-.68-.39-1.12-.39-.42,0-.77,.13-1.05,.38s-.46,.6-.52,1.05h3.16Z"/><path class="cls-1" d="M709.57,12.89v3.22c0,.22,.05,.39,.16,.49,.11,.1,.29,.15,.55,.15h.78v1.42h-1.06c-1.42,0-2.12-.69-2.12-2.06v-3.2h-.79v-1.38h.79v-1.64h1.69v1.64h1.49v1.38h-1.49Z"/><path class="cls-1" d="M712.38,10.44c-.2-.19-.29-.42-.29-.7s.1-.51,.29-.7c.2-.19,.44-.28,.74-.28s.54,.09,.74,.28c.2,.19,.29,.42,.29,.7s-.1,.51-.29,.7c-.2,.19-.44,.28-.74,.28s-.54-.09-.74-.28Zm1.57,1.07v6.65h-1.68v-6.65h1.68Z"/><path class="cls-1" d="M718.37,16.61l1.68-5.1h1.79l-2.46,6.65h-2.04l-2.45-6.65h1.8l1.68,5.1Z"/><path class="cls-1" d="M722.9,10.44c-.2-.19-.29-.42-.29-.7s.1-.51,.29-.7c.2-.19,.44-.28,.74-.28s.54,.09,.74,.28c.2,.19,.29,.42,.29,.7s-.1,.51-.29,.7c-.2,.19-.44,.28-.74,.28s-.54-.09-.74-.28Zm1.57,1.07v6.65h-1.68v-6.65h1.68Z"/><path class="cls-1" d="M726.09,13.02c.27-.52,.63-.92,1.1-1.2s.98-.42,1.55-.42c.43,0,.84,.09,1.24,.28,.39,.19,.7,.44,.94,.75v-3.16h1.7v8.88h-1.7v-.98c-.21,.33-.5,.59-.88,.79-.38,.2-.81,.3-1.31,.3-.56,0-1.07-.14-1.54-.43s-.83-.69-1.1-1.22c-.27-.52-.4-1.13-.4-1.81s.13-1.27,.4-1.79Zm4.59,.76c-.16-.29-.38-.52-.65-.67-.27-.16-.56-.23-.88-.23s-.6,.08-.86,.23c-.26,.15-.48,.37-.64,.67s-.25,.64-.25,1.04,.08,.75,.25,1.05,.38,.53,.65,.69c.27,.16,.55,.24,.86,.24s.6-.08,.88-.23c.27-.16,.49-.38,.65-.67,.16-.29,.24-.64,.24-1.05s-.08-.76-.24-1.05Z"/><path class="cls-1" d="M734.23,13.02c.27-.52,.63-.92,1.09-1.2,.46-.28,.97-.42,1.54-.42,.5,0,.93,.1,1.3,.3s.67,.45,.89,.76v-.95h1.69v6.65h-1.69v-.97c-.22,.31-.51,.57-.89,.77s-.82,.31-1.31,.31c-.56,0-1.07-.14-1.53-.43-.46-.29-.82-.69-1.09-1.22-.27-.52-.4-1.13-.4-1.81s.13-1.27,.4-1.79Zm4.59,.76c-.16-.29-.38-.52-.65-.67-.27-.16-.56-.23-.88-.23s-.6,.08-.86,.23c-.26,.15-.48,.37-.64,.67s-.25,.64-.25,1.04,.08,.75,.25,1.05,.38,.53,.65,.69c.27,.16,.55,.24,.86,.24s.6-.08,.88-.23c.27-.16,.49-.38,.65-.67,.16-.29,.24-.64,.24-1.05s-.08-.76-.24-1.05Z"/><path class="cls-1" d="M742.37,13.02c.27-.52,.63-.92,1.1-1.2s.98-.42,1.55-.42c.43,0,.84,.09,1.24,.28,.39,.19,.7,.44,.94,.75v-3.16h1.7v8.88h-1.7v-.98c-.21,.33-.5,.59-.88,.79-.38,.2-.81,.3-1.31,.3-.56,0-1.07-.14-1.54-.43s-.83-.69-1.1-1.22c-.27-.52-.4-1.13-.4-1.81s.13-1.27,.4-1.79Zm4.59,.76c-.16-.29-.38-.52-.65-.67-.27-.16-.56-.23-.88-.23s-.6,.08-.86,.23c-.26,.15-.48,.37-.64,.67s-.25,.64-.25,1.04,.08,.75,.25,1.05,.38,.53,.65,.69c.27,.16,.55,.24,.86,.24s.6-.08,.88-.23c.27-.16,.49-.38,.65-.67,.16-.29,.24-.64,.24-1.05s-.08-.76-.24-1.05Z"/><path class="cls-1" d="M756.66,15.34h-4.86c.04,.48,.21,.86,.5,1.13,.3,.27,.66,.41,1.09,.41,.62,0,1.07-.27,1.33-.8h1.81c-.19,.64-.56,1.17-1.1,1.58s-1.21,.62-2,.62c-.64,0-1.21-.14-1.72-.43-.51-.28-.9-.69-1.19-1.21-.28-.52-.43-1.12-.43-1.8s.14-1.29,.42-1.81c.28-.52,.67-.92,1.18-1.2s1.08-.42,1.74-.42,1.2,.14,1.7,.41c.5,.27,.89,.66,1.16,1.16,.28,.5,.41,1.07,.41,1.72,0,.24-.02,.46-.05,.65Zm-1.69-1.13c0-.43-.16-.78-.47-1.04-.3-.26-.68-.39-1.12-.39-.42,0-.77,.13-1.05,.38-.28,.25-.46,.6-.52,1.05h3.16Z"/><path class="cls-1" d="M614.93,27.42c.27-.52,.63-.92,1.1-1.2s.98-.42,1.55-.42c.43,0,.84,.09,1.24,.28,.39,.19,.7,.44,.94,.75v-3.16h1.7v8.88h-1.7v-.98c-.21,.33-.5,.59-.88,.79-.38,.2-.81,.3-1.31,.3-.56,0-1.07-.14-1.54-.43s-.83-.69-1.1-1.22c-.27-.52-.4-1.13-.4-1.81s.13-1.27,.4-1.79Zm4.59,.76c-.16-.29-.38-.52-.65-.67-.27-.16-.56-.23-.88-.23s-.6,.08-.86,.23c-.26,.15-.48,.37-.64,.67s-.25,.64-.25,1.04,.08,.75,.25,1.05,.38,.53,.65,.69c.27,.16,.55,.24,.86,.24s.6-.08,.88-.23c.27-.16,.49-.38,.65-.67,.16-.29,.24-.64,.24-1.05s-.08-.76-.24-1.05Z"/><path class="cls-1" d="M623.07,27.42c.27-.52,.63-.92,1.09-1.2,.46-.28,.97-.42,1.54-.42,.5,0,.93,.1,1.3,.3s.67,.45,.89,.76v-.95h1.69v6.65h-1.69v-.97c-.22,.31-.51,.57-.89,.77s-.82,.31-1.31,.31c-.56,0-1.07-.14-1.53-.43-.46-.29-.82-.69-1.09-1.22-.27-.52-.4-1.13-.4-1.81s.13-1.27,.4-1.79Zm4.59,.76c-.16-.29-.38-.52-.65-.67-.27-.16-.56-.23-.88-.23s-.6,.08-.86,.23c-.26,.15-.48,.37-.64,.67s-.25,.64-.25,1.04,.08,.75,.25,1.05,.38,.53,.65,.69c.27,.16,.55,.24,.86,.24s.6-.08,.88-.23c.27-.16,.49-.38,.65-.67,.16-.29,.24-.64,.24-1.05s-.08-.76-.24-1.05Z"/><path class="cls-1" d="M632.31,32.37c-.43-.2-.77-.46-1.03-.8s-.39-.71-.41-1.12h1.69c.03,.26,.16,.47,.38,.64s.49,.25,.82,.25,.57-.06,.75-.19,.27-.29,.27-.49c0-.22-.11-.38-.33-.49-.22-.11-.57-.23-1.05-.35-.5-.12-.9-.24-1.22-.37-.32-.13-.59-.32-.82-.59-.23-.26-.34-.62-.34-1.07,0-.37,.11-.7,.32-1.01,.21-.3,.52-.54,.91-.72,.4-.18,.86-.26,1.4-.26,.79,0,1.42,.2,1.9,.59,.47,.4,.73,.93,.78,1.6h-1.61c-.02-.26-.13-.47-.33-.63-.2-.16-.46-.23-.79-.23-.3,0-.54,.06-.7,.17s-.25,.27-.25,.47c0,.22,.11,.39,.34,.51,.22,.12,.57,.23,1.04,.35,.48,.12,.88,.24,1.19,.37,.31,.13,.58,.33,.81,.59,.23,.27,.35,.62,.35,1.06,0,.38-.11,.73-.32,1.03-.21,.3-.52,.54-.91,.71-.4,.17-.86,.26-1.39,.26s-1.03-.1-1.46-.29Z"/><path class="cls-1" d="M650.86,26.56c.5,.5,.75,1.2,.75,2.09v3.9h-1.68v-3.67c0-.52-.13-.92-.4-1.19-.26-.28-.62-.41-1.08-.41s-.82,.14-1.09,.41c-.27,.28-.4,.67-.4,1.19v3.67h-1.68v-3.67c0-.52-.13-.92-.4-1.19-.26-.28-.62-.41-1.08-.41s-.83,.14-1.1,.41c-.27,.28-.4,.67-.4,1.19v3.67h-1.68v-6.65h1.68v.8c.22-.28,.49-.5,.83-.66s.71-.24,1.12-.24c.52,0,.98,.11,1.39,.33,.41,.22,.72,.53,.95,.94,.22-.38,.53-.69,.94-.92,.41-.23,.86-.35,1.34-.35,.82,0,1.47,.25,1.97,.75Z"/><path class="cls-1" d="M654.43,32.24c-.51-.28-.91-.69-1.21-1.21-.29-.52-.44-1.12-.44-1.8s.15-1.28,.45-1.8c.3-.52,.71-.92,1.23-1.21,.52-.28,1.1-.43,1.74-.43s1.22,.14,1.74,.43c.52,.28,.93,.69,1.23,1.21,.3,.52,.45,1.12,.45,1.8s-.15,1.28-.46,1.8c-.31,.52-.72,.92-1.25,1.21-.52,.28-1.11,.43-1.76,.43s-1.22-.14-1.73-.43Zm2.59-1.26c.27-.15,.48-.37,.64-.67s.24-.66,.24-1.08c0-.63-.17-1.12-.5-1.46-.33-.34-.74-.51-1.22-.51s-.88,.17-1.21,.51c-.32,.34-.49,.83-.49,1.46s.16,1.12,.47,1.46c.32,.34,.71,.51,1.19,.51,.3,0,.59-.07,.86-.22Z"/><path class="cls-1" d="M660.83,27.42c.27-.52,.63-.92,1.1-1.2s.98-.42,1.55-.42c.43,0,.84,.09,1.24,.28,.39,.19,.7,.44,.94,.75v-3.16h1.7v8.88h-1.7v-.98c-.21,.33-.5,.59-.88,.79-.38,.2-.81,.3-1.31,.3-.56,0-1.07-.14-1.54-.43s-.83-.69-1.1-1.22c-.27-.52-.4-1.13-.4-1.81s.13-1.27,.4-1.79Zm4.59,.76c-.16-.29-.38-.52-.65-.67-.27-.16-.56-.23-.88-.23s-.6,.08-.86,.23c-.26,.15-.48,.37-.64,.67s-.25,.64-.25,1.04,.08,.75,.25,1.05,.38,.53,.65,.69c.27,.16,.55,.24,.86,.24s.6-.08,.88-.23c.27-.16,.49-.38,.65-.67,.16-.29,.24-.64,.24-1.05s-.08-.76-.24-1.05Z"/><path class="cls-1" d="M669.11,24.84c-.2-.19-.29-.42-.29-.7s.1-.51,.29-.7c.2-.19,.44-.28,.74-.28s.54,.09,.74,.28c.2,.19,.29,.42,.29,.7s-.1,.51-.29,.7c-.2,.19-.44,.28-.74,.28s-.54-.09-.74-.28Zm1.57,1.07v6.65h-1.68v-6.65h1.68Z"/><path class="cls-1" d="M675.38,27.29h-1.16v5.27h-1.7v-5.27h-.76v-1.38h.76v-.34c0-.82,.23-1.42,.7-1.8,.46-.38,1.16-.56,2.1-.54v1.42c-.41,0-.69,.06-.85,.2-.16,.14-.24,.4-.24,.78v.28h1.16v1.38Z"/><path class="cls-1" d="M676.58,24.84c-.2-.19-.29-.42-.29-.7s.1-.51,.29-.7c.2-.19,.44-.28,.74-.28s.54,.09,.74,.28c.2,.19,.29,.42,.29,.7s-.1,.51-.29,.7c-.2,.19-.44,.28-.74,.28s-.54-.09-.74-.28Zm1.57,1.07v6.65h-1.68v-6.65h1.68Z"/><path class="cls-1" d="M679.79,27.43c.28-.52,.67-.92,1.16-1.2s1.06-.43,1.7-.43c.82,0,1.51,.21,2.05,.62s.9,.99,1.09,1.73h-1.81c-.1-.29-.26-.51-.49-.68-.23-.16-.51-.25-.85-.25-.48,0-.86,.17-1.14,.52-.28,.35-.42,.84-.42,1.48s.14,1.12,.42,1.47c.28,.35,.66,.52,1.14,.52,.68,0,1.12-.3,1.33-.91h1.81c-.18,.72-.55,1.29-1.09,1.72-.54,.42-1.22,.64-2.04,.64-.64,0-1.21-.14-1.7-.43-.5-.28-.88-.68-1.16-1.2-.28-.52-.42-1.12-.42-1.81s.14-1.29,.42-1.81Z"/><path class="cls-1" d="M687,27.42c.27-.52,.63-.92,1.09-1.2,.46-.28,.97-.42,1.54-.42,.5,0,.93,.1,1.3,.3s.67,.45,.89,.76v-.95h1.69v6.65h-1.69v-.97c-.22,.31-.51,.57-.89,.77s-.82,.31-1.31,.31c-.56,0-1.07-.14-1.53-.43-.46-.29-.82-.69-1.09-1.22-.27-.52-.4-1.13-.4-1.81s.13-1.27,.4-1.79Zm4.59,.76c-.16-.29-.38-.52-.65-.67-.27-.16-.56-.23-.88-.23s-.6,.08-.86,.23c-.26,.15-.48,.37-.64,.67s-.25,.64-.25,1.04,.08,.75,.25,1.05,.38,.53,.65,.69c.27,.16,.55,.24,.86,.24s.6-.08,.88-.23c.27-.16,.49-.38,.65-.67,.16-.29,.24-.64,.24-1.05s-.08-.76-.24-1.05Z"/><path class="cls-1" d="M699.34,30.31h1.81c-.17,.65-.48,1.18-.93,1.58-.45,.41-1.02,.65-1.7,.73v.47c.44,0,.81,.11,1.11,.34,.3,.22,.45,.55,.45,.97s-.15,.76-.46,1c-.31,.23-.69,.35-1.13,.35h-1.7v-.98h1.43c.19,0,.34-.03,.44-.08,.1-.06,.15-.16,.15-.3s-.05-.24-.15-.29c-.1-.05-.25-.08-.44-.08h-.74v-1.38c-.54-.08-1.02-.27-1.43-.57s-.73-.69-.96-1.18c-.23-.48-.34-1.03-.34-1.65,0-.69,.14-1.29,.42-1.81,.28-.52,.67-.92,1.16-1.2s1.06-.43,1.7-.43c.82,0,1.51,.21,2.05,.62s.9,.99,1.09,1.73h-1.81c-.1-.29-.26-.51-.49-.68-.23-.16-.51-.25-.85-.25-.48,0-.86,.17-1.14,.52-.28,.35-.42,.84-.42,1.48s.14,1.12,.42,1.47c.28,.35,.66,.52,1.14,.52,.68,0,1.12-.3,1.33-.91Z"/><path class="cls-1" d="M703.61,32.24c-.51-.28-.91-.69-1.21-1.21-.29-.52-.44-1.12-.44-1.8s.15-1.28,.45-1.8c.3-.52,.71-.92,1.23-1.21,.52-.28,1.1-.43,1.74-.43s1.22,.14,1.74,.43c.52,.28,.93,.69,1.23,1.21,.3,.52,.45,1.12,.45,1.8s-.15,1.28-.46,1.8c-.31,.52-.72,.92-1.25,1.21-.52,.28-1.11,.43-1.76,.43s-1.22-.14-1.73-.43Zm.19-8.23c.26-.26,.59-.39,.99-.39,.17,0,.32,.03,.44,.08,.13,.05,.27,.13,.43,.22,.24,.15,.44,.23,.6,.23,.3,0,.47-.17,.52-.52h.9c-.07,.53-.24,.92-.5,1.18s-.59,.39-.99,.39c-.17,0-.32-.03-.44-.08-.13-.05-.27-.13-.43-.22-.23-.16-.43-.24-.6-.24-.3,0-.47,.18-.53,.53h-.89c.07-.53,.24-.92,.5-1.18Zm2.4,6.97c.27-.15,.48-.37,.64-.67s.24-.66,.24-1.08c0-.63-.17-1.12-.5-1.46-.33-.34-.74-.51-1.22-.51s-.88,.17-1.21,.51c-.32,.34-.49,.83-.49,1.46s.16,1.12,.47,1.46c.32,.34,.71,.51,1.19,.51,.3,0,.59-.07,.86-.22Z"/><path class="cls-1" d="M716.18,29.74h-4.86c.04,.48,.21,.86,.5,1.13,.3,.27,.66,.41,1.09,.41,.62,0,1.07-.27,1.33-.8h1.81c-.19,.64-.56,1.17-1.1,1.58s-1.21,.62-2,.62c-.64,0-1.21-.14-1.72-.43-.51-.28-.9-.69-1.19-1.21-.28-.52-.43-1.12-.43-1.8s.14-1.29,.42-1.81c.28-.52,.67-.92,1.18-1.2,.5-.28,1.08-.42,1.74-.42s1.2,.14,1.7,.41c.5,.27,.89,.66,1.16,1.16,.28,.5,.41,1.07,.41,1.72,0,.24-.02,.46-.05,.65Zm-1.69-1.13c0-.43-.16-.78-.47-1.04-.3-.26-.68-.39-1.12-.39-.42,0-.77,.13-1.05,.38s-.46,.6-.52,1.05h3.16Z"/><path class="cls-1" d="M718.53,32.37c-.43-.2-.77-.46-1.03-.8s-.39-.71-.41-1.12h1.69c.03,.26,.16,.47,.38,.64s.49,.25,.82,.25,.57-.06,.75-.19,.27-.29,.27-.49c0-.22-.11-.38-.33-.49-.22-.11-.57-.23-1.05-.35-.5-.12-.9-.24-1.22-.37-.32-.13-.59-.32-.82-.59-.23-.26-.34-.62-.34-1.07,0-.37,.11-.7,.32-1.01,.21-.3,.52-.54,.91-.72,.4-.18,.86-.26,1.4-.26,.79,0,1.42,.2,1.9,.59,.47,.4,.73,.93,.78,1.6h-1.61c-.02-.26-.13-.47-.33-.63-.2-.16-.46-.23-.79-.23-.3,0-.54,.06-.7,.17s-.25,.27-.25,.47c0,.22,.11,.39,.34,.51,.22,.12,.57,.23,1.04,.35,.48,.12,.88,.24,1.19,.37,.31,.13,.58,.33,.81,.59,.23,.27,.35,.62,.35,1.06,0,.38-.11,.73-.32,1.03-.21,.3-.52,.54-.91,.71-.4,.17-.86,.26-1.39,.26s-1.03-.1-1.46-.29Z"/><path class="cls-1" d="M617.49,40.51c.35-.2,.75-.3,1.19-.3v1.76h-.44c-.53,0-.93,.12-1.19,.37-.27,.25-.4,.68-.4,1.3v3.31h-1.68v-6.65h1.68v1.03c.22-.35,.5-.63,.85-.83Z"/><path class="cls-1" d="M625.94,44.14h-4.86c.04,.48,.21,.86,.5,1.13,.3,.27,.66,.41,1.09,.41,.62,0,1.07-.27,1.33-.8h1.81c-.19,.64-.56,1.17-1.1,1.58s-1.21,.62-2,.62c-.64,0-1.21-.14-1.72-.43-.51-.28-.9-.69-1.19-1.21-.28-.52-.43-1.12-.43-1.8s.14-1.29,.42-1.81c.28-.52,.67-.92,1.18-1.2s1.08-.42,1.74-.42,1.2,.14,1.7,.41c.5,.27,.89,.66,1.16,1.16,.28,.5,.41,1.07,.41,1.72,0,.24-.02,.46-.05,.65Zm-1.69-1.13c0-.43-.16-.78-.47-1.04-.3-.26-.68-.39-1.12-.39-.42,0-.77,.13-1.05,.38-.28,.25-.46,.6-.52,1.05h3.16Z"/><path class="cls-1" d="M627.18,41.82c.27-.52,.63-.92,1.09-1.2s.97-.42,1.54-.42c.5,0,.93,.1,1.3,.3s.67,.45,.89,.76v-.95h1.69v6.65h-1.69v-.97c-.22,.31-.51,.57-.89,.77s-.82,.31-1.31,.31c-.56,0-1.07-.14-1.53-.43s-.82-.69-1.09-1.22c-.27-.52-.4-1.13-.4-1.81s.13-1.27,.4-1.79Zm4.59,.76c-.16-.29-.38-.52-.65-.67-.27-.16-.56-.23-.88-.23s-.6,.08-.86,.23c-.26,.15-.48,.37-.64,.67s-.25,.64-.25,1.04,.08,.75,.25,1.05,.38,.53,.65,.69c.27,.16,.55,.24,.86,.24s.6-.08,.88-.23c.27-.16,.49-.38,.65-.67,.16-.29,.24-.64,.24-1.05s-.08-.76-.24-1.05Z"/><path class="cls-1" d="M637.03,38.08v8.88h-1.68v-8.88h1.68Z"/><path class="cls-1" d="M638.8,39.24c-.2-.19-.29-.42-.29-.7s.1-.51,.29-.7c.2-.19,.44-.28,.74-.28s.54,.09,.74,.28c.2,.19,.29,.42,.29,.7s-.1,.51-.29,.7c-.2,.19-.44,.28-.74,.28s-.54-.09-.74-.28Zm1.57,1.07v6.65h-1.68v-6.65h1.68Z"/><path class="cls-1" d="M643.55,45.58h2.96v1.38h-4.87v-1.36l2.9-3.91h-2.89v-1.38h4.82v1.36l-2.93,3.91Z"/><path class="cls-1" d="M647.79,41.82c.27-.52,.63-.92,1.09-1.2s.97-.42,1.54-.42c.5,0,.93,.1,1.3,.3s.67,.45,.89,.76v-.95h1.69v6.65h-1.69v-.97c-.22,.31-.51,.57-.89,.77s-.82,.31-1.31,.31c-.56,0-1.07-.14-1.53-.43s-.82-.69-1.09-1.22c-.27-.52-.4-1.13-.4-1.81s.13-1.27,.4-1.79Zm4.59,.76c-.16-.29-.38-.52-.65-.67-.27-.16-.56-.23-.88-.23s-.6,.08-.86,.23c-.26,.15-.48,.37-.64,.67s-.25,.64-.25,1.04,.08,.75,.25,1.05,.38,.53,.65,.69c.27,.16,.55,.24,.86,.24s.6-.08,.88-.23c.27-.16,.49-.38,.65-.67,.16-.29,.24-.64,.24-1.05s-.08-.76-.24-1.05Z"/><path class="cls-1" d="M655.92,41.82c.27-.52,.63-.92,1.1-1.2s.98-.42,1.55-.42c.43,0,.84,.09,1.24,.28,.39,.19,.7,.44,.94,.75v-3.16h1.7v8.88h-1.7v-.98c-.21,.33-.5,.59-.88,.79-.38,.2-.81,.3-1.31,.3-.56,0-1.07-.14-1.54-.43s-.83-.69-1.1-1.22c-.27-.52-.4-1.13-.4-1.81s.13-1.27,.4-1.79Zm4.59,.76c-.16-.29-.38-.52-.65-.67-.27-.16-.56-.23-.88-.23s-.6,.08-.86,.23c-.26,.15-.48,.37-.64,.67s-.25,.64-.25,1.04,.08,.75,.25,1.05,.38,.53,.65,.69c.27,.16,.55,.24,.86,.24s.6-.08,.88-.23c.27-.16,.49-.38,.65-.67,.16-.29,.24-.64,.24-1.05s-.08-.76-.24-1.05Z"/><path class="cls-1" d="M664.06,41.82c.27-.52,.63-.92,1.09-1.2s.97-.42,1.54-.42c.5,0,.93,.1,1.3,.3s.67,.45,.89,.76v-.95h1.69v6.65h-1.69v-.97c-.22,.31-.51,.57-.89,.77s-.82,.31-1.31,.31c-.56,0-1.07-.14-1.53-.43s-.82-.69-1.09-1.22c-.27-.52-.4-1.13-.4-1.81s.13-1.27,.4-1.79Zm4.59,.76c-.16-.29-.38-.52-.65-.67-.27-.16-.56-.23-.88-.23s-.6,.08-.86,.23c-.26,.15-.48,.37-.64,.67s-.25,.64-.25,1.04,.08,.75,.25,1.05,.38,.53,.65,.69c.27,.16,.55,.24,.86,.24s.6-.08,.88-.23c.27-.16,.49-.38,.65-.67,.16-.29,.24-.64,.24-1.05s-.08-.76-.24-1.05Z"/><path class="cls-1" d="M673.3,46.77c-.43-.2-.77-.46-1.03-.8s-.39-.71-.41-1.12h1.69c.03,.26,.16,.47,.38,.64,.22,.17,.49,.25,.82,.25s.57-.06,.75-.19c.18-.13,.27-.29,.27-.49,0-.22-.11-.38-.33-.49-.22-.11-.57-.23-1.05-.35-.5-.12-.9-.24-1.22-.37-.32-.13-.59-.32-.82-.59-.23-.26-.34-.62-.34-1.07,0-.37,.11-.7,.32-1.01,.21-.3,.52-.54,.91-.72,.4-.18,.86-.26,1.4-.26,.79,0,1.42,.2,1.9,.59,.47,.4,.73,.93,.78,1.6h-1.61c-.02-.26-.13-.47-.33-.63-.2-.16-.46-.23-.79-.23-.3,0-.54,.06-.7,.17s-.25,.27-.25,.47c0,.22,.11,.39,.34,.51,.22,.12,.57,.23,1.04,.35,.48,.12,.88,.24,1.19,.37,.31,.13,.58,.33,.81,.59,.23,.27,.35,.62,.35,1.06,0,.38-.11,.73-.32,1.03-.21,.3-.52,.54-.91,.71-.4,.17-.86,.26-1.39,.26s-1.03-.1-1.46-.29Z"/><path class="cls-1" d="M678.76,46.76c-.2-.19-.29-.42-.29-.7s.1-.51,.29-.7c.2-.19,.45-.28,.75-.28s.54,.09,.73,.28c.19,.19,.29,.42,.29,.7s-.1,.51-.29,.7c-.19,.19-.44,.28-.73,.28s-.55-.09-.75-.28Z"/></g></svg>