<?xml version="1.0" encoding="UTF-8"?><svg xmlns="http://www.w3.org/2000/svg" xmlns:xlink="http://www.w3.org/1999/xlink" viewBox="0 0 381 351"><defs><style>.cls-1{fill:url(#linear-gradient-3);}.cls-1,.cls-2,.cls-3,.cls-4,.cls-5,.cls-6,.cls-7,.cls-8,.cls-9,.cls-10,.cls-11,.cls-12,.cls-13,.cls-14,.cls-15,.cls-16,.cls-17,.cls-18,.cls-19,.cls-20,.cls-21,.cls-22,.cls-23,.cls-24,.cls-25,.cls-26,.cls-27,.cls-28,.cls-29,.cls-30,.cls-31,.cls-32,.cls-33,.cls-34,.cls-35,.cls-36,.cls-37,.cls-38,.cls-39,.cls-40,.cls-41,.cls-42,.cls-43,.cls-44,.cls-45,.cls-46,.cls-47,.cls-48,.cls-49,.cls-50,.cls-51,.cls-52,.cls-53,.cls-54,.cls-55,.cls-56,.cls-57,.cls-58,.cls-59,.cls-60,.cls-61,.cls-62,.cls-63,.cls-64,.cls-65,.cls-66,.cls-67,.cls-68,.cls-69,.cls-70,.cls-71,.cls-72,.cls-73,.cls-74,.cls-75,.cls-76,.cls-77,.cls-78,.cls-79,.cls-80,.cls-81{fill-rule:evenodd;}.cls-1,.cls-2,.cls-3,.cls-4,.cls-6,.cls-74,.cls-75,.cls-76{mix-blend-mode:multiply;}.cls-1,.cls-2,.cls-3,.cls-27,.cls-28,.cls-29,.cls-74,.cls-82{opacity:.5;}.cls-2{fill:url(#linear-gradient-4);}.cls-3{fill:url(#linear-gradient-6);}.cls-4{fill:url(#linear-gradient-17);}.cls-4,.cls-75,.cls-76{opacity:.3;}.cls-5{fill:url(#linear-gradient);}.cls-6{fill:url(#linear-gradient-28);}.cls-6,.cls-30{opacity:.7;}.cls-83,.cls-56{fill:#c2e5f6;}.cls-84{fill:#0b436a;}.cls-85{fill:#2980fc;}.cls-7{fill:url(#linear-gradient-29);}.cls-8{fill:url(#linear-gradient-25);}.cls-9{fill:url(#linear-gradient-30);}.cls-10{fill:url(#linear-gradient-14);}.cls-11{fill:url(#linear-gradient-11);}.cls-12{fill:url(#linear-gradient-13);}.cls-13{fill:url(#linear-gradient-12);}.cls-14{fill:url(#linear-gradient-10);}.cls-15{fill:url(#linear-gradient-15);}.cls-16{fill:url(#linear-gradient-19);}.cls-17{fill:url(#linear-gradient-16);}.cls-18{fill:url(#linear-gradient-23);}.cls-19{fill:url(#linear-gradient-22);}.cls-20{fill:url(#linear-gradient-20);}.cls-21{fill:url(#linear-gradient-18);}.cls-22{fill:url(#linear-gradient-21);}.cls-23{fill:url(#linear-gradient-26);}.cls-24{fill:url(#linear-gradient-24);}.cls-25{fill:url(#linear-gradient-27);}.cls-26{fill:#3ebfdf;opacity:.25;}.cls-27{fill:#566e93;}.cls-28,.cls-54{fill:#c8e8f8;}.cls-29,.cls-61{fill:#31accb;}.cls-30,.cls-67{fill:#fff;}.cls-31{fill:#38251b;}.cls-32{fill:#3999f4;}.cls-33{fill:#298ae5;}.cls-34{fill:#2989e3;}.cls-35{fill:#2b374a;}.cls-36{fill:#269cba;}.cls-37{fill:#94cfe5;}.cls-38{fill:#a1d5f1;}.cls-39{fill:#1989a5;}.cls-40{fill:#1863a8;}.cls-41{fill:#1c87d5;}.cls-42{fill:#14548e;}.cls-43{fill:#071a3b;}.cls-44{fill:#1a68af;}.cls-45{fill:#422d22;}.cls-46{fill:#11639d;}.cls-47{fill:#105b90;}.cls-48{fill:#12549d;}.cls-49{fill:#171e29;}.cls-50{fill:#237cce;}.cls-51{fill:#daeafa;}.cls-52{fill:#dff4ff;}.cls-53{fill:#cfecfa;}.cls-55{fill:#c3e4f4;}.cls-57{fill:#a5d6ef;}.cls-58{fill:#aa6f48;}.cls-59{fill:#b2dcf1;}.cls-60{fill:#64b8d5;}.cls-62{fill:#2faac8;}.cls-63{fill:#8bc8da;}.cls-64{fill:#b7e0f5;}.cls-65{fill:#effaff;}.cls-66{fill:#f0b186;}.cls-68{fill:#e7a376;}.cls-69{fill:#f6c8a2;}.cls-70{fill:#ea9f6f;}.cls-71{fill:#fbddc4;}.cls-72,.cls-75{fill:#04304f;}.cls-73{fill:#000002;}.cls-74{fill:#1c8eaa;}.cls-76{fill:#1466a0;}.cls-86{isolation:isolate;}.cls-77{fill:url(#linear-gradient-8);}.cls-78{fill:url(#linear-gradient-9);}.cls-79{fill:url(#linear-gradient-2);}.cls-80{fill:url(#linear-gradient-7);}.cls-81{fill:url(#linear-gradient-5);}.cls-82{fill:#d1edfb;}</style><linearGradient id="linear-gradient" x1="336.4" y1="230.97" x2="313.32" y2="235.02" gradientUnits="userSpaceOnUse"><stop offset="0" stop-color="#105b91"/><stop offset="1" stop-color="#0a3c5f"/></linearGradient><linearGradient id="linear-gradient-2" x1="304.01" y1="150.64" x2="316.5" y2="208.86" gradientUnits="userSpaceOnUse"><stop offset="0" stop-color="#31adcc"/><stop offset="1" stop-color="#198aa6"/></linearGradient><linearGradient id="linear-gradient-3" x1="318.96" y1="181.24" x2="311.68" y2="210.52" xlink:href="#linear-gradient-2"/><linearGradient id="linear-gradient-4" x1="297.33" y1="138.45" x2="316.35" y2="210.71" xlink:href="#linear-gradient-2"/><linearGradient id="linear-gradient-5" x1="338.73" y1="118.37" x2="325.02" y2="201.43" xlink:href="#linear-gradient-2"/><linearGradient id="linear-gradient-6" x1="332.71" y1="127" x2="324.27" y2="204.09" xlink:href="#linear-gradient-2"/><linearGradient id="linear-gradient-7" x1="311.52" y1="162.45" x2="181.15" y2="170.76" xlink:href="#linear-gradient"/><linearGradient id="linear-gradient-8" x1="209.89" y1="120.14" x2="194.86" y2="229.01" xlink:href="#linear-gradient-2"/><linearGradient id="linear-gradient-9" x1="178.41" y1="92.68" x2="167.29" y2="110.38" gradientUnits="userSpaceOnUse"><stop offset="0" stop-color="#2981e6"/><stop offset="1" stop-color="#1761a6"/></linearGradient><linearGradient id="linear-gradient-10" x1="133.79" y1="75.85" x2="130.33" y2="82.88" gradientUnits="userSpaceOnUse"><stop offset="0" stop-color="#632e40"/><stop offset="1" stop-color="#48202d"/></linearGradient><linearGradient id="linear-gradient-11" x1="132.78" y1="83.57" x2="132.11" y2="88.34" xlink:href="#linear-gradient-9"/><linearGradient id="linear-gradient-12" x1="135.25" y1="87.15" x2="137.79" y2="88.02" xlink:href="#linear-gradient-9"/><linearGradient id="linear-gradient-13" x1="262.25" y1="262.35" x2="259.93" y2="279.92" xlink:href="#linear-gradient-2"/><linearGradient id="linear-gradient-14" x1="244.24" y1="135.96" x2="240.77" y2="143" xlink:href="#linear-gradient-10"/><linearGradient id="linear-gradient-15" x1="243.23" y1="143.68" x2="242.56" y2="148.45" xlink:href="#linear-gradient-9"/><linearGradient id="linear-gradient-16" x1="245.7" y1="147.26" x2="248.23" y2="148.13" xlink:href="#linear-gradient-9"/><linearGradient id="linear-gradient-17" x1="120.37" y1="131.92" x2="100.18" y2="128.51" xlink:href="#linear-gradient-2"/><linearGradient id="linear-gradient-18" x1="110.27" y1="162.36" x2="87.75" y2="180.58" xlink:href="#linear-gradient"/><linearGradient id="linear-gradient-19" x1="97.49" y1="178.07" x2="79.44" y2="183.07" xlink:href="#linear-gradient"/><linearGradient id="linear-gradient-20" x1="90.98" y1="71.52" x2="96.43" y2="133.52" xlink:href="#linear-gradient-2"/><linearGradient id="linear-gradient-21" x1="88.69" y1="104.07" x2="101.64" y2="176.81" gradientUnits="userSpaceOnUse"><stop offset="0" stop-color="#d2eefc"/><stop offset="1" stop-color="#c3e6f7"/></linearGradient><linearGradient id="linear-gradient-22" x1="100.48" y1="107.88" x2="82.87" y2="131.58" xlink:href="#linear-gradient-21"/><linearGradient id="linear-gradient-23" x1="101.04" y1="97.73" x2="98.2" y2="132.58" xlink:href="#linear-gradient"/><linearGradient id="linear-gradient-24" x1="109.82" y1="103.37" x2="116.04" y2="121.71" xlink:href="#linear-gradient-21"/><linearGradient id="linear-gradient-25" x1="109.14" y1="102.98" x2="114.5" y2="122.56" xlink:href="#linear-gradient-21"/><linearGradient id="linear-gradient-26" x1="78.85" y1="107.04" x2="88.44" y2="133.7" xlink:href="#linear-gradient-21"/><linearGradient id="linear-gradient-27" x1="266.81" y1="55.08" x2="284.13" y2="123.9" xlink:href="#linear-gradient-21"/><linearGradient id="linear-gradient-28" x1="292.62" y1="68.96" x2="285.19" y2="73.81" xlink:href="#linear-gradient-21"/><linearGradient id="linear-gradient-29" x1="286.46" y1="57.06" x2="293.05" y2="81.2" xlink:href="#linear-gradient-21"/><linearGradient id="linear-gradient-30" x1="148.66" y1="233.9" x2="121.33" y2="284.01" xlink:href="#linear-gradient-9"/></defs><g class="cls-86"><g id="Layer_1"><g><g><path class="cls-26" d="M223.18,71.6c-.61,.87-1.7,1.08-3.14,.72-.34-1.05-1.08-2.09-1.97-2.61-1.03-.59-1.89-.29-2.11,.7-.33-.23-.65-.43-1-.67-.51-.37-1.02-.73-1.57-1.16,.71-1.99,1.25-4.43,1.57-7.22,2.08-.59,3.89-1.43,5.36-2.48,.34,.67,.67,1.34,.96,1.99,2.31,5.04,3.12,9.01,1.9,10.72h0Zm-17.62-28.34c-3.07-1.77-5.57-.35-5.58,3.18-.01,3.54,2.47,7.84,5.55,9.62,3.07,1.77,5.57,.35,5.58-3.2,0-3.53-2.47-7.83-5.54-9.6h0Zm7.07,24.72c.63-1.79,1.14-3.94,1.45-6.39-1.15,.28-2.39,.49-3.7,.59-1.31,.12-2.61,.15-3.9,.08,2.13,2.22,4.21,4.16,6.15,5.72h0Zm-.86,2.03c-1.65,3.23-3.88,4.52-6.29,3.12-2.43-1.41-4.64-5.26-6.26-10.37-.2-.66-.4-1.33-.58-2.02,2.15,.73,4.49,1.24,6.88,1.44,2.38,2.55,4.71,4.74,6.86,6.49-.19,.49-.39,.92-.59,1.34h0Zm-13.4-10.27c-.63-2.52-1.11-5.23-1.43-8.05,1.16,1.62,2.39,3.25,3.7,4.88,1.3,1.61,2.6,3.13,3.89,4.55-2.13-.24-4.22-.71-6.16-1.38h0Zm-2.34-.94c.51,.22,1.02,.45,1.56,.65-.68-2.8-1.2-5.84-1.5-8.99-2.08-3-3.87-5.91-5.33-8.65-.35,.27-.68,.56-.97,.87-2.33,2.37-3.17,5.38-1.97,8.49,1.01,2.61,3.31,4.91,6.35,6.66,.59,.34,1.22,.67,1.86,.96h0Zm-.07-9.63c-1.82-2.68-3.4-5.3-4.69-7.76,1.3-.95,2.89-1.74,4.72-2.31-.13,1.55-.21,3.19-.22,4.91,0,1.73,.06,3.46,.19,5.16h0Zm-6.17-10.73c.3,.65,.62,1.31,.97,1.99,1.47-1.05,3.26-1.89,5.36-2.48,.32-2.79,.86-5.23,1.55-7.23-.53-.42-1.05-.79-1.56-1.15-.17-.12-.36-.25-.53-.36-.06,1.27-1,1.79-2.17,1.12-1.06-.61-1.93-1.99-2.12-3.27-1.57-.46-2.76-.27-3.41,.65-1.21,1.71-.39,5.69,1.92,10.73h0Zm8.65-7.11c1.93,1.57,4.02,3.49,6.15,5.72-1.29-.06-2.59-.04-3.91,.07-1.3,.11-2.53,.31-3.7,.58,.33-2.44,.83-4.59,1.47-6.37h0Zm.86-2.03c-.2,.42-.41,.86-.59,1.34,2.14,1.74,4.48,3.93,6.86,6.49,2.38,.19,4.72,.7,6.87,1.44-.18-.7-.38-1.36-.58-2.02-1.63-5.12-3.84-8.98-6.26-10.37-2.43-1.4-4.65-.11-6.3,3.12h0Zm13.4,10.27c.62,2.51,1.11,5.23,1.41,8.04-1.15-1.61-2.38-3.23-3.69-4.87-1.3-1.62-2.6-3.13-3.88-4.56,2.13,.23,4.22,.72,6.16,1.39h0Zm1.81,15.27c0-1.99-.08-3.98-.27-5.93-1.3-1.87-2.7-3.75-4.21-5.61-1.5-1.87-3-3.62-4.48-5.2-1.49-.12-3-.11-4.5,0-1.51,.13-2.93,.38-4.23,.75-.19,1.73-.29,3.61-.3,5.6,0,2.01,.08,3.99,.26,5.94,1.29,1.85,2.7,3.73,4.19,5.6,1.51,1.87,3.02,3.62,4.5,5.21,1.48,.12,2.99,.12,4.49-.02,1.51-.13,2.92-.38,4.23-.73,.19-1.73,.29-3.61,.3-5.62h0Zm.57-4.71c.14,1.71,.21,3.43,.2,5.15,0,1.73-.08,3.37-.23,4.92,1.84-.57,3.42-1.36,4.74-2.32-1.31-2.46-2.87-5.07-4.71-7.76h0Zm-.05-9.62c-.51-.23-1.02-.45-1.57-.66,.7,2.8,1.22,5.85,1.52,9,2.07,2.99,3.87,5.9,5.33,8.65,.35-.28,.68-.56,.97-.87,2.33-2.37,3.17-5.38,1.96-8.5-1-2.6-3.3-4.9-6.34-6.66-.59-.34-1.22-.67-1.86-.96h0Zm5.78,17.97c.39-.3,.76-.62,1.08-.97,2.52-2.54,3.38-5.89,2.02-9.42-1.16-2.98-3.69-5.57-7.01-7.49-.62-.36-1.27-.7-1.95-1.01-.56-.27-1.15-.52-1.75-.74-.22-.77-.43-1.52-.66-2.27-1.75-5.51-4.2-9.71-6.96-11.3-2.76-1.59-5.23-.24-7,3.24-.23,.47-.47,.96-.67,1.49-.59-.47-1.18-.9-1.74-1.28-.23-.17-.48-.33-.7-.47-.29-1.18-1.1-2.36-2.07-2.92-1.06-.61-1.94-.25-2.13,.8-1.87-.6-3.29-.39-4.09,.72-1.38,1.95-.53,6.29,1.96,11.73,.33,.73,.68,1.47,1.07,2.22-.39,.31-.75,.64-1.08,.99-2.52,2.55-3.39,5.9-2.02,9.43,1.16,2.97,3.68,5.56,7,7.47,.63,.36,1.28,.7,1.96,1.01,.56,.28,1.15,.51,1.75,.74,.2,.76,.43,1.52,.66,2.25,1.75,5.51,4.2,9.72,6.96,11.32,2.75,1.59,5.23,.22,7-3.26,.23-.46,.45-.96,.67-1.48,.59,.45,1.18,.9,1.75,1.28,.34,.25,.68,.47,1.03,.68,.14,1.31,1.04,2.78,2.14,3.42,1.2,.69,2.17,.13,2.17-1.38,1.64,.41,2.9,.16,3.64-.85,1.38-1.95,.53-6.29-1.96-11.73-.32-.72-.68-1.47-1.07-2.23Z"/><g><circle class="cls-82" cx="348.98" cy="299.36" r="12.67" transform="translate(-22.55 570.22) rotate(-76.72)"/><path class="cls-29" d="M9.9,236.73c5.18,0,9.38,4.2,9.38,9.38s-4.2,9.38-9.38,9.38-9.38-4.2-9.38-9.38,4.2-9.38,9.38-9.38Z"/><path class="cls-29" d="M374.68,108.7c3.2,0,5.8,2.6,5.8,5.8s-2.6,5.8-5.8,5.8-5.8-2.6-5.8-5.8,2.59-5.8,5.8-5.8Z"/><circle class="cls-85" cx="322.9" cy="53.48" r="8.14" transform="translate(209.35 360.45) rotate(-79.1)"/><path class="cls-32" d="M41.12,163.86c2.87,0,5.19,2.32,5.19,5.19s-2.32,5.19-5.19,5.19-5.19-2.32-5.19-5.19,2.32-5.19,5.19-5.19Z"/><path class="cls-63" d="M48.36,297.84c2.87,0,5.19,2.32,5.19,5.19s-2.32,5.19-5.19,5.19-5.19-2.32-5.19-5.19,2.32-5.19,5.19-5.19Z"/></g></g><g><g><g><ellipse class="cls-83" cx="324.97" cy="252.14" rx="19.59" ry="11.35"/><g><path class="cls-5" d="M302.11,214.87c.97-.01,41.49-.14,45.2-.12,0,.84-.13,1.73-.2,2.56-.34,3.74-.88,7.49-1.73,11.13,0,.03-.01,.06-.02,.08-1.69,7.18-4.65,14.02-9.39,19.71-1.23,1.49-3.74,4.27-5.4,5.27-3.08,1.84-8.16,1.89-11.33,.11-.42-.23-.78-.49-1.09-.76-2.39-2.09-4.56-4.45-6.41-7.04-3.78-5.28-6.27-11.41-7.71-17.72-1.04-4.38-1.51-8.76-1.91-13.22Z"/><ellipse class="cls-84" cx="324.72" cy="214.29" rx="21.68" ry="12.23"/><path class="cls-43" d="M324.72,205.4c-11.62,0-21.04,5.31-21.04,11.87,0,3.2,7.62,8.83,21.1,9.45,13.48,.62,20.54-6.62,20.98-9.45,0-6.55-9.42-11.87-21.04-11.87Z"/><path class="cls-47" d="M324.72,201.51c-12.49,0-22.62,5.87-22.62,13.1s10.13,13.1,22.62,13.1,22.62-5.87,22.62-13.1-10.13-13.1-22.62-13.1h0Zm0,.91c11.62,0,21.04,5.31,21.04,11.87s-9.42,11.87-21.04,11.87-21.04-5.31-21.04-11.87,9.42-11.87,21.04-11.87Z"/><path class="cls-47" d="M302.58,217.28c2.13,5.95,11.24,10.42,22.14,10.42s19.55-4.25,21.97-9.98l.02-.04-.41-.04-1.24-.22h-.04c-2.44,5.03-10.6,8.73-20.29,8.73s-18.21-3.86-20.45-9.06l-1.18,.05-.51,.13h0Zm44.2,.24l-.38-.18,.4,.14-.02,.04Z"/></g></g><g><g><path class="cls-79" d="M298.75,120.24c-3.27,3.83-5.89,7.56-7.94,11.19,.67,1.2,1.27,2.43,1.95,3.65-1.3-.57-2.25-.99-3.2-1.3-5.74,11.46-5.67,21.85-1.71,31.1,3.11,1.34,3.94,1.52,7.83,1.95-1.88,.79-3.77,1.58-5.65,2.38,4.96,8.44,13.78,12.77,11.09,26.19-.1,.52-.21,1.05-.3,1.58,2.3,1.49,4.61,2.98,6.92,4.47-3.61-.24-5-.26-7.31,.18,.2,6.25,4.03,12.82,20.82,18.88,1.64-.13,5.68-2.1,6.53-3.27-.74-5.82,1.01-16.01,2.5-24.01,1.22-6.51,.81-11.08-.64-14.59-2.09,1.03-4.24,1.78-6.39,2.72,1.73-3.08,2.57-4.58,3.25-7.6-5.27-5.79-14.04-8.76-20.09-18.37-.36-.58-.74-1.19-1.12-1.83-1.18,.51-2.38,.95-3.57,1.48,.98-1.74,1.59-2.83,2.05-4.2-3.94-7.46-7.56-17.99-5.03-30.58Z"/><path class="cls-1" d="M300.44,184.26c1.17,3,1.6,6.53,.67,11.14-.1,.52-.21,1.05-.3,1.58,2.3,1.49,4.61,2.98,6.92,4.47-3.61-.24-5-.26-7.31,.18,.2,6.25,4.03,12.82,20.82,18.88,1.64-.13,5.68-2.1,6.53-3.27-.74-5.82,1.01-16.01,2.5-24.01,1.22-6.51,.81-11.08-.64-14.59-2.09,1.03-4.24,1.78-6.39,2.72,1.73-3.08,2.57-4.58,3.25-7.6-3.32-3.65-8.04-6.18-12.59-9.97-2.35,7.81-9.14,12.64-13.47,20.48Z"/><path class="cls-2" d="M296.75,162.86c-2.68-1.1-6.53-3.96-8.83-6.71,2.74,1.74,5.02,3.54,7.61,4.47-.47-.94-.9-1.93-1.27-2.96-3.38-9.36-1.25-17.65,1.39-26.61-1.75,7.12-3.26,13.89-1.86,20.94,.67-2.2,2.03-3.85,3.82-6.48-1.37,3.2-2.88,5.98-3.09,9.32,.25,.8,.54,1.6,.87,2.4,1.7,4.1,4.26,7.35,7.05,10.33-.29-2.86,.56-5.27,1.79-8.58-.51,3.1-1.05,6.86-.34,10.09,3.88,3.95,7.97,7.59,10.7,12.34,1.42-6.09,1.07-4.99,2.45-11.01,.47,6.59,.26,9.11-1.1,13.74,.83,1.98,1.41,4.15,1.68,6.6,.66,6.14,.62,9.96,1,13.27,3.45-6.97,1.86-3.69,6.48-13.59-.43,5.77-.25,6.41-5.68,17.64,.87,2.97,2.52,6.15,5.83,10.98-1.07,.56-2.27,1.06-3.18,1.31-6.04-9.02-6.06-12.52-6.16-19.29-2.62-4.6-5.96-9.8-9.54-13.28,3.27,1.24,5.84,3.09,9.41,8.57-.08-1.62-.2-3.42-.42-5.46-.58-5.46-3.17-9.61-6.41-13.47-6.3-2.6-7.61-2.57-10.45-3.3,3.62-.38,5.84-.12,8.01,.54-3.36-3.66-7.02-7.28-9.75-11.8Z"/></g><g><path class="cls-81" d="M347.15,77.86c-6.21,3.31-11.53,6.82-16.04,10.48,.26,1.9,.4,3.81,.66,5.74-1.4-1.41-2.42-2.44-3.49-3.33-13.32,11.95-18.54,25.49-18.12,39.54,3.36,3.33,4.34,3.99,9.18,6.53-2.85,.06-5.7,.13-8.56,.2,2.13,13.5,11.37,23.64,1.02,39.71-.4,.62-.8,1.26-1.19,1.9,2.23,3.12,4.47,6.23,6.7,9.34-4.57-2.16-6.36-2.9-9.59-3.5-2.93,8.22-1.32,18.72,17.4,35.18,2.19,.67,8.46,.17,10.15-.91,2.01-7.94,9.49-20.29,15.53-29.92,4.91-7.84,6.72-13.99,6.63-19.29-3.24,.28-6.43,.14-9.69,.27,3.82-3.12,5.69-4.64,8.11-8.21-3.89-10.21-13.77-18.56-16.71-34.15-.18-.94-.35-1.92-.51-2.95-1.79,.06-3.58,.02-5.4,.09,2.16-1.76,3.51-2.86,4.81-4.41-1.3-11.7-.62-27.25,9.1-42.31Z"/><path class="cls-3" d="M322.77,132.22c-2.92-2.8-6.46-8.48-8.05-13.23,2.67,3.67,4.72,7.16,7.6,9.7-.13-1.47-.18-2.96-.13-4.5,.39-13.89,7.4-23.58,15.41-33.87-5.91,8.36-11.35,16.38-13.12,26.26,1.99-2.51,4.61-3.97,8.27-6.47-3.42,3.45-6.79,6.3-8.78,10.53-.08,1.16-.12,2.35-.09,3.56,.11,6.2,1.78,11.73,3.88,17.03,1.09-3.86,3.42-6.56,6.71-10.23-2.25,3.76-4.87,8.38-5.6,12.94,3.01,7.12,6.48,13.93,7.6,21.51,4.96-7.19,3.94-5.94,8.82-13.06-2.76,8.81-4.32,11.97-8.46,17.29,.06,2.99-.29,6.11-1.2,9.43-2.28,8.32-4.29,13.26-5.49,17.76,8.04-7.29,4.31-3.85,15.37-14.35-3.51,7.28-3.6,8.2-16.4,20.02-.38,4.3,.13,9.28,1.96,17.25-1.68,.18-3.49,.22-4.8,.07-3.24-14.81-1.47-19.36,1.86-28.21-1.06-7.31-2.74-15.78-5.61-22.14,3.61,3.28,6.01,7,7.84,15.95,.73-2.14,1.48-4.54,2.25-7.31,2.04-7.4,.8-14.11-1.44-20.79-6.85-6.59-8.57-7.23-11.89-9.63,4.89,1.36,7.65,2.83,10.14,4.8-2.5-6.48-5.4-13.06-6.63-20.32Z"/></g></g></g><g><path class="cls-56" d="M302.34,308.07L115.33,200.55c-1.45-.69-3.52-1.27-5-.53-1.35,.67-3.56,2.06-4.54,2.59-.74,.41-3.33,1.9-1.72,2.81,4.73,2.68,183.13,105.33,187.94,108.05,.91,.51,2.24,.72,3.63,.64,1.39-.09,2.82-.46,3.94-1.09,.8-.45,1.58-.89,2.36-1.32,1.04-.58,1.6-1.29,1.65-1.95,.05-.65-.36-1.26-1.25-1.68Z"/><g><g><g><path class="cls-80" d="M288.96,129.12c7.54,4.34,13.45,14.85,13.43,23.25l-.32,143.04c-.01,4.24-1.51,7.23-3.93,8.63l-3.44,2.07c-14.27-6.71-8.6-70.04-9.49-91.08l4.04-55.03c-3.4-5.94-16.48-11.12-13.42-23.25l-126.49-69.1-38.2-25.98h0c.16-.98-1.03-5.8,.03-6.45,1.19-.72,2.36-1.44,3.53-2.12,2.98-1.77,6.79-.67,9.58,.94h0l164.69,95.08Z"/><path class="cls-46" d="M107.26,43.85c.02-8.54,6.07-12,13.51-7.7l164.69,95.08c7.43,4.29,13.45,14.71,13.42,23.25l-.32,143.04c-.02,8.54-6.08,11.99-13.51,7.7L120.36,210.14c-7.44-4.3-13.45-14.71-13.43-23.25l.32-143.04Z"/><path class="cls-77" d="M109.86,47.3c.02-8.31,5.91-11.67,13.15-7.49l160.22,92.5c7.23,4.18,13.08,14.31,13.06,22.62l-.31,139.15c-.02,8.31-5.92,11.67-13.15,7.49L122.6,209.07c-7.24-4.18-13.08-14.31-13.06-22.62l.31-139.15Z"/><g><path class="cls-46" d="M107.54,40.89c1.28-6.32,6.72-8.5,13.23-4.74l164.69,95.08c6.5,3.76,11.92,12.2,13.16,19.98L107.54,40.89Z"/><g><path class="cls-41" d="M128.78,46.29c-1.11-.64-2.01-.13-2.01,1.15,0,1.28,.89,2.83,2,3.47,1.11,.64,2.01,.13,2.01-1.15,0-1.27-.89-2.83-2-3.47Z"/><path class="cls-41" d="M122.14,41.96c-1.11-.64-2.01-.13-2.01,1.15,0,1.28,.89,2.83,2,3.47,1.11,.64,2.01,.13,2.01-1.15,0-1.27-.89-2.83-2-3.47Z"/><path class="cls-41" d="M116.06,38.33c-1.11-.64-2.01-.13-2.01,1.15,0,1.28,.89,2.83,2,3.47,1.11,.64,2.01,.13,2.01-1.15,0-1.27-.89-2.83-2-3.47Z"/></g></g></g><g><g><path class="cls-38" d="M224.12,172.46c-.02,5.64-4.01,7.92-8.92,5.08-52.13-29.9-32.89-18.57-85.01-48.47-4.9-2.83-8.87-9.71-8.86-15.34l.21-5.42c.02-5.64,4.01-7.91,8.92-5.08,52.13,29.9,32.89,18.57,85.01,48.47,4.91,2.83,8.87,9.71,8.86,15.34l-.21,5.42Z"/><g><path class="cls-53" d="M145.91,127.98l70.66,40.77c.56,.32,1.01,.07,1.01-.58v-2.28c0-.63-.44-1.41-1-1.74l-70.66-40.77c-.56-.32-1.01-.06-1.01,.57v2.28c0,.64,.44,1.41,1,1.74Z"/><path class="cls-53" d="M146.27,120.62l70.66,40.77c.56,.32,1.01,.07,1.01-.58v-2.28c0-.63-.44-1.41-1-1.74l-70.66-40.77c-.56-.32-1.01-.06-1.01,.57v2.28c0,.64,.44,1.41,1,1.74Z"/><path class="cls-53" d="M145.91,135.38l40.34,23.21c.56,.32,1.01,.07,1.01-.58v-2.28c0-.63-.44-1.41-1-1.74l-40.34-23.21c-.56-.32-1.01-.06-1.01,.57v2.28c0,.64,.44,1.41,1,1.74Z"/></g><g><path class="cls-53" d="M133.31,129.11c5.44,3.14,9.87,.62,9.89-5.63,.02-6.25-4.38-13.87-9.82-17.01-5.44-3.14-9.87-.62-9.89,5.63-.02,6.25,4.38,13.87,9.82,17.01Z"/><g><path class="cls-59" d="M135.51,123.04c-.06,1.19,.24,1.97,.65,2.7,.49,.9,1.3,1.7,2.5,2.79,.62,.57,1.09,1.01,1.45,1.37-1.77,.92-4.17,.72-6.81-.8-2.6-1.5-4.95-4.02-6.71-6.92,.37,.04,.86,.15,1.53,.31,1.21,.29,2.03,.42,2.53,.08,.38-.26,.63-.74,.63-1.81,0-.08,0-.16,0-.25,1.03,.75,1.57,1.16,2.11,1.49,.54,.33,1.08,.59,2.12,1.03Z"/><path class="cls-38" d="M136.27,125.93c.5,.82,1.28,1.59,2.4,2.61,.62,.57,1.09,1.01,1.45,1.37-1.77,.92-4.17,.72-6.81-.8-2.6-1.5-4.95-4.01-6.71-6.91,.37,.04,.86,.15,1.53,.3,1.04,.24,1.79,.38,2.29,.2,.34,1.37,1.71,2.73,3.05,3.47,1.33,.74,2.62,.86,2.8-.24Z"/><path class="cls-57" d="M136.8,126.66c-.53,1.32-1.97,1.16-3.41,.26-1.44-.9-2.88-2.53-3.4-4.15,.19-.05,.39-.11,.58-.17,.23,.78,1.4,2.14,2.63,3.01,1.22,.86,2.5,1.24,2.96,.09,.22,.32,.43,.64,.65,.96Z"/><path class="cls-55" d="M136.3,119.33s.03-.06,.05-.09c.18-.28,.41-.24,.54-.04,.42,.66,0,1.23-.15,1.58-.08,.38,0,.81-.34,.75-.17-.03-.26-.22-.41-.7,.02-.51,.04-1.01,.07-1.52,.09,0,.17,.01,.25,.02Z"/><path class="cls-55" d="M130.55,116.02s-.03-.1-.05-.15c-.19-.49-.41-.72-.54-.67-.42,.18,0,1.23,.15,1.76,.08,.47,0,.82,.34,1.15,.17,.16,.26,.09,.41-.23-.02-.53-.04-1.06-.06-1.6-.08-.09-.17-.18-.25-.27Z"/><path class="cls-55" d="M132.37,122.3c-.17-.25-.32-.52-.54-.9-.29-.48-.77-1.06-.92-1.53-.18-.55-.15-1.11-.18-1.69-.02-.41-.17-.87-.25-1.42-.04-.29-.06-.68-.07-1.08,0-.31,0-.62,.01-.91,.1-2.05,.51-3.84,2.74-2.59h0s.07,.04,.1,.06c.04,.02,.08,.05,.12,.07,.02,.01,.04,.03,.06,.04,.02,.01,.04,.02,.06,.03,.04,.02,.08,.04,.11,.06,.04,.02,.07,.04,.1,.06h0c2.21,1.31,2.61,3.57,2.71,5.73,.01,.31,.02,.62,.01,.92,0,.39-.03,.76-.07,1-.08,.46-.23,.74-.25,1.13-.03,.55,0,1.13-.19,1.47-.16,.29-.63,.33-.92,.47-.23,.11-.37,.22-.55,.27-.11,.03-.23,.04-.4,0-.23-.05-1.05-.52-1.28-.73-.17-.16-.29-.31-.4-.47Z"/><g><path class="cls-38" d="M133.66,114.58c.74,.62,.76,.39,1.12,.63,.22,.14,.34,.41,.71,.57,.13,1.07,.12,1.16,.7,2.26,0,.23,0,.47,.01,.7,.01,.37,.02,.68,.02,.96,0,.66-.14,1.19-.09,1.74,.16-.65,.32-1,.38-1.76,.01-.17-.03-.31,.01-.48,.09-.35,.05-.77-.02-1.01,.02-.19,.17-.11,.19-.22,.02-.12-.06-.31-.06-.44,0-.13,.1-.2,.08-.35-.03-.19-.06-.39-.09-.58,.18-.19,.31-.34,.47-.56-.06-.07-.11-.14-.17-.21,.22-.64-.15-.78-.14-1.04,0-.19,.14-.1,.21,0,.12,.18,.2,.54,.21,.57,.12-1.05-.62-1.68-1.36-2.4-.29-1.23-1.33-1.79-2.01-1.9-.73-1.26-1.69-1.36-2.39-1.05-.68-.1-1.12-.22-1.28,1.12-.03-.39,0-.68,.03-1.04-.1,.37-.17,.66-.12,1.11-.25-.35-.25-.39-.44-.78,.03,.49,.06,.59,.21,1.12-.07-.08-.14-.16-.21-.24,.06,.38,.05,.45,.18,.86-.11-.11-.21-.21-.32-.32,.11,.78,.15,1.04,.52,1.66,.01,.36,.04,.89,.1,1.22,.06,.33,.11,.55,.17,.79,.06,.24,.13,.45,.16,.62,.03,.17,.08,.3,.08,.44,.02,1-.08,.89,.31,1.99-.02-.93-.21-.91-.18-2.01,0-.13-.07-.82-.03-1.28,.03-.27,.18-.24,.18-.54,.01-1.01-.31-1.82,.31-1.49,.7,.36,.92,.89,1.46,.54,.61,.67,.76,.73,1.1,.83Z"/><path class="cls-38" d="M132.42,111.54c-.14-1.01,.02-1.4,.36-1.4,.26,0,.59,.17,1.16,.73-.15,0-.29,.05-.41,.13,.01-.06,.03-.13,.04-.2-.69,.57-.63,1.27-.89,2.31-.07,.28-.1,.33,.07,.35,.04,0,.08,.11,.13,.18,.1,.14,.19,.27,.41,.07,.31-.26,.57-.76,.69-1.16,.16-.54,.22-1.05,.63-.99,.39,.06,.87,.44,1.19,.97-.39-1.12-1.23-1.7-1.87-1.67-.4-.62-.77-.98-1.07-1.13-.85-.4-1.22,.68-1.02,1.99,.04,.29,.13,.59,.23,1.09,.03,.16,.07,.36,.11,.58,.16,.02,.29-.09,.34-.26,.13-.42-.06-1.31-.1-1.6h0Zm3.16,4.06c.81,.45,1.08-.42,1.12-1.19,0,.33,.53,.85-.14,1.31,.25-.19,.27-.13,.47-.03-.35,.19-.24,.58-.72,.46,.33,.3,.43,.49,.34,.94-.09-.43-.31-.47-.57-.81,.37,.49,.73,1.07,.43,1.42,.05-.55-.39-.62-.69-1.42,.1,.52,.55,1.13,.66,1.69-.7-.95-.83-1.38-.9-2.36h0Zm1.6-1.01c-.61-1.16-.61,.44-1.12,.83-.24,.19-.63,.11-1.33-.67-.55-.18-.61-.14-1.14-.61,.61,.21,1.34-.76,1.93-.74-.07,.09-.14,.17-.22,.25,.31-.14,.77-.23,1.15-.01,.27,.15,.62,.49,.71,.95h0Zm-4.09-.71c.77-.06,.97-1.35,1.76-1.56,.33-.09,.75,.05,1.44,.75-.99-.63-1.35-.52-2.03,.24,.8-.7,1.83-.68,2.82,.82-.67-.87-1.38-1.07-1.89-.86-.8,.32-1.13,1.1-2.1,.62h0Zm-3.38-2.77c.15,.64,.28,.92,.62,1.47-.27-.23-.48-.46-.76-.88,.12,.38,.3,.75,.68,1.13-.1-.04-.29-.1-.51-.39,.14,.41,.26,.45,.44,.61-.08,.15-.07,.27-.09,.48,.24-.54,.52-.44,.65-.81-.38-.08-.81-1.05-1.04-1.62h0Zm1.32-1.48c-.78,.54-.7,2.21,0,3.13-.92-.26-1.11-1.51-1.34-2.38,.28,.47,.39,.88,.59,1.32-.18-1,.1-2.1,.75-2.07h0Zm.98,3.54c.02,.21-.15,.06-.24-.02-.12,.11-.3-.07-.48-.35-.48-.31-.65-.95-.68-1.89-.02-.56,.12-1.03,.65-1.27,0,.05,.02,.1,.03,.14,.05-.02,.1-.04,.16-.07,.03,.08,.05,.17,.08,.25,.3-.53,.49-.5,1.02-.4-.55-.01-.79,.48-.85,1.08-.06,.71,.25,1.69,.32,2.53Z"/></g></g></g></g><g><path class="cls-60" d="M224.12,208.04c-.02,5.64-4.01,7.92-8.92,5.08-52.13-29.9-32.89-18.57-85.01-48.47-4.9-2.83-8.87-9.71-8.86-15.34l.21-5.42c.02-5.64,4.01-7.91,8.92-5.08,52.13,29.9,32.89,18.57,85.01,48.47,4.91,2.83,8.87,9.71,8.86,15.34l-.21,5.42Z"/><path class="cls-37" d="M133.31,164.7c5.44,3.14,9.87,.62,9.89-5.63,.02-6.25-4.38-13.87-9.82-17.01-5.44-3.14-9.87-.62-9.89,5.63-.02,6.25,4.38,13.87,9.82,17.01Z"/></g><g><g><path class="cls-78" d="M224.12,133.63c-.02,5.64-4.01,7.92-8.92,5.08-52.13-29.9-32.89-18.57-85.01-48.47-4.9-2.83-8.87-9.71-8.86-15.34l.21-5.42c.02-5.64,4.01-7.91,8.92-5.08,52.13,29.9,32.89,18.57,85.01,48.47,4.91,2.83,8.87,9.71,8.86,15.34l-.21,5.42Z"/><g><path class="cls-51" d="M133.31,90.29c5.44,3.14,9.87,.62,9.89-5.63,.02-6.25-4.38-13.87-9.82-17.01-5.44-3.14-9.87-.62-9.89,5.63-.02,6.25,4.38,13.87,9.82,17.01Z"/><g><path class="cls-14" d="M131.85,72.25c-.14,0-.29,.01-.44,.03-2.76-.11-3.26,2.73-3.44,4.44-.27,2.55,.1,3.89-.5,5.01-.33,.63-.57,1.29-.67,1.96,.57,.91,1.2,1.78,1.88,2.59,.51-1.89,2.45-3.63,2.45-5.1,.14-.47,.55-.89,1.01-1.17l.59,.64c.26,.68,.33,1.07,.57,1.55,.54,1.1,.56,2.43,1.55,1.79,4.94-3.25,3.7-12.55-2.92-11.78h-.09Z"/><g><path class="cls-11" d="M135.36,90.66c-.09,.17-.16,.34-.21,.5-.6-.21-1.21-.5-1.84-.86-2.2-1.27-4.24-3.28-5.87-5.63,.08-.35,.23-.67,.44-.98,.47-.69,.74-1.18,.98-1.73,.07-.42,.14-.76,.22-.99,.05-.2,.15-.38,.26-.54,.36-.51,1-.77,2.13-.3,1.01,.42,2.34,.99,3.51,1.72,.51,.32,2.12,1.51,2.46,2,.17,.25,.29,.54,.31,.91,.12,1.77-1.62,4.38-2.39,5.91Z"/><path class="cls-68" d="M133.63,78.42c-.18,1.04,.11,2.3,.17,3.23-.85,.79-2.3,.27-2.65-.45,.08-.46,.16-.89,.21-1.37l2.28-1.42Z"/><path class="cls-13" d="M137.99,84.99c.21,1.31-.07,4.12-.44,6.65-.87-.02-1.81-.23-2.8-.63-.07-1.6-.12-3.33-.01-4.12,.2-1.48,.93-3.13,1.99-3.17,.78-.03,1.14,.54,1.25,1.28Z"/></g><path class="cls-66" d="M130.1,74.01c-.43,.68-.65,1.36-.55,2.32,.03,.24-.01,.4-.08,.55-.4,.9-.36,1.18-.17,1.9,.19,.7,.18,1.07,.42,1.31,.25,.25,.61,.3,.92,.32,.64,.04,1.73-.38,2.37-.73,.47-.26,.45-.43,.65-.88,.67-.58,.23-1,.01-1.05-.64-.12-.74,.61-1.12,.78,.06-1.3-2.41-3.48-2.45-4.52Z"/></g></g><g><path class="cls-67" d="M145.91,89.15l70.66,40.77c.56,.32,1.01,.07,1.01-.58v-2.28c0-.63-.44-1.41-1-1.74l-70.66-40.77c-.56-.32-1.01-.06-1.01,.57v2.28c0,.64,.44,1.41,1,1.74Z"/><path class="cls-67" d="M146.27,81.8l70.66,40.77c.56,.32,1.01,.07,1.01-.58v-2.28c0-.63-.44-1.41-1-1.74l-70.66-40.77c-.56-.32-1.01-.06-1.01,.57v2.28c0,.64,.44,1.41,1,1.74Z"/><path class="cls-67" d="M145.91,96.55l40.34,23.21c.56,.32,1.01,.07,1.01-.58v-2.28c0-.63-.44-1.41-1-1.74l-40.34-23.21c-.56-.32-1.01-.06-1.01,.57v2.28c0,.64,.44,1.41,1,1.74Z"/></g></g><path class="cls-67" d="M166.99,80.76c2.82,1.6,4.92,2.78,7.03,3.97l2.37,1.34-.47,.83-2.37-1.34c-1.92-1.08-3.84-2.16-7.04-3.97l.47-.83h0Zm12.6,7.11l5.65,3.21-.47,.83-5.65-3.21,.47-.83h0Zm8.03,4.56l3.8,2.17-.47,.83-3.8-2.17,.47-.83h0Zm6.14,3.51l2.53,1.44-.48,.83-2.53-1.44,.48-.83h0Zm9.27,5.31l-.48,.83,14.51,8.31c2.91,1.68,5.55,4.57,7.46,7.87,1.91,3.3,3.08,7.02,3.08,10.36l-.26,6.61c0,1.89-.39,3.44-1.07,4.62-.48,.84-1.12,1.48-1.87,1.91-.75,.43-1.63,.66-2.6,.65-1.37,0-2.93-.46-4.59-1.42-31.68-18.17-37.63-21.52-43.58-24.86-5.92-3.33-11.84-6.66-43.57-24.86-2.91-1.68-5.55-4.57-7.45-7.87-1.91-3.3-3.09-7.02-3.08-10.36l.26-6.61c0-1.88,.39-3.44,1.07-4.61,.48-.84,1.12-1.48,1.87-1.91,.75-.43,1.63-.66,2.6-.66,1.37,0,2.93,.46,4.59,1.42,8.76,5.02,15.55,8.91,20.92,11.99,5.13,2.93,9.1,5.2,12.38,7.06l.47-.83c-2.85-1.62-6.77-3.86-12.38-7.06-5.37-3.07-12.16-6.96-20.92-11.98-1.81-1.04-3.53-1.54-5.06-1.54-1.14,0-2.18,.26-3.08,.78-.9,.52-1.65,1.28-2.22,2.27-.76,1.31-1.19,3.02-1.2,5.08l-.26,6.61c0,3.51,1.22,7.4,3.21,10.85,1.99,3.45,4.75,6.46,7.81,8.23,31.68,18.17,37.63,21.52,43.57,24.86,5.92,3.33,11.85,6.66,43.57,24.86,1.81,1.04,3.53,1.54,5.07,1.54,1.14,0,2.18-.26,3.08-.78,.9-.52,1.65-1.28,2.22-2.26,.76-1.31,1.19-3.02,1.2-5.08l.26-6.61c0-3.51-1.22-7.4-3.21-10.85-1.99-3.44-4.75-6.46-7.81-8.22l-14.51-8.32Z"/></g><g><path class="cls-60" d="M224.12,244.41c-.02,5.64-4.01,7.92-8.92,5.08-52.13-29.9-32.89-18.57-85.01-48.47-4.9-2.83-8.87-9.71-8.86-15.34l.21-5.42c.02-5.64,4.01-7.91,8.92-5.08,52.13,29.9,32.89,18.57,85.01,48.47,4.91,2.83,8.87,9.71,8.86,15.34l-.21,5.42Z"/><path class="cls-37" d="M133.31,201.07c5.44,3.14,9.87,.62,9.89-5.63,.02-6.25-4.38-13.87-9.82-17.01-5.44-3.14-9.87-.62-9.89,5.63-.02,6.25,4.38,13.87,9.82,17.01Z"/></g></g><g><path class="cls-67" d="M253.7,127.89l4.41,2.56-.48,.83-4.41-2.56,.48-.83h0Zm6.35,3.68l2.98,1.73-.48,.83-2.98-1.73,.48-.83h0Zm4.74,2.75l2.31,1.34-.48,.83-2.31-1.34,.48-.83h0Zm3.63,2.11l1.63,.95-.48,.83-1.63-.95,.48-.83h0Zm2.84,1.65l1.33,.78-.48,.83-1.33-.78,.48-.83h0Zm6.86,3.98l-.48,.83,4.07,2.36c3.29,1.9,6.27,5.17,8.43,8.91,2.16,3.74,3.49,7.95,3.48,11.73l-.29,124.02c0,2.14-.44,3.9-1.21,5.24-.55,.95-1.27,1.69-2.13,2.18-.86,.49-1.86,.75-2.97,.75-1.56,0-3.33-.52-5.2-1.61l-38.14-22.15c-3.29-1.9-6.28-5.17-8.44-8.91-2.16-3.74-3.49-7.95-3.48-11.73l.29-124.02c0-2.14,.44-3.91,1.21-5.24,.55-.95,1.27-1.69,2.13-2.18,.86-.49,1.86-.75,2.96-.75,1.56,0,3.33,.52,5.21,1.61l.48-.83c-2.03-1.17-3.96-1.73-5.69-1.74-1.28,0-2.44,.29-3.44,.87-1.01,.58-1.85,1.43-2.48,2.53-.85,1.48-1.33,3.4-1.34,5.72l-.29,124.02c-.01,3.95,1.37,8.33,3.61,12.21,2.24,3.88,5.34,7.27,8.78,9.26l38.14,22.15c2.03,1.17,3.96,1.73,5.68,1.73,1.28,0,2.44-.3,3.44-.87,1-.58,1.85-1.43,2.49-2.53,.85-1.47,1.33-3.4,1.34-5.72l.29-124.02c.01-3.95-1.37-8.33-3.61-12.21-2.24-3.88-5.35-7.28-8.78-9.26l-4.07-2.36h0Zm-32.77-19.03l6.47,3.76-.48,.83-6.47-3.76,.48-.83Z"/><g><path class="cls-52" d="M232.79,131.34c.02-7.2,5.12-10.12,11.4-6.5l35.53,20.63c6.27,3.62,11.34,12.41,11.32,19.61l-.27,120.65c-.02,7.2-5.13,10.12-11.4,6.5l-35.53-20.63c-6.28-3.62-11.34-12.41-11.32-19.61l.27-120.65Z"/><g><g><path class="cls-65" d="M234.4,160.07c.02-6.84,4.86-9.61,10.82-6.17l33.73,19.59c5.95,3.44,10.77,11.78,10.75,18.62l-.26,15.98c-.02,6.84-4.87,9.6-10.82,6.17l-33.72-19.59c-5.96-3.44-10.77-11.78-10.75-18.62l.26-15.98Z"/><g><g><path class="cls-54" d="M239.29,162.01l29.2,16.96c.56,.32,1.01,.07,1.01-.58v-2.28c0-.63-.44-1.41-1-1.74l-29.2-16.96c-.56-.32-1.01-.06-1.01,.57v2.28c0,.64,.44,1.41,1,1.74Z"/><path class="cls-54" d="M273.79,182.01l10.73,6.19c.56,.32,1.01,.07,1.01-.58v-2.28c0-.63-.44-1.41-1-1.74l-10.73-6.19c-.56-.32-1.01-.06-1.01,.57v2.28c0,.64,.44,1.41,1,1.74Z"/></g><g><path class="cls-54" d="M239.29,169.52l35.09,20.49c.56,.32,1.01,.07,1.01-.58v-2.28c0-.63-.44-1.41-1-1.74l-35.09-20.49c-.56-.32-1.01-.06-1.01,.57v2.28c0,.64,.44,1.41,1,1.74Z"/><path class="cls-54" d="M279.4,192.78l5.12,2.93c.56,.32,1.01,.07,1.01-.58v-2.28c0-.63-.44-1.41-1-1.74l-5.12-2.93c-.56-.32-1.01-.06-1.01,.57v2.28c0,.64,.44,1.41,1,1.74Z"/></g><g><path class="cls-54" d="M239.29,177.03l32.19,18.68c.56,.32,1.01,.07,1.01-.58v-2.28c0-.63-.44-1.41-1-1.74l-32.19-18.68c-.56-.32-1.01-.06-1.01,.57v2.28c0,.64,.44,1.41,1,1.74Z"/><path class="cls-54" d="M276.14,198.4l8.38,4.83c.56,.32,1.01,.07,1.01-.58v-2.28c0-.63-.44-1.41-1-1.74l-8.38-4.83c-.56-.32-1.01-.06-1.01,.57v2.28c0,.64,.44,1.41,1,1.74Z"/></g><g><path class="cls-54" d="M239.29,184.55l33.91,19.67c.56,.32,1.01,.07,1.01-.58v-2.28c0-.63-.44-1.41-1-1.74l-33.91-19.68c-.56-.32-1.01-.06-1.01,.57v2.28c0,.64,.44,1.41,1,1.74Z"/><path class="cls-54" d="M277.68,206.73l6.84,4.01c.56,.32,1.01,.07,1.01-.58v-2.28c0-.63-.44-1.41-1-1.74l-6.84-4.01c-.56-.32-1.01-.06-1.01,.57v2.28c0,.64,.44,1.41,1,1.74Z"/></g></g></g><g><g><path class="cls-73" d="M261.35,244.22c-4.34-2.38-8.71-4.78-13.1-7.19-4.41-2.42-8.86-4.87-13.33-7.32,.04-5.98,.07-11.94,.11-17.89,.04-5.94,.07-11.87,.11-17.78,4.44,2.54,8.86,5.07,13.25,7.58,4.37,2.5,8.71,4.98,13.03,7.45-.01,5.83-.02,11.67-.03,17.53-.01,5.86-.02,11.74-.03,17.63Z"/><path class="cls-49" d="M245.86,225.25c.84,3.7,1.84,6.75,3.11,8.45,3.11,4.17,7.7,4.19,8.76-1.37,.9-4.7,.78-12.23,.68-15.83-.23-7.94-6.59-12.85-11.34-7.73-4.2-11.05-9.06-6.64-10.64-.22-1.33,5.43-.17,18.18,4.48,20.23,1.32,.58,3.89-1.78,4.96-3.53Z"/><path class="cls-35" d="M246.12,223.63c1.33,4.24,2.63,7.6,4.08,9.41,1.58,1.98,3.31,2.2,4.58,2.06,2.9-.32,2.63-13.89,2.49-18.73-.21-7.12-7.46-10.74-10.69-5.35-3.76-9.91-7.6-7.53-9.02-1.77-1.15,4.68-.21,15.55,3.63,17.95,1.29,.81,3.08-2.13,4.93-3.56Z"/><path class="cls-27" d="M234.92,229.7c.04-5.98,.07-11.94,.11-17.89,.04-5.94,.07-11.87,.11-17.78,4.44,2.54,8.86,5.07,13.25,7.58,4.37,2.5,8.71,4.98,13.03,7.45-11.23,4.3-18.14,11.6-26.5,20.64Z"/></g><g><path class="cls-67" d="M264.26,216.61l23.46,13.57c.64,.37,1.15,.08,1.15-.66v-2.6c0-.72-.5-1.61-1.13-1.98l-23.46-13.57c-.63-.37-1.15-.06-1.15,.65v2.6c0,.73,.5,1.61,1.14,1.98Z"/><path class="cls-67" d="M264.26,225.8l23.46,13.57c.64,.37,1.15,.08,1.15-.66v-2.6c0-.72-.5-1.61-1.13-1.98l-23.46-13.57c-.63-.37-1.15-.06-1.15,.65v2.6c0,.73,.5,1.61,1.14,1.98Z"/><path class="cls-67" d="M264.26,234.99l23.46,13.57c.64,.37,1.15,.08,1.15-.66v-2.6c0-.72-.5-1.61-1.13-1.98l-23.46-13.57c-.63-.37-1.15-.06-1.15,.65v2.6c0,.73,.5,1.61,1.14,1.98Z"/><path class="cls-67" d="M264.26,244.17l14.04,8.23c.64,.37,1.15,.08,1.15-.66v-2.6c0-.72-.5-1.61-1.13-1.98l-14.04-8.23c-.63-.37-1.15-.06-1.15,.65v2.6c0,.73,.5,1.61,1.14,1.98Z"/></g></g><g><path class="cls-67" d="M234.37,240.12c.01-4.47,3.18-6.28,7.07-4.03l40.19,23.05c3.89,2.25,7.04,7.7,7.03,12.17l-.17,14.06c-.01,4.47-3.18,6.28-7.07,4.03l-40.19-23.05c-3.89-2.25-7.04-7.7-7.03-12.17l.17-14.06Z"/><g><path class="cls-28" d="M288.52,270.44l.02,11.23-.04,3.71c0,2.73-1.19,4.46-3,4.89l-48.43-27.9c-1.74-2.48-2.86-5.51-2.86-8.19l.08-7c1.97-.9,4.15-1.69,6.52-.71,.25,.1,.49,.22,.72,.36,2,1.15,3.58,3.38,5.25,5.65,1.66,2.27,3.4,4.59,5.73,5.93,.17,.1,.35,.19,.53,.28,5.3,2.62,6.75-2.82,10.67-.68,.08,.04,.15,.08,.23,.13,1.78,1.02,2.71,2.32,3.76,3.68,1.04,1.35,2.19,2.77,4.38,4.03,.17,.1,.34,.19,.52,.28,3.94,2.08,8.07-3.28,13.36-2.68,1.38,2.03,2.43,4.18,2.57,6.97Z"/><path class="cls-12" d="M288.29,270.22l.21,.12,.02,.09,.02,11.23-.04,3.71c-.01,4.47-3.18,6.28-7.07,4.03l-40.19-23.05c-3.89-2.25-7.04-7.7-7.03-12.17l.02-1.86c2.01-.97,3.9-2.34,6.58-1.15,.21,.09,.41,.2,.61,.31,2.06,1.19,3.75,3.51,5.51,5.87,1.76,2.36,3.61,4.77,6,6.15,.15,.09,.3,.17,.45,.24,5.3,2.7,6.66-3.06,10.33-1.53,.19,.08,.37,.17,.54,.27,1.53,.88,2.37,2.46,3.4,4.15,1.02,1.69,2.23,3.47,4.48,4.77,.09,.05,.19,.1,.28,.16,4.82,2.58,7.29-6.3,15.89-1.35Z"/><g><path class="cls-74" d="M234.31,255.74c.24-.13,.48-.26,.73-.39,1.73-.94,3.46-1.89,5.77-.8,.1,.05,.21,.1,.3,.15,.11,.06,.21,.12,.31,.18,1.99,1.21,3.64,3.55,5.34,5.97l.18,.25c.88,1.25,1.78,2.51,2.76,3.64,.98,1.13,2.04,2.13,3.23,2.86l.23,.13,.23,.13c2.95,1.58,4.67,.4,6.26-.69,1.27-.87,2.44-1.68,4.07-.96,.1,.04,.19,.09,.28,.13,.09,.05,.18,.1,.27,.15,1.38,.84,2.2,2.29,3.11,3.87l.3,.53c.51,.89,1.07,1.81,1.77,2.68,.71,.87,1.57,1.68,2.69,2.36l.28,.16c2.04,1.15,3.66,.12,5.5-1.05,2.51-1.59,5.43-3.45,10.39-.43l.22,.14v1.01s-.23-.14-.23-.14c-4.95-3.01-7.87-1.16-10.37,.43-1.85,1.17-3.47,2.2-5.52,1.04l-.28-.16c-1.13-.69-1.99-1.5-2.7-2.37-.71-.87-1.27-1.79-1.78-2.69l-.3-.53c-.9-1.58-1.72-3.02-3.09-3.85-.09-.05-.18-.1-.26-.15-.09-.05-.19-.09-.28-.13-1.62-.72-2.79,.09-4.05,.95-1.59,1.09-3.32,2.28-6.27,.69l-.23-.13-.23-.13c-1.19-.73-2.25-1.73-3.24-2.86-.98-1.14-1.89-2.4-2.77-3.65l-.18-.25c-1.7-2.42-3.34-4.75-5.33-5.96-.1-.06-.21-.12-.31-.18-.1-.06-.2-.11-.3-.15-2.31-1.08-4.03-.14-5.76,.8-.19,.1-.38,.21-.56,.31-.07-.31-.13-.62-.17-.92Z"/><path class="cls-67" d="M234.24,255.12c.27-.13,.53-.27,.8-.4,1.73-.89,3.46-1.78,5.77-.74,.1,.05,.21,.1,.3,.15,.11,.05,.21,.11,.31,.17,1.99,1.15,3.64,3.35,5.34,5.64l.18,.24c.88,1.18,1.78,2.37,2.76,3.44,.98,1.07,2.04,2.01,3.23,2.7l.23,.13,.23,.12c2.95,1.5,4.67,.39,6.26-.63,1.27-.82,2.44-1.58,4.07-.89,.1,.04,.19,.08,.28,.13,.09,.05,.18,.09,.27,.14,1.38,.8,2.2,2.16,3.11,3.66l.3,.5c.51,.84,1.07,1.71,1.77,2.53,.71,.82,1.57,1.59,2.69,2.23l.28,.16c2.04,1.09,3.66,.12,5.5-.97,2.51-1.49,5.43-3.23,10.39-.38l.22,.13v.95s-.22-.13-.22-.13c-4.95-2.85-7.87-1.11-10.37,.38-1.85,1.1-3.47,2.06-5.52,.97l-.28-.16c-1.13-.65-1.99-1.42-2.7-2.24-.71-.82-1.27-1.69-1.78-2.54l-.3-.5c-.9-1.49-1.72-2.85-3.09-3.64-.09-.05-.18-.1-.26-.14-.09-.05-.19-.09-.28-.13-1.62-.68-2.79,.08-4.05,.89-1.59,1.02-3.32,2.14-6.27,.64l-.23-.12-.23-.13c-1.19-.69-2.25-1.64-3.24-2.71-.98-1.07-1.89-2.26-2.77-3.44l-.18-.24c-1.7-2.28-3.34-4.48-5.33-5.63-.1-.06-.21-.12-.31-.17-.1-.05-.2-.1-.3-.15-2.31-1.03-4.03-.14-5.76,.74-.23,.12-.46,.24-.69,.35-.05-.3-.09-.6-.12-.9Z"/></g></g><g><path class="cls-67" d="M240.46,253.02c.18-.11,.28-.31,.28-.61,0-.3-.1-.64-.27-.94-.18-.29-.42-.56-.67-.71-.26-.15-.5-.16-.68-.07-.18,.1-.28,.32-.28,.62,0,.3,.1,.62,.28,.93,.18,.3,.42,.56,.68,.71,.25,.15,.49,.17,.67,.07h0Zm-.66-1.87c.34,.2,.6,.67,.6,1.06,0,.39-.27,.55-.61,.36-.35-.2-.62-.68-.62-1.07,0-.39,.27-.56,.62-.35h0Zm.89,.2c.23,.39,.37,.83,.37,1.24,0,.39-.14,.69-.37,.81-.24,.13-.55,.1-.89-.09-.35-.2-.67-.55-.91-.95-.23-.39-.36-.85-.36-1.24,0-.41,.14-.69,.37-.82,.24-.14,.56-.11,.91,.09,.34,.2,.66,.54,.89,.95Z"/><path class="cls-67" d="M263.05,262.5c.34,.2,.62,.67,.61,1.07,0,.39-.28,.55-.62,.35-.34-.2-.62-.67-.62-1.06,0-.39,.28-.55,.62-.35h0Zm.66,1.86c.18-.1,.28-.32,.28-.61,0-.3-.1-.64-.27-.94-.16-.28-.4-.55-.67-.71-.26-.15-.5-.16-.67-.06-.18,.1-.28,.32-.28,.62,0,.29,.1,.62,.28,.93,.16,.3,.4,.55,.67,.7,.26,.15,.5,.18,.67,.07h0Zm.23-1.67c-.23-.41-.54-.75-.9-.95-.35-.2-.67-.23-.9-.09-.22,.13-.37,.41-.37,.82,0,.39,.14,.84,.36,1.24,.23,.39,.54,.74,.9,.94,.35,.2,.67,.23,.9,.09,.23-.14,.37-.42,.37-.82,0-.4-.14-.85-.36-1.24Z"/><path class="cls-67" d="M284.09,269.06c.34,.2,.62,.68,.62,1.07,0,.39-.28,.55-.62,.35-.34-.2-.62-.68-.62-1.07,0-.39,.28-.55,.62-.35h0Zm.66,1.87c.18-.1,.28-.31,.28-.61,0-.31-.1-.64-.27-.94-.16-.28-.4-.56-.67-.71-.26-.15-.5-.16-.67-.06-.18,.1-.29,.31-.3,.61,0,.3,.11,.63,.29,.94,.16,.3,.4,.55,.67,.7,.26,.15,.5,.18,.67,.07h0Zm.23-1.67c-.22-.41-.54-.74-.89-.95-.35-.2-.67-.23-.9-.09-.22,.13-.38,.4-.38,.81,0,.39,.15,.86,.37,1.24,.23,.39,.54,.74,.9,.94,.35,.2,.67,.23,.89,.09,.23-.13,.37-.42,.37-.81,0-.41-.14-.85-.37-1.24Z"/></g></g><g><g><path class="cls-67" d="M256.35,149.26l29.2,16.96c.56,.32,1.01,.07,1.01-.58v-2.28c0-.63-.44-1.41-1-1.74l-29.2-16.96c-.56-.32-1.01-.06-1.01,.57v2.28c0,.64,.44,1.41,1,1.74Z"/><path class="cls-67" d="M256.71,141.91l29.2,16.96c.56,.32,1.01,.07,1.01-.58v-2.28c0-.63-.44-1.41-1-1.74l-29.2-16.96c-.56-.32-1.01-.06-1.01,.57v2.28c0,.64,.44,1.41,1,1.74Z"/><path class="cls-67" d="M256.35,156.66l10.73,6.19c.56,.32,1.01,.07,1.01-.58v-2.28c0-.63-.44-1.41-1-1.74l-10.73-6.19c-.56-.32-1.01-.06-1.01,.57v2.28c0,.64,.44,1.41,1,1.74Z"/></g><g><path class="cls-53" d="M243.75,150.4c5.44,3.14,9.87,.62,9.89-5.63,.02-6.25-4.38-13.87-9.82-17.01-5.44-3.14-9.87-.62-9.89,5.63-.02,6.25,4.38,13.87,9.82,17.01Z"/><g><path class="cls-10" d="M242.3,132.36c-.14,0-.29,.01-.44,.03-2.76-.11-3.26,2.73-3.44,4.44-.27,2.55,.1,3.89-.5,5.01-.33,.63-.57,1.29-.67,1.96,.57,.91,1.2,1.78,1.88,2.59,.51-1.89,2.45-3.63,2.45-5.1,.14-.47,.55-.89,1.01-1.17l.59,.64c.26,.68,.33,1.07,.57,1.55,.54,1.1,.56,2.43,1.55,1.79,4.94-3.25,3.7-12.55-2.92-11.78h-.09Z"/><g><path class="cls-15" d="M245.8,150.77c-.09,.17-.16,.34-.21,.5-.6-.21-1.21-.5-1.84-.86-2.2-1.27-4.24-3.28-5.87-5.63,.08-.35,.23-.67,.44-.98,.47-.69,.74-1.18,.98-1.73,.07-.42,.14-.76,.22-.99,.05-.2,.15-.38,.26-.54,.36-.51,1-.77,2.13-.3,1.01,.42,2.34,.99,3.51,1.72,.51,.32,2.12,1.51,2.46,2,.17,.25,.29,.54,.31,.91,.12,1.77-1.62,4.38-2.39,5.91Z"/><path class="cls-68" d="M244.08,138.54c-.18,1.04,.11,2.3,.17,3.23-.85,.79-2.3,.27-2.65-.45,.08-.46,.16-.89,.21-1.37l2.28-1.42Z"/><path class="cls-17" d="M248.44,145.1c.21,1.31-.07,4.12-.44,6.65-.87-.02-1.81-.23-2.8-.63-.07-1.6-.12-3.33-.01-4.12,.2-1.48,.93-3.13,1.99-3.17,.78-.03,1.14,.54,1.26,1.28Z"/></g><path class="cls-66" d="M240.55,134.12c-.43,.68-.65,1.36-.55,2.32,.03,.24-.01,.4-.08,.55-.4,.9-.36,1.18-.17,1.9,.19,.7,.18,1.07,.42,1.31,.25,.25,.61,.3,.92,.32,.64,.04,1.73-.38,2.37-.73,.47-.26,.45-.43,.65-.88,.67-.58,.23-1,.01-1.05-.64-.12-.74,.61-1.12,.78,.06-1.3-2.41-3.48-2.45-4.52Z"/></g></g></g></g></g></g></g><path class="cls-4" d="M114.01,202.97c-3.81-4.94-6.33-11.27-6.31-16.81l.29-128.46c6.6,3.41,7.8,12.17,7.67,21.07,10.48,32.31,13.1,48.39,4.83,52.85-1.15,3.77-2.32,3.92-3.2,10.88-.87,22.9-4.68,42.79-3.28,60.46Z"/></g></g><g><path class="cls-56" d="M61.25,237.04l34.02-19.37c3.71-1.69,9.02-3.04,12.8-1.08,3.44,1.79,9.11,5.46,11.62,6.89,1.9,1.09,8.52,5.05,4.4,7.29-12.11,6.59-24.1,14-36.41,20.69-2.33,1.27-5.73,1.72-9.3,1.43-3.56-.3-7.21-1.33-10.08-3-2.04-1.19-4.06-2.36-6.03-3.51-2.67-1.55-4.08-3.39-4.22-5.09-.14-1.66,.93-3.2,3.21-4.24Z"/><g><path class="cls-64" d="M110.98,122.49c-2.47-2.45-10.54-24.43-13.87-34.08-1.89-5.48,.59-9.77,5.83-10.16,10.37-.77,11.64,15.49,13.16,21.97,1.7,7.23,4.09,13.25,3.62,18.35-.35,3.74-6.16,6.49-8.74,3.93Z"/><g><path class="cls-72" d="M74.92,225.32c-.21,.76-.09,1.39-.47,2.39-.37,1-.82,2.11-1.23,3.84-.63,2.67,.24,6.26-.61,10.04-.44,1.51-.4,2.72,.6,4.06,.99,1.31,2.84,3.41,5.26,3.33,.55-.02,1.68-.24,2.55-1.24,.91-1.05,1.66-2.58,1.52-4.48-.05-.72-.47-3.04-.4-5.16,.06-1.85,.4-2.87,.36-4.9-.05-2.15-.21-5.1-.24-6.49l-7.34-1.38Z"/><path class="cls-72" d="M96.27,214.32c-.7,1.9-1.16,2.72-1.19,5.37,.43,1.4,1.42,1.97,2.52,2.94l.78,.17c1.92,1.04,2.63,4.69,4.41,6.35,1.26,1.17,3.76,1.81,6.25,2.29,2.66,.51,5.18-.25,4.49-2.34-1.72-5.19-9.15-11.06-9.32-16.87l-7.93,2.08Z"/><path class="cls-21" d="M107.42,177.29c-.19,9.95-2.9,28.4-2.57,38.2-3.01,2.09-7.09,1.61-8.75-1-1.03-9.02-2.24-21.51-2.35-26.46-.1-4.12,.27-7.91,1.32-11.61-1.48-10.89-7.77-25.75-6.27-35.99,.66-4.5,3.61-9.34,4.46-13.06,7.42,9.14,13.07,4.76,16.14,3.96-.02,3.16,.22,2.74,.12,6.05-.35,11.22-.87,23.2-1.48,34.85,.02,1.74-.13,3.65-.62,5.05Z"/><path class="cls-75" d="M96.11,214.49c-1.03-9.02-2.24-21.51-2.35-26.46-.1-4.12,.27-7.91,1.32-11.61-1.48-10.89-7.77-25.75-6.27-35.99,.66-4.5,3.61-9.34,4.46-13.06,3.06,3.77,8.28,9.01,8.11,14.36-.35,11.22-1.05,22.66-1.67,34.3,.15,12.67-2.01,19.06-3.61,38.45Z"/><path class="cls-16" d="M90.9,184.53c-1.79,9.95-7.21,35.97-8.45,45.78-3.21,1.78-7.31,.85-8.45-1.76-.04-9.02,.21-27.12,.88-32.07,.56-4.12,2.48-10.32,4.13-14.03,.27-10.89-3.18-26.05-.04-36.29,1.38-4.5,5.11-9.34,6.56-13.06,1.99,3.06,4.41,4.34,10.99,3.81,.64-.05,6.13-3.97,7.94-4.42-2.3,13.83-8.91,31.9-12.13,46.99-.26,1.74-.72,3.65-1.43,5.05Z"/></g><path class="cls-20" d="M86.62,85.51c-4.65,2.89-7.27,5.48-9.68,8.62-3.36,4.38-3.6,7.06-3.18,12.74,.47,6.36,4.93,13.75,6.32,20.93,.67,3.46,1.81,8.83-.57,14.73-1.83,4.54,2.85,6.63,9.12,6.25,7.42-.45,16.73-4.55,21.04-11.94,1.2-2.06-1.07-22.76,2.45-34.78,1.9-6.48,1.23-16.57-2.42-20.77-6.58-7.56-14.38-1.17-23.08,4.23Z"/><path class="cls-76" d="M86.62,85.51c-4.65,2.89-7.27,5.48-9.68,8.62-3.36,4.38-3.6,7.06-3.18,12.74,.47,6.36,4.93,13.75,6.32,20.93,.67,3.46,1.81,8.83-.57,14.73-1.83,4.54,2.85,6.63,9.12,6.25,2.22-.13,4.61-.59,6.98-1.37,1.46-11.53,1.67-26.43-.18-37.28-.66-3.87-1.98-7.78-3.43-12.15-2.9-8.76-.66-12.87,3.4-17.85-2.81,1.49-5.74,3.5-8.78,5.39Z"/><path class="cls-22" d="M86.62,85.51c-4.65,2.89-7.81,5.3-10.22,8.44-3.36,4.38-3.6,7.06-3.18,12.74,.47,6.36,4.8,14.29,6.18,21.47,.49,2.55,2.86,5.4-1.41,18-3.44,10.15,.58,24.5-2.23,37.02,3.1,2.97,6.97,3.89,10.97,3.55,5.64-27.87,12.9-65.12,3.96-87.17-1.11-2.75-2.38-8.3-2.27-10.06,.42-6.87,8.71-9.42,13.54-1.15,8.06,13.79,5.06,63.92,4.04,88.72,1.96-1.92,3.24-3.73,3.5-5.01,.51-9.56,1.24-62.43,3.35-69.65,1.9-6.48,.51-16.94-3.14-21.13-6.58-7.56-14.38-1.17-23.08,4.23Z"/><path class="cls-19" d="M74.49,96.86c-1.53,2.92-1.6,5.51-1.28,9.83,.47,6.36,4.8,14.29,6.18,21.47,.49,2.55,2.86,5.4-1.41,18-3.44,10.15,.58,24.5-2.23,37.02,.59,.56,1.2,1.05,1.84,1.47,5.05-12.34,1.31-35.38,8.3-48.23,3.69-.06,6.33,.38,8.6,.68,.43-4.9,.44-8.58,.43-13.23-2.66-.59-5.11-1.58-8.81-3.61,.65-10.23,.78-15.83-1.35-19.76-1.71-3.14-4.67-4.37-10.28-3.65Z"/><g><path class="cls-18" d="M99.78,95.66c2.35,6.5,.36,8.93-2.38,13.36-2.98,4.82-2.24,10.64-2.03,16.85,1.16,1.85,3.37,3.88,5.37,5.1,.83-3.92,1.52-5.44,2.51-7.62-1.42-3.11-1.85-7.01-1.16-9.81,1.36-5.52,5-10.03-.48-18.47,.55-2.31,.66-3.03,.18-3.3-.56-.31-.43-.03-2.17,.14-1.04,.1-2.7,.37-2.42,1.53,.22,.89,.93,1.8,2.58,2.22Z"/><g><path class="cls-68" d="M100.73,88.59c.17-.36,.36-.72,.54-1.11,.53-1.11,.81-3.46,1.8-6.06l-9.74-4.46-2.06-1.16c.36,3.86-.95,7.06-2.34,9.79-.52,3.71,6.8,5.39,10.66,6.33,.45-.9,.62-2.22,1.14-3.34Z"/><path class="cls-62" d="M99.58,91.93c.21-.53,.32-1.63,.54-2.58,.2-.85,.97-2.95,.97-3.5,.87,.22,1.42,5.16,2.41,7.24-1.53-1.07-2.2-1.16-3.92-1.16Z"/><path class="cls-62" d="M89.17,84.83c.13,3.68,6.32,6.2,10.45,7.11-1,1.21-2.3,2.73-2.24,3.94-2.88-.79-7.76-2.14-9.74-5.82-1.35-2.52-.06-4.36,1.53-5.22Z"/><path class="cls-66" d="M99.68,87.13c-1.09-.85-3.79-2.61-4.77-3.44-2.13-1.83-1.7-3.92-2.1-7.28-2-1.67-2.62-2.92-2.7-4.29-.2-3.25,1.89-6.57,4.49-8.28,2.27-1.49,4.77-1.77,7.5-.95,5.3,1.59,7.4,4.63,7.33,9.31,0,.4-.27,1.97-.42,2.36-.36,.92-.63,1.05-.82,1.69-.12,.42-.14,.93,.03,1.62,.39,1.61-2.17,8.71-3.3,9.4-1.26,.76-3.36,.99-5.23-.14Z"/><path class="cls-31" d="M104.9,71.1c-1.18-.87-5.59-4.12-7.49-5.65-1.94-1.56-4.06-3.24-6.05-2.17-1.85,1.68-2.86,5.07-2.85,7.06,.01,2.84,1.44,5.56,3.46,8.5,.76,1.1,1.29-2.83,1.71-3.61,.27,1.48,.67,2.15,1.1,2.32,.31,.12,.63,.37,.93-1.4,.46-2.72,1.82-2.94,1.5-4.83-.26-1.51,.66-1.18,1.06-1.69,1.98,.43,3.66,1.74,6.62,1.48Z"/><path class="cls-66" d="M92.93,73.48c-1.96-1.08-2.4,1.33-2.33,2.85,.05,1.04,.89,1.11,1.05,1.96,.19,1.01,.85,1.58,1.48,1.67,1.28,.19,.82-1.84,.8-2.61,.36-1.2,.25-3.18-1-3.86Z"/><path class="cls-45" d="M91.18,63.43c1.52,.69,3.19,2.7,5.27,4.32,2.87,2.24,6.29,4.07,9.13,3.79,1.63-.16,3.43-1.05,3.79-1.7,5.25-9.78-14.22-14.92-18.19-6.42Z"/><g><path class="cls-70" d="M105.69,83.89c-.21-.03-.3,.07-.56,.12-.41-.02-.54-.02-.83,.07-.53,.16-.62,.46-1.42,.63-.24,.05-.2,.09,.04,.2,.39,.17,1.79,.19,2.37,0,.39-.13,.27-.33,.47-.52,.15-.14,.35-.43-.08-.49Z"/><path class="cls-58" d="M102.96,77.17c-1.17,.28-2.08,.28-3.31-.48,1.15,1.03,2.28,1.03,3.31,.48Z"/><path class="cls-58" d="M106.26,76.66c1.03-.04,1.06,0,1.91-.47-.56,.61-1.03,.67-1.93,.63l.02-.17Z"/><path class="cls-58" d="M105.86,77.69c.18,1.12,.16,1.68,.65,2.48,.86,1.37,.37,1.9-1.04,2.04,1.5-.39,1.34-.82,.79-2.04-.34-.76-.34-1.23-.41-2.48Z"/><path class="cls-58" d="M107.65,76.59c-.2,.49-.74,.63-1.06,.19,.37-.02,.67-.03,1.06-.19Z"/><path class="cls-58" d="M100.66,77.26c.2,.49,.74,.63,1.06,.19-.37-.02-.67-.03-1.06-.19Z"/></g></g></g><g><g><path class="cls-66" d="M107.69,99.74c-.57-1.08-2.15-2.88-3.51-4.29-1.74-1.8-2.5-3.66-2.73-6.58-.05-.62,.64-1.57,1.38-1.68,.28-.04,.62-.06,1.25-.07,.49-.72,.62-.84,1.3-1.41,.54-.45,.89-.5,1.57-.23,1.03,.4,1.91,.83,2.32,1.21,.39,.37,1.13,1.54,1.74,2.68,.53,.98,1.22,2.83,1,3.56-.49,1.62-.98,1.97-.72,2.99l.71,2.72-4.31,1.11Z"/><g><path class="cls-66" d="M103.1,87.08c.41-.83,.35-.9,.99-1.6,.5-.55,.86-.65,1.6-.47,1.13,.27,2.12,.59,2.6,.93,.46,.33,1.4,1.45,2.21,2.55,.7,.95,.87,1.39,1.36,2.77l-.99,.16-2.18-.62c-3.45-.2-5.05-3.49-5.59-3.71Z"/><path class="cls-68" d="M109.24,91.51c-.64,0-.46,.14-1.03-.15-.05,.56-.47,1.12-.72,1.03-.36-.18-.56-.45-.6-.78-.08-.64,.24-1.4,.88-1.76,.26-.15,1.19-.11,2.45-.05,.65,.03,.94,0,1.18,.32,.15,.19,.31,.54,.43,.99,.24,.9,.31,1.65,0,2.13-.76-.63-1.44-2.13-2.6-1.72Z"/><path class="cls-68" d="M102.92,87.14c.41-.83,.52-.96,1.16-1.66,.17-.19,.33-.33,.49-.42l3.07,4.82c-.31,.36-1.3,2.01-.1,2.53-1.06-.46-3.13-2.25-4.62-5.26Z"/><g><path class="cls-66" d="M101.86,91.02c-.47-.97-.34-1.69-.53-2.6-.14-.64,.15-1.43,.94-1.55,.3-.05,.65-.07,1.32-.07l.84,.2c.52,1.37-.43,2.23-1.21,2.25-.16,.14,.37,3.03,.61,4.1,.07,.32-1.37-.79-1.96-2.33Z"/><path class="cls-68" d="M104.42,86.97c-.05,.89-.94,1.92-2.5,1.78,.66,.54,1.38,.58,1.93,.34,.82-.36,1.27-1.32,.57-2.11Z"/></g></g></g><path class="cls-24" d="M106.05,97.51c.6,.93,5.05-.31,5.43-1.15l.7,1.63c.46,.4,1.26,1.2,1.5,1.63,3.53,6.21,4.58,11.91,5.85,18.98,.82,4.57-3.88,6.81-6.69,5.19-5.42-3.12-6.22-17.58-6.59-22.66-.03-.35,.42-1.32,.35-1.66-.16-.51-.43-1.65-.55-1.97Z"/><path class="cls-8" d="M106.05,97.51c.14,.22,.5,.32,.97,.33,.1,.9,.2,1.41,.52,1.73,2.15-.35,2.67-.65,4.64-1.57-.97,1.29-2.77,2.42-3.9,2.76,.07,3.16,2.63,20.71,8.27,23.27-1.23,.45-2.61,.4-3.71-.23-5.42-3.12-6.22-17.58-6.59-22.66-.03-.35,.42-1.32,.35-1.66-.16-.51-.43-1.65-.55-1.97Z"/></g><g><g><path class="cls-66" d="M102.03,129.45c.09,.01,2.88-1.47,4.03-1.27,3.58,.63,3.42,.81,7.23,.85-1.04,1.47-1.78,1.7-3.52,1.33-3.49-.14-5.23,1.52-7.73-.91Z"/><g><path class="cls-44" d="M102.4,140.58l13.6-16.97-.86-1.15-13.98,16.9h0c-.22,.27-.33,.47-.34,.59,0,.04,0,.08,.02,.1l.86,1.15c.29-.06,.6-.51,.69-.62Z"/><path class="cls-33" d="M142.02,106.04l-22.77,13.14,.86,1.15,23.04-12.93c.19-.11,1.33-.62,1.5-.85l-.86-1.15c-.17-.22-1.06,.24-1.07,.25-.24,.12-.47,.25-.7,.38Z"/><path class="cls-50" d="M120.11,120.33l-.86-1.15s-.02,0-.02,.01c-.73,.43-1.44,.92-2.11,1.44-.32,.25-.62,.5-.92,.77-.37,.34-.73,.65-1.05,1.05l.86,1.15c1.13,.96,4.52-.32,4.11-3.28Z"/><path class="cls-48" d="M143.02,107.11l-22.91,13.23c-1.5,.87-3.34,2.33-4.11,3.28l-13.98,16.9c-.77,.94-.18,1.01,1.32,.14l22.91-13.23c1.49-.86,3.33-2.33,4.1-3.27l13.98-16.9c.77-.94,.18-1.01-1.31-.15Z"/></g><path class="cls-66" d="M116.87,128.93c-1.59-.41-3.41,.67-5.89,1.32-3.22,.84-2.66-.83-5.04-1.42-1.84-.46-3.72,.5-7.5-.09l-1.21,4.75,.37,.46c3,.34,3.57,.62,5.43,1.5,1.46,.69,2.53,1.13,3.42,1.18,1.67,.09,3.84-.76,5.83-1.67,1.72-.79,1.85-.95,2.72-2.61l1.88-3.41Z"/></g><path class="cls-23" d="M84.34,102.07c.22,5.56-1.69,13.65-2.26,19.95,4.51,1.09,10.93,3.56,14.87,4.85,.76,.25,1.21,1.03,1.72,1.54,.54,.21,1.06,.21,1.63,.29,.38,.41-.13,4.22-1.35,5.59-.38-.11-1.87-.26-2.28-.35-.77-.02-1.43,.41-2.05,.37-1.67-.11-7.35-1.14-11.89-2.08-1.39-.29-5.27-1.3-7.61-2.48-.62-.31-1.13-.63-1.51-.99-.44-.32-.81-.74-1.07-1.27-.95-5.12-1.18-14.56-1.23-18.7-.11-8.47,2.57-12.78,6.63-13.12,3.75-.31,6.2,1.45,6.4,6.4Z"/></g></g></g><g><path class="cls-25" d="M300.64,82.21l-.12,42.96c0,3.14-2.25,4.41-4.98,2.84l-40.17-23.19c-2.73-1.58-4.95-5.43-4.95-8.57l.17-59.41c0-3.14,2.25-4.41,4.98-2.84l26.24,15.15,18.83,33.06Z"/><g><path class="cls-30" d="M257.13,57.31l19.53,11.28c.83,.48,1.48,.11,1.49-.82v-2.88c.01-.93-.64-2.08-1.47-2.56l-19.53-11.28c-.81-.47-1.46-.07-1.46,.86v2.88c-.01,.93,.64,2.05,1.45,2.52Z"/><path class="cls-30" d="M294.04,88.99c.57,.33,1.03,.07,1.03-.59v-2.03c0-.65-.45-1.44-1.02-1.77l-37.34-21.56c-.57-.33-1.03-.07-1.03,.59v2.03c0,.65,.45,1.44,1.02,1.77l37.34,21.56Z"/><path class="cls-30" d="M294.04,99.11c.57,.33,1.03,.07,1.03-.59v-2.03c0-.65-.45-1.44-1.02-1.77l-37.34-21.56c-.57-.33-1.03-.06-1.03,.59v2.03c0,.65,.45,1.44,1.02,1.77l37.34,21.56Z"/><path class="cls-30" d="M294.04,109.24c.57,.33,1.03,.07,1.03-.59v-2.03c0-.65-.45-1.44-1.02-1.77l-37.34-21.56c-.57-.33-1.03-.07-1.03,.59v2.03c0,.65,.45,1.44,1.02,1.77l37.34,21.56Z"/><path class="cls-30" d="M294.04,119.74c.57,.33,1.03,.07,1.03-.59v-2.03c0-.65-.45-1.44-1.02-1.77l-37.34-21.56c-.57-.33-1.03-.07-1.03,.59v2.03c0,.65,.45,1.44,1.02,1.77l37.34,21.56Z"/></g><g><path class="cls-6" d="M300.62,90.85l-16.71-11.96c-4.94-4.54-4.94-6.95-4.59-12.49l2.29-17.37,.22,.13,18.8,33.04v8.66Z"/><path class="cls-7" d="M300.64,82.21l-13.91-8.03c-2.75-1.59-4.97-5.44-4.97-8.58l.05-16.45,18.83,33.06Z"/></g></g><g><path class="cls-56" d="M156.06,248.6c1.13-.66,2.99-.65,4.11,0l4.54,2.64,2.65-1.53c.43-.25,1.14-.25,1.57,0l6.53,3.8c.43,.25,.43,.66,0,.91l-2.65,1.53,4.44,2.58c1.12,.65,1.12,1.73-.02,2.38l-4.87,2.81,15.74,9.15c1.62,.94,1.61,2.47-.02,3.41l-65.8,37.99c-1.63,.94-4.27,.94-5.88,0l-49.9-29c-1.62-.94-1.61-2.47,.02-3.41l65.8-37.99c1.63-.94,4.26-.94,5.88,0l12.98,7.54,4.86-2.81Z"/><g><g><path class="cls-40" d="M174.31,256.3l2.16-1.52c.57-.33,.94-.56,1.43-.75v2.04c0,.43-.28,.87-.85,1.2l-2.45,1.41-2.88,1.66v-2.04s2.58-2,2.58-2Z"/><path class="cls-34" d="M171.71,247.72c.07,.05,.17,.17,.17,.26,.05,.22-.06,1.48-.06,1.81,0-.09-.07-.16-.14-.2l-2.89-1.68-.15-1.1,.15-.7,2.93,1.61Z"/><path class="cls-42" d="M66.41,279.35l47.07,27.07c4.75,2.05,7.08,2.8,8.76,1.83l-.1,1.64c-1.4,.81-3.54,.92-5.14,.34-.58-.21-1.08-.53-1.61-.84l-49.07-28.5c-.58-.34-1.14-.87-1.2-1.58-.03-.36,0-.96,.02-1.4,0-.1,0-.14,0-.23l1.28,1.65Z"/><path class="cls-40" d="M187.93,270.36c.82-.48,1.1-.93,1.2-1.54l.04,1.37c0,.63-.41,1.25-1.23,1.73l-65.8,37.99v-1.56s65.8-37.99,65.8-37.99Z"/><path class="cls-40" d="M168.09,246.03c.19-.11,.5-.03,.69,.09v1.8c-.18-.11-.5-.11-.69,0l-1.31,.75v-1.88s1.31-.75,1.31-.75Z"/><path class="cls-40" d="M174.45,248.38c.22-.13,1.15,.06,1.15-.11v2.04c0,.17-.1,.33-.32,.46l-2.65,1.53v-2.04s1.83-1.88,1.83-1.88Z"/><path class="cls-9" d="M170.37,248.95l1.3-.75c.19-.11,.19-.29,0-.4l-2.89-1.68c-.19-.11-.5-.11-.7,0l-1.3,.75,3.59,2.09h0Zm-104.02,27.22l65.8-37.99c1.63-.94,4.26-.94,5.88,0l12.98,7.54,4.86-2.81c1.13-.66,2.99-.65,4.11,0l4.54,2.64,2.65-1.53c.43-.25,1.14-.25,1.57,0l6.53,3.8c.43,.25,.43,.66,0,.91l-2.65,1.53,4.44,2.58c1.12,.65,1.12,1.73-.02,2.38l-4.87,2.81,15.74,9.15c1.62,.94,1.61,2.47-.02,3.41l-65.8,37.99c-1.63,.94-4.27,.94-5.88,0l-49.9-29c-1.62-.94-1.61-2.47,.02-3.41Z"/></g><path class="cls-52" d="M70.22,275.99l61.6-35.57c1.52-.88,3.99-.88,5.5,0l46.71,27.15c1.51,.88,1.51,2.31-.02,3.19l-61.6,35.57c-1.52,.88-3.99,.88-5.51,0l-46.71-27.15c-1.51-.88-1.51-2.31,.02-3.19Z"/></g><g><path class="cls-36" d="M130.32,241.67l51.55,29.96,1.73-.99c1.52-.98,1.67-2.25-1.05-3.61l-44.45-25.83c-3.16-1.83-5.41-.96-6.06-.51l-1.72,.99Z"/><g><g><polygon class="cls-67" points="113.13 253.31 128.91 262.49 144.04 253.75 128.26 244.58 113.13 253.31"/><polygon class="cls-61" points="113.79 253.66 118.49 256.38 125 255.61 123.64 259.37 128.32 262.11 130.82 254.91 143.39 253.41 138.88 250.79 131.97 251.58 133.36 247.58 128.85 244.96 126.22 252.24 113.79 253.66"/><polygon class="cls-67" points="94.13 264.29 109.91 273.46 125.03 264.73 109.25 255.56 94.13 264.29"/><polygon class="cls-67" points="75.12 275.26 90.9 284.43 106.02 275.7 90.24 266.53 75.12 275.26"/><polygon class="cls-61" points="110.21 254.06 109.4 255.64 103.38 267.53 122.44 265.84 118.34 263.46 109.96 264.2 113.17 257.83 113.97 256.25 110.21 254.06"/></g><polygon class="cls-61" points="82.84 278.46 90.53 264.81 93.08 267 85.14 280.06 82.84 278.46"/></g><g><path class="cls-61" d="M145.91,257.4c-.4,.23-.4,.6,0,.83l23.84,13.86c.39,.23,1.03,.23,1.43,0l1.1-.64c.39-.23,.4-.6,0-.83l-23.84-13.86c-.39-.23-1.03-.23-1.43,0l-1.1,.64Z"/><path class="cls-67" d="M136.47,262.85l.84-.49c.3-.17,.79-.17,1.09,0l16.67,9.69c.3,.17,.29,.46,0,.63l-.84,.48c-.3,.17-.79,.17-1.09,0l-16.67-9.69c-.3-.17-.29-.46,0-.63h0Zm19.01,2.77c.11-.07,.18-.15,.21-.23,.02-.06,.02-.11,0-.17-.03-.08-.1-.17-.21-.23l-10.78-6.27c-.3-.17-.79-.17-1.09,0l-.35,.2-.48,.28c-.15,.09-.23,.2-.23,.31,0,.11,.07,.23,.22,.31l10.78,6.26c.22,.13,.56,.16,.83,.1,.09-.02,.18-.05,.26-.1l.84-.48h0Zm-15.67-4.7c-.3,.17-.3,.46,0,.63l24.18,14.05c.3,.17,.79,.17,1.09,0l.84-.49c.3-.17,.3-.46,0-.63l-24.18-14.05c-.3-.17-.79-.17-1.09,0l-.84,.48Z"/><path class="cls-67" d="M117.46,273.83c-.3,.17-.3,.46,0,.63l16.67,9.69c.3,.17,.79,.17,1.09,0l.84-.48c.3-.17,.3-.46,0-.63l-16.67-9.69c-.3-.17-.79-.17-1.09,0l-.84,.48h0Zm6.31-3.64l.84-.48c.3-.17,.79-.17,1.09,0l10.78,6.26c.3,.17,.3,.46,0,.63l-.84,.48c-.3,.17-.79,.17-1.09,0l-10.78-6.26c-.3-.17-.3-.46,0-.63h0Zm-2.96,1.71l.84-.49c.3-.17,.79-.17,1.09,0l24.18,14.05c.3,.17,.3,.46,0,.63l-.84,.48c-.3,.17-.79,.17-1.09,0l-24.18-14.05c-.3-.17-.3-.46,0-.63Z"/><path class="cls-61" d="M126.9,268.38c-.39,.23-.4,.6,0,.83l23.84,13.86c.39,.23,1.03,.23,1.43,0l1.1-.64c.4-.23,.4-.6,0-.83l-23.84-13.86c-.39-.23-1.04-.23-1.43,0l-1.1,.64Z"/><path class="cls-67" d="M93.96,286.22c-.3,.17-.3,.46,0,.63l16.67,9.69c.3,.17,.79,.17,1.09,0l.84-.48c.3-.17,.3-.46,0-.63l-16.67-9.69c-.3-.17-.79-.17-1.09,0l-.84,.48h0Zm6.31-3.64l.84-.48c.3-.17,.79-.17,1.09,0l10.78,6.26c.3,.17,.3,.46,0,.63l-.84,.48c-.3,.17-.79,.17-1.09,0l-10.78-6.27c-.3-.17-.3-.46,0-.63h0Zm-2.96,1.71l.84-.48c.3-.17,.79-.17,1.09,0l24.18,14.05c.3,.17,.3,.46,0,.63l-.84,.49c-.3,.17-.79,.17-1.09,0l-24.18-14.05c-.3-.17-.3-.46,0-.63Z"/></g></g><g><path class="cls-56" d="M195.06,282.01l7.92-1.34h0l2.25-.41c.22-.04,.23-.03,.07,.16l-1.6,1.85-4.83,5.67h0s-1.84,2.32-1.84,2.32l-60.98,36.11h0s0,0,0,0h0s0,0,0,0l-2.84-1.79-.99-4.13,1.85-2.34h0s0,0,0,0l60.97-36.1h.02Z"/><g><polygon class="cls-71" points="194.75 279.72 205.12 277.97 199.16 281.25 197.59 281.51 194.75 279.72"/><path class="cls-39" d="M163.25,305.91l5.54-3.78,29.8-16.5-1.85,2.34c-20.33,12.04-40.66,24.07-60.99,36.11l.67-1.35,1.18-.99,12.71-8.66,12.94-7.17Z"/><path class="cls-61" d="M194.75,279.7l2.84,1.79-29.97,19.48-7.05,3.51-11.44,7.43-13.32,6.64-2.05-2.75h0c20.33-12.04,40.65-24.08,60.97-36.11Z"/><path class="cls-36" d="M197.59,281.5l.99,4.13c-20.33,12.04-40.66,24.07-60.99,36.11l-1.39-1.81,.39-2.32c20.33-12.04,40.66-24.07,60.99-36.11Z"/><polygon class="cls-69" points="205.12 277.97 198.58 285.64 197.59 281.51 205.12 277.97"/><path class="cls-39" d="M202.69,278.38l2.25-.41c.22-.04,.23-.03,.07,.16l-1.61,1.85c.17-.59,.31-1.48-.72-1.6Z"/><polygon class="cls-39" points="133.78 315.81 131.92 318.15 132.91 322.28 135.75 324.07 137.61 321.73 136.61 317.6 135.19 316.7 133.78 315.81"/></g></g></g></g></g></g></g></svg>