<?xml version="1.0" encoding="UTF-8"?><svg id="Table" xmlns="http://www.w3.org/2000/svg" viewBox="0 0 482.82 211.03"><defs><style>.cls-1{fill:#ebebeb;}.cls-2{fill:#eb996e;}.cls-3{fill:#fff;}.cls-4{fill:#ffbe9d;}.cls-5{fill:#ff725e;}.cls-6{fill:#a26760;}.cls-7{fill:#9f6b5b;}.cls-8{fill:#c78976;}.cls-9{fill:#e0e0e0;}.cls-10{fill:#455a64;}.cls-11{fill:#263238;}.cls-12{fill:#774f44;}.cls-13{opacity:.2;}.cls-14{opacity:.3;}</style></defs><g><rect class="cls-10" x="386.44" y="201.26" width="76.46" height="9.59"/><g><polygon class="cls-8" points="412.67 82.09 419.18 80.68 442.4 82.59 447.34 84.72 426.15 109.53 412.67 82.09"/><g><path class="cls-10" d="M452.58,148.01s15.08-43.94,13.99-47c-1.09-3.06-19.45-16.83-19.45-16.83l-19.67,22.51-12.9-26.01s-17.24,6.94-19.22,7.28c-4.17,.73-7.83,5.57-9.84,10.2-5.01,11.55-11.03,31.85-11.03,31.85l18.57,7.43,1.82-3.55c-.98,4.52-2.96,13.19-5.11,19.73-5.67,17.17-4.88,50.1-4.88,50.1l75.52-.21s1.6-21.4,.29-33.21c-1.31-11.8-8.09-22.3-8.09-22.3Z"/><path class="cls-11" d="M432.61,117.37s.12-.05,.39-.15c.27-.1,.67-.2,1.21-.27,1.07-.16,2.69-.03,4.63,.5,1.95,.52,4.24,1.36,6.88,2.25,1.32,.45,2.73,.9,4.24,1.29,1.5,.37,3.13,.77,4.78,.77h.24s-.04,.22-.04,.22c-1.13,6.25-2.45,13.57-3.85,21.37-.07,.4-.14,.79-.21,1.18l-.05,.27-.25-.11c-1.79-.81-3.57-1.58-5.33-2.29-1.76-.7-3.49-1.38-5.22-1.8-3.5-.77-6.91-1.06-10.02-1.31l-.19-.02,.02-.19c.81-6.52,1.49-11.96,1.97-15.8,.24-1.87,.44-3.35,.57-4.39,.07-.48,.12-.86,.16-1.15,.04-.26,.06-.39,.07-.38,0,0,0,.15-.02,.42-.03,.29-.07,.69-.12,1.18-.11,1.06-.28,2.55-.48,4.43-.44,3.83-1.05,9.25-1.79,15.74l-.17-.21c3.13,.23,6.53,.51,10.09,1.28,1.78,.43,3.52,1.11,5.28,1.81,1.77,.71,3.55,1.47,5.35,2.29l-.3,.16c.07-.39,.14-.79,.21-1.18,1.43-7.79,2.76-15.11,3.91-21.36l.2,.22c-1.79-.02-3.38-.43-4.9-.81-1.52-.41-2.93-.87-4.25-1.33-2.63-.92-4.91-1.78-6.84-2.33-1.92-.56-3.5-.72-4.56-.6-1.07,.11-1.59,.33-1.61,.3Z"/><polygon class="cls-10" points="466.57 101.01 477.93 143.86 454.91 152.19 452.58 148.01 466.57 101.01"/><path class="cls-11" d="M384.86,195.45s.07,0,.19,.02c.15,.02,.33,.05,.55,.09,.52,.09,1.22,.2,2.11,.35,1.83,.29,4.5,.7,7.81,.94,1.65,.1,3.47,.17,5.41,0,.48-.05,.97-.09,1.46-.21,.24-.05,.49-.09,.73-.15,.24-.08,.48-.16,.72-.24,.97-.27,1.5-1.28,1.93-2.24,.43-.99,.73-2.07,.98-3.19,.25-1.12,.45-2.27,.62-3.45,.34-2.36,.55-4.83,.71-7.35,.33-5.52,.37-10.78,.29-15.43l.19,.19c-6.27-.13-11.59-.24-15.37-.32-1.84-.05-3.32-.09-4.37-.12-.48-.02-.86-.04-1.16-.05-.26-.01-.4-.03-.4-.04,0-.01,.14-.02,.4-.03,.3,0,.68,0,1.16-.01,1.05,0,2.52,0,4.37,.01,3.79,.04,9.1,.1,15.38,.17h.19s0,.19,0,.19c.11,4.66,.07,9.93-.26,15.47-.16,2.54-.38,5.01-.72,7.39-.17,1.19-.37,2.35-.63,3.48-.25,1.13-.57,2.23-1.01,3.25-.22,.51-.49,1.01-.83,1.45-.16,.23-.38,.42-.59,.61-.25,.15-.49,.32-.75,.38-.25,.08-.51,.16-.76,.25-.25,.07-.51,.1-.76,.15-.5,.11-1,.15-1.49,.2-1.97,.16-3.8,.07-5.46-.05-3.32-.27-5.98-.73-7.81-1.08-.92-.17-1.62-.32-2.1-.43-.22-.05-.39-.1-.54-.13-.12-.03-.18-.05-.18-.06Z"/><path class="cls-11" d="M408.34,169.96c0,.12-4.9,.21-10.95,.21s-10.95-.1-10.95-.21,4.9-.21,10.95-.21,10.95,.1,10.95,.21Z"/><path class="cls-11" d="M394.43,127.02s-.11-.46-.24-1.31c-.13-.84-.29-2.07-.45-3.59-.33-3.03-.67-7.25-.7-11.91-.03-4.66,.27-8.88,.62-11.92,.17-1.52,.34-2.74,.48-3.58,.14-.84,.23-1.31,.26-1.3,.03,0,0,.48-.09,1.32-.09,.85-.21,2.07-.35,3.59-.27,3.03-.52,7.24-.49,11.88,.03,4.65,.32,8.85,.57,11.88,.13,1.46,.24,2.67,.32,3.6,.08,.85,.1,1.32,.07,1.32Z"/><path class="cls-11" d="M452.58,88.38s-.12,.2-.38,.56c-.28,.39-.67,.91-1.15,1.57-1.04,1.39-2.51,3.35-4.34,5.78-3.73,4.91-8.89,11.7-14.73,19.38l-.06,.08h-.11c-1.64,0-3.36,0-5.11,0-1.41,0-2.8,0-4.11,0h-.13s-.06-.12-.06-.12c-4.22-8.94-7.98-16.88-10.69-22.62-1.32-2.84-2.39-5.14-3.15-6.76-.35-.77-.63-1.38-.83-1.83-.08-.19-.15-.35-.21-.48-.04-.11-.06-.17-.06-.17,0,0,.04,.05,.09,.15,.07,.13,.15,.28,.24,.46,.22,.44,.52,1.04,.9,1.8,.78,1.61,1.89,3.89,3.26,6.7,2.75,5.73,6.55,13.65,10.82,22.56l-.19-.12c1.31,0,2.7,0,4.11,0,1.75,0,3.47,0,5.11,0l-.17,.08c5.88-7.64,11.08-14.4,14.84-19.29,1.87-2.4,3.37-4.33,4.44-5.7,.51-.64,.92-1.15,1.21-1.53,.28-.35,.43-.52,.44-.51Z"/><path class="cls-11" d="M450.91,166.67s-.23-.23-.6-.69c-.36-.46-.86-1.15-1.44-2.02-1.16-1.74-2.61-4.26-3.86-7.2-1.25-2.95-2.05-5.74-2.49-7.79-.22-1.02-.37-1.86-.45-2.44-.08-.58-.11-.9-.08-.91,.07-.01,.3,1.26,.82,3.27,.51,2.01,1.36,4.77,2.59,7.69,1.24,2.92,2.63,5.44,3.72,7.21,1.09,1.77,1.84,2.83,1.78,2.87Z"/><path class="cls-11" d="M445.18,154.4c-.07-.11,1.91-1.48,4.16-3.41,2.26-1.92,3.93-3.67,4.02-3.58,.08,.07-1.46,1.96-3.74,3.91-2.28,1.95-4.39,3.18-4.44,3.08Z"/><path class="cls-11" d="M455.71,153.83s-.07-.09-.19-.29c-.13-.23-.29-.52-.49-.87-.44-.81-1.04-1.92-1.78-3.3l-.02-.04v-.05c1.21-4.61,3.24-12.18,5.56-20.71,1.94-7.04,3.7-13.41,4.99-18.08,.65-2.27,1.18-4.13,1.56-5.47,.18-.61,.33-1.1,.44-1.48,.11-.34,.17-.51,.18-.51,.01,0-.02,.19-.1,.53-.09,.39-.22,.88-.37,1.5-.35,1.35-.83,3.22-1.43,5.5-1.26,4.68-2.97,11.06-4.87,18.12-2.32,8.53-4.41,16.08-5.72,20.66v-.09c.69,1.4,1.26,2.53,1.67,3.35,.17,.36,.32,.66,.43,.9,.09,.2,.14,.31,.13,.32Z"/><g class="cls-14"><path d="M394.43,127.02c-4.08-7.6-4.31-16.88-.95-24.82,0,0,.11,20.79,.95,24.82Z"/></g><path class="cls-11" d="M453.66,126.57s-.32,0-.88-.08c-.56-.07-1.36-.2-2.36-.38-1.99-.35-4.72-.91-7.7-1.65-2.99-.74-5.67-1.51-7.59-2.13-.96-.31-1.73-.57-2.26-.76-.53-.19-.82-.31-.81-.34,0-.03,.31,.04,.86,.18,.63,.17,1.4,.38,2.3,.63,1.94,.54,4.62,1.26,7.6,2,2.98,.74,5.69,1.34,7.66,1.77,.91,.2,1.69,.37,2.33,.51,.55,.13,.85,.21,.85,.24Z"/><g class="cls-14"><path d="M430.02,139.12s14.56,7.08,20.65,5.39c0,0-10.38-5.81-20.65-5.39Z"/></g><g class="cls-14"><path d="M454.03,147.41s11.23-7.03,9.08-34.59l-9.08,34.59Z"/></g></g><path class="cls-11" d="M456.46,203.72c0,.12-15.87,.21-35.45,.21s-35.45-.1-35.45-.21,15.87-.21,35.45-.21,35.45,.1,35.45,.21Z"/><g><path class="cls-8" d="M470.62,146.53s1.61,26.72,.96,30.87c-.66,4.15-3,22.95-3,22.95l-9.46-1.97-2.58-46.75,14.08-5.1Z"/><path class="cls-8" d="M455.21,210.84c0-.98,0-2.05,.11-2.56,.32-1.51,3.74-10.91,3.74-10.91l9.46,1.97s.06,.13,.16,.36c.77,1.77,4.11,9.45,4.11,9.8,0,.09-.03,.81-.07,1.34l-11.35,.04-.33-2.38s-.39,1.14-.81,2.31l-5.02,.04Z"/></g></g><g class="cls-14"><path d="M386.6,203.78c10.76,4.25,22.72,3.86,34.28,3.4,12.19-.48,24.46-.98,36.36-3.67l-70.64,.27Z"/></g><g><path class="cls-5" d="M441.55,69.85c4.5-2.09,7.78-6.6,8.39-11.52,.26-2.08,.07-4.22,.55-6.26,.69-2.93,2.73-5.56,2.62-8.57-.07-2-1.09-3.84-1.41-5.82-.31-1.91,.05-3.86-.05-5.78-.25-4.91-3.78-9.48-8.46-10.97l-12.34-4.01-17.94,8.86s-9.78,10.96-5.25,31.73l33.89,12.34Z"/><g><g><path class="cls-10" d="M409.8,59.2c-.36-.4-.87-.77-1.4-.96h.11c-.1-.03-.2-.05-.3-.06-.39-.1-.78-.09-1.11,.12h.01c-.61,.21-1.15,.65-1.46,1.22-.53,1-.36,2.29,.31,3.21,.58,.79,1.6,1.32,2.56,1.11,.88-.2,1.55-.98,1.81-1.85,.29-.95,.14-2.05-.52-2.79Z"/><path class="cls-8" d="M408.64,39.98c.75-6.79,5.64-14.93,12.4-13.9l20.94,6.34c2.05,.31,3.52,2.14,3.38,4.22l-2.83,45.36c-.37,5.91-4.84,10.75-10.71,11.57h0c-7.51,1.05-14.21-4.8-14.19-12.38,0-3.12,.01-5.46,0-5.44,0,0-8.63-1.85-9.91-13.28-.63-5.69,.08-14.93,.91-22.47Z"/><path class="cls-11" d="M412.68,49.73c-.06,.77,.54,1.45,1.34,1.53,.8,.08,1.5-.47,1.56-1.24,.06-.77-.54-1.45-1.33-1.53-.8-.08-1.5,.48-1.56,1.24Z"/><path class="cls-11" d="M410.43,44.89c.17,.2,1.31-.57,2.88-.49,1.57,.05,2.68,.91,2.86,.73,.09-.08-.08-.43-.56-.82-.48-.39-1.3-.78-2.28-.82-.98-.04-1.81,.28-2.3,.63-.5,.35-.68,.68-.59,.77Z"/><path class="cls-11" d="M427.23,49.73c-.06,.77,.54,1.45,1.34,1.53,.8,.08,1.5-.48,1.56-1.24,.06-.77-.54-1.45-1.33-1.53-.8-.08-1.5,.48-1.56,1.24Z"/><path class="cls-11" d="M425.81,45.9c.17,.2,1.31-.57,2.88-.49,1.57,.05,2.68,.91,2.86,.73,.09-.08-.08-.43-.56-.82-.48-.39-1.3-.78-2.28-.82-.98-.04-1.81,.28-2.3,.63-.5,.35-.68,.68-.59,.77Z"/><path class="cls-11" d="M419.58,57.25c.01-.09-.95-.3-2.52-.58-.4-.06-.77-.16-.83-.43-.08-.29,.11-.72,.32-1.17,.42-.95,.86-1.95,1.32-2.99,1.84-4.26,3.2-7.77,3.03-7.84-.17-.07-1.81,3.32-3.65,7.58-.44,1.05-.87,2.05-1.28,3.01-.17,.45-.46,.95-.28,1.56,.09,.3,.38,.53,.63,.62,.25,.09,.48,.1,.67,.13,1.58,.16,2.57,.21,2.58,.12Z"/><path class="cls-6" d="M417.64,75.74s7.61,.85,15.39-3.35c0,0-4.05,7.63-15.36,6.04l-.03-2.69Z"/><path class="cls-6" d="M419.64,60.99c.81-1.04,2.08-1.64,3.25-1.54,.82,.07,1.6,.48,2.01,1.22,.41,.73,.39,1.8-.16,2.53-.61,.83-1.71,1.05-2.58,.8-.87-.26-1.58-.9-2.24-1.53-.18-.18-.37-.36-.47-.61-.1-.25-.09-.58,.1-.79"/><path class="cls-11" d="M424.14,58.55c-.25-.03-.34,1.67-1.85,2.81-1.51,1.14-3.31,.87-3.34,1.1-.03,.11,.39,.35,1.15,.41,.75,.06,1.86-.13,2.78-.83,.92-.7,1.35-1.67,1.44-2.36,.1-.71-.07-1.14-.19-1.13Z"/><path class="cls-11" d="M425.42,39.42c.13,.43,1.71,.3,3.53,.61,1.83,.27,3.29,.88,3.55,.51,.12-.18-.12-.59-.7-1.03-.57-.44-1.5-.87-2.6-1.05-1.1-.17-2.12-.04-2.8,.2-.69,.24-1.04,.56-.99,.76Z"/><path class="cls-11" d="M411.23,39.53c.26,.37,1.36,.05,2.65,.09,1.3,0,2.39,.35,2.66,0,.12-.18-.04-.54-.5-.9-.46-.36-1.24-.67-2.13-.68-.89-.01-1.68,.27-2.15,.62-.48,.34-.64,.7-.53,.88Z"/></g><path class="cls-11" d="M429.93,28.06c5.18-.07,10.38,.88,15.2,2.77,1.44,.56,2.92,1.28,3.74,2.59,.72,1.15,.8,2.58,.78,3.94-.06,4.25-1.78,9.45-3.41,13.38l-1.99,3.4c-2.95-.69-5.53-8.26-5.32-11.8-2.85-1.26-4.84-4.27-4.87-7.39-2.33-1.5-3.91-4.13-4.14-6.89Z"/><g><path class="cls-8" d="M441.01,52.39c.17-2.43,3.15-2.9,5.24-1.64,1.15,.69,2.01,2.05,1.85,4.63-.41,6.88-7.24,5.05-7.24,4.86,0-.12-.05-5,.14-7.85Z"/><path class="cls-6" d="M443.13,57.75s.12,.09,.31,.2c.19,.1,.53,.18,.9,.07,.74-.22,1.42-1.34,1.53-2.58,.05-.63-.04-1.23-.23-1.74-.18-.52-.48-.89-.85-.97-.36-.11-.63,.1-.73,.29-.1,.19-.07,.33-.11,.34-.02,.02-.14-.12-.07-.41,.04-.13,.13-.29,.3-.42,.17-.12,.42-.18,.67-.14,.53,.07,.98,.58,1.19,1.14,.24,.56,.36,1.24,.3,1.94-.13,1.38-.91,2.64-1.93,2.87-.49,.1-.89-.07-1.09-.25-.2-.18-.23-.34-.21-.35Z"/></g><path class="cls-10" d="M446.98,59.3c-.36-.4-.87-.77-1.4-.96h.11c-.1-.03-.2-.05-.3-.06-.39-.1-.78-.09-1.11,.12h.01c-.61,.21-1.15,.65-1.46,1.22-.53,1-.36,2.29,.31,3.21,.58,.79,1.6,1.32,2.56,1.11,.88-.2,1.55-.98,1.81-1.85,.29-.95,.14-2.05-.52-2.79Z"/></g><path class="cls-5" d="M449.98,27.91c-1.65-3.12-5.17-4.89-8.66-5.33-1.03-.13-2.06-.16-3.09-.12,.29-1.37,.36-2.78,.13-4.18-.67-4.14-3.75-7.58-7.39-9.01-3.64-1.43-7.73-1.02-11.3,.52-3.35,1.44-6.44,3.98-7.92,7.56-1.48,3.58-1.01,8.25,1.68,10.92,3.07,2.43,6.47,3.32,10.23,3.82,3.27,.44,6.71-.21,9.49-2.06,9.12,6.45,12.12,17.99,14.31,28.47,3.27-6.85,3.52-14.7,3.72-22.29,.07-2.82,.11-5.79-1.2-8.29Z"/><path class="cls-11" d="M439.85,29.41c.09-.1-.43-.74-1.17-1.43-.74-.69-1.42-1.17-1.51-1.07-.09,.1,.43,.74,1.17,1.43,.74,.69,1.42,1.17,1.51,1.07Z"/><path class="cls-11" d="M419.7,27.35c.06-.07-.73-.7-1.68-1.97-.95-1.26-2.02-3.25-2.4-5.64-.37-2.39,.04-4.61,.57-6.1,.52-1.51,1.07-2.35,1-2.39-.03-.02-.19,.17-.44,.55-.25,.38-.57,.96-.88,1.72-.62,1.5-1.12,3.8-.73,6.3,.39,2.5,1.56,4.54,2.61,5.78,.53,.63,1.01,1.08,1.36,1.37,.36,.29,.57,.42,.59,.39Z"/><path class="cls-11" d="M423.59,21.14c.04-.05-.44-.51-1.24-1.23-.79-.72-1.9-1.7-2.92-2.96-1.02-1.25-1.67-2.57-1.98-3.58-.32-1.01-.34-1.68-.43-1.67-.05,0-.15,.68,.09,1.76,.23,1.08,.87,2.5,1.93,3.8,1.06,1.3,2.23,2.26,3.08,2.92,.86,.65,1.42,1.01,1.46,.96Z"/><g class="cls-14"><path d="M438.46,19.08c.28,4.23-1.78,8.54-5.25,10.98l.13,.19c2.51-.14,4.88-1.76,5.92-4.04,1.05-2.28,.72-5.13-.81-7.12Z"/></g><path class="cls-3" d="M447.76,33.53c-.09-.11-1.02,.57-2.21,1.29-1.2,.72-2.23,1.22-2.18,1.35,.04,.12,1.19-.18,2.43-.93,1.24-.75,2.05-1.62,1.96-1.72Z"/><path class="cls-3" d="M452.48,40.27c-.05-.14-1.38,.24-3.04,.51-1.67,.28-3.04,.34-3.05,.49,0,.13,1.41,.29,3.13,0,1.72-.28,3.01-.88,2.96-1Z"/><path class="cls-3" d="M442.55,20.82c-.14,.05,.49,1.86,.84,4.17,.37,2.31,.32,4.22,.46,4.23,.13,.02,.4-1.93,.03-4.31-.36-2.38-1.22-4.15-1.33-4.1Z"/><path class="cls-3" d="M440.87,33.1c-.04-.14-.89-.02-1.93,.03-1.04,.05-1.9,.02-1.92,.16-.02,.13,.84,.39,1.94,.33,1.1-.05,1.94-.4,1.9-.53Z"/><path class="cls-3" d="M448.23,45.67c-.1-.08-.97,.83-1.74,2.16-.77,1.33-1.13,2.54-1.01,2.59,.13,.05,.68-1.04,1.44-2.34,.75-1.3,1.42-2.32,1.31-2.41Z"/><path class="cls-3" d="M429.28,27.52c.06-.03-.38-1.04-1.12-2.65-.8-1.75-1.79-3.91-2.88-6.3-1.06-2.4-2.03-4.57-2.81-6.34-.72-1.62-1.17-2.62-1.24-2.6-.06,.02,.28,1.07,.91,2.73,.63,1.66,1.57,3.93,2.68,6.41,1.11,2.47,2.2,4.68,3.02,6.25,.82,1.58,1.38,2.53,1.44,2.49Z"/><path class="cls-3" d="M434.29,13.93c.03-.06-.62-.48-1.75-1.06-1.12-.57-2.73-1.28-4.56-1.88-1.83-.6-3.54-.99-4.78-1.2-1.25-.21-2.03-.25-2.04-.19-.02,.15,3.04,.66,6.66,1.86,3.62,1.18,6.39,2.6,6.46,2.47Z"/><path class="cls-3" d="M415.01,19.37c-.09-.09-1.36,1.3-2.03,3.49-.68,2.18-.41,4.05-.29,4.02,.15,0,.11-1.8,.77-3.88,.63-2.08,1.68-3.54,1.55-3.63Z"/><path class="cls-3" d="M428.91,31.76c-.02-.15-1.33,.04-2.79-.54-1.47-.55-2.31-1.57-2.43-1.47-.12,.05,.63,1.32,2.25,1.93,1.61,.63,3.02,.19,2.97,.07Z"/><path class="cls-3" d="M437.93,23.99c.13-.02-.06-1.29-.95-2.55-.87-1.27-2-1.9-2.06-1.78-.09,.12,.84,.88,1.65,2.07,.83,1.18,1.21,2.31,1.35,2.27Z"/><path class="cls-3" d="M408.56,40.54c.07-.12-.26-.45-.58-.9-.33-.44-.55-.85-.69-.82-.13,.03-.1,.58,.29,1.11,.39,.53,.92,.72,.98,.6Z"/><path class="cls-11" d="M436.28,27.78c-.06,.06,1.12,1.19,2.83,3.17,1.72,1.98,3.91,4.86,5.88,8.34,1.96,3.48,3.31,6.85,4.12,9.34,.81,2.49,1.17,4.08,1.26,4.06,.03,0-.03-.41-.17-1.13-.13-.73-.39-1.76-.75-3.03-.73-2.53-2.04-5.96-4.02-9.48-1.99-3.51-4.26-6.4-6.05-8.33-.9-.97-1.66-1.72-2.21-2.21-.55-.49-.86-.75-.89-.73Z"/><path class="cls-11" d="M451.71,38.34s-.49-1-1.54-2.44c-1.05-1.44-2.65-3.34-4.65-5.2-2.01-1.85-4.02-3.3-5.55-4.23-1.52-.94-2.53-1.4-2.56-1.35-.04,.07,.9,.64,2.36,1.64,1.46,1,3.42,2.47,5.4,4.3,1.98,1.83,3.6,3.67,4.71,5.05,1.11,1.38,1.75,2.27,1.82,2.23Z"/><path class="cls-11" d="M432.26,10.16s.32,.45,.82,1.3c.5,.85,1.09,2.17,1.38,3.9,.28,1.72,.22,3.88-.58,6.05-.79,2.17-2.41,4.26-4.6,5.79-2.19,1.54-4.7,2.32-7.01,2.47-2.32,.18-4.42-.18-6.07-.78-1.64-.62-2.81-1.48-3.5-2.18-.7-.69-.98-1.18-1.03-1.14-.01,0,.05,.13,.19,.35,.13,.23,.36,.54,.7,.92,.66,.76,1.83,1.7,3.51,2.38,1.68,.66,3.84,1.06,6.22,.91,2.38-.13,4.99-.93,7.26-2.52,2.27-1.58,3.94-3.77,4.74-6.04,.81-2.27,.83-4.5,.5-6.26-.34-1.78-1-3.11-1.56-3.94-.28-.41-.52-.73-.7-.92-.18-.2-.27-.29-.29-.28Z"/><path class="cls-11" d="M437.88,16.79c-.08,.02,.16,1.02,.25,2.66,.09,1.62-.03,3.94-1.05,6.21-1.03,2.26-2.79,3.82-4.23,4.55-1.44,.76-2.49,.83-2.48,.93,0,.03,.26,.04,.73-.03,.47-.06,1.13-.24,1.9-.59,1.54-.68,3.44-2.28,4.52-4.66,1.07-2.38,1.13-4.79,.95-6.44-.09-.83-.23-1.5-.35-1.95-.12-.45-.22-.69-.25-.68Z"/><g class="cls-14"><path d="M444.38,37.75c2.07,3.6,3.19,6.86,4.69,10.73,.47,1.22,.92,2.53,.64,3.81-.05,.25-.24,.55-.48,.48-.16-.04-.23-.22-.28-.38-2.05-6.2-4.47-12.28-7.24-18.19l2.68,3.55Z"/></g><g class="cls-14"><path d="M416.21,12.64c-1.59,5.18-.91,10.69,3.22,14.6-1.79-.23-3.19-1.41-3.97-3.04-1.73-3.64-1.44-8.17,.74-11.56Z"/></g></g><g><g><path class="cls-5" d="M446.82,81.1c-.74-1.27-1.52-2.46-4.04-3.11l-.07,1.06c1.44,.18,2.61,1.53,3.22,2.57,.7,1.2,1.04,2.96,1.02,5.24-.07,5.74-.27,11.21-.28,11.27l1.02,.04c0-.05,.21-5.54,.28-11.29,.03-2.47-.36-4.41-1.16-5.77Z"/><path class="cls-5" d="M442.84,109.17l-1.39-.1c.02-.27,.51-6.68,1.81-9,.9-1.6,2.61-2.65,4.58-2.8,1.75-.14,3.37,.47,4.25,1.58,1.56,1.97,1.9,8.73,1.94,9.49l-1.39,.06c-.09-1.95-.55-7.31-1.64-8.69-.59-.75-1.76-1.16-3.05-1.06-1.5,.12-2.8,.9-3.47,2.09-.95,1.7-1.51,6.65-1.64,8.42Z"/><path class="cls-9" d="M446.68,133.47c-1.12,0-2.35-.36-3.69-1.07l.33-.62c2.24,1.19,4.13,1.3,5.6,.31,5.88-3.93,4.09-23.5,4.07-23.69l.69-.07c.08,.82,1.85,20.18-4.37,24.34-.79,.52-1.66,.79-2.62,.79Z"/></g><path class="cls-9" d="M444.52,132.69h0c-.17,.37-.59,.56-.99,.45l-1.81-.52c-.54-.12-.88-.66-.75-1.2h0c.14-.61,.81-.94,1.39-.68l1.76,.85c.41,.2,.59,.69,.39,1.11Z"/><g><path class="cls-9" d="M448.8,133.22c-.99,0-1.9-.27-2.7-.82-6.1-4.12-4.38-22.53-4.3-23.32l.69,.07c-.02,.19-1.76,18.78,4,22.67,1.5,1.01,3.44,.91,5.76-.29l.32,.62c-1.37,.71-2.63,1.07-3.77,1.07Z"/><path class="cls-9" d="M451.03,132.42h0c.17,.37,.59,.57,.99,.46l1.81-.51c.54-.12,.88-.66,.76-1.2h0c-.14-.61-.81-.95-1.38-.69l-1.77,.84c-.41,.2-.59,.69-.4,1.1Z"/></g></g><path class="cls-5" d="M411.08,106.18c0-.1-.4-10.28,.5-18.35,.96-8.6,6.03-9.01,6.25-9.03l.09,1.39-.04-.7,.05,.69c-.17,.01-4.13,.42-4.95,7.79-.89,7.97-.49,18.04-.49,18.14l-1.39,.06Z"/><g><g><g><path class="cls-9" d="M397.01,108.62l-.69-1.76c-.13-.34,.03-.73,.38-.86l9.82-3.82c.34-.13,.72,.04,.86,.38l.76,1.93-11.12,4.12Z"/><path class="cls-11" d="M386.79,113.91l16.44,45.13c.33,.9,1.3,1.38,2.21,1.11l30.68-9.34c.97-.3,1.51-1.34,1.18-2.3l-16.12-47.28c-.33-.96-1.38-1.46-2.33-1.11l-31,11.48c-.93,.34-1.4,1.37-1.07,2.3Z"/></g><path class="cls-8" d="M375.9,130.42s-4.64,14.37-3.23,19.11c.35,1.18,1.37,2.42,2.7,3.6,5.29,4.71,7.55,4.23,15.77,1.28l27.28-11.01-5.14-11.43-24.24,3.72-13.15-5.26Z"/></g><g><path class="cls-8" d="M433.11,124.1c.04-.63-.57-1.11-1.19-1.01-1.98,.31-7.33,1.21-9.13,2.05-2.23,1.04-10.01,6.9-10.01,6.9l4.45,11.84,14.52-1.55s4.52-3.04,4.42-4.02c-.05-.5-.42-1.8-.42-1.8l1.34-1.03c1.97-1.75,.13-4.19,.13-4.19,0,0,1.37-1.09,1.21-2.64-.18-1.63-1.55-2.06-1.55-2.06,0,0,.26-2.25-.96-2.65-1.22-.4-3,.66-3,.66,.12-.13,.18-.31,.19-.5Z"/><path class="cls-6" d="M433.92,124.19s-.13,.09-.39,.21c-.26,.12-.64,.27-1.11,.43-.95,.33-2.3,.7-3.77,1.11-1.48,.41-2.8,.81-3.72,1.2-.92,.38-1.41,.77-1.44,.73-.01-.01,.1-.12,.33-.3,.23-.17,.58-.38,1.04-.61,.91-.44,2.25-.88,3.73-1.29,1.48-.41,2.83-.75,3.79-1.03,.96-.28,1.54-.5,1.56-.47Z"/><path class="cls-6" d="M436.87,126.51s-.29,.29-.86,.63c-.56,.34-1.39,.74-2.32,1.1-.94,.36-1.8,.63-2.43,.82-.63,.19-1.02,.29-1.03,.25-.03-.08,1.5-.62,3.37-1.32,.93-.36,1.75-.72,2.33-1.02,.58-.29,.93-.5,.95-.47Z"/><path class="cls-6" d="M437.26,131.31c.04,.06-1.13,.8-2.7,1.44-1.57,.64-2.93,.91-2.95,.84-.02-.08,1.29-.46,2.85-1.09,1.56-.62,2.77-1.26,2.8-1.19Z"/><path class="cls-6" d="M437.1,135.49c.04,.06-.85,.66-2.07,1.17-1.21,.51-2.26,.73-2.28,.66-.02-.07,.98-.4,2.18-.9,1.19-.5,2.13-.99,2.17-.92Z"/><path class="cls-6" d="M429.74,134.2s-.12,.14-.38,.21c-.26,.07-.67,.07-1.06-.12-.39-.19-.63-.51-.74-.77-.11-.25-.1-.43-.07-.43,.07-.03,.25,.63,.92,.96,.67,.33,1.31,.07,1.32,.14Z"/><path class="cls-6" d="M430.14,138.47c.02,.07-.51,.19-1.03-.15-.53-.33-.64-.86-.57-.87,.07-.03,.27,.37,.71,.65,.44,.29,.88,.3,.89,.37Z"/><path class="cls-6" d="M427.2,130.14c.04,.07-.31,.24-.69,.04-.38-.2-.44-.59-.36-.59,.07-.02,.2,.22,.48,.36,.27,.15,.55,.13,.57,.2Z"/></g></g></g><g><g><path class="cls-11" d="M373.83,24.21c-1.72-1.91-3.8-3.72-4.37-6.22-.52-2.3,.34-4.91-.83-6.96-1.44-2.52-5.16-2.8-6.91-5.11-.85-1.12-1.12-2.59-1.96-3.72-1.43-1.92-4.14-2.4-6.52-2.12-2.38,.29-4.66,1.17-7.05,1.37-3.28,.27-6.67-.75-9.81,.23-3.46,1.09-5.54,4.19-7.76,7.19l-2.9,3.49c-.6,.6-1.24,1.15-1.94,1.62-1.23,.82-2.64,1.39-3.69,2.43-2.25,2.22-2,6.42,.49,8.36-2.51,.84-4.29,3.5-4.1,6.14,.1,1.45,.73,2.81,1.18,4.2,.45,1.38,.74,2.93,.18,4.27-.56,1.34-2.26,2.28-3.54,1.59,.47,1.88,1.85,3.51,3.62,4.3-.67,.71-1.63,1.15-2.61,1.2,2.75,6.21,10.03,9.39,16.81,9.33,6.79-.06,13.25-2.73,19.51-5.35l18.21-5.02c1.6-.39,2.24-2.35,2.19-4-.05-1.65-.49-3.35,.08-4.9,.77-2.12,3.21-3.27,4.02-5.38,.92-2.39-.57-5.03-2.29-6.94Z"/><g><g><path class="cls-4" d="M347.58,4.65l-1.01-.04c-10.88,.17-16.81,9.5-16.34,20.36l-.41,37.43c-.07,6.77,5.17,12.42,11.93,12.84h0c7.1,.45,13.18-5,13.52-12.1,.09-1.97,.17-3.34,.17-3.34,0,0,10.5-1.17,11.08-11.59,.28-5.03,0-15.45-.35-24.87-.38-10.13-8.48-18.26-18.6-18.69Z"/><path class="cls-2" d="M355.45,59.81s-6.59,.1-13.4-4.6c0,0,2.82,7.75,13.26,7.26l.14-2.66Z"/><path class="cls-11" d="M361.81,31.68c0,.79-.68,1.43-1.5,1.44-.82,0-1.48-.62-1.48-1.41,0-.79,.68-1.43,1.5-1.44,.82,0,1.48,.62,1.48,1.41Z"/><path class="cls-11" d="M363.76,27.58c-.19,.19-1.29-.7-2.89-.76-1.6-.09-2.81,.69-2.98,.48-.08-.09,.12-.43,.65-.78,.52-.35,1.4-.67,2.39-.63,1,.05,1.82,.45,2.29,.85,.48,.4,.63,.76,.53,.84Z"/><path class="cls-11" d="M346.6,31.68c0,.79-.68,1.43-1.5,1.44-.82,0-1.48-.62-1.48-1.41,0-.79,.68-1.43,1.5-1.44,.82,0,1.48,.62,1.48,1.41Z"/><path class="cls-11" d="M348.04,27.55c-.19,.19-1.29-.7-2.89-.76-1.6-.09-2.81,.69-2.98,.48-.08-.09,.12-.43,.65-.78,.52-.35,1.4-.67,2.39-.63,1,.05,1.82,.45,2.29,.85,.48,.4,.63,.76,.53,.84Z"/><path class="cls-11" d="M353.26,40.11c0-.09,1-.22,2.62-.36,.41-.02,.8-.09,.88-.37,.11-.29-.04-.74-.22-1.22-.34-1.01-.7-2.06-1.08-3.17-1.49-4.51-2.55-8.21-2.37-8.27,.18-.06,1.54,3.55,3.03,8.06,.36,1.11,.7,2.17,1.02,3.18,.13,.47,.38,1.01,.14,1.62-.12,.3-.43,.51-.7,.57-.27,.07-.5,.06-.7,.07-1.63,.02-2.64-.02-2.64-.11Z"/><path class="cls-11" d="M348.5,41.02c.26,0,.19,1.74,1.63,3.03,1.43,1.3,3.3,1.19,3.3,1.43,.02,.11-.43,.32-1.21,.31-.77,0-1.88-.3-2.76-1.1-.88-.8-1.22-1.82-1.25-2.54-.04-.73,.18-1.15,.3-1.14Z"/><path class="cls-11" d="M348.23,21.05c-.18,.43-1.77,.15-3.66,.3-1.89,.11-3.43,.59-3.66,.19-.1-.19,.18-.59,.81-.99,.63-.39,1.61-.75,2.75-.83,1.13-.07,2.16,.15,2.83,.46,.68,.31,1.01,.66,.93,.87Z"/><path class="cls-11" d="M363.33,22.22c-.3,.35-1.38-.07-2.71-.15-1.32-.12-2.46,.14-2.7-.25-.11-.19,.09-.55,.59-.87,.5-.32,1.32-.57,2.23-.5,.91,.07,1.69,.43,2.13,.82,.45,.39,.59,.78,.46,.95Z"/><path class="cls-4" d="M330.75,32.73c-.17-.08-7.07-2.43-7.15,4.71-.08,7.14,7.1,5.74,7.12,5.54,.01-.2,.03-10.25,.03-10.25Z"/><path class="cls-2" d="M328.57,40.26s-.13,.09-.34,.18c-.21,.09-.56,.15-.93,0-.75-.28-1.37-1.49-1.39-2.78-.01-.65,.13-1.27,.37-1.78,.22-.52,.57-.88,.95-.94,.38-.08,.64,.15,.73,.35,.09,.2,.05,.34,.08,.36,.02,.02,.15-.12,.1-.41-.03-.14-.11-.31-.28-.45-.17-.14-.42-.21-.69-.19-.55,.03-1.05,.53-1.31,1.09-.29,.56-.47,1.26-.45,1.98,.03,1.44,.75,2.79,1.78,3.1,.5,.14,.92-.01,1.14-.18,.22-.17,.26-.33,.24-.35Z"/></g><path class="cls-11" d="M330.52,11.81c1.19-2.15,2.77-3.82,4.64-5.11,2.05-1.69,4.35-3.05,6.87-3.89,3.93-1.3,8.39-1.22,12.06,.69,1.33,.7,2.57,1.68,3.41,2.91,2.56,1.59,5.1,4.55,4.09,5.11l-1.42-1.5s-.62,1.28-3.2,3.24c-.06,.04-.12,.08-.18,.12-.23,.17-.48,.31-.75,.42l-.14,.09c-3.05,1.02-5.03,.61-8.06-.45-2.1-.73-4.01-1.92-6.04-2.82-1.77,0-3.51,.62-4.89,1.82-.26,.22-.46,.43-.58,.59-.75,.98-.79,2.35-.51,3.56,.28,1.21,.84,2.33,1.19,3.52,.64,2.19,.54,4.51,.44,6.79-.14,3.2-.33,6.54-1.9,9.33-.74,1.31-2.34,2.61-3.64,1.22-.54-.58-.77-1.39-.74-2.18,.09-2.18-1.82-3.18-2.82-4.76-.8-1.28-.96-2.85-1-4.36-.13-4.95,.78-10,3.18-14.33Z"/></g></g><path class="cls-5" d="M330.75,61.71s8.58,7.96,15.49,7.92c6.91-.04,8.58-3.67,8.58-3.67l3.89,4.96s.37,32.33,.8,32.89c.43,.56-4.07,3.38-4.07,3.38l-22.94-32.93-1.75-12.55Z"/><g><path class="cls-1" d="M379.35,180.5s3.25-1.07,4.13-4.08-1.54-33.1-1.54-33.1l-1.83-1.82,1.39-1.12v-9.56l-3.25-20.13s-3.2-27.65-7.08-29.63l-6.02,27.38,4.43,64.21,9.76,7.85Z"/><path class="cls-1" d="M354.82,65.96h0l.45-2.81c1.04,.82,3.82,5.16,3.82,5.16,3.81,3.22,11.76,11.37,13.21,14.55,2.06,4.52,2.26,25.29,2.26,25.29l-1.02,102.7-68.68,.1,1.11-46.53,2.18-91.79,16.86-8.48,4.52-4.97,28.4,46.29-.2-31.17c-.02-3.02-1.04-5.96-2.91-8.34Z"/><path class="cls-1" d="M282.4,150.18c-1.8-3.48-2.13-7.53-1-11.29,3.86-12.91,15.88-52.86,18.07-57.83,2.4-5.45,9.26-8.71,9.26-8.71l10.54,27.7-2.68,12.91-9.66,27.58h0l28.27,33.07-20.2,16.62s-30.47-36.04-32.52-39.95c-.02-.04-.04-.08-.06-.12Z"/><path class="cls-4" d="M356.59,176.67c-.21-.08-7.38,1.22-8.75,.86-1.36-.36-4.37-1.15-7.67-1.43-3.3-.29-6.92-.89-6.92-.89l-13.95,11.47,5.74,2.03s3.66,.57,8.82-1c5.16-1.58,13.55-5.88,13.55-5.88,0,0,3.3,.14,5.74-.29,2.44-.43,6.45-3.73,3.44-4.87Z"/><path class="cls-11" d="M359.08,210.95s-.01-.1-.02-.28c0-.2,0-.48,0-.82,0-.74,0-1.81,0-3.17,.02-2.77,.04-6.75,.07-11.66,.07-9.84,.24-23.44,.21-38.46-.02-7.51-.09-14.67-.21-21.17-.07-3.25-.14-6.34-.21-9.24-.13-2.89-.25-5.58-.36-8.04-.21-4.9-.38-8.88-.5-11.65-.05-1.36-.09-2.42-.12-3.17,0-.35-.02-.62-.02-.82,0-.19,0-.28,0-.28,0,0,.02,.09,.03,.28,.01,.2,.03,.47,.06,.82,.04,.74,.11,1.81,.19,3.16,.15,2.77,.36,6.74,.62,11.64,.13,2.46,.26,5.15,.41,8.04,.08,2.89,.16,5.99,.24,9.24,.14,6.51,.22,13.67,.24,21.18,.03,15.02-.18,28.62-.32,38.46-.08,4.91-.14,8.88-.18,11.66-.03,1.36-.05,2.42-.07,3.17-.01,.35-.02,.62-.03,.82,0,.19-.02,.28-.02,.28Z"/><path class="cls-11" d="M325.02,64.15s.09,.1,.23,.31c.16,.23,.37,.54,.63,.93,.56,.85,1.35,2.03,2.34,3.52,1.99,3.05,4.78,7.32,8.04,12.31l-.1-.07c1.9,.48,3.93,.98,6.02,1.5l.22,.05-.1,.2c-.67,1.32-1.38,2.69-2.1,4.1-.11,.22-.22,.43-.32,.63l-.02-.19c5.16,6.7,9.82,12.74,13.2,17.13,1.66,2.18,3,3.94,3.95,5.2,.45,.6,.8,1.07,1.06,1.42,.11,.15,.2,.27,.27,.38,.06,.09,.09,.13,.08,.14,0,0-.04-.03-.11-.11-.08-.1-.18-.21-.3-.35-.27-.34-.64-.8-1.11-1.38-.97-1.24-2.35-2.98-4.04-5.13-3.41-4.38-8.09-10.39-13.29-17.07l-.07-.09,.05-.1c.1-.2,.21-.41,.32-.63,.72-1.4,1.43-2.78,2.1-4.1l.12,.26c-2.09-.53-4.12-1.04-6.02-1.52l-.07-.02-.04-.06c-3.21-5.02-5.96-9.31-7.93-12.38-.95-1.51-1.71-2.71-2.25-3.57-.24-.4-.44-.72-.59-.96-.13-.22-.19-.34-.19-.34Z"/><path class="cls-11" d="M358.42,111.7s.04-.16,.16-.46c.11-.3,.3-.73,.49-1.3,.41-1.14,.94-2.81,1.52-4.91,1.13-4.2,2.43-10.09,3.56-16.7l.02,.12c-.17-.27-.35-.56-.53-.86-.98-1.6-1.93-3.15-2.85-4.64l-.22-.37,.42,.1c1.16,.28,2.29,.55,3.38,.81l-.2,.22c-1.5-4.48-2.79-8.31-3.71-11.07-.43-1.34-.78-2.41-1.03-3.19-.11-.35-.19-.63-.26-.85-.06-.19-.08-.3-.07-.3,0,0,.05,.09,.12,.28,.08,.22,.18,.49,.31,.84,.28,.77,.65,1.83,1.13,3.16,.96,2.75,2.28,6.56,3.83,11.02l.1,.29-.3-.07c-1.09-.26-2.22-.52-3.38-.8l.19-.27c.92,1.49,1.87,3.04,2.86,4.64,.18,.29,.36,.59,.53,.86l.04,.06v.07c-1.15,6.62-2.49,12.52-3.69,16.71-.61,2.09-1.18,3.76-1.63,4.89-.21,.57-.43,.99-.56,1.28-.13,.29-.21,.44-.22,.43Z"/><path class="cls-4" d="M378.13,167.69s-5.19,.35-6.84,1.1c-1.65,.75-2.8,3.3-4.1,4.35-1.3,1.05-3.25,1.57-2.8,2.89,.45,1.31,2.25,2.21,3.9,1.61,1.65-.6,3.6-1.61,3.6-1.61h8.25s1.65-6.52,1.8-6.43c.15,.09-2.31-1.92-3.81-1.91Z"/><path class="cls-11" d="M374.2,97.74c.1,0,.18,15.74,.18,35.15s-.08,35.16-.18,35.16-.18-15.74-.18-35.16,.08-35.15,.18-35.15Z"/><path class="cls-11" d="M297.96,169.88s.12,.12,.32,.35c.22,.25,.52,.61,.91,1.06,.81,.95,1.97,2.32,3.46,4.07,2.99,3.55,7.25,8.62,12.44,14.78l-.21-.02c5.81-4.79,12.71-10.48,20.18-16.65l-.02,.25c-2.09-2.45-4.28-5-6.51-7.61-8.02-9.39-15.49-18.15-21.74-25.48l-.06-.07,.03-.08c2.93-8.29,5.37-15.17,7.07-20,.86-2.39,1.53-4.27,2-5.57,.23-.63,.41-1.12,.54-1.46,.12-.33,.2-.5,.2-.5,0,0-.04,.18-.15,.51-.12,.35-.28,.84-.49,1.48-.45,1.31-1.1,3.2-1.92,5.6-1.68,4.84-4.07,11.74-6.95,20.04l-.03-.15c6.26,7.32,13.75,16.06,21.78,25.44,2.23,2.61,4.41,5.17,6.51,7.61l.12,.14-.14,.12c-7.49,6.15-14.4,11.82-20.22,16.6l-.11,.09-.09-.11c-5.14-6.19-9.38-11.29-12.34-14.86-1.46-1.77-2.6-3.16-3.4-4.13-.38-.47-.67-.83-.88-1.09-.2-.25-.29-.38-.29-.38Z"/><path class="cls-11" d="M303.93,76.14s.1-.02,.3-.03c.19,0,.48-.02,.85,0,.74,.02,1.8,.13,3.09,.41,2.56,.55,6.07,2.02,8.97,4.88,2.9,2.86,4.41,6.35,4.99,8.91,.3,1.29,.42,2.35,.45,3.09,.03,.37,.01,.65,.01,.85,0,.19-.01,.3-.02,.3-.03,0-.05-.41-.13-1.13-.07-.73-.23-1.78-.56-3.04-.64-2.51-2.16-5.91-5-8.71-2.84-2.8-6.26-4.28-8.77-4.89-1.26-.31-2.32-.46-3.04-.52-.73-.07-1.13-.08-1.13-.12Z"/><path class="cls-11" d="M296.03,142.61s.46-.45,1.37-.94c.9-.5,2.25-1.03,3.81-1.29,1.56-.26,3.01-.18,4.02,0,1.02,.18,1.61,.41,1.6,.45-.01,.12-2.5-.62-5.57-.09-3.07,.49-5.19,1.99-5.24,1.88Z"/><polygon class="cls-1" points="373.89 176.03 380.84 176.03 372.16 202.08 369.59 183.9 373.89 176.03"/><path class="cls-11" d="M371.89,176.03s.22-.03,.64-.05c.47-.01,1.07-.03,1.82-.04,1.62-.02,3.84-.04,6.49-.07h.22s-.07,.21-.07,.21c-.84,2.56-1.84,5.57-2.9,8.79-1.59,4.77-3.05,9.08-4.12,12.2-.53,1.52-.97,2.76-1.29,3.68-.15,.4-.27,.73-.37,1-.09,.23-.14,.34-.15,.34s.02-.13,.08-.36c.08-.27,.18-.61,.3-1.02,.29-.93,.69-2.19,1.18-3.72,1.01-3.14,2.43-7.46,4.02-12.23,1.08-3.21,2.09-6.22,2.95-8.77l.15,.21c-2.65-.03-4.87-.05-6.49-.07-.74-.02-1.35-.03-1.82-.04-.42-.02-.64-.03-.64-.05Z"/><path class="cls-11" d="M374.2,168.05s.28-.13,.81-.25c.53-.12,1.32-.27,2.31-.28,.98,0,2.2,.14,3.37,.81,1.17,.66,2.09,1.9,2.62,3.32,1.08,2.89,.26,5.92-1.19,7.31-.72,.7-1.45,1.06-1.95,1.28-.51,.21-.8,.28-.81,.26-.01-.03,.27-.14,.75-.39,.47-.25,1.17-.64,1.83-1.33,1.32-1.35,2.07-4.26,1.04-7.01-.51-1.36-1.36-2.53-2.45-3.16-1.08-.64-2.25-.81-3.2-.84-1.93-.02-3.11,.35-3.12,.27Z"/><path class="cls-11" d="M321.71,187.95c.02-.08,1.41,.69,3.86,.81,1.22,.06,2.68-.05,4.26-.4,1.58-.34,3.27-.91,5.04-1.56,3.53-1.31,6.73-2.48,9.05-3.3,1.12-.39,2.04-.71,2.76-.96,.65-.22,1.02-.33,1.03-.31s-.34,.18-.98,.44c-.7,.28-1.62,.64-2.72,1.07-2.3,.89-5.48,2.1-9.01,3.4-1.77,.65-3.48,1.22-5.09,1.55-1.61,.34-3.1,.43-4.34,.33-1.24-.09-2.23-.36-2.87-.6-.33-.12-.57-.23-.73-.32-.16-.08-.24-.13-.24-.14Z"/><path class="cls-11" d="M323.21,210.68c-.1,0-.6-4.29-1.12-9.61-.52-5.32-.86-9.64-.76-9.65,.1,0,.6,4.29,1.12,9.61,.52,5.32,.86,9.64,.76,9.65Z"/><path class="cls-11" d="M341.8,209.81s.36-.14,1-.42c.64-.27,1.54-.76,2.45-1.59,.9-.84,1.81-2.03,2.5-3.53,.71-1.48,1.21-3.24,1.55-5.11,.66-3.76,.62-7.24,.53-9.74-.05-1.25-.12-2.26-.17-2.96-.05-.7-.08-1.09-.05-1.09,.02,0,.1,.38,.19,1.08,.09,.7,.21,1.71,.29,2.96,.16,2.51,.25,6.01-.42,9.82-.34,1.9-.87,3.68-1.61,5.19-.72,1.52-1.68,2.73-2.63,3.58-.97,.83-1.9,1.3-2.57,1.53-.32,.14-.6,.18-.78,.24-.18,.05-.28,.06-.28,.05Z"/><path class="cls-11" d="M321.78,189.57s.61,.67,1.63,1.7c1.02,1.03,2.54,2.34,4.43,3.49,1.89,1.15,3.75,1.9,5.13,2.34,1.38,.44,2.27,.61,2.26,.67,0,.02-.23,0-.63-.06-.41-.06-.99-.18-1.69-.37-1.41-.38-3.33-1.11-5.25-2.27-1.91-1.17-3.44-2.54-4.42-3.62-.49-.54-.87-1-1.1-1.34-.24-.33-.36-.52-.34-.54Z"/><path class="cls-11" d="M346.25,112.1s.88,.68,.81,1.76c-.07,1.08,0,8.44,0,8.44,0,0,.27,1.08-.81,1.08v-11.27Z"/><rect class="cls-11" x="344.21" y="110.9" width="2.25" height="3.69"/><path class="cls-11" d="M344.66,111.32h1.38v-1.42c0-.38-.31-.69-.69-.69h0c-.38,0-.69,.31-.69,.69v1.42Z"/><path class="cls-11" d="M327.17,114.37c0-.1,5.07-.18,11.32-.18s11.32,.08,11.32,.18-5.07,.18-11.32,.18-11.32-.08-11.32-.18Z"/><g class="cls-13"><polyline points="356.49 109.21 355.45 108.21 336.4 90.01 338.49 84.05 335.18 84.05 328.56 69.63 336.12 81.31 342.14 82.82 339.72 87.55"/></g><g class="cls-13"><path d="M340.61,133.74c1.87-.14,3.78-.56,5.33-1.63,1.55-1.07,2.61-3.18,3.02-4.47-.18,1.5-.37,3.35-.88,4.78-.51,1.42-1.38,2.77-2.67,3.57-1.48,.92-3.32,1.02-5.06,.88-2.33-.19-4.62-.76-6.76-1.69-1.53-.66-3.12-1.71-3.44-3.34,3.25,1.52,6.89,2.19,10.47,1.92Z"/></g></g></g><g><g><path class="cls-11" d="M154.64,24.83s-4.47,16.72-4.86,28.55l-.13,3.94s9.87,8.19,18.14,8.7l6.94-17.06-20.09-24.13Z"/><g><g><g><path class="cls-11" d="M198.46,35.09c-1.89-8.15-2.61-17.65-9.39-22.96-5.03-3.95-10.77-5.05-17.15-4.78-3.15,.13-6.7,1.58-9.44,3.13-3.76,2.13-5.35,6.44-7.16,10.36-3.63,7.85-3.17,18.48-.71,21.43l32.8,17.32c6.55-3.41,10.65-4.77,11.7-13.5,.44-3.67,.19-7.4-.64-11.01Z"/><g><path class="cls-7" d="M188.36,18.61l-20.64-6.09c-6.65-.97-11.41,7.08-12.1,13.76-.76,7.43-1.4,16.52-.74,22.11,1.33,11.24,9.84,13,9.84,13,0-.04,.02,.17-.05,3.49l-.22,5.38c-.09,2.18,.49,4.37,1.82,6.09,3.04,3.94,8.59,4.47,15.14,2.05,3.79-1.4,6.43-4.23,6.72-8.07l3.59-47.6c.12-2.04-1.34-3.83-3.36-4.12Z"/><path class="cls-11" d="M159.44,36.47c-.06,.76,.54,1.43,1.32,1.5,.79,.07,1.47-.48,1.53-1.23,.06-.76-.54-1.43-1.32-1.5-.79-.07-1.47,.48-1.53,1.23Z"/><path class="cls-11" d="M157.35,33.01c.17,.19,1.29-.57,2.83-.5,1.54,.04,2.64,.88,2.82,.7,.09-.08-.08-.42-.56-.8-.47-.38-1.28-.76-2.24-.79-.96-.03-1.78,.29-2.26,.63-.49,.35-.66,.68-.58,.76Z"/><path class="cls-11" d="M173.8,36.34c-.06,.76,.54,1.43,1.32,1.5,.79,.07,1.47-.48,1.53-1.23,.06-.76-.54-1.43-1.32-1.5-.79-.07-1.47,.48-1.53,1.23Z"/><path class="cls-11" d="M172.51,33.2c.17,.19,1.29-.57,2.83-.5,1.54,.04,2.64,.88,2.82,.7,.09-.08-.08-.42-.56-.8-.47-.38-1.28-.76-2.24-.79-.96-.03-1.78,.29-2.26,.63-.49,.35-.66,.68-.58,.76Z"/><path class="cls-11" d="M166.51,43.19c.01-.09-.94-.29-2.49-.55-.39-.06-.76-.15-.82-.42-.08-.29,.1-.71,.31-1.16,.41-.94,.83-1.92,1.28-2.95,1.78-4.2,3.09-7.67,2.92-7.74-.17-.07-1.75,3.28-3.54,7.48-.43,1.04-.84,2.03-1.23,2.97-.17,.44-.44,.94-.26,1.54,.09,.3,.37,.52,.62,.6,.25,.09,.47,.1,.66,.12,1.56,.15,2.53,.19,2.54,.1Z"/><path class="cls-12" d="M164.72,61.39s7.5,.78,15.12-3.4c0,0-4.01,7.67-15.15,6.19l.03-2.78Z"/><path class="cls-12" d="M171.49,46.27c-.41-.74-1.2-1.14-2.02-1.2-1.18-.08-2.18,.28-2.99,1.34-.27,.3-.29,1.19-.19,1.44,.1,.25,.02,.13,.2,.3,.67,.64,1.37,1.27,2.25,1.52,.88,.25,1.98,0,2.59-.84,.54-.75,.57-1.82,.15-2.56Z"/><path class="cls-11" d="M171.28,44.5c-.25-.03-.33,1.65-1.81,2.77-1.48,1.13-3.26,.86-3.28,1.09-.03,.1,.38,.34,1.13,.4,.74,.06,1.83-.13,2.73-.82,.91-.69,1.33-1.64,1.41-2.33,.1-.7-.07-1.12-.19-1.11Z"/><path class="cls-11" d="M171.93,27.55c.11,.43,1.66,.38,3.44,.78,1.79,.36,3.19,1.02,3.47,.67,.12-.17-.09-.59-.64-1.05-.54-.46-1.43-.93-2.5-1.16-1.07-.22-2.08-.15-2.76,.05-.69,.2-1.05,.5-1.01,.7Z"/><path class="cls-11" d="M157.47,28.86c.35,.3,1.47-.23,2.88-.45,1.4-.27,2.64-.14,2.87-.55,.1-.19-.14-.51-.71-.77-.56-.25-1.46-.4-2.43-.23-.97,.17-1.76,.6-2.2,1.03-.45,.43-.56,.81-.4,.96Z"/></g></g><path class="cls-11" d="M168.01,11.31c-.02,.08-.03,.16-.05,.24l.04,.02c0-.09,0-.17,.01-.26Z"/></g><path class="cls-11" d="M182.44,65.9c.32-2.93-.86-5.87-.52-8.8,.36-3.1,2.37-5.76,3.2-8.77,1.32-4.82-.49-9.95-1.16-14.94-2.8-.34-5.4-2.02-7.27-4.19-2.24-2.61-3.6-5.85-4.91-9.03,.08,3.12,1.16,6.2,3.04,8.68-1.24,.26-2.55-.27-3.48-1.13s-1.54-2.01-2.04-3.17c-1.21-2.82-1.87-5.87-1.98-8.94-.41,4.39,.07,8.86,1.46,13.05-.78-.24-1.62-.02-2.43,.09-.81,.12-1.74,.09-2.31-.49-.38-.39-.52-.95-.63-1.49-.77-3.73-.9-7.6-.37-11.37-1,2.04-1.98,4.1-2.56,6.3-.58,2.2-.73,4.56-.05,6.72-.32,.41-1.01,.34-1.39,0-.38-.35-.53-.89-.61-1.4-.29-1.88,.04-3.79,.37-5.66-1.12,1.98-1.49,4.28-2.11,6.47-.62,2.19-1.6,4.43-3.5,5.68-.33-3.27-.21-5.51,.28-8.57,.38-2.34,1.49-4.67,2.51-6.8,1.15-2.4,2.75-4.74,4.53-6.31,3.29-2.88,4.67-1.64,6.77-.54l.25,.1c0-.05,0-.1,.02-.15l.09-.45c5.47-1.23,11.27-.96,16.61,.78,3.96,1.29,8.84,5.37,10.85,9.01,.04,.07,.08,.14,.12,.21,4.67,8.43,7.75,18.21,7.98,39.34h0l-20.76,5.79Z"/></g></g><g><path class="cls-11" d="M191.24,92.43s-.03-.3,.02-.84c.05-.54,.17-1.32,.41-2.26,.48-1.87,1.59-4.42,3.6-6.63,2.01-2.22,4.43-3.56,6.25-4.22,.91-.33,1.68-.53,2.21-.63,.53-.1,.83-.12,.84-.1,.02,.07-1.18,.25-2.95,.97-1.77,.71-4.11,2.06-6.08,4.22-1.96,2.16-3.08,4.63-3.62,6.46-.55,1.84-.61,3.04-.68,3.03Z"/><path class="cls-9" d="M142.27,153.61s-1.29,21.7,4.42,30.19l4.22-14.3v-15.74l-8.64-.16Z"/><path class="cls-5" d="M186.31,66.62s-12.02,9.09-17.87,8.06c-4.69-.82-3.88-7.95-3.88-7.95l-2.28,4.92-4.91,19.67,2.08,9.26,11.17-6.89,15.7-27.07Z"/><path class="cls-9" d="M145.27,105.92c1.26-12.98,16.87-35.47,16.87-35.47l2.47-3.99-2.46,11.03s-2.45,16.1-2.8,16.43c-.02,.02,13.76-13.33,13.76-13.33l15.47-16.39,3.06,4.39,13.59,7.53-1.39,42.64-4.87,12.5s14.35,39.27,16.2,53.19l3.11,26.4-73.24-.12s2.57-41.29,2.86-50.1c.29-8.81,.92-28.32,.92-28.32,0,0-4.83-13.4-3.57-26.38Z"/><path class="cls-11" d="M218.3,210.84s-.02-.08-.05-.24c-.03-.18-.06-.41-.1-.71-.08-.64-.2-1.55-.35-2.72-.29-2.38-.72-5.79-1.23-10-.26-2.11-.54-4.43-.84-6.91-.15-1.24-.3-2.53-.46-3.85-.16-1.33-.31-2.68-.56-4.06-1.05-5.51-2.77-11.46-4.64-17.67-1.03-3.37-2.05-6.65-3.12-9.78-1.07-3.12-2.1-6.12-3.07-8.96-1.93-5.66-3.63-10.66-5-14.67v-.04s0-.04,0-.04c1.37-3.41,2.46-6.14,3.22-8.04,.38-.92,.67-1.64,.88-2.14,.1-.23,.17-.41,.23-.55,.05-.12,.08-.18,.09-.18,0,0-.01,.07-.06,.2-.05,.14-.12,.33-.2,.56-.19,.51-.47,1.24-.82,2.17-.74,1.91-1.79,4.65-3.12,8.08v-.08c1.39,4.01,3.12,9,5.09,14.65,.98,2.83,2.01,5.83,3.09,8.95,1.07,3.13,2.1,6.41,3.13,9.78,1.87,6.22,3.59,12.17,4.62,17.72,.25,1.39,.4,2.76,.55,4.08,.15,1.32,.3,2.61,.44,3.85,.28,2.48,.55,4.8,.79,6.91,.47,4.21,.85,7.63,1.12,10.01,.12,1.17,.22,2.08,.29,2.72,.03,.3,.05,.53,.07,.71,.01,.16,.02,.24,0,.24Z"/><g class="cls-13"><path d="M207.04,154.62s-9.9,12.79-12.24,12.38c-2.34-.41-4.67-4.88-4.67-4.88l-2.58-1.2-2.52-4.6,5.45-4.87,16.56,3.17Z"/></g><path class="cls-9" d="M159.89,73.73s-5.79,2.46-7.68,5.42c-1.89,2.96-3.15,15.81-3.15,15.81l9.2-15.49,1.63-5.74Z"/><path class="cls-7" d="M168.37,155.34l9.1-3.37,6.93-4.66,5.9,9.45-2.67,1.6s-.07,2.29-.08,2.57c0,.27-.91,2.54-8.24,2.39-7.33-.15-9.05-3.87-9.05-3.87,0,0-3.81,4.37-5.39,5.05-1.58,.68-3.07-1.38-3.07-1.38l6.58-7.77Z"/><path class="cls-7" d="M148.71,136.35s-3.46,3.63-4.31,6.48c-.84,2.85-.35,10.85-.35,10.85l1,.03s-.02,5.24,1.45,5.42c1.47,.17,2.87,.22,2.94-2.15,.08-2.37-.66-6.52-.66-6.52l-.07-14.11Z"/><path class="cls-11" d="M155.72,210.84s-.01-.1-.02-.3c0-.22-.02-.51-.03-.89-.02-.8-.05-1.95-.09-3.43-.06-2.99-.15-7.29-.26-12.6-.18-10.66-.43-25.35-.71-41.57-.53-16.23-.62-30.96,.27-41.58,.5-5.31,1.54-9.53,2.59-12.32,.24-.7,.5-1.32,.73-1.84,.22-.53,.42-.97,.6-1.32,.17-.34,.3-.6,.4-.8,.09-.18,.14-.27,.15-.27s-.03,.1-.11,.28c-.09,.2-.21,.47-.37,.81-.17,.35-.36,.8-.57,1.33-.22,.53-.46,1.14-.69,1.85-1.01,2.79-2,7.01-2.47,12.3-.82,10.6-.69,25.32-.17,41.55,.23,16.23,.45,30.92,.6,41.58,.06,5.31,.11,9.61,.14,12.6,0,1.47,.02,2.62,.02,3.43,0,.38,0,.67,0,.89,0,.2,0,.3-.01,.3Z"/><path class="cls-11" d="M181.3,195.29s-.13-.03-.36-.12c-.23-.1-.58-.21-.99-.44-.85-.41-2.03-1.13-3.31-2.24-1.28-1.11-2.61-2.65-3.78-4.57-1.16-1.91-2.14-4.2-2.77-6.71-1.23-5.04-1.04-9.77-.82-13.11,.12-1.68,.26-3.03,.37-3.97,.06-.43,.1-.79,.14-1.07,.04-.25,.06-.37,.07-.37s.01,.13,0,.38c-.02,.29-.04,.65-.07,1.08-.07,.94-.17,2.29-.26,3.97-.16,3.34-.3,8.04,.92,13.01,.63,2.47,1.58,4.73,2.71,6.62,1.14,1.89,2.42,3.43,3.66,4.55,2.49,2.26,4.55,2.9,4.49,3Z"/><path class="cls-11" d="M159.89,73.73s0,.16-.01,.47c-.02,.34-.06,.79-.1,1.36-.1,1.22-.25,2.95-.43,5.11v.06s-.05,.03-.05,.03c-.49,.28-1.01,.58-1.56,.89l.06-.11c.26,3.58,.6,8.14,.98,13.3l-.22-.15c3.81-1.38,7.99-2.89,12.36-4.47,1.34-.48,2.66-.96,3.95-1.42l-.12,.2c-.2-1.35-.39-2.68-.58-3.98l-.04-.29,.28,.1c1.62,.58,3.19,1.13,4.71,1.67l-.19,.06c3.71-5.27,6.87-9.77,9.13-12.97,1.12-1.57,2.01-2.82,2.64-3.7,.3-.41,.54-.73,.71-.98,.16-.22,.25-.33,.26-.33,0,0-.07,.13-.21,.36-.17,.25-.39,.58-.67,1-.61,.9-1.48,2.16-2.56,3.75-2.23,3.23-5.36,7.75-9.02,13.05l-.07,.1-.12-.04c-1.52-.53-3.09-1.09-4.71-1.66l.23-.19c.19,1.3,.39,2.63,.58,3.98l.02,.15-.14,.05c-1.29,.47-2.61,.94-3.95,1.43-4.38,1.57-8.56,3.08-12.37,4.45l-.21,.08v-.22c-.36-5.17-.66-9.73-.89-13.31v-.08s.06-.04,.06-.04c.55-.31,1.08-.6,1.57-.87l-.05,.08c.22-2.16,.4-3.89,.53-5.1,.07-.57,.12-1.02,.15-1.36,.04-.31,.06-.47,.07-.47Z"/><path class="cls-11" d="M148.77,150.46s-.02-.11-.03-.33c0-.24-.02-.55-.03-.95-.01-.86-.03-2.08-.06-3.62-.03-3.15-.07-7.61-.12-12.98v.04c-.81-2.86-1.54-6.03-2.25-9.43-.35-1.7-.68-3.45-1-5.25-.34-1.79-.58-3.67-.64-5.58-.15-5.32,.83-10.39,2.52-14.69h0c1.14-3.28,2.57-6.16,3.87-8.71,1.31-2.55,2.55-4.74,3.6-6.54,1.05-1.8,1.91-3.2,2.52-4.16,.3-.46,.53-.82,.7-1.08,.16-.24,.25-.37,.26-.36,0,0-.06,.14-.21,.39-.16,.27-.38,.64-.66,1.11-.58,.97-1.41,2.39-2.44,4.2-1.02,1.81-2.24,4.01-3.52,6.56-1.27,2.55-2.69,5.44-3.8,8.7h0s0,.01,0,.01c-1.65,4.24-2.62,9.28-2.47,14.54,.06,1.89,.29,3.73,.63,5.53,.32,1.8,.65,3.55,.99,5.25,.69,3.39,1.41,6.57,2.21,9.41v.02s0,.02,0,.02c0,5.36,0,9.83,0,12.98-.01,1.54-.02,2.76-.03,3.62,0,.4-.01,.71-.02,.95,0,.22-.01,.33-.02,.33Z"/><g class="cls-13"><path d="M203.3,122.11c-7.58-5.41-12.11-14.86-12.24-24.17l12.24,24.17Z"/></g><g><path class="cls-9" d="M199.89,73.68s6.47,1.26,9.02,6.8,19.46,47.47,19.78,50.42c.32,2.95-1.06,6.69-4.54,10.35-3.48,3.67-29.7,22.14-29.7,22.14l-11.38-18.22,23.16-16.68-15.09-31.16s1.12-21.39,8.75-23.66Z"/><path class="cls-11" d="M215.89,132.66c-.07,.09-1.79-1.42-4.3-2.6-2.51-1.21-4.76-1.59-4.73-1.7,0-.04,.58,0,1.48,.19,.9,.2,2.13,.57,3.41,1.18,1.28,.61,2.34,1.32,3.06,1.9,.72,.58,1.11,1,1.08,1.03Z"/><path class="cls-11" d="M215.03,126.05c0,.11-1.93,.04-4.18,.65-2.27,.59-3.9,1.61-3.96,1.51-.06-.06,1.53-1.25,3.86-1.86,2.33-.63,4.3-.39,4.28-.3Z"/><path class="cls-11" d="M224.16,141.26s.05-.07,.15-.19c.12-.13,.27-.3,.47-.52,.21-.23,.47-.5,.74-.87,.28-.35,.61-.75,.91-1.25,.64-.96,1.35-2.22,1.78-3.82,.24-.79,.36-1.67,.38-2.6,0-.93-.07-1.92-.51-2.87-3.03-7.82-7.21-18.58-11.82-30.47-1.8-4.35-3.54-8.55-5.17-12.49-.82-1.97-1.6-3.88-2.36-5.71-.81-1.77-2.19-3.16-3.58-4.25h.02c-5.46-3.05-9.94-5.55-13.05-7.29h-.02s-.01-.02-.01-.02c-1.13-1.51-2.01-2.68-2.62-3.5-.28-.39-.5-.69-.67-.91-.15-.21-.22-.31-.21-.32s.09,.09,.25,.29c.17,.21,.4,.51,.7,.88,.63,.8,1.53,1.96,2.69,3.44l-.03-.02c3.12,1.71,7.62,4.18,13.11,7.19h0s0,0,0,0c1.44,1.12,2.84,2.51,3.7,4.36,.76,1.83,1.56,3.74,2.38,5.71,1.64,3.94,3.38,8.14,5.19,12.49,4.63,11.89,8.74,22.7,11.72,30.51,.45,.96,.52,2.02,.5,2.96-.03,.95-.17,1.85-.42,2.65-.46,1.62-1.19,2.88-1.86,3.84-.32,.49-.66,.89-.95,1.24-.28,.36-.55,.63-.76,.85-.21,.21-.37,.37-.49,.5-.11,.11-.17,.17-.18,.16Z"/><path class="cls-11" d="M207.64,153.97s-.07,.07-.22,.18c-.17,.13-.39,.29-.67,.51-.61,.45-1.49,1.09-2.61,1.91-2.29,1.66-5.57,4.03-9.6,6.94l-.11,.08-.08-.12c-3.19-5.08-7.09-11.3-11.41-18.2l-.09-.14,.13-.1c3.29-2.37,6.8-4.9,10.43-7.52,4.47-3.22,8.78-6.32,12.73-9.16l-.05,.22c-4.48-9.09-8.34-16.9-11.08-22.47-1.35-2.76-2.42-4.97-3.17-6.5-.36-.75-.63-1.33-.83-1.74-.09-.19-.15-.34-.21-.45-.05-.1-.07-.16-.06-.16,0,0,.03,.05,.09,.14,.06,.11,.14,.26,.23,.44,.21,.41,.51,.98,.88,1.72,.77,1.52,1.87,3.71,3.26,6.46,2.77,5.55,6.67,13.34,11.2,22.41l.07,.13-.12,.09c-3.95,2.85-8.25,5.95-12.72,9.17-3.63,2.61-7.15,5.14-10.44,7.51l.05-.24c4.3,6.92,8.18,13.15,11.34,18.25l-.19-.04c4.06-2.87,7.37-5.21,9.67-6.85,1.14-.79,2.03-1.42,2.65-1.85,.29-.2,.52-.36,.7-.47,.16-.11,.24-.16,.25-.15Z"/><path class="cls-11" d="M191.24,92.43s-.03-.3,.02-.84c.05-.54,.17-1.32,.41-2.26,.48-1.87,1.59-4.42,3.6-6.63,2.01-2.22,4.43-3.56,6.25-4.22,.91-.33,1.68-.53,2.21-.63,.53-.1,.83-.12,.84-.1,.02,.07-1.18,.25-2.95,.97-1.77,.71-4.11,2.06-6.08,4.22-1.96,2.16-3.08,4.63-3.62,6.46-.55,1.84-.61,3.04-.68,3.03Z"/><path class="cls-11" d="M207.64,153.97s-.07,.07-.22,.18c-.17,.13-.39,.29-.67,.51-.61,.45-1.49,1.09-2.61,1.91-2.29,1.66-5.57,4.03-9.6,6.94l-.11,.08-.08-.12c-3.19-5.08-7.09-11.3-11.41-18.2l-.09-.14,.13-.1c3.29-2.37,6.8-4.9,10.43-7.52,4.47-3.22,8.78-6.32,12.73-9.16l-.05,.22c-4.48-9.09-8.34-16.9-11.08-22.47-1.35-2.76-2.42-4.97-3.17-6.5-.36-.75-.63-1.33-.83-1.74-.09-.19-.15-.34-.21-.45-.05-.1-.07-.16-.06-.16,0,0,.03,.05,.09,.14,.06,.11,.14,.26,.23,.44,.21,.41,.51,.98,.88,1.72,.77,1.52,1.87,3.71,3.26,6.46,2.77,5.55,6.67,13.34,11.2,22.41l.07,.13-.12,.09c-3.95,2.85-8.25,5.95-12.72,9.17-3.63,2.61-7.15,5.14-10.44,7.51l.05-.24c4.3,6.92,8.18,13.15,11.34,18.25l-.19-.04c4.06-2.87,7.37-5.21,9.67-6.85,1.14-.79,2.03-1.42,2.65-1.85,.29-.2,.52-.36,.7-.47,.16-.11,.24-.16,.25-.15Z"/></g><g class="cls-13"><polygon points="179.05 86.66 175.19 86.53 176 90.44 158.6 94.86 174.92 88.98 174.34 84.99 179.05 86.66"/></g><path class="cls-11" d="M145.06,210.73s-.01-.19,0-.54c.02-.38,.04-.9,.06-1.54,.07-1.37,.17-3.31,.29-5.7,.28-4.87,.66-11.58,1.1-19.15l.04,.12c-.66-.87-1.18-1.91-1.61-2.99-1.12-2.89-1.64-5.84-2.03-8.6-.37-2.77-.57-5.39-.68-7.77-.22-4.77-.14-8.59-.03-10.95v-.08s.08,0,.08,0c.88,.05,1.56,.09,2.06,.11,.21,.02,.39,.03,.53,.04,.12,.01,.18,.02,.18,.03,0,0-.06,.01-.18,.01-.14,0-.32,0-.53,0-.5,0-1.19-.02-2.07-.04l.08-.07c-.05,2.35-.08,6.18,.18,10.93,.13,2.37,.34,4.98,.72,7.74,.4,2.75,.92,5.68,2.03,8.51,.42,1.06,.92,2.07,1.56,2.9l.04,.05v.07c-.48,7.56-.91,14.28-1.22,19.14-.17,2.39-.3,4.32-.4,5.7-.05,.64-.09,1.16-.12,1.54-.03,.35-.05,.53-.07,.53Z"/></g><g><g><g><path class="cls-10" d="M188.31,84.28l-.94-.39c.02-.05,2.13-5.1,4.2-10.46,.82-2.12,1.12-3.9,.88-5.26-.21-1.18-1.25-1.99-2.48-1.99l-.64-.92c1.81-.39,3.84,1.06,4.13,2.73,.27,1.56-.04,3.51-.93,5.81-2.08,5.37-4.19,10.43-4.21,10.48Z"/><path class="cls-10" d="M189.83,96.09l-1.3-.51c1.07-2.74,2.52-7.61,1.9-8.97-.38-.83-1.48-1.55-2.79-1.85-1.55-.35-3.04-.04-4.08,.84-1.49,1.26-3.74,5.7-4.48,7.31l-1.27-.58c.11-.25,2.81-6.08,4.84-7.79,1.37-1.16,3.3-1.57,5.28-1.13,1.76,.39,3.2,1.4,3.76,2.63,1.05,2.3-1.37,8.78-1.86,10.06Z"/><path class="cls-11" d="M175.79,117.31c-1.61,0-3.19-.86-4.7-2.57l.52-.46c1.67,1.88,3.38,2.63,5.09,2.23,6.95-1.63,12.25-20.95,12.3-21.15l.67,.18c-.22,.81-5.46,19.92-12.81,21.65-.36,.08-.72,.13-1.07,.13Z"/></g><path class="cls-11" d="M172.43,115.53h0c-.29,.29-.75,.32-1.08,.07l-1.51-1.12c-.46-.3-.59-.93-.28-1.39h0c.35-.52,1.09-.6,1.54-.15l1.36,1.41c.32,.33,.31,.85-.02,1.17Z"/><g><path class="cls-11" d="M178.75,117.93c-2.15,0-3.74-.71-4.74-2.12-4.28-6,3.78-22.64,4.13-23.35l.63,.31c-.08,.17-8.22,16.98-4.19,22.64,1.05,1.47,2.9,2.06,5.5,1.74l.09,.69c-.49,.06-.96,.09-1.41,.09Z"/><path class="cls-11" d="M178.62,117.56h0c.03,.41,.35,.74,.76,.77l1.87,.16c.55,.08,1.06-.31,1.13-.86h0c.08-.62-.43-1.17-1.05-1.13l-1.95,.17c-.46,.04-.8,.44-.76,.89Z"/></g></g><g><circle class="cls-11" cx="145.09" cy="101.22" r="5.46" transform="translate(-27.77 63.57) rotate(-22.61)"/><circle class="cls-11" cx="145.09" cy="101.22" r="5.46" transform="translate(-27.77 63.57) rotate(-22.61)"/><path class="cls-9" d="M149.12,101.22c0,2.23-1.81,4.03-4.03,4.03s-4.03-1.81-4.03-4.03,1.81-4.03,4.03-4.03,4.03,1.81,4.03,4.03Z"/><path class="cls-10" d="M147.33,96.3l-.91-.47c.46-.89,11.25-21.88,11.9-22.83,.11-.17,.25-.4,.41-.66,.31-.51,.69-1.14,1.08-1.63,1.09-1.34,2.38-2.58,3.94-2.87l-.91,1.46c-.83,.33-1.27,.85-2.24,2.05-.34,.43-.71,1.03-.99,1.51-.17,.28-.32,.53-.44,.71-.51,.74-8.71,16.65-11.83,22.72Z"/></g></g></g><g><g><path class="cls-4" d="M265.83,29.93l.52,41.87c.09,7.12-1.24,17.6-12.5,17.22h0c-9.75-1.06-12.33-10.29-12.41-16.93-.04-3.15-.07-5.78-.1-6.1,0,0-10.67-.87-11.57-11.41-.44-5.09-.48-15.66-.4-25.21,.08-10.26,8.04-18.74,18.27-19.49l1.02-.07c11.02-.16,17.31,9.11,17.17,20.13Z"/><path class="cls-2" d="M241.34,65.98s6.68-.1,13.44-5.06c0,0-2.79,7.95-13.38,7.77l-.06-2.7Z"/><path class="cls-11" d="M247.39,33.68c.21,.21,1.43-.77,3.19-.81,1.76-.07,3.08,.82,3.27,.59,.09-.1-.13-.49-.7-.89-.57-.4-1.53-.78-2.63-.74-1.1,.04-2.01,.48-2.53,.92-.53,.44-.7,.85-.6,.94Z"/><path class="cls-11" d="M249.19,37.31c.03,.75,.69,1.35,1.48,1.34,.79-.02,1.4-.64,1.37-1.39-.03-.75-.69-1.35-1.48-1.34-.79,.02-1.4,.64-1.38,1.39Z"/><path class="cls-11" d="M242.96,45.96c0-.09-1.02-.19-2.67-.28-.42-.01-.81-.07-.91-.34-.12-.29,.02-.75,.19-1.25,.32-1.03,.65-2.11,.99-3.24,1.37-4.61,2.33-8.39,2.15-8.45-.19-.05-1.45,3.64-2.82,8.25-.33,1.14-.64,2.22-.94,3.26-.12,.48-.35,1.04-.1,1.64,.13,.3,.45,.5,.72,.56,.27,.06,.5,.05,.71,.05,1.65-.03,2.67-.1,2.67-.19Z"/><path class="cls-11" d="M248.14,27.04c.17,.39,1.58,.1,3.28,.18,1.69,.05,3.08,.46,3.28,.08,.09-.18-.18-.54-.75-.89-.57-.35-1.46-.65-2.48-.7-1.02-.04-1.93,.19-2.52,.49-.6,.3-.88,.64-.81,.83Z"/><path class="cls-11" d="M231.37,30.31c.19,.32,1.56-.04,3.23-.09,1.67-.08,3.06,.16,3.23-.17,.08-.16-.2-.45-.78-.7-.58-.25-1.47-.45-2.47-.41-1,.04-1.89,.31-2.46,.6-.57,.3-.84,.61-.76,.76Z"/><path class="cls-4" d="M265.54,37.8c.17-.09,7.09-2.67,7.39,4.56,.3,7.23-7.02,6.03-7.04,5.83-.02-.21-.34-10.38-.34-10.38Z"/><path class="cls-2" d="M267.98,45.36s.13,.08,.35,.17c.21,.09,.57,.14,.94-.02,.75-.31,1.35-1.55,1.33-2.85,0-.66-.17-1.28-.43-1.79-.24-.52-.6-.88-.99-.93-.39-.07-.65,.17-.73,.38-.09,.21-.04,.35-.07,.36-.02,.02-.16-.11-.11-.42,.02-.14,.1-.32,.27-.46,.17-.15,.42-.23,.69-.21,.56,.02,1.08,.51,1.36,1.07,.31,.56,.51,1.26,.52,2,.01,1.46-.68,2.85-1.71,3.2-.5,.15-.93,.02-1.16-.14-.23-.17-.28-.33-.25-.34Z"/><path class="cls-11" d="M244.67,50.97c-.08-.18,1.34-.61,2.33-1.94,.5-.65,.78-1.37,1-1.89,.21-.52,.37-.85,.45-.83,.07,.02,.06,.38-.06,.95-.12,.56-.37,1.37-.93,2.11-.55,.75-1.3,1.2-1.85,1.41-.55,.22-.93,.24-.94,.18Z"/><path class="cls-11" d="M275.15,26.1c-1.51-2.55-1.86-5.59-2.68-8.44-.82-2.84-2.41-5.79-5.2-6.79l-.06,.03c-2.5-1.01-5.59-1.02-7.65,.72-.51-3.76-3.8-6.73-7.47-7.69-3.67-.96-9.55-.39-13.07,1.03-2.72,1.09-5.35,3.34-8.54,6.63-1.35,1.39-2.59,2.88-3.69,4.47l-3.19,9.85,2.73,5.16c.16,.35,.33,.7,.54,1.05v-.02s2.47,10.88,2.47,10.88c.16-2.97-.06-13.29,.1-16.26,4.58-.2,8.72-2.05,11.79-5.45,1.62-1.8,2.89-4.04,5.06-5.12,2.79-1.38,6.13-.38,9.07,.65l-.12-.11c1.53,.71,2.93,1.71,4.08,2.95-.66,5.84-.05,11.82,1.78,17.41,.28,.84,1.03,2.58,1.86,2.89,1.62,.63,2.06-1.03,3.04-1.9,.72-.65,1.79-.73,2.95-.73,.69-1.8,1.39-4.84,1.98-7.5,.98,.3,2.02,.38,3.03,.2-.31-.74-.62-1.49-.93-2.23,.4,.26,.82,.52,1.3,.59,.47,.07,1.02-.11,1.23-.54,.28-.55-.1-1.19-.41-1.73Z"/><path class="cls-10" d="M256.24,12.83s.44,.28,1.06,.97c.61,.69,1.29,1.88,1.62,3.5,.17,.81,.27,1.71,.27,2.68,0,.97-.07,2.01-.15,3.11-.07,1.1-.15,2.25-.08,3.46,.04,.6,.11,1.21,.24,1.82,.13,.6,.29,1.25,.74,1.77,.36,.42,.96,.61,1.49,.5,.53-.09,1-.37,1.34-.76,.68-.79,.85-1.8,1.02-2.68l-.22,.03c.36,.8,.73,1.58,1.28,2.21,.54,.63,1.29,1.05,2.05,1.12,.38,.03,.76-.03,1.09-.19,.33-.16,.57-.44,.74-.73,.16-.3,.24-.62,.22-.93-.02-.31-.14-.61-.34-.82l-.11,.1c.81,.93,1.67,1.42,2.26,1.7,.3,.14,.54,.22,.7,.27,.16,.05,.25,.07,.25,.06,0,0-.08-.04-.24-.1-.16-.06-.39-.16-.68-.31-.58-.29-1.41-.81-2.19-1.72l-.11,.1c.35,.38,.38,1.04,.07,1.57-.15,.26-.38,.51-.67,.64-.29,.14-.64,.2-.99,.16-.7-.07-1.4-.46-1.9-1.06-.52-.6-.88-1.36-1.24-2.16l-.15-.34-.07,.37c-.17,.88-.35,1.85-.97,2.56-.31,.34-.74,.6-1.2,.68-.46,.09-.95-.06-1.26-.42-.4-.45-.56-1.06-.69-1.66-.13-.6-.2-1.2-.24-1.79-.07-1.18,0-2.33,.06-3.43,.07-1.1,.14-2.14,.13-3.12,0-.98-.12-1.9-.3-2.71-.35-1.64-1.07-2.85-1.72-3.53-.65-.68-1.13-.9-1.13-.9Z"/><path class="cls-10" d="M223.63,23.09s.03,.03,.08,.07c.07,.05,.16,.12,.26,.19,.12,.09,.26,.19,.45,.29,.18,.1,.39,.23,.64,.34,.98,.47,2.55,.93,4.51,.81,1.94-.11,4.28-.8,6.36-2.35,2.11-1.51,3.95-3.75,5.47-6.3,.77-1.28,1.39-2.59,2.08-3.79,.68-1.21,1.44-2.33,2.36-3.21,.9-.89,1.96-1.54,3.04-1.84,.54-.16,1.08-.2,1.6-.18,.52,.03,1.01,.13,1.47,.28,.91,.3,1.64,.81,2.2,1.32,.56,.52,.93,1.07,1.19,1.54,.48,.97,.51,1.59,.54,1.58,0,0,0-.04,0-.11-.01-.09-.03-.19-.05-.32-.05-.28-.17-.69-.4-1.19-.25-.49-.62-1.06-1.18-1.6-.56-.54-1.3-1.06-2.24-1.39-.47-.16-.97-.27-1.51-.31-.54-.02-1.11,.02-1.67,.18-1.12,.3-2.21,.97-3.14,1.88-.94,.9-1.72,2.04-2.41,3.25-.7,1.22-1.32,2.52-2.08,3.79-1.5,2.54-3.32,4.74-5.39,6.24-2.05,1.54-4.32,2.23-6.24,2.36-1.93,.14-3.48-.29-4.46-.73-.99-.44-1.46-.83-1.48-.8Z"/><path class="cls-11" d="M231.29,34.34c.21,.21,1.43-.77,3.19-.81,1.76-.07,3.08,.82,3.27,.59,.09-.1-.13-.49-.7-.89-.57-.4-1.53-.78-2.63-.74-1.1,.04-2.01,.48-2.53,.92-.53,.44-.7,.85-.6,.94Z"/><path class="cls-11" d="M233.71,37.31c.03,.75,.69,1.35,1.48,1.34,.79-.02,1.4-.64,1.37-1.39-.03-.75-.69-1.35-1.48-1.34-.79,.01-1.4,.64-1.38,1.39Z"/><path class="cls-11" d="M227.68,14.84c-.88,1.2-2.25,2.29-3.73,2.15-.44-.04-1.58-.44-1.58-.44-.51,.32-.37,2.09,0,2.57,.36,.48,1.12,1.13,1.12,1.13-1.72,.95-3.31,.51-5.16-.14,.37,3.14,2.54,6.01,5.47,7.2,.94,.38,2.07,.58,2.91,.02,.74-.49,1.04-1.42,1.25-2.29,.79-3.17,1.18-6.44,1.17-9.71l-1.46-.5Z"/></g><g><path class="cls-10" d="M236.38,74.1l4.91-2.59s5.16,7.65,12.83,6.9c7.67-.75,12.54-7.54,12.54-7.54l4.9,2.47-16.7,27.44-18.47-26.68Z"/><path class="cls-5" d="M291.35,153.94l-5.66-38.7,4.15-36.34-19.3-6.75-15.79,25.78-18.07-24.98-10.7,4.69c-9.33,4.09-17.76,12.93-19.69,22.93-.03,.13-.05,.27-.08,.4-2.48,13.4,.26,32.49,.26,32.49l18.3-8.1-1.48-6.46,3.51,14.74s-14.95,54.5-12.83,72.36c0,0,28.23,6.29,54.22,2.02,25.99-4.28,33.04-5.46,33.04-5.46l-9.9-48.63Z"/><path class="cls-5" d="M289.85,78.9s11.23,9.73,12.47,23.31c1.24,13.58,3.54,25.68,3.54,25.68l-22.63,2.42s-.53-9.3,0-9.86,4.24-28.47,4.24-28.47l2.38-13.08Z"/><g class="cls-13"><path d="M222.07,152.77l-.81,3.75c4.57,1.63,9.14,3.26,13.71,4.89,4.89,1.74,9.8,3.49,14.92,4.37,9.38,1.61,18.99,.22,28.4-1.18,5.26-.78,11.17-1.95,14.06-6.42-23.73,1.39-47.05-.35-70.28-5.42Z"/></g><path class="cls-10" d="M208.16,132.72c.18,.19,6.28,17.87,9.82,21.04,3.54,3.16,24.05,2.05,32.71-1.12s27.06-7,27.06-7l-2.82-14.27s-6.73,.67-15.59,2.11c-3.2,.52-32.53,.19-32.53,.19l-2.03-8.29-16.63,7.34Z"/><path class="cls-10" d="M304.64,128.02c-.05,0-.56,23.31-3.04,26.29-2.48,2.98-11.13,6.51-17.68,7.26-6.55,.74-46.33-1.06-52.17-5.93l22.99-16.03,23.43,5.79,6.56-2.82,.6-12.49,19.3-2.06Z"/><path class="cls-11" d="M283.63,164.96s-.1,.14-.31,.39c-.24,.27-.56,.63-.95,1.08-.41,.47-.92,1.04-1.55,1.66-.63,.63-1.31,1.37-2.14,2.12-.82,.76-1.7,1.61-2.72,2.45-.98,.87-2.09,1.73-3.26,2.64-2.36,1.78-5.04,3.63-8,5.33-2.97,1.69-5.91,3.1-8.63,4.24-1.38,.53-2.68,1.07-3.93,1.47-.62,.21-1.22,.42-1.8,.61-.58,.17-1.15,.34-1.68,.49-1.07,.33-2.06,.55-2.92,.76-.86,.22-1.61,.37-2.22,.48-.59,.11-1.06,.19-1.41,.26-.32,.06-.5,.08-.5,.07,0-.01,.16-.06,.48-.14,.35-.08,.82-.19,1.4-.33,.61-.13,1.35-.3,2.21-.54,.85-.23,1.83-.47,2.89-.81,.53-.16,1.09-.34,1.67-.51,.58-.19,1.17-.41,1.79-.62,1.24-.41,2.53-.96,3.9-1.5,2.71-1.15,5.63-2.56,8.58-4.25,2.94-1.7,5.62-3.52,7.98-5.28,1.17-.9,2.28-1.75,3.27-2.61,1.02-.83,1.91-1.65,2.74-2.4,.84-.73,1.53-1.46,2.17-2.08,.64-.61,1.17-1.16,1.59-1.62,.41-.43,.75-.77,1-1.03,.23-.23,.36-.35,.37-.34Z"/><path class="cls-11" d="M276.11,74.1s-.02,.07-.09,.19c-.07,.14-.17,.32-.29,.55-.27,.5-.65,1.2-1.13,2.08-1.01,1.83-2.45,4.43-4.23,7.65-3.62,6.46-8.6,15.37-14.13,25.26l-.14,.25-.17-.23c-.17-.23-.36-.49-.54-.74-6.8-9.32-12.96-17.75-17.43-23.88-2.2-3.05-3.99-5.53-5.25-7.26-.6-.85-1.07-1.51-1.41-1.99-.15-.22-.27-.39-.36-.52-.08-.12-.12-.18-.11-.19,0,0,.05,.05,.14,.16,.1,.13,.23,.29,.39,.5,.35,.46,.84,1.12,1.47,1.94,1.28,1.72,3.1,4.17,5.34,7.19,4.49,6.11,10.68,14.52,17.51,23.82,.19,.25,.37,.51,.54,.74l-.3,.02c5.57-9.86,10.59-18.75,14.23-25.2,1.82-3.19,3.3-5.78,4.33-7.59,.51-.87,.91-1.56,1.19-2.05,.13-.22,.24-.39,.32-.53,.07-.12,.11-.18,.12-.17Z"/><path class="cls-11" d="M262.61,132.03s-.02-.15-.04-.43c0-.32-.02-.73-.03-1.24-.01-1.12-.03-2.67-.06-4.56-.01-1.94-.02-4.23-.04-6.77,0-1.28,0-2.61-.01-4,0-.69,0-1.4,0-2.11,0-.36,0-.72,0-1.08v-.15c0-.08,.04-.16,.08-.22,.08-.14,.32-.18,.37-.17l.56-.03c5.89-.1,11.21,.02,15.06,.07,1.89,.05,3.44,.08,4.56,.11,.51,.02,.92,.04,1.24,.05,.28,.02,.43,.03,.43,.04s-.15,.02-.43,.03c-.32,0-.73,.01-1.24,.02-1.12,0-2.67,0-4.56,0-3.85,.01-9.18-.07-15.05,.04l-.54,.03c-.12,0-.09,0-.11,.02,0,0-.01,.02-.01,.03v.12c0,.36,0,.72,0,1.08,0,.72,0,1.42,0,2.11,0,1.38,0,2.72-.01,4-.01,2.54-.03,4.83-.04,6.77-.02,1.89-.04,3.44-.06,4.56-.01,.51-.03,.92-.03,1.24-.01,.28-.02,.43-.04,.43Z"/><path class="cls-11" d="M285.34,130.08s.01,.07,.01,.22c0,.17,0,.38-.01,.64-.02,.59-.05,1.41-.08,2.45-.09,2.15-.21,5.2-.36,8.93v.09s-.09,.03-.09,.03c-2.65,1.04-5.72,2.21-9.11,3.41-3.38,1.21-7.12,2.31-11.05,3.37-8.95,2.39-17.23,3.81-23.2,4.84-2.97,.49-5.38,.9-7.08,1.18-.81,.13-1.46,.23-1.93,.31-.2,.03-.37,.05-.5,.07-.11,.01-.17,.02-.17,.01,0,0,.06-.02,.17-.05,.13-.03,.3-.06,.5-.11,.47-.09,1.11-.22,1.92-.38,1.7-.31,4.1-.75,7.06-1.29,5.96-1.09,14.22-2.55,23.15-4.94,3.91-1.06,7.65-2.15,11.03-3.34,3.38-1.18,6.46-2.34,9.12-3.35l-.09,.12c.2-3.73,.37-6.78,.49-8.93,.07-1.03,.12-1.85,.15-2.44,.02-.26,.04-.47,.05-.64,.01-.14,.02-.22,.03-.22Z"/><path class="cls-4" d="M275.2,132.51s4.28-.55,6.67-.48c1.56,.04,3.36,.48,3.36,.48l-.48,10.07-7.06,2.82-2.48-12.89Z"/><path class="cls-11" d="M217.65,95.61s.14,.42,.33,1.19c.2,.83,.46,1.94,.78,3.28,.66,2.82,1.55,6.62,2.54,10.82,1,4.23,1.93,8.04,2.62,10.8,.34,1.34,.61,2.44,.82,3.27,.19,.77,.29,1.2,.26,1.21-.02,0-.17-.41-.4-1.17-.24-.76-.55-1.87-.94-3.24-.75-2.75-1.73-6.56-2.72-10.79-1-4.23-1.85-8.07-2.44-10.85-.27-1.35-.5-2.47-.67-3.3-.15-.78-.22-1.22-.19-1.22Z"/><path class="cls-11" d="M284.85,116.67s-.31,.06-.87,.09c-.56,.04-1.38,.08-2.39,.11-2.02,.07-4.81,.13-7.89,.13-3.08,0-5.87-.07-7.89-.15-1.01-.04-1.82-.08-2.39-.12-.56-.04-.87-.07-.87-.1,0-.03,.31-.04,.88-.04,.64,0,1.44,0,2.39,0,2.09,.01,4.84,.02,7.88,.04,3.04,0,5.79-.02,7.88-.02,.95,0,1.75,0,2.39,0,.56,0,.88,.02,.88,.05Z"/><path class="cls-11" d="M244,133.76s-.17-.2-.43-.59c-.3-.46-.66-1.01-1.08-1.65-.92-1.39-2.21-3.3-3.71-5.35-1.51-2.05-2.95-3.84-4.01-5.13-.49-.59-.91-1.1-1.26-1.52-.3-.36-.45-.57-.43-.59,.02-.02,.21,.16,.54,.49,.33,.33,.79,.83,1.35,1.45,1.11,1.25,2.59,3.03,4.11,5.08,1.51,2.06,2.78,4,3.64,5.43,.43,.72,.77,1.3,.99,1.72,.22,.41,.33,.65,.31,.66Z"/><path class="cls-11" d="M248,133.94c-.07,.06-1.01-1.15-1.72-2.88-.73-1.72-.93-3.23-.84-3.25,.11-.02,.47,1.42,1.18,3.11,.7,1.69,1.48,2.96,1.39,3.02Z"/><path class="cls-11" d="M259.22,104.15s-.1-.09-.26-.3c-.18-.24-.41-.53-.68-.89-.61-.82-1.45-1.94-2.46-3.31-2.08-2.85-4.9-6.72-8.01-10.99-3.08-4.3-5.87-8.19-7.93-11.06-.98-1.39-1.78-2.54-2.37-3.38-.25-.38-.46-.68-.63-.93-.14-.21-.21-.33-.2-.34s.1,.09,.26,.29c.18,.23,.41,.53,.68,.89,.61,.82,1.44,1.94,2.46,3.31,2.08,2.85,4.9,6.72,8.01,11,3.08,4.3,5.87,8.19,7.93,11.06,.98,1.39,1.78,2.54,2.37,3.38,.25,.38,.46,.68,.63,.93,.14,.21,.21,.33,.2,.34Z"/><path class="cls-11" d="M268.8,72.16s-.03,.13-.11,.37c-.1,.23-.2,.59-.42,1.02-.39,.87-1.11,2.08-2.27,3.36-1.14,1.28-2.8,2.56-4.84,3.56-1.03,.48-2.15,.9-3.36,1.21-1.2,.29-2.48,.48-3.79,.54-2.64,.09-5.14-.51-7.21-1.45-2.08-.93-3.75-2.18-4.96-3.39-1.22-1.21-2.03-2.36-2.5-3.19-.26-.4-.39-.75-.51-.98-.11-.23-.16-.35-.15-.35,.09-.07,.88,1.98,3.34,4.34,1.22,1.17,2.87,2.37,4.92,3.27,2.03,.91,4.48,1.48,7.06,1.39,1.29-.05,2.54-.24,3.72-.52,1.18-.3,2.28-.7,3.3-1.16,2.01-.97,3.65-2.19,4.8-3.43,1.16-1.23,1.9-2.4,2.33-3.25,.43-.84,.62-1.34,.66-1.32Z"/><g class="cls-13"><path d="M231.77,155.64c18.6,1.55,38.19,1.96,53.58-13.45-16.19,6.64-36.28,10.87-53.58,13.45"/></g><g class="cls-13"><path d="M285.3,132.48c-2.54-2.31-2.9-6.14-2.82-9.57,.13-5.75,1.52-12.14,3.13-17.67-.33,9.81-1.06,18.43-.42,27.27"/></g><path class="cls-11" d="M226.82,133.66s-.34,.28-.89,.69c-.55,.41-1.28,1.03-1.85,1.9-.58,.87-.95,1.76-1.25,2.39-.3,.63-.5,1.02-.55,1-.05-.02,.07-.44,.31-1.1,.25-.65,.58-1.58,1.19-2.49,.61-.92,1.41-1.54,2.01-1.91,.61-.37,1.02-.52,1.04-.48Z"/><polygon class="cls-5" points="298.36 199.84 300.08 210.84 215.45 210.84 216.45 202.57 298.36 199.84"/><path class="cls-11" d="M300.81,202.44s-.07,.03-.21,.07c-.16,.05-.37,.11-.64,.18-.59,.16-1.41,.38-2.47,.67-1.07,.29-2.39,.64-3.93,.98-1.54,.35-3.28,.79-5.23,1.16-.97,.2-1.99,.4-3.06,.62-1.06,.21-2.18,.38-3.33,.59-2.3,.42-4.77,.76-7.37,1.13-5.21,.67-10.97,1.22-17.02,1.49-6.06,.25-11.84,.2-17.09-.01-2.62-.15-5.12-.26-7.44-.49-1.16-.1-2.29-.18-3.37-.3-1.08-.12-2.11-.24-3.1-.35-1.98-.2-3.75-.49-5.31-.71-1.56-.21-2.9-.44-4-.64-1.07-.19-1.92-.35-2.52-.45-.27-.05-.49-.09-.65-.13-.15-.03-.22-.05-.22-.06,0,0,.08,0,.23,.02,.17,.02,.39,.05,.66,.09,.6,.09,1.45,.22,2.53,.39,1.1,.18,2.44,.39,4,.58,1.56,.2,3.34,.47,5.31,.65,.99,.1,2.02,.21,3.1,.33,1.08,.11,2.2,.18,3.36,.28,2.32,.21,4.81,.31,7.43,.45,5.24,.19,11.01,.23,17.06-.01,6.05-.28,11.79-.82,17-1.46,2.6-.36,5.07-.68,7.37-1.09,1.15-.2,2.26-.36,3.33-.57,1.06-.21,2.08-.4,3.06-.59,1.95-.35,3.7-.78,5.24-1.11,1.54-.33,2.86-.65,3.94-.92,1.06-.26,1.89-.46,2.48-.6,.27-.06,.48-.11,.65-.15,.15-.03,.22-.04,.22-.04Z"/><path class="cls-11" d="M287.65,89.84s0,.15-.04,.43c-.04,.32-.1,.73-.17,1.23-.16,1.06-.38,2.6-.64,4.51-.51,3.81-1.1,9.09-1.45,14.95-.35,5.86-.4,11.17-.35,15.01,.02,1.92,.06,3.48,.09,4.55,0,.51,.02,.92,.02,1.24,0,.28,0,.43-.02,.43-.01,0-.03-.15-.06-.43-.02-.32-.05-.73-.09-1.24-.08-1.07-.15-2.63-.21-4.55-.12-3.85-.11-9.17,.24-15.04,.35-5.87,.98-11.15,1.56-14.96,.29-1.9,.55-3.44,.75-4.5,.1-.5,.18-.9,.24-1.22,.06-.28,.1-.42,.11-.42Z"/></g></g><g><g><path class="cls-9" d="M101.76,4.02c-.91-1.81-3.06-2.9-5.06-2.57-2.31-1.89-5.96-1.87-8.25,.04-1.75-1.07-4.06-1.15-5.88-.2-1.82,.95-3.07,2.89-3.19,4.94-2.05-.36-4.26,.72-5.24,2.55-.98,1.83-.66,4.27,.77,5.78-2.24,.69-3.74,3.22-3.28,5.52,.46,2.3,2.83,4.05,5.16,3.82l23.99-14.3c1.47-1.4,1.88-3.78,.97-5.59Z"/><g><g><path class="cls-4" d="M76.09,24.57c1-10.54,9.93-18.54,20.52-18.39l1.05,.02c11.33,.83,16.96,10.91,15.82,22.22l-2.19,37.75-.12,1.83-26.25,4.87,.18-9.63s-10.88-1.85-10.86-12.76c.01-5.27,.92-16.11,1.85-25.91Z"/><path class="cls-2" d="M85,63.22s6.96,.52,14.35-3.97c0,0-3.47,7.8-14.34,6.66v-2.68Z"/><path class="cls-11" d="M80.37,34.66c-.04,.82,.62,1.53,1.48,1.59,.86,.06,1.58-.56,1.63-1.38,.04-.82-.62-1.54-1.48-1.59-.86-.06-1.59,.56-1.63,1.38Z"/><path class="cls-11" d="M78.35,29.93c.19,.21,1.38-.65,3.06-.62,1.67,0,2.89,.88,3.08,.68,.09-.09-.1-.46-.63-.86-.52-.4-1.41-.79-2.46-.8-1.04,0-1.93,.36-2.44,.75-.52,.39-.7,.75-.61,.84Z"/><path class="cls-11" d="M95.95,35.07c-.04,.82,.62,1.53,1.48,1.59,.86,.06,1.58-.56,1.63-1.38,.04-.82-.62-1.53-1.48-1.59-.86-.06-1.59,.56-1.63,1.38Z"/><path class="cls-11" d="M94.82,30.49c.19,.21,1.38-.65,3.06-.62,1.67,0,2.89,.88,3.08,.68,.09-.09-.1-.46-.63-.86-.52-.4-1.41-.79-2.46-.8-1.04,0-1.93,.36-2.44,.75-.52,.39-.7,.75-.61,.84Z"/><path class="cls-11" d="M88.56,42.82c0-.1-1.03-.29-2.71-.53-.43-.05-.83-.14-.9-.43-.1-.31,.09-.77,.3-1.26,.42-1.03,.85-2.11,1.31-3.24,1.82-4.61,3.15-8.41,2.97-8.48-.19-.07-1.82,3.61-3.64,8.22-.44,1.14-.86,2.22-1.26,3.26-.17,.48-.46,1.03-.25,1.68,.11,.32,.42,.56,.69,.64,.27,.09,.51,.1,.73,.11,1.7,.12,2.75,.14,2.76,.04Z"/><path class="cls-11" d="M93.47,44.05c-.27-.02-.3,1.8-1.88,3.07-1.57,1.27-3.51,1.04-3.53,1.29-.03,.11,.43,.36,1.24,.39,.8,.04,1.98-.2,2.94-.98,.96-.78,1.38-1.83,1.46-2.57,.08-.76-.12-1.21-.24-1.2Z"/><path class="cls-9" d="M94.48,23.91c.16,.46,1.83,.27,3.8,.53,1.97,.23,3.54,.82,3.81,.42,.12-.19-.15-.63-.79-1.08-.63-.45-1.64-.88-2.81-1.03-1.18-.15-2.26,.03-2.98,.31-.73,.28-1.09,.63-1.03,.85Z"/><path class="cls-9" d="M79.04,25.09c.29,.38,1.45,0,2.84,0,1.39-.05,2.56,.29,2.84-.1,.12-.19-.06-.58-.57-.94-.5-.37-1.34-.67-2.3-.66-.95,.02-1.79,.35-2.27,.73-.5,.38-.66,.77-.54,.96Z"/><path class="cls-9" d="M77.21,19.58s2.97-6.79,6.29-8.33c4.01-1.87,5.67,2.53,9.48,1.52,3.81-1.01,7.65-2.8,11.48,.19,4.2,3.28,2.18,5.5,2.37,10.34,.78,19.63,4.28,25.23,5.43,16,.13-1.01,2.95-1.77,3.43-6.04,.62-5.54,.93-12.27-.25-16.22-.99-3.33-2.85-5.65-6.21-8.23-5.29-4.07-12.65-4.26-17.65-3.83-5,.43-14.71,6.04-14.38,14.59Z"/><path class="cls-4" d="M111.58,39c.09-1.68,1.56-2.99,3.24-2.81,2.03,.22,4.28,1.41,4.08,5.61-.35,7.45-7.75,5.57-7.76,5.35,0-.15,.27-5.04,.44-8.16Z"/><path class="cls-2" d="M112.89,44.43s.13,.1,.34,.21c.21,.11,.57,.19,.97,.06,.8-.25,1.52-1.47,1.62-2.81,.05-.68-.06-1.33-.28-1.87-.2-.56-.54-.95-.93-1.04-.39-.11-.68,.11-.78,.32-.11,.2-.07,.35-.11,.37-.02,.02-.15-.13-.08-.44,.04-.15,.13-.32,.31-.45,.19-.14,.45-.2,.73-.16,.57,.07,1.07,.62,1.3,1.22,.27,.6,.41,1.34,.35,2.1-.12,1.5-.95,2.87-2.04,3.13-.53,.11-.96-.07-1.18-.25-.22-.2-.25-.36-.23-.38Z"/></g><path class="cls-9" d="M111.64,24.56c-.98,.65-2.01,1.31-3.18,1.41-1.17,.1-2.49-.59-2.67-1.75-.08-.52,.05-1.12-.28-1.53-.4-.48-1.15-.35-1.78-.29-2.17,.2-4.37-1.37-4.89-3.48-.56,.82-1.85,.76-2.68,.21-.83-.55-1.35-1.44-2-2.2-.64-.76-1.55-1.44-2.54-1.32-.55,.07-1.07,.39-1.63,.33-.98-.1-1.44-1.25-1.57-2.23-.13-.97-.23-2.11-1.05-2.65-.76-.5-1.76-.23-2.66-.11-.9,.12-2.06-.11-2.28-.99-.11-.46,.09-.95,.35-1.35,1.19-1.81,3.73-2.59,5.72-1.74,.77-2.45,3.1-4.34,5.65-4.57,2.56-.23,5.19,1.2,6.39,3.47,1.6-1.41,3.89-1.97,5.96-1.47,2.07,.5,3.85,2.06,4.62,4.05,1.82-.45,3.88,.28,5,1.78,1.13,1.5,1.26,3.68,.32,5.3,1.33,.78,2.46,2.13,2.46,3.68,0,1.54-1.52,3.06-3,2.63,.58,1.21,.07,2.83-1.1,3.49-1.17,.65-2.82,.24-3.55-.9"/></g><path class="cls-3" d="M116.45,21.74s.13,.63-.49,1.43c-.3,.38-.82,.77-1.51,.87-.67,.1-1.49-.07-2.12-.65l.32-.04c-.38,.64-.87,1.28-1.51,1.84-.41,.35-.87,.65-1.37,.82-.49,.19-1.05,.2-1.5,.12-.94-.12-1.76-.64-2.13-1.27-.39-.61-.51-1.18-.58-1.56-.07-.38-.07-.6-.05-.6,.03,0,.09,.2,.21,.56,.12,.36,.29,.9,.67,1.43,.69,1.08,2.98,1.66,4.48,.17,.6-.51,1.08-1.13,1.44-1.72l.13-.22,.18,.17c.5,.49,1.21,.67,1.79,.6,.59-.06,1.06-.37,1.36-.69,.61-.67,.61-1.28,.68-1.26Z"/><path class="cls-3" d="M102.61,4.51s-.2,.05-.53,.19c-.33,.14-.81,.41-1.17,.97l-.09,.14-.1-.14c-.68-.94-1.83-2.16-3.56-2.97-.86-.4-1.86-.67-2.93-.69-1.06-.02-2.18,.27-3.17,.86-.77,.45-1.42,1.07-1.91,1.75-.47,.7-.76,1.47-.85,2.24l-.03,.24-.22-.07c-1.12-.32-2.26-.12-3.1,.33-.86,.46-1.41,1.16-1.72,1.79-.62,1.3-.42,2.21-.5,2.2-.02,0-.08-.21-.08-.61,0-.4,.06-1,.36-1.69,.3-.68,.86-1.46,1.78-1.98,.9-.51,2.13-.76,3.37-.42l-.25,.17c.08-.83,.39-1.68,.9-2.43,.51-.74,1.21-1.4,2.03-1.89,1.06-.63,2.26-.93,3.39-.9,1.14,.02,2.19,.33,3.08,.76,1.79,.88,2.94,2.18,3.59,3.18h-.19c.43-.59,.97-.85,1.32-.95,.37-.1,.57-.09,.57-.07Z"/><path class="cls-2" d="M96.02,45.18c-.12,0-.16-.79-.78-1.45-.6-.68-1.38-.78-1.37-.9,0-.05,.21-.11,.55-.05,.34,.06,.78,.27,1.14,.66,.36,.39,.53,.85,.56,1.19,.03,.34-.04,.55-.1,.54Z"/><path class="cls-2" d="M96.71,43.13c-.11,.06-.37-.2-.77-.38-.39-.19-.76-.24-.78-.36-.03-.11,.44-.28,.96-.03,.52,.25,.69,.72,.58,.77Z"/><path class="cls-2" d="M105.36,60.69s.11-.05,.2-.19c.09-.13,.16-.39,.03-.66-.12-.28-.45-.54-.67-1.02-.11-.23-.14-.59,.02-.87,.15-.27,.36-.44,.49-.63,.58-.74-1.1-1.26-.88-2.21,.04-.4,.25-.66,.41-.79,.17-.13,.29-.14,.3-.12,.05,.05-.4,.28-.41,.92,0,.32,.18,.58,.54,.88,.17,.15,.37,.35,.5,.62,.15,.27,.09,.7-.11,.94-.18,.25-.37,.41-.47,.58-.1,.16-.09,.33-.02,.52,.14,.37,.47,.68,.59,1.06,.15,.39-.01,.75-.19,.88-.18,.15-.33,.1-.32,.08Z"/><path class="cls-2" d="M107.67,60.37s-.03-.11-.09-.27c-.06-.16-.2-.37-.41-.63-.1-.13-.22-.28-.32-.48-.1-.19-.17-.46-.1-.73,.13-.54,.57-.87,.78-1.25,.24-.38,.03-.7-.28-1.03-.15-.16-.3-.34-.4-.55-.1-.21-.12-.42-.11-.61,.07-.78,.59-1,.59-.95,.05,.04-.32,.33-.29,.95,.01,.31,.17,.58,.49,.89,.15,.16,.34,.33,.46,.62,.12,.28,.06,.65-.09,.89-.29,.49-.69,.79-.77,1.14-.1,.33,.12,.66,.28,.94,.18,.28,.31,.56,.32,.76,.02,.21-.05,.31-.07,.31Z"/></g><g><path class="cls-4" d="M28.57,93.37s1.67,6.74,2.78,8.58c1.11,1.84,1.26,3.39,1.26,3.39l.69,10.78-8.82,8.71-17.1-12.77s-6.13-5.99-4.48-8.27c0,0,.81-1.11,2.24,.02,0,0-6.4-4.96-4.92-6.9,1.48-1.94,3.68,.87,6,2.84,2.32,1.96,3.07,2.52,3.07,2.52l-6.65-6.44s-1.88-1.66-.21-3.01c1.66-1.35,4.13,2.03,5.29,2.74,1.17,.71,7.71,6.94,7.71,6.94,0,0-4.54-5.78-4.86-6.1-.32-.32-4.43-3.39-2.9-5.17,1.53-1.78,5.45,2.54,6.75,3.53,1.3,.99,6.17,6.81,7.26,7.4,1.09,.59,3.05,2.29,4.26,1.75,1.21-.54-1.27-5.06-.88-6.68,.39-1.62,1.06-4.71,3.51-3.88Z"/><path class="cls-2" d="M24.39,114.2c.07-.05-.39-.57-.62-1.59-.25-1.02-.15-2.51,.47-4.01,.59-1.52,1.4-2.76,1.84-3.78,.22-.51,.31-.96,.31-1.28,0-.32-.08-.48-.1-.48-.06,0,.02,.68-.5,1.62-.49,.93-1.36,2.18-1.97,3.75-.65,1.56-.71,3.19-.36,4.26,.34,1.08,.91,1.55,.93,1.51Z"/><path class="cls-2" d="M12.47,110.69s-.22-.62-1.05-1.18c-.79-.59-2.14-.99-3.08-2-.46-.52-.77-1.14-1.09-1.69-.31-.56-.66-1.05-1.01-1.4-.72-.73-1.41-.78-1.41-.72-.02,.07,.57,.22,1.17,.94,.3,.35,.59,.82,.88,1.39,.3,.55,.61,1.2,1.12,1.79,.52,.59,1.18,.95,1.75,1.23,.58,.28,1.09,.51,1.5,.74,.83,.45,1.16,.95,1.22,.91Z"/></g><g><polygon class="cls-11" points="61.28 210.65 116.02 210.65 116.02 190.83 61.28 184.7 61.28 210.65"/><polygon class="cls-5" points="85.02 67.13 88.97 69.62 111.73 59.84 112.76 64.87 92.17 107.57 90.94 189 68.66 187.17 82.44 77.2 85.02 67.13"/><path class="cls-11" d="M106.32,69.29s-.27,.2-.8,.49c-.59,.33-1.33,.74-2.22,1.24-1.88,1.04-4.46,2.5-7.29,4.14-1.26,.73-2.47,1.44-3.57,2.08l-.15,.09-.08-.15c-1.11-2-1.76-3.82-2.33-5.06-.28-.62-.5-1.11-.67-1.45-.16-.33-.25-.52-.23-.53,.02,0,.13,.15,.33,.47,.19,.32,.45,.8,.76,1.41,.62,1.22,1.33,3.03,2.44,4.98l-.23-.06c1.09-.66,2.3-1.37,3.57-2.1,2.84-1.64,5.45-3.06,7.35-4.05,.95-.5,1.73-.88,2.28-1.14,.54-.25,.85-.39,.86-.36Z"/><path class="cls-1" d="M80.36,73.28c-3.76,1.44-8.87,3.39-11.62,4.45-1.48,.57-2.8,1.49-3.84,2.69-2.53,2.91-7.03,9.2-9.73,19.52-3.65,13.98-7.54,24.48-7.54,24.48l-12.99-9.63-18.04,17.82s30.37,26.45,40.02,26.33l-6.54,51.78h18.65l15.41-137.43,.88-6.15c-.32,.12-3.79,4.96-4.66,6.15Z"/><path class="cls-11" d="M63.16,90.59s0,.07,0,.19c-.01,.15-.03,.33-.05,.56-.06,.51-.14,1.23-.24,2.13-.21,1.88-.52,4.55-.9,7.83-.75,6.61-1.71,15.76-2.67,25.87-.95,10.11-1.74,19.28-2.31,25.91-.29,3.29-.52,5.97-.69,7.85-.09,.91-.15,1.62-.2,2.13-.03,.23-.05,.41-.06,.55-.02,.12-.03,.19-.03,.19,0,0,0-.07,0-.19,0-.15,.02-.33,.03-.56,.03-.52,.08-1.23,.14-2.14,.14-1.89,.33-4.56,.57-7.86,.51-6.64,1.25-15.81,2.21-25.92,.96-10.11,1.96-19.26,2.78-25.86,.41-3.3,.75-5.98,1.01-7.82,.13-.9,.23-1.61,.3-2.12,.04-.22,.06-.41,.09-.55,.02-.12,.04-.19,.04-.19Z"/><path class="cls-11" d="M118.85,142.56c-.08,.09-1.53-1.44-3.81-2.55-2.28-1.14-4.37-1.36-4.35-1.47,0-.04,.53-.05,1.37,.1,.83,.15,1.97,.47,3.14,1.05,1.17,.58,2.12,1.28,2.74,1.86,.63,.57,.94,.99,.91,1.02Z"/><path class="cls-1" d="M135.34,82.12s-4.63-3.61-9.29-7.36c-4.66-3.76-12.42-9.34-12.42-9.34l-1.4-4.69s-4.11,4.32-7.71,12.14c-5.17,11.23-11.14,27.63-12.35,34.71l-7.15,103.08h53.33l-12.4-73.27,9.39-55.26Z"/><path class="cls-11" d="M91.84,114.18s.07-.18,.24-.51c.19-.35,.44-.82,.76-1.41,.69-1.25,1.67-3.01,2.86-5.17,2.46-4.37,5.84-10.36,9.56-16.98,.17-.3,.34-.6,.51-.89l-.02,.14c-.4-1.36-.79-2.69-1.17-3.98l-.04-.12,.1-.07c.98-.7,1.94-1.37,2.86-2.02l-.06,.09c1.77-5.18,3.29-9.64,4.38-12.84,.54-1.55,.98-2.8,1.29-3.69,.15-.4,.27-.73,.36-.98,.08-.22,.13-.34,.14-.33,0,0-.02,.12-.09,.35-.08,.26-.18,.59-.31,1-.29,.9-.69,2.16-1.2,3.73-1.06,3.21-2.54,7.68-4.25,12.88l-.02,.05-.05,.03c-.92,.65-1.87,1.33-2.85,2.03l.07-.2c.38,1.29,.78,2.62,1.18,3.98l.02,.07-.04,.07c-.17,.3-.34,.59-.51,.89-3.76,6.59-7.17,12.56-9.66,16.92-1.24,2.13-2.24,3.87-2.96,5.11-.34,.58-.62,1.04-.82,1.38-.19,.31-.3,.48-.31,.47Z"/><path class="cls-11" d="M79.28,116.67s-.05-.16-.11-.47c-.06-.34-.14-.79-.24-1.35-.2-1.21-.47-2.9-.8-4.96-.65-4.23-1.53-10.01-2.5-16.39-.1-.66-.2-1.32-.29-1.97v-.06s.02-.05,.02-.05c.84-1.52,1.65-2.99,2.43-4.39l.1,.25c-.83-.27-1.64-.54-2.42-.79l-.17-.05,.06-.16c1.44-3.81,2.67-7.05,3.55-9.38,.43-1.11,.78-2.01,1.04-2.66,.12-.28,.21-.51,.29-.7,.07-.16,.11-.24,.12-.24s-.01,.09-.07,.25c-.06,.19-.14,.43-.24,.72-.23,.66-.55,1.57-.95,2.69-.85,2.34-2.04,5.6-3.43,9.43l-.1-.22c.78,.25,1.59,.51,2.42,.78l.2,.06-.1,.18c-.77,1.4-1.58,2.88-2.41,4.4l.02-.11c.1,.65,.19,1.3,.29,1.96,.93,6.39,1.78,12.17,2.39,16.41,.28,2.07,.52,3.76,.68,4.98,.07,.56,.12,1.01,.17,1.36,.03,.31,.05,.47,.03,.48Z"/><path class="cls-11" d="M84.1,73.72c.06-.03,.56,.96,1.24,2.43h-.29c.31-.6,.7-1.25,1.13-1.93,.74-1.15,1.45-2.16,1.94-2.9,.5-.74,.8-1.2,.84-1.18,.04,.02-.17,.54-.63,1.32-.44,.78-1.12,1.82-1.86,2.96-.43,.67-.83,1.31-1.15,1.87l-.17,.29-.13-.3c-.62-1.5-1.01-2.54-.95-2.56Z"/><path class="cls-11" d="M77.94,187.93s0-.1,0-.31c.02-.22,.04-.51,.07-.89,.07-.8,.16-1.95,.29-3.43,.27-2.99,.65-7.29,1.12-12.59,.99-10.64,2.34-25.32,3.84-41.52,1.54-16.21,2.94-30.88,3.95-41.52,.52-5.3,.94-9.59,1.24-12.58,.15-1.47,.27-2.62,.36-3.42,.04-.38,.08-.67,.1-.89,.02-.2,.04-.3,.05-.3,0,0,0,.1,0,.3-.02,.22-.04,.51-.07,.89-.07,.8-.16,1.95-.29,3.42-.27,2.99-.65,7.29-1.12,12.59-.99,10.64-2.34,25.32-3.85,41.53-1.54,16.2-2.94,30.87-3.95,41.51-.52,5.3-.94,9.59-1.24,12.58-.15,1.47-.27,2.62-.36,3.42-.04,.38-.08,.67-.1,.89-.02,.2-.04,.3-.05,.3Z"/><g class="cls-13"><polygon points="113.12 66.91 108.06 85.17 105.94 85.98 107.39 90.56 92.87 112.37 105.94 89.31 104.76 85.33 107.62 83.31 113.12 66.91"/></g><g class="cls-13"><polygon points="89.56 71.25 90.9 80.75 103.83 70.72 92.34 77.09 89.56 71.25"/></g><g class="cls-13"><path d="M56.01,163.81l-.55,4.33s2.61,3.36,5.16,2.65,13.19-5.35,13.19-5.35l-.17-1.63s-6.21-2.55-6.56-2.46-11.07,2.46-11.07,2.46Z"/></g><g class="cls-13"><path d="M76.51,173.44l.32,3.98s19.27-2.21,27.58-5.37c0,0,16.21-6.01,20.8-11.68-6.58,2.77-14.3,5.12-22.54,7.28l-26.16,5.79Z"/></g></g><g><g><path class="cls-10" d="M91.66,145.9l-24.16-31.93c-.52-.68-1.41-.96-2.22-.68l-36.97,12.62c-1.31,.45-1.77,2.07-.88,3.14l30.08,36.2c.53,.64,1.42,.88,2.2,.6l34.57-12.6c1.28-.47,1.72-2.06,.85-3.12l-3.48-4.23Z"/><path class="cls-11" d="M42.62,124.85c.02,.57,.5,1.01,1.06,.99,.57-.02,1.01-.5,.99-1.06-.02-.57-.5-1.01-1.06-.99-.57,.02-1.01,.5-.99,1.06Z"/><path class="cls-11" d="M50.08,122.31c.02,.57,.5,1.01,1.06,.99,.57-.02,1.01-.5,.99-1.06-.02-.57-.5-1.01-1.06-.99-.57,.02-1.01,.5-.99,1.06Z"/></g><path class="cls-4" d="M71.51,151.51l-1.94-.44s-.79-3.21-1.67-3.86-9.54-4.24-11.44-5.19c-1.91-.96-9.35-4.03-10.21-2.23-.97,2.04,2.07,3.59,3.71,4.3,1.64,.71,6.32,2.34,5.42,3.48-.9,1.14-11.64,1.07-11.64,1.07l-1.23-1.43s-1.9,1.9-1.58,3.77c.32,1.86,1.13,3.03,1.13,3.03l.77-.03s-.73,1.13,0,2.22c.72,1.08,2.13,2.48,2.13,2.48,0,0,1.3,2.5,4.98,3.37,.43,.1,17.51,.98,17.51,.98l6.2,1.39-2.13-12.9Z"/><path class="cls-1" d="M116.41,90.71c-.2,.42-5.27,47.55-5.27,47.55l-39.78,12.06,3.8,23.37s53.74-9.62,59.29-19.7c4.72-8.57,5.85-45.02,6.08-55.75,.06-2.61-.23-5.23-.89-7.76-.79-3.02-2.14-6.67-4.29-8.36-4.03-3.17-18.93,8.59-18.93,8.59Z"/><path class="cls-11" d="M115.29,100.55s0,.24-.05,.69c-.05,.47-.11,1.14-.2,2.01-.19,1.78-.46,4.36-.8,7.65-.71,6.61-1.73,16.03-2.95,27.38v.1s-.11,.03-.11,.03c-11.47,3.49-25.13,7.64-39.77,12.09l.13-.2c.02,.15,.05,.32,.08,.48,1.3,8.02,2.55,15.75,3.71,22.89l-.2-.14c16.18-3.08,30-6.43,39.62-9.44,1.21-.35,2.33-.77,3.41-1.11,.53-.18,1.05-.35,1.56-.52,.5-.19,.97-.37,1.44-.54,.92-.35,1.79-.66,2.57-.98,.77-.34,1.47-.64,2.1-.92,.63-.27,1.19-.51,1.65-.78,.46-.24,.85-.45,1.17-.62,.31-.16,.55-.28,.72-.37,.16-.08,.25-.12,.25-.12,0,0-.08,.05-.23,.14-.17,.1-.4,.23-.71,.4-.32,.18-.71,.39-1.16,.65-.45,.27-1.01,.53-1.64,.8-.63,.28-1.33,.6-2.1,.95-.78,.33-1.64,.64-2.56,1-.46,.18-.94,.36-1.44,.55-.5,.17-1.02,.35-1.55,.53-1.07,.35-2.19,.78-3.4,1.14-9.61,3.08-23.43,6.48-39.62,9.58l-.17,.03-.03-.18c-1.16-7.13-2.42-14.87-3.73-22.89-.03-.16-.05-.33-.08-.48l-.03-.16,.15-.05c14.65-4.43,28.32-8.57,39.79-12.04l-.11,.13c1.28-11.34,2.34-20.76,3.08-27.36,.38-3.28,.68-5.86,.88-7.64,.11-.87,.19-1.54,.24-2.01,.06-.45,.1-.69,.1-.69Z"/><path class="cls-11" d="M132.8,81.09c0,.08-1.12-.02-2.9,.22-.89,.11-1.93,.34-3.06,.7-1.12,.38-2.32,.89-3.51,1.56-1.18,.69-2.22,1.48-3.1,2.27-.87,.8-1.59,1.59-2.13,2.31-1.09,1.43-1.56,2.45-1.63,2.41-.02-.01,.09-.27,.31-.72,.11-.23,.25-.51,.44-.81,.19-.31,.39-.67,.67-1.03,.52-.75,1.23-1.57,2.11-2.4,.89-.81,1.94-1.63,3.14-2.34,1.21-.69,2.44-1.2,3.59-1.57,1.16-.34,2.22-.55,3.13-.63,.45-.07,.86-.06,1.23-.07,.36-.02,.67,0,.93,.02,.51,.03,.78,.07,.78,.09Z"/></g></g><path class="cls-11" d="M482.82,210.84c0,.1-105.83,.18-236.35,.18s-236.38-.08-236.38-.18,105.81-.18,236.38-.18,236.35,.08,236.35,.18Z"/></svg>