<?xml version="1.0" encoding="UTF-8"?><svg id="OBJECTS" xmlns="http://www.w3.org/2000/svg" xmlns:xlink="http://www.w3.org/1999/xlink" viewBox="0 0 500 500"><defs><style>.cls-1{fill:none;}.cls-2{clip-path:url(#clippath);}.cls-3{fill:#06064d;}.cls-4{fill:#02022b;}.cls-5{fill:#e8ecf7;}.cls-6{fill:#fff;}.cls-7{fill:#f24c27;}.cls-8{fill:#ff5f3b;}.cls-9{fill:#ba3518;}.cls-10{fill:#9caee8;}.cls-11{fill:#c1c9e7;}.cls-12{fill:#671809;}.cls-13{fill:#d2e0fd;}</style><clipPath id="clippath"><path class="cls-1" d="M162.84,89.33V380.6c-.02,4.56,3.95,8.25,8.89,8.23l147.65-.52c4.93-.02,8.1-3.15,8.12-7.72V89.33H162.84Z"/></clipPath></defs><path class="cls-5" d="M402.75,121.48c-33.33-54.31-80.84-82.54-134.87-90.45-53.14-7.91-112.8,4.49-149.74,31.43-20.41,15.79-46.86,52.96-61.46,98.95-15.4,45.98-18.96,100.78-12.04,151.83,16.11,102.09,77.58,189.18,310.36,160.76,30.25-3.9,61.32-21.09,81.88-46.39,21.05-25.29,31.59-58.69,32.19-94.99,1.42-72.6-36.11-156.83-66.31-211.14Z"/><g><path class="cls-8" d="M134.66,347.15c23.7-39.29,197.24,21.39,191.92,35.22-25.71,66.77-62.07,71.3-103.36,91.45-27.56-2.56-63.48-9.03-87.2-32.1-.16-14.94-10.19-79.93-1.36-94.57Z"/><path class="cls-8" d="M280.99,217.69c25.86-19.73,105.5-58.68,108.28-35.12,2.47,21-65.22,60.57-84.4,66.34-18.86,5.68-54.19-8.09-23.88-31.23Z"/><g><path class="cls-4" d="M153.68,334.38l-.06,69.65c-.07,12.57,10.89,22.71,24.47,22.67l134.64-.49c13.59-.05,24.65-10.28,24.72-22.84l.04-68.99H153.68Z"/><path class="cls-3" d="M316.88,68.97H174.38c-13.58,.12-20.74,11.55-20.74,24.12V396.83c0,12.57,11,22.66,24.59,22.54l134.63-1.15c13.58-.12,24.77-10.4,24.77-22.97V91.52c0-12.57-7.16-22.66-20.74-22.54Z"/><path class="cls-4" d="M236.23,403.26c-.03,4.8,4.16,8.68,9.35,8.66,5.19-.02,9.42-3.93,9.44-8.73,.03-4.8-4.16-8.68-9.35-8.66-5.19,.02-9.42,3.93-9.44,8.73Z"/><path class="cls-6" d="M162.84,89.33V380.6c-.02,4.56,3.95,8.25,8.89,8.23l147.65-.52c4.93-.02,8.1-3.15,8.12-7.72V89.33H162.84Z"/><g class="cls-2"><g><rect class="cls-10" x="161.88" y="334.05" width="55.76" height="55.76"/><rect class="cls-6" x="217.71" y="334.05" width="55.76" height="55.76"/><rect class="cls-10" x="273.61" y="334.05" width="55.76" height="55.76"/><g><path class="cls-6" d="M189.76,363.71h0c-9.49,0-17.19,7.69-17.19,17.19h34.37c0-9.49-7.69-17.19-17.19-17.19Z"/><path class="cls-6" d="M189.76,361.19c5.04,0,9.12-4.08,9.12-9.12s-4.08-9.12-9.12-9.12c-5.04,0-9.12,4.08-9.12,9.12s4.08,9.12,9.12,9.12Z"/></g><g><path class="cls-3" d="M257.41,339.51c-5.13,0-9.5,3.22-11.23,7.74-1.73-4.52-6.1-7.74-11.23-7.74-6.65,0-12.03,5.39-12.03,12.03,0,16.02,23.27,32.8,23.27,32.8,0,0,23.27-16.78,23.27-32.8,0-6.65-5.39-12.03-12.03-12.03Z"/><path class="cls-6" d="M262.86,359.17l-12.38-.07-2.13-6.39c-.24-.72-.91-1.19-1.63-1.12-.71,.03-1.31,.51-1.51,1.2l-3.62,12.93-2.35-19.36c-.09-.76-.71-1.36-1.49-1.44-.77-.06-1.48,.41-1.7,1.14l-3.91,12.39h-12.04c-.9,0-1.64,.74-1.64,1.64s.74,1.64,1.64,1.64h13.24c.72,0,1.35-.46,1.56-1.15l1.99-6.31,2.42,20c.09,.77,.73,1.38,1.52,1.44,.04,0,.07,0,.11,0,.73,0,1.38-.49,1.58-1.2l4.4-15.7,.81,2.43c.22,.67,.84,1.12,1.55,1.12l13.56,.08c.9,0,1.63-.73,1.64-1.63,0-.9-.73-1.64-1.63-1.65Z"/></g><g><rect class="cls-6" x="295.41" y="342.96" width="12.17" height="37.94"/><rect class="cls-6" x="295.41" y="342.96" width="12.17" height="37.94" transform="translate(663.42 60.43) rotate(90)"/></g></g></g></g><g><path class="cls-8" d="M206.73,441.21c3.89-9.34-5.42-67.32-54.24-95.45,4.1-24.24-1.27-98.31-26.04-96.38-11.89,.92-27.73,76.8-24.34,103.05,3.05,23.68,16.2,40.83,33.91,89.28,0,0,62.46-14.77,70.72-.5Z"/><path class="cls-9" d="M206.73,441.21c.42-4.83-.25-9.57-1.1-14.23-.87-4.67-2.12-9.24-3.56-13.74-2.9-8.99-6.78-17.62-11.5-25.74-2.36-4.06-4.94-8-7.72-11.79-2.8-3.78-5.82-7.4-9-10.89-3.19-3.49-6.6-6.79-10.17-9.95-3.54-3.21-7.36-6.1-11.19-9.1,4.45,1.92,8.76,4.24,12.86,6.91,4.05,2.73,8.01,5.67,11.62,9.02,3.62,3.33,7,6.94,10.11,10.78,3.08,3.86,5.86,7.95,8.35,12.22,4.96,8.54,8.69,17.8,10.89,27.39,1.11,4.8,1.78,9.69,2.04,14.6,.06,2.46,.07,4.92-.15,7.37-.24,2.44-.63,4.89-1.47,7.18Z"/></g><g><path class="cls-8" d="M216.44,500c2.77-9.6,5.07-18.39,6.78-26.19-9.32-30.17-59.64-66.04-97.84-59.1-8.26,19.41-20.76,49.72-35.22,85.29h126.28Z"/><path class="cls-9" d="M111.72,447.35c-6.36,15.37-13.67,33.22-21.56,52.65h126.28c-37.69-32.5-68.82-47.89-104.72-52.65Z"/><path class="cls-11" d="M209.13,500c-40.89-26.89-78.34-38.64-123.66-41.74-7.86,12.58-16.16,26.59-24.83,41.74H209.13Z"/><path class="cls-10" d="M85.59,500c5.69-13.62,11.52-26.98,17.49-40.04-5.75-.73-11.61-1.29-17.61-1.7-7.86,12.58-16.16,26.59-24.83,41.74h24.95Z"/></g><g><path class="cls-8" d="M318.37,352.54c1.57,18.69,29.06,18.48,30.09-1.03,1.23-23.47-31.43-14.98-30.09,1.03Z"/><path class="cls-8" d="M354.4,311.16c.1-23.88-41.34-19.67-38.34,5.78,2.12,18,38.23,20.04,38.34-5.78Z"/><path class="cls-8" d="M353,267.27c-4.09-24.06-37.98-12.52-36,4.8,2.99,26.16,40.45,21.34,36-4.8Z"/><path class="cls-9" d="M346.71,342.59c.43,1.66,.61,3.59,.5,5.8-.89,16.97-21.81,19.34-28.27,7.36,4.26,15.39,28.56,14.09,29.52-4.23,.2-3.77-.48-6.7-1.75-8.92Z"/><path class="cls-9" d="M344.3,296.56c3.81,2.57,6.37,6.78,6.34,12.73-.07,17.41-16.52,22.15-27.88,17.87,11.02,7.1,31.55,3.46,31.63-15.99,.03-7.75-4.31-12.54-10.09-14.61Z"/><path class="cls-9" d="M353,267.27c-.59-3.44-1.78-6.15-3.4-8.22,.67,1.48,1.19,3.18,1.52,5.1,3.73,21.89-21.93,28.83-32.13,15.15,8.4,17.69,37.99,11.38,34-12.02Z"/></g></g><g><g><g><g><path class="cls-8" d="M132.21,183.28c-1.98-16.3-2.83-29.08-2.8-30.83,.13-7.1,11.99-7.16,13-5.27,1.12,2.11,5.39,16.58,10.05,32.76-6.75,1.11-13.5,2.23-20.25,3.35Z"/><path class="cls-9" d="M130.02,161.93c.45,5.5,1.17,12.96,2.19,21.35,6.75-1.12,13.5-2.24,20.25-3.35-2.15-7.47-4.22-14.57-5.94-20.27-5.27,.48-11.03,1.12-16.5,2.27Z"/></g><g><path class="cls-8" d="M143.31,150.77c7.01-3.44,2.31-47.89-2.15-47.62-3.9,.25-1.79,20.59-2.56,20.5-1.01-.11-2.05-2.12-3.1-2.33-.97-.19-2.38,1.81-2.38,1.81,0,0-4.38-3.75-6.14-.15-.42,.86-1.01,3.32-1.01,3.32,0,0-2.57-1.03-3.03-.44-.75,.95-1.29,2.1-1.55,3.46-.34,1.77-.02,14.63,2.47,19.27,1.69,3.16,5.14,4.81,8.58,4.94"/><g><path class="cls-9" d="M137.21,143.37s-.02,0-.03,0c-.38-.02-.67-.34-.65-.72,.09-1.84,.93-3.4,1.71-4.48-3.19-.61-7.46-2.17-7.65-5.04-.04-.56,.13-1.4,1.1-2.19,2.17-1.76,7.32-2.41,11.01-1.38,.37,.1,.58,.48,.48,.85-.1,.37-.48,.58-.85,.48-3.21-.89-7.96-.35-9.77,1.12-.42,.34-.62,.69-.6,1.03,.12,1.94,4.03,3.48,7.64,3.95,.25,.03,.47,.2,.56,.44,.09,.24,.04,.51-.14,.7-.75,.83-2.03,2.52-2.13,4.57-.02,.37-.32,.65-.69,.65Z"/><path class="cls-9" d="M132.44,131.65c-.28,0-.55-.17-.65-.45-1.13-3.12,.11-9.15,2.72-10.43,1.08-.53,2.77-.52,4.67,2.5,.2,.32,.1,.75-.22,.95-.32,.2-.75,.11-.95-.22-.75-1.19-1.86-2.5-2.9-2-1.77,.87-2.99,6.08-2.03,8.72,.13,.36-.06,.75-.41,.88-.08,.03-.16,.04-.23,.04Z"/><path class="cls-9" d="M130.88,141.52c-1.13,0-2.19-.66-3.04-1.95-2.9-4.38-3.38-15.68,0-18.3,1.06-.82,2.89-1.17,5.57,1.81,.25,.28,.23,.72-.05,.97-.28,.25-.72,.23-.97-.05-1.09-1.21-2.62-2.48-3.71-1.64-2.55,1.98-2.36,12.43,.3,16.45,1.15,1.74,2.21,1.42,2.91,1.04,.33-.19,.75-.07,.94,.26,.19,.33,.07,.75-.26,.94-.57,.32-1.14,.48-1.69,.48Z"/><path class="cls-9" d="M125.65,140.06c-1.1,0-2.14-.6-3-1.76-2.26-3.08-3.06-10.24-.75-12.33,.65-.59,2.1-1.27,4.47,.84,.28,.25,.31,.69,.05,.97-.25,.28-.69,.31-.97,.05-.82-.73-1.94-1.47-2.62-.85-1.51,1.37-1.22,7.56,.94,10.5,1.35,1.84,2.62,1.09,3.04,.85,.33-.19,.75-.08,.94,.25,.19,.33,.08,.75-.25,.94-.62,.36-1.24,.54-1.84,.54Z"/></g></g></g><path class="cls-13" d="M214.97,139.42c-9.65-4.7-19.3-9.44-28.93-14.21-8.64,9.54-31.28,45.66-26.6,72.79-2.56-14.88-8.81-35.5-10.19-38.59-7.15,1.74-14.29,3.48-21.44,5.24-.21,.02,5.7,74.29,36.41,76.52,23.54-5.96,50.39-101.93,50.75-101.75Z"/><path class="cls-10" d="M202.12,177.8c-5.48-17.56-10.84-35.2-16.08-52.91-.13-.1-17.84,70.99-15.71,112.95,11.61-9.63,23.17-36.78,31.78-60.04Z"/></g><path class="cls-10" d="M262.98,122.53c-13.71-1.72-30.49-2.45-46.27-1.18-.17,.01-6.85,1.25-6.85,1.26-4.78,71.49-7.85,139.13-8.6,210.98,29.22-.56,58.91,.58,88.12,0-.52-9.13-3.26-50.97-7.09-103.25-3.88-53.02-9.09-106.46-19.31-107.8Z"/><path class="cls-13" d="M304.96,333.75c-3.87-31.01-7.37-62.09-10.46-93.25-.43-37.69-.3-75.38,.41-113.07-12.28-2.07-24.55-4.16-36.83-6.27-7,37.84-13.43,75.89-19.29,114.11,2.73,32.9,5.9,65.72,9.48,98.48h56.69Z"/><path class="cls-13" d="M240.55,333.75c-1.01-32.82-1.6-65.65-1.75-98.48-9.64-37.52-18.72-75.32-27.23-113.38-8.51,1.16-17.02,2.32-25.52,3.5-2.3,38.76-4.01,77.57-5.13,116.42-.62,30.63-.87,61.28-.76,91.94h60.4Z"/><path class="cls-4" d="M220.48,63.87c-.09-.24-57.63,49.1,30.57,52.36,21.46,.76,35.36-6.99,34.16-32.42-.57-12.39-4.69-28.97-13.07-51.05-12.24,1.17-51.69,31.02-51.66,31.11Z"/><path class="cls-3" d="M285.21,83.81c-1.6,20.65-14.3,27.17-33.14,26.45-41.79-1.59-49.88-14.59-47.13-27.42-7.19,14.2-4.83,31.58,46.11,33.39,21.44,.76,35.2-7.03,34.16-32.42Z"/><path class="cls-8" d="M255.27,121.67c-6-.86-27.36-1.63-38.56-.32,2.88,10.87,17.5,32.96,17.51,32.94-.02-.04,19.81-24.08,21.04-32.62Z"/><g><g><path class="cls-6" d="M203.16,160.84c-.99,4.98,2.14,9.83,6.98,10.83,4.83,1,9.54-2.22,10.52-7.17,.98-4.95-2.13-9.79-6.96-10.81-4.83-1.02-9.55,2.18-10.54,7.16Z"/><path class="cls-3" d="M206.66,161.57c-.59,2.98,1.28,5.89,4.18,6.49,2.9,.6,5.73-1.33,6.32-4.3,.59-2.98-1.28-5.88-4.18-6.49-2.9-.61-5.73,1.31-6.32,4.3Z"/></g><g><path class="cls-6" d="M248.21,195.85c9.7-4.48,17.05-13.81,19.21-24.37,2.16-10.56-.91-22.06-8.05-30.08-.43,.39-.86,.79-1.29,1.18,6.77,7.61,9.69,18.52,7.64,28.54-2.06,10.02-9.02,18.87-18.23,23.12,.24,.54,.48,1.08,.72,1.61Z"/><path class="cls-6" d="M245,194.02c-2.19,.96-3.58,2.65-3.1,3.76s2.63,1.24,4.82,.27c2.19-.96,3.58-2.65,3.1-3.76-.47-1.11-2.63-1.24-4.82-.28Z"/><path class="cls-6" d="M248.15,195.83c.42-.41,.84-.82,1.25-1.23-7.01-7.41-10.19-18.35-8.29-28.48,1.9-10.13,8.82-19.08,18.01-23.33-.24-.54-.48-1.07-.72-1.61-9.7,4.49-17,13.93-19,24.61-2.01,10.68,1.35,22.22,8.74,30.04Z"/><path class="cls-6" d="M251.8,195.35c1.68,1.72,2.36,3.8,1.52,4.65-.84,.86-2.89,.16-4.57-1.56-1.68-1.72-2.36-3.81-1.52-4.66,.84-.86,2.89-.15,4.57,1.56Z"/></g><path class="cls-3" d="M258.64,142.45c-.05,0-.1,0-.16-.02-.37-.09-.6-.46-.51-.83,.1-.43,.3-1.04,.55-1.82,1.2-3.73,3.69-11.48,.36-15.84-1.86-2.44-5.37-3.56-10.44-3.34-.38,0-.7-.28-.72-.66-.02-.38,.28-.7,.66-.72,5.54-.25,9.44,1.06,11.59,3.87,3.77,4.93,1.12,13.15-.15,17.1-.24,.74-.43,1.33-.51,1.71-.07,.32-.36,.53-.67,.53Z"/><path class="cls-3" d="M211.8,163.8c-.28,0-.54-.17-.65-.45-1.74-4.72-9.97-28.83-1.63-39.52,3.18-4.08,8.36-5.77,15.39-5.02,.38,.04,.65,.38,.61,.76-.04,.38-.37,.65-.76,.61-6.53-.69-11.3,.82-14.17,4.5-7.89,10.12,.15,33.6,1.84,38.2,.13,.36-.05,.75-.41,.88-.08,.03-.16,.04-.24,.04Z"/></g><g><path class="cls-12" d="M236.33,69.49c-6.44-.6-12.88-1.21-19.32-1.82-12.57-1.21-9.01,15.98-4.04,16.42,7.54,.7,15.09,1.4,22.63,2.1,.23-5.57,.47-11.13,.72-16.7Z"/><g><path class="cls-8" d="M252.82,88.25c-9.09-3.73-18.17-7.48-27.25-11.25-1.4,16.08-2.7,32.18-3.9,48.29-1.02,13.58,24.15,17.55,25.6,5-.06-.08,5.48-42.05,5.55-42.04Z"/><path class="cls-12" d="M222.52,114.14c7.06,5.74,18.67,6.67,27.53-5.25,1.37-10.38,2.74-20.64,2.78-20.63-3.03-1.24-6.06-2.49-9.09-3.74-6.24,3.32-14.03,7.55-19.72,10.98-.51,6.22-1.01,12.43-1.49,18.65Z"/></g><path class="cls-9" d="M266.02,88.29c5.99,.52,16.09-17.21,.57-18.19-.21,6.06-.4,12.13-.57,18.19Z"/><path class="cls-8" d="M271.71,59.11c.46-8.67,.78-22.29-14.21-30.44-23.1-12.61-29.99,.48-36.43,10.91-6.28,9.79-21.3,72.27,13.81,73.96,19.2,.9,34.92-18.27,36.82-54.43Z"/><g><path class="cls-7" d="M255.17,85.31c-.58,1.48-8.48-.34-18.05-.53-9.57-.32-17.55,1.07-18.05-.43-.56-1.41,7.48-5.51,18.2-5.19,10.73,.25,18.53,4.77,17.9,6.15Z"/><path class="cls-9" d="M233.9,86.05c-1.68,0-1.93-.54-2.03-.77-.76-1.67,.37-14.96,1.31-15.46l.32,.61,.13,.68-.13-.68,.68,.12c-.51,3.03-1.73,12.19-1.1,14.06,.47,.15,2.11,.03,3.66-.28,.37-.08,.73,.17,.81,.54,.07,.37-.17,.73-.54,.81-1.38,.28-2.38,.38-3.11,.38Z"/><path class="cls-6" d="M226.71,88.72c2.39,7.46,13.05,11.91,19.81-.26-6.56-.33-13.15-.39-19.81,.26Z"/><g><path class="cls-12" d="M224.8,76.95c-.07,1.6,.88,2.96,2.13,3.03,1.25,.07,2.32-1.16,2.39-2.76,.07-1.6-.88-2.95-2.13-3.03-1.25-.07-2.32,1.16-2.39,2.76Z"/><path class="cls-12" d="M246.6,78.23c-.07,1.59,.88,2.94,2.13,3.01,1.25,.07,2.32-1.16,2.39-2.75,.07-1.59-.88-2.94-2.13-3.01-1.25-.07-2.32,1.16-2.39,2.75Z"/><path class="cls-12" d="M255.89,72.95c-.32,0-.61-.23-.67-.56-.7-3.57-3.12-5.02-5.16-5.2-2.44-.21-4.66,1.2-5.53,3.5-.13,.36-.53,.54-.89,.4-.35-.13-.53-.53-.4-.89,1.09-2.88,3.87-4.65,6.93-4.39,2.54,.21,5.55,1.98,6.4,6.3,.07,.37-.17,.73-.54,.81-.04,0-.09,.01-.13,.01Z"/><path class="cls-12" d="M221.47,71.81c-.09,0-.18-.02-.26-.05-.35-.14-.52-.55-.37-.9,1.28-3.09,4.03-5.09,7.03-5.1,2.73-.02,5.11,1.64,6.27,4.41,.15,.35-.02,.75-.37,.9-.35,.15-.75-.02-.9-.37-.94-2.23-2.8-3.57-4.98-3.57h-.02c-2.44,0-4.7,1.67-5.76,4.25-.11,.26-.37,.42-.64,.42Z"/></g></g><path class="cls-9" d="M268.75,39.68c2.22,5.94,2.02,12.08,1.77,16.76-1.93,36.16-17.67,55.34-36.86,54.42-9.01-.45-14.73-4.92-18.14-11.5,3.19,8.03,9.18,13.68,19.37,14.18,19.2,.9,34.92-18.27,36.82-54.43,.29-5.39,.51-12.72-2.97-19.44Z"/><path class="cls-9" d="M257.5,28.67c-23.1-12.61-29.99,.48-36.43,10.91-2.11,3.41-5.36,13.04-7.21,24.3,9.78-1.91,19.18-5.33,27.64-10.1-.62,2.91-2.27,5.62-4.65,7.65,5.5-.08,10.91-1.77,15.34-4.66,3.22,7.8,9.72,16.57,16.57,22.83,1.52-6.06,2.54-12.9,2.94-20.5,.46-8.67,.78-22.29-14.21-30.44Z"/></g><g><path class="cls-6" d="M170.19,277.99c-8.46-24.67-18.5-49.14-30.06-73.33,20.99,.49,38.07-.07,61.27-7.96,5.45,17.95,22.65,71.24,24.97,75.95-10.32,2.6-21.21,6.59-32.08,7.33-8.56,.58-15.5-1.18-24.1-1.99Z"/><path class="cls-13" d="M200.21,233.88c-10,2.52-24.21,2.43-34.17-.3,4.52,4.36,9.69,6.52,15.84,6.93,6.15,.41,13.31-2.96,18.33-6.63Z"/></g><path class="cls-4" d="M272.14,32.76h0c-7.11-14.11-24.33-15.5-35.01-12.25-10.67,3.24-19.09,10.88-25.03,19.55-5.39,7.84-9.13,16.73-15.98,23.6,16.23,.09,32.42-4.11,46.11-11.82-.62,2.91-2.27,5.62-4.66,7.65,5.5-.08,10.91-1.77,15.34-4.65,3.63,8.8,11.43,18.84,19.18,25.11,5.58-12.95,5.71-32.55,.04-47.18Z"/><path class="cls-10" d="M286.54,285.77c-9.53,1.47-19.63-1.28-27.11-7.47,8.34,2.56,18.76,4.95,27.11,7.47Z"/><path class="cls-10" d="M190.28,288.05c9.59,1.05,19.54-2.26,26.74-8.83-8.22,2.94-18.52,5.85-26.74,8.83Z"/><g><path class="cls-10" d="M243.76,231.57c-1.22,6.45-2.43,12.91-3.61,19.38,.15,1.7,.3,3.41,.45,5.11,6.14,1.31,32.53,6.68,56.42,8.69-.86-8.14-1.7-16.28-2.51-24.43,0-.32,0-.64-.01-.96-16.91-2.56-33.82-5.16-50.73-7.8Z"/><path class="cls-8" d="M214.76,239.26s-16.75,1.45-16.71,4.29c.04,2.44,15.08,1.74,15.08,1.74,0,0-10.6,2.81-15,3.93-4.92,1.25-4.16,4.33,.61,3.9,4.96-.45,14.76-2.15,14.76-2.15,0,0-7.15,2.89-11.49,4.46-3.87,1.4-2.4,3.78,.7,3.33,4.51-.66,12.91-3.54,12.91-3.54,0,0-7.39,3.48-7.06,4.78,.69,2.65,10.88-1.13,14.2-3.55,3.95-2.89,9.26-5.74,8.45-11.32-.39-2.65-10.71-13.23-19.14-14.5,.89,2.88,1.78,5.76,2.68,8.63Z"/><path class="cls-8" d="M262.23,251.23c-12.1,.17-24.19,.35-36.29,.52-.06-4.42-.12-8.85-.17-13.27,13.59-1.92,27.18-3.82,40.78-5.69-1.45,6.14-2.89,12.29-4.32,18.45Z"/><polygon class="cls-10" points="307.15 227.89 277.95 170.62 283.44 220.31 240.62 238.12 307.15 227.89 307.15 227.89"/><path class="cls-9" d="M231.47,251.67c10.25-.15,20.51-.29,30.76-.44,1.42-6.16,2.86-12.31,4.32-18.45-12.14,1.68-21.91,3.01-34.05,4.72-.62,4.38-1.25,11.25-1.03,14.17Z"/><path class="cls-13" d="M294.91,127.26c-5.67,5.57-16,25.54-17.41,43.23,.45,21.65,11.65,54.28,11.67,54.25-18.61,2.5-37.21,5.03-55.82,7.61,.77,8.19,1.57,16.38,2.39,24.56,0,0,50.46-3.86,78.25-12.9-.77-34.53-6.65-86.27-19.08-116.75Z"/></g></g><g><path class="cls-3" d="M113.35,209.64c-.18,0-.35-.07-.48-.2l-20.79-20.26-48.21,.39s-.07,0-.1,0c-6.68,0-12.15-5.41-12.2-12.11l-.24-29.76c-.05-6.73,5.38-12.25,12.1-12.3l57.8-.46c6.76-.07,12.25,5.38,12.3,12.1l.5,61.9c0,.28-.16,.53-.42,.64-.09,.04-.18,.06-.27,.06Zm-20.99-21.83c.18,0,.35,.07,.48,.2l19.81,19.3-.48-60.25c-.02-2.89-1.17-5.6-3.23-7.63-2.04-2.01-4.73-3.11-7.59-3.11-.03,0-.06,0-.09,0l-57.8,.46h0c-5.97,.05-10.79,4.94-10.74,10.91l.24,29.76c.05,5.94,4.9,10.74,10.83,10.74,.03,0,.06,0,.09,0l48.49-.39h0Zm-48.91-51.72h0Z"/><g><path class="cls-3" d="M96.09,154.24H49.29c-.38,0-.69-.31-.69-.69s.31-.69,.69-.69h46.8c.38,0,.69,.31,.69,.69s-.31,.69-.69,.69Z"/><path class="cls-3" d="M60.56,161.24h-11.27c-.38,0-.69-.31-.69-.69s.31-.69,.69-.69h11.27c.38,0,.69,.31,.69,.69s-.31,.69-.69,.69Z"/><path class="cls-3" d="M96.09,161.24h-28.86c-.38,0-.69-.31-.69-.69s.31-.69,.69-.69h28.86c.38,0,.69,.31,.69,.69s-.31,.69-.69,.69Z"/><path class="cls-3" d="M96.09,168.24h-19.13c-.38,0-.69-.31-.69-.69s.31-.69,.69-.69h19.13c.38,0,.69,.31,.69,.69s-.31,.69-.69,.69Z"/></g></g><g><path class="cls-10" d="M435.32,290.34l.52-36.63c.06-7.2-5.74-13.09-12.94-13.15l-33.71-.27h0l-36.4-.29,23.17,23.78-.44,26.09c-.06,7.2,5.74,13.09,12.94,13.15l33.71,.27c7.2,.06,13.09-5.74,13.15-12.94Z"/><g><path class="cls-6" d="M415.62,260.98h-16.13c-.38,0-.69-.31-.69-.69v-5.92c0-.38,.31-.69,.69-.69h16.13c.38,0,.69,.31,.69,.69v5.92c0,.38-.31,.69-.69,.69Zm-15.44-1.38h14.75v-4.54h-14.75v4.54Z"/><path class="cls-6" d="M415.67,288.81h-16.25c-2.84,0-5.15-2.31-5.15-5.15v-16.31c0-2.84,2.31-5.15,5.15-5.15h16.25c2.84,0,5.15,2.31,5.15,5.15v16.31c0,2.84-2.31,5.15-5.15,5.15Zm-16.25-25.24c-2.08,0-3.78,1.69-3.78,3.78v16.31c0,2.08,1.69,3.78,3.78,3.78h16.25c2.08,0,3.78-1.69,3.78-3.78v-16.31c0-2.08-1.69-3.78-3.78-3.78h-16.25Z"/><path class="cls-6" d="M416.53,281.48h-17.95c-.38,0-.69-.31-.69-.69v-10.8c0-.38,.31-.69,.69-.69h17.95c.38,0,.69,.31,.69,.69v10.8c0,.38-.31,.69-.69,.69Zm-17.26-1.38h16.57v-9.42h-16.57v9.42Z"/></g></g></svg>