<?xml version="1.0" encoding="UTF-8"?><svg id="Camada_1" xmlns="http://www.w3.org/2000/svg" viewBox="0 0 381 351"><defs><style>.cls-1{fill:#0071bc;}.cls-2{fill:#f7931e;}.cls-3{fill:#fff;}.cls-4{fill:#f25522;}.cls-5{fill:#fe725e;}.cls-6{fill:#aed9e5;opacity:.6;}</style></defs><rect class="cls-6" x="70.28" y="55.28" width="240.43" height="240.43" transform="translate(179.89 -83.3) rotate(45)"/><g><rect class="cls-1" x="55.88" y="42.33" width="119.08" height="119.08" rx="5" ry="5"/><rect class="cls-4" x="206.04" y="42.33" width="119.08" height="119.08" rx="5" ry="5"/><rect class="cls-5" x="55.88" y="189.59" width="119.08" height="119.08" rx="5" ry="5"/><rect class="cls-2" x="206.04" y="189.59" width="119.08" height="119.08" rx="5" ry="5"/></g><g><path class="cls-3" d="M72.97,94.38v1.72h-2.07v6.04h-2.16v-6.04h-2.05v-1.72h6.27Z"/><path class="cls-3" d="M79.64,99.48h-4.08c.02,.34,.12,.59,.28,.75,.16,.17,.38,.25,.63,.25,.36,0,.62-.16,.77-.48h2.3c-.1,.43-.28,.8-.56,1.14-.28,.33-.62,.6-1.04,.79-.42,.19-.88,.29-1.39,.29-.61,0-1.15-.13-1.62-.39-.47-.26-.84-.62-1.11-1.1-.27-.48-.4-1.04-.4-1.68s.13-1.2,.4-1.68c.26-.47,.63-.84,1.11-1.09,.47-.26,1.02-.39,1.63-.39s1.15,.12,1.62,.37c.47,.25,.84,.61,1.1,1.07,.26,.47,.4,1.01,.4,1.64,0,.17-.01,.34-.03,.51Zm-2.17-1.04c0-.26-.09-.47-.26-.62-.18-.15-.4-.23-.66-.23s-.48,.07-.65,.21c-.17,.14-.28,.35-.33,.63h1.9Z"/><path class="cls-3" d="M83.58,96.22c.34-.21,.72-.31,1.11-.31v2.3h-.6c-.47,0-.82,.09-1.05,.27-.23,.18-.34,.5-.34,.96v2.69h-2.16v-6.17h2.16v1.09c.24-.35,.54-.63,.88-.84Z"/><path class="cls-3" d="M88.5,96.22c.34-.21,.72-.31,1.11-.31v2.3h-.6c-.47,0-.82,.09-1.05,.27-.23,.18-.34,.5-.34,.96v2.69h-2.16v-6.17h2.16v1.09c.24-.35,.54-.63,.88-.84Z"/><path class="cls-3" d="M90.55,95.08c-.23-.21-.35-.47-.35-.79s.12-.59,.35-.8c.23-.21,.54-.32,.92-.32s.68,.11,.91,.32c.23,.21,.35,.48,.35,.8s-.12,.58-.35,.79-.53,.31-.91,.31-.69-.1-.92-.31Zm1.99,.89v6.17h-2.16v-6.17h2.16Z"/><path class="cls-3" d="M97.41,100.3v1.84h-.94c-1.58,0-2.36-.78-2.36-2.34v-2.04h-.76v-1.79h.76v-1.5h2.17v1.5h1.12v1.79h-1.12v2.07c0,.17,.04,.29,.12,.36,.08,.07,.21,.11,.39,.11h.63Z"/><path class="cls-3" d="M99.62,101.83c-.49-.26-.87-.62-1.15-1.1-.28-.48-.42-1.04-.42-1.68s.14-1.2,.42-1.67c.28-.48,.67-.84,1.15-1.1,.49-.26,1.04-.39,1.66-.39s1.17,.13,1.66,.39c.49,.26,.87,.62,1.16,1.1,.28,.48,.42,1.03,.42,1.67s-.14,1.2-.42,1.68c-.28,.48-.67,.85-1.16,1.11-.49,.26-1.04,.39-1.66,.39s-1.17-.13-1.66-.39Zm2.41-1.82c.2-.22,.3-.54,.3-.96s-.1-.74-.3-.96c-.2-.22-.45-.33-.74-.33s-.54,.11-.74,.33c-.2,.22-.3,.54-.3,.96s.1,.75,.29,.97c.19,.22,.44,.33,.74,.33s.55-.11,.75-.34Z"/><path class="cls-3" d="M108.43,96.22c.34-.21,.72-.31,1.11-.31v2.3h-.6c-.47,0-.82,.09-1.05,.27-.23,.18-.34,.5-.34,.96v2.69h-2.16v-6.17h2.16v1.09c.24-.35,.54-.63,.88-.84Z"/><path class="cls-3" d="M110.48,95.08c-.23-.21-.35-.47-.35-.79s.12-.59,.35-.8c.23-.21,.54-.32,.92-.32s.68,.11,.91,.32c.23,.21,.35,.48,.35,.8s-.12,.58-.35,.79-.53,.31-.91,.31-.69-.1-.92-.31Zm1.99,.89v6.17h-2.16v-6.17h2.16Z"/><path class="cls-3" d="M113.7,97.37c.23-.48,.55-.84,.95-1.1,.4-.26,.84-.39,1.34-.39,.43,0,.79,.08,1.1,.25,.31,.17,.55,.4,.71,.68v-.86h2.16v6.17h-2.16v-.86c-.17,.29-.41,.51-.72,.68-.31,.17-.68,.25-1.09,.25-.49,0-.94-.13-1.34-.39-.4-.26-.72-.62-.95-1.11-.23-.48-.35-1.04-.35-1.68s.12-1.2,.35-1.67Zm3.77,.74c-.22-.23-.48-.34-.8-.34s-.59,.11-.8,.34c-.21,.22-.32,.54-.32,.94s.11,.71,.32,.94c.21,.23,.48,.35,.8,.35s.58-.11,.8-.34c.22-.23,.32-.54,.32-.95s-.11-.71-.32-.94Z"/><path class="cls-3" d="M123.34,94v8.14h-2.16v-8.14h2.16Z"/><path class="cls-3" d="M124.74,95.08c-.23-.21-.35-.47-.35-.79s.12-.59,.35-.8c.23-.21,.54-.32,.92-.32s.68,.11,.91,.32c.23,.21,.35,.48,.35,.8s-.12,.58-.35,.79-.53,.31-.91,.31-.69-.1-.92-.31Zm1.99,.89v6.17h-2.16v-6.17h2.16Z"/><path class="cls-3" d="M130,100.34h2.63v1.79h-5v-1.71l2.45-2.67h-2.43v-1.79h4.9v1.71l-2.54,2.67Z"/><path class="cls-3" d="M133.53,97.37c.23-.48,.55-.84,.95-1.1,.4-.26,.84-.39,1.34-.39,.43,0,.79,.08,1.1,.25,.31,.17,.55,.4,.71,.68v-.86h2.16v6.17h-2.16v-.86c-.17,.29-.41,.51-.72,.68-.31,.17-.68,.25-1.09,.25-.49,0-.94-.13-1.34-.39-.4-.26-.72-.62-.95-1.11-.23-.48-.35-1.04-.35-1.68s.12-1.2,.35-1.67Zm3.77,.74c-.22-.23-.48-.34-.8-.34s-.59,.11-.8,.34c-.21,.22-.32,.54-.32,.94s.11,.71,.32,.94c.21,.23,.48,.35,.8,.35s.58-.11,.8-.34c.22-.23,.32-.54,.32-.95s-.11-.71-.32-.94Z"/><path class="cls-3" d="M144.51,99.77h2.29c-.13,.65-.41,1.19-.82,1.6s-.93,.68-1.56,.79v.39c.36,0,.69,.11,.98,.32,.3,.21,.45,.54,.45,.98s-.16,.78-.47,.99c-.32,.21-.69,.32-1.12,.32h-1.79v-1.13h1.54c.24,0,.36-.08,.36-.23s-.12-.23-.36-.23h-.86v-1.4c-.76-.12-1.36-.46-1.81-1.01-.45-.55-.68-1.25-.68-2.1,0-.64,.13-1.2,.4-1.67,.26-.48,.63-.84,1.11-1.1,.47-.26,1.01-.39,1.62-.39,.78,0,1.44,.21,1.98,.64,.54,.43,.88,1.03,1.03,1.8h-2.29c-.13-.4-.39-.6-.77-.6-.27,0-.49,.11-.64,.34-.16,.22-.24,.55-.24,.98s.08,.76,.24,.99c.16,.23,.37,.34,.64,.34,.39,0,.65-.2,.77-.61Z"/><path class="cls-3" d="M147.69,97.37c.23-.48,.55-.84,.95-1.1,.4-.26,.84-.39,1.34-.39,.43,0,.79,.08,1.1,.25,.31,.17,.55,.4,.71,.68v-.86h2.16v6.17h-2.16v-.86c-.17,.29-.41,.51-.72,.68-.31,.17-.68,.25-1.09,.25-.49,0-.94-.13-1.34-.39-.4-.26-.72-.62-.95-1.11-.23-.48-.35-1.04-.35-1.68s.12-1.2,.35-1.67Zm2.44-3.66c.17,0,.32,.03,.46,.08s.29,.12,.47,.22c.12,.07,.23,.12,.32,.15,.09,.04,.18,.06,.26,.06,.27,0,.43-.17,.48-.51h1.09c-.1,.62-.3,1.08-.58,1.36s-.64,.42-1.07,.42c-.16,0-.31-.02-.44-.07-.13-.05-.29-.12-.48-.21-.12-.07-.23-.12-.32-.15s-.18-.06-.26-.06c-.26,0-.43,.17-.5,.51h-1.08c.21-1.2,.76-1.79,1.65-1.79Zm1.34,4.4c-.22-.23-.48-.34-.8-.34s-.59,.11-.8,.34c-.21,.22-.32,.54-.32,.94s.11,.71,.32,.94c.21,.23,.48,.35,.8,.35s.58-.11,.8-.34c.22-.23,.32-.54,.32-.95s-.11-.71-.32-.94Z"/><path class="cls-3" d="M156.39,101.83c-.49-.26-.87-.62-1.15-1.1-.28-.48-.42-1.04-.42-1.68s.14-1.2,.42-1.67c.28-.48,.67-.84,1.15-1.1,.49-.26,1.04-.39,1.66-.39s1.17,.13,1.66,.39c.49,.26,.87,.62,1.16,1.1,.28,.48,.42,1.03,.42,1.67s-.14,1.2-.42,1.68c-.28,.48-.67,.85-1.16,1.11-.49,.26-1.04,.39-1.66,.39s-1.17-.13-1.66-.39Zm2.41-1.82c.2-.22,.3-.54,.3-.96s-.1-.74-.3-.96c-.2-.22-.45-.33-.74-.33s-.54,.11-.74,.33c-.2,.22-.3,.54-.3,.96s.1,.75,.29,.97c.19,.22,.44,.33,.74,.33s.55-.11,.75-.34Z"/></g><g><path class="cls-3" d="M246.2,89.71l-2.67,7.75h-2.76l-2.68-7.75h2.31l1.76,5.6,1.75-5.6h2.3Z"/><path class="cls-3" d="M247.04,90.41c-.23-.21-.35-.47-.35-.79s.12-.59,.35-.8c.23-.21,.54-.32,.92-.32s.68,.11,.91,.32c.23,.21,.35,.48,.35,.8s-.12,.58-.35,.79c-.23,.21-.53,.31-.91,.31s-.69-.1-.92-.31Zm1.99,.89v6.17h-2.16v-6.17h2.16Z"/><path class="cls-3" d="M253.63,91.47c.31,.17,.55,.4,.72,.68v-.86h2.16v6.1c0,.58-.11,1.1-.33,1.57-.22,.47-.56,.84-1.03,1.12-.47,.28-1.05,.42-1.76,.42-.95,0-1.72-.22-2.29-.67-.57-.45-.9-1.06-.98-1.83h2.12c.04,.2,.15,.35,.33,.46s.4,.17,.68,.17c.73,0,1.1-.41,1.1-1.23v-.79c-.17,.29-.41,.51-.72,.68-.31,.17-.68,.25-1.09,.25-.49,0-.94-.13-1.34-.39-.4-.26-.72-.62-.95-1.11-.23-.48-.35-1.04-.35-1.68s.12-1.2,.35-1.67c.23-.48,.55-.84,.95-1.1,.4-.26,.84-.39,1.34-.39,.42,0,.78,.08,1.09,.25Zm.4,1.97c-.22-.23-.48-.34-.8-.34s-.59,.11-.8,.34c-.21,.22-.32,.54-.32,.94s.11,.71,.32,.94c.21,.23,.48,.35,.8,.35s.58-.11,.8-.34c.22-.23,.33-.54,.33-.95s-.11-.71-.33-.94Z"/><path class="cls-3" d="M257.91,90.41c-.23-.21-.35-.47-.35-.79s.12-.59,.35-.8c.23-.21,.54-.32,.92-.32s.68,.11,.91,.32c.23,.21,.35,.48,.35,.8s-.12,.58-.35,.79c-.23,.21-.53,.31-.91,.31s-.69-.1-.92-.31Zm1.99,.89v6.17h-2.16v-6.17h2.16Z"/><path class="cls-3" d="M263.28,89.33v8.14h-2.16v-8.14h2.16Z"/><path class="cls-3" d="M264.51,92.7c.23-.48,.55-.84,.95-1.1,.4-.26,.84-.39,1.34-.39,.42,0,.79,.08,1.1,.25,.31,.17,.55,.4,.71,.68v-.86h2.16v6.17h-2.16v-.86c-.17,.29-.41,.51-.72,.68-.31,.17-.68,.25-1.09,.25-.49,0-.94-.13-1.34-.39-.4-.26-.71-.62-.95-1.11-.23-.48-.35-1.04-.35-1.68s.12-1.2,.35-1.67Zm3.2-2.71l-1.77,.88v-1.44l1.77-.85,1.75,.85v1.44l-1.75-.88Zm.58,3.44c-.22-.23-.48-.34-.8-.34s-.59,.11-.8,.34c-.21,.22-.32,.54-.32,.94s.11,.71,.32,.94,.48,.35,.8,.35,.58-.11,.8-.34c.22-.23,.32-.54,.32-.95s-.11-.71-.32-.94Z"/><path class="cls-3" d="M277.72,91.95c.42,.47,.63,1.11,.63,1.92v3.6h-2.16v-3.31c0-.35-.09-.63-.27-.83-.18-.2-.43-.3-.74-.3s-.58,.1-.76,.3c-.18,.2-.28,.48-.28,.83v3.31h-2.16v-6.17h2.16v.88c.19-.28,.45-.5,.77-.68,.32-.17,.69-.26,1.11-.26,.71,0,1.28,.24,1.69,.71Z"/><path class="cls-3" d="M279.58,92.7c.26-.48,.63-.84,1.11-1.1,.47-.26,1.01-.39,1.62-.39,.79,0,1.44,.21,1.98,.64,.54,.43,.88,1.03,1.03,1.8h-2.29c-.13-.4-.39-.6-.77-.6-.27,0-.49,.11-.64,.34-.16,.22-.24,.55-.24,.98s.08,.76,.24,.99c.16,.23,.37,.34,.64,.34,.39,0,.65-.2,.77-.61h2.29c-.15,.76-.5,1.36-1.03,1.79-.54,.43-1.2,.65-1.98,.65-.61,0-1.15-.13-1.62-.39-.47-.26-.84-.62-1.11-1.1-.26-.48-.4-1.04-.4-1.68s.13-1.2,.4-1.67Z"/><path class="cls-3" d="M286.39,90.41c-.23-.21-.35-.47-.35-.79s.12-.59,.35-.8c.23-.21,.54-.32,.92-.32s.68,.11,.91,.32c.23,.21,.35,.48,.35,.8s-.12,.58-.35,.79c-.23,.21-.53,.31-.91,.31s-.69-.1-.92-.31Zm1.99,.89v6.17h-2.16v-6.17h2.16Z"/><path class="cls-3" d="M289.6,92.7c.23-.48,.55-.84,.95-1.1,.4-.26,.84-.39,1.34-.39,.42,0,.79,.08,1.1,.25,.31,.17,.55,.4,.71,.68v-.86h2.16v6.17h-2.16v-.86c-.17,.29-.41,.51-.72,.68-.31,.17-.68,.25-1.09,.25-.49,0-.94-.13-1.34-.39-.4-.26-.71-.62-.95-1.11-.23-.48-.35-1.04-.35-1.68s.12-1.2,.35-1.67Zm3.77,.74c-.22-.23-.48-.34-.8-.34s-.59,.11-.8,.34c-.21,.22-.32,.54-.32,.94s.11,.71,.32,.94,.48,.35,.8,.35,.58-.11,.8-.34c.22-.23,.32-.54,.32-.95s-.11-.71-.32-.94Z"/><path class="cls-3" d="M245.66,108.02h-4.08c.02,.34,.12,.59,.28,.75,.16,.17,.38,.25,.63,.25,.36,0,.62-.16,.77-.48h2.3c-.1,.43-.28,.8-.56,1.14-.28,.33-.62,.6-1.04,.79-.42,.19-.88,.29-1.39,.29-.61,0-1.15-.13-1.62-.39-.47-.26-.84-.62-1.11-1.1-.27-.48-.4-1.04-.4-1.68s.13-1.2,.4-1.68c.26-.47,.63-.84,1.11-1.09,.47-.26,1.02-.39,1.63-.39s1.15,.12,1.62,.37c.47,.25,.84,.61,1.1,1.07,.26,.47,.4,1.01,.4,1.64,0,.17-.01,.34-.03,.51Zm-2.17-1.04c0-.26-.09-.47-.26-.62s-.4-.23-.66-.23-.48,.07-.65,.21c-.17,.14-.28,.35-.33,.63h1.9Z"/><path class="cls-3" d="M256.47,105.15c.44,.47,.67,1.11,.67,1.92v3.6h-2.16v-3.31c0-.33-.09-.59-.28-.77-.18-.18-.43-.27-.75-.27s-.56,.09-.75,.27c-.18,.18-.27,.44-.27,.77v3.31h-2.16v-3.31c0-.33-.09-.59-.27-.77-.18-.18-.43-.27-.74-.27s-.58,.09-.76,.27c-.18,.18-.27,.44-.27,.77v3.31h-2.16v-6.17h2.16v.81c.19-.26,.44-.47,.74-.63s.65-.24,1.05-.24c.45,0,.86,.1,1.21,.3,.36,.2,.64,.48,.84,.84,.22-.34,.51-.61,.87-.82s.75-.31,1.19-.31c.78,0,1.39,.23,1.83,.7Z"/><path class="cls-3" d="M261.55,110.46c-.44-.19-.78-.44-1.03-.77-.25-.33-.39-.69-.42-1.11h2.09c.03,.2,.12,.35,.27,.46,.15,.11,.34,.17,.57,.17,.18,0,.32-.04,.42-.11s.15-.17,.15-.29c0-.15-.08-.27-.25-.34-.17-.07-.45-.15-.84-.24-.44-.09-.81-.19-1.1-.3s-.55-.29-.76-.54c-.22-.25-.32-.59-.32-1.01,0-.37,.1-.7,.3-1s.49-.53,.88-.71c.38-.18,.85-.26,1.39-.26,.81,0,1.44,.2,1.9,.59s.73,.92,.8,1.56h-1.95c-.04-.2-.12-.35-.26-.46s-.32-.16-.54-.16c-.18,0-.31,.03-.4,.1s-.14,.16-.14,.27c0,.15,.08,.26,.25,.34,.17,.08,.44,.16,.81,.24,.45,.1,.82,.2,1.12,.32s.56,.31,.78,.57,.34,.61,.34,1.06c0,.36-.1,.68-.31,.97-.21,.29-.51,.51-.89,.68s-.84,.25-1.36,.25c-.56,0-1.05-.09-1.49-.28Z"/><path class="cls-3" d="M266.65,105.91c.23-.48,.55-.84,.95-1.1,.4-.26,.84-.39,1.34-.39,.42,0,.79,.08,1.1,.25,.31,.17,.55,.4,.71,.68v-.86h2.16v6.17h-2.16v-.86c-.17,.29-.41,.51-.72,.68-.31,.17-.68,.25-1.09,.25-.49,0-.94-.13-1.34-.39-.4-.26-.71-.62-.95-1.11-.23-.48-.35-1.04-.35-1.68s.12-1.2,.35-1.67Zm3.77,.74c-.22-.23-.48-.34-.8-.34s-.59,.11-.8,.34c-.21,.22-.32,.54-.32,.94s.11,.71,.32,.94,.48,.35,.8,.35,.58-.11,.8-.34c.22-.23,.32-.54,.32-.95s-.11-.71-.32-.94Z"/><path class="cls-3" d="M280.45,104.5v6.17h-2.17v-.88c-.18,.28-.44,.5-.76,.68-.32,.17-.69,.26-1.11,.26-.72,0-1.29-.24-1.7-.71-.41-.47-.62-1.12-.62-1.93v-3.59h2.15v3.31c0,.35,.09,.63,.28,.83,.19,.2,.43,.3,.74,.3s.56-.1,.75-.3c.18-.2,.28-.48,.28-.83v-3.31h2.17Zm-1.81-1.5l-2.75,1.08v-1.46l2.75-1.24v1.63Z"/><path class="cls-3" d="M281.68,105.91c.23-.48,.55-.84,.95-1.1,.4-.26,.85-.39,1.34-.39,.4,0,.75,.08,1.06,.25,.31,.17,.56,.39,.73,.68v-2.82h2.17v8.14h-2.17v-.86c-.17,.29-.41,.51-.71,.68-.31,.17-.67,.25-1.09,.25-.49,0-.94-.13-1.34-.39-.4-.26-.72-.62-.95-1.11-.23-.48-.35-1.04-.35-1.68s.12-1.2,.35-1.67Zm3.77,.74c-.22-.23-.48-.34-.8-.34s-.59,.11-.8,.34c-.21,.22-.32,.54-.32,.94s.11,.71,.32,.94c.21,.23,.48,.35,.8,.35s.58-.11,.8-.34c.22-.23,.33-.54,.33-.95s-.11-.71-.33-.94Z"/><path class="cls-3" d="M295.03,108.02h-4.08c.02,.34,.12,.59,.28,.75s.38,.25,.63,.25c.36,0,.62-.16,.77-.48h2.3c-.09,.43-.28,.8-.55,1.14-.28,.33-.62,.6-1.04,.79-.42,.19-.88,.29-1.39,.29-.61,0-1.15-.13-1.62-.39-.47-.26-.84-.62-1.11-1.1-.27-.48-.4-1.04-.4-1.68s.13-1.2,.4-1.68,.63-.84,1.11-1.09c.47-.26,1.02-.39,1.63-.39s1.15,.12,1.62,.37c.47,.25,.84,.61,1.1,1.07,.26,.47,.4,1.01,.4,1.64,0,.17-.01,.34-.03,.51Zm-2.17-1.04c0-.26-.09-.47-.26-.62-.18-.15-.4-.23-.66-.23s-.48,.07-.65,.21-.28,.35-.33,.63h1.9Z"/></g><g><path class="cls-3" d="M250.02,233.47h-2.75l-.42,1.27h-2.27l2.83-7.75h2.49l2.82,7.75h-2.28l-.42-1.27Zm-.54-1.65l-.84-2.51-.83,2.51h1.66Z"/><path class="cls-3" d="M256.79,228.74c.31,.17,.55,.4,.72,.68v-.86h2.16v6.1c0,.58-.11,1.1-.33,1.57s-.56,.84-1.03,1.12c-.47,.28-1.05,.42-1.77,.42-.95,0-1.72-.22-2.29-.67-.57-.45-.9-1.06-.98-1.83h2.12c.04,.2,.15,.35,.33,.46,.18,.11,.4,.17,.68,.17,.73,0,1.1-.41,1.1-1.23v-.79c-.17,.29-.41,.51-.72,.68-.31,.17-.68,.25-1.09,.25-.49,0-.94-.13-1.34-.39-.4-.26-.71-.62-.95-1.11-.23-.48-.35-1.04-.35-1.68s.12-1.2,.35-1.67c.23-.48,.55-.84,.95-1.1s.84-.38,1.34-.38c.42,0,.78,.08,1.09,.25Zm.4,1.97c-.22-.23-.48-.34-.8-.34s-.59,.11-.8,.33c-.21,.22-.32,.54-.32,.94s.11,.71,.32,.94c.21,.23,.48,.35,.8,.35s.58-.11,.8-.34c.22-.23,.32-.54,.32-.95s-.11-.71-.32-.94Z"/><path class="cls-3" d="M266.76,232.08h-4.08c.02,.34,.12,.59,.28,.75,.16,.17,.38,.25,.63,.25,.36,0,.62-.16,.77-.48h2.3c-.1,.42-.28,.8-.56,1.14-.28,.33-.62,.6-1.04,.79s-.88,.29-1.39,.29c-.61,0-1.15-.13-1.62-.39-.47-.26-.84-.62-1.11-1.1s-.4-1.04-.4-1.68,.13-1.21,.4-1.68c.26-.47,.63-.84,1.11-1.09,.47-.26,1.02-.38,1.63-.38s1.15,.12,1.62,.37,.84,.61,1.1,1.07c.26,.47,.4,1.01,.4,1.64,0,.17-.01,.34-.03,.51Zm-2.17-1.04c0-.26-.09-.47-.26-.62s-.4-.23-.66-.23-.48,.07-.65,.21c-.17,.14-.28,.35-.33,.63h1.9Z"/><path class="cls-3" d="M273.4,229.22c.42,.47,.63,1.11,.63,1.92v3.6h-2.16v-3.31c0-.35-.09-.63-.28-.83-.18-.2-.43-.3-.74-.3-.32,0-.58,.1-.76,.3-.18,.2-.27,.48-.27,.83v3.31h-2.16v-6.17h2.16v.88c.19-.28,.45-.5,.77-.68,.32-.17,.69-.26,1.11-.26,.71,0,1.28,.24,1.69,.71Z"/><path class="cls-3" d="M278.86,232.9v1.84h-.93c-1.58,0-2.37-.78-2.37-2.34v-2.04h-.76v-1.79h.76v-1.5h2.17v1.5h1.12v1.79h-1.12v2.07c0,.17,.04,.29,.12,.36,.08,.07,.21,.11,.39,.11h.63Z"/><path class="cls-3" d="M285.71,232.08h-4.08c.02,.34,.12,.59,.28,.75s.38,.25,.63,.25c.36,0,.62-.16,.77-.48h2.3c-.09,.42-.28,.8-.55,1.14-.28,.33-.62,.6-1.04,.79s-.88,.29-1.39,.29c-.61,0-1.15-.13-1.62-.39-.47-.26-.84-.62-1.11-1.1s-.4-1.04-.4-1.68,.13-1.21,.4-1.68c.26-.47,.63-.84,1.11-1.09s1.02-.38,1.63-.38,1.15,.12,1.62,.37c.47,.25,.84,.61,1.1,1.07s.4,1.01,.4,1.64c0,.17-.01,.34-.03,.51Zm-2.17-1.04c0-.26-.09-.47-.26-.62-.18-.15-.4-.23-.66-.23s-.48,.07-.65,.21c-.17,.14-.28,.35-.33,.63h1.9Z"/><path class="cls-3" d="M230.26,243.17c.26-.48,.63-.84,1.11-1.1,.47-.26,1.01-.39,1.62-.39,.78,0,1.44,.21,1.98,.64,.54,.43,.88,1.03,1.03,1.8h-2.29c-.13-.4-.39-.61-.77-.61-.27,0-.49,.11-.64,.34-.16,.22-.24,.55-.24,.98s.08,.76,.24,.99c.16,.23,.37,.34,.64,.34,.39,0,.64-.2,.77-.61h2.29c-.15,.76-.5,1.36-1.03,1.79s-1.2,.65-1.98,.65c-.61,0-1.15-.13-1.62-.38s-.84-.62-1.11-1.1c-.26-.48-.4-1.04-.4-1.68s.13-1.2,.4-1.67Z"/><path class="cls-3" d="M238.11,247.63c-.49-.26-.87-.62-1.15-1.1-.28-.48-.42-1.04-.42-1.68s.14-1.2,.42-1.67,.67-.84,1.16-1.1c.49-.26,1.04-.39,1.66-.39s1.17,.13,1.66,.39c.49,.26,.87,.62,1.16,1.1s.42,1.03,.42,1.67-.14,1.2-.42,1.68-.67,.85-1.16,1.11-1.04,.38-1.66,.38-1.17-.13-1.66-.38Zm2.41-1.82c.2-.22,.3-.54,.3-.96s-.1-.74-.3-.96c-.2-.22-.45-.33-.74-.33s-.54,.11-.74,.33c-.2,.22-.3,.54-.3,.96s.1,.75,.29,.97c.19,.22,.44,.33,.74,.33s.55-.11,.75-.33Z"/><path class="cls-3" d="M253.79,242.41c.44,.47,.67,1.11,.67,1.92v3.6h-2.16v-3.31c0-.33-.09-.59-.27-.77-.18-.18-.43-.27-.75-.27s-.57,.09-.75,.27-.28,.44-.28,.77v3.31h-2.16v-3.31c0-.33-.09-.59-.27-.77-.18-.18-.43-.27-.74-.27s-.58,.09-.76,.27-.28,.44-.28,.77v3.31h-2.16v-6.17h2.16v.81c.19-.26,.44-.47,.74-.63,.3-.16,.65-.24,1.05-.24,.46,0,.86,.1,1.22,.3s.64,.48,.84,.84c.22-.34,.51-.61,.87-.82,.36-.21,.75-.31,1.19-.31,.78,0,1.39,.23,1.83,.7Z"/><path class="cls-3" d="M261.94,241.76v6.17h-2.17v-.88c-.18,.28-.44,.5-.76,.68-.32,.17-.69,.26-1.11,.26-.72,0-1.29-.24-1.7-.71-.41-.47-.62-1.12-.62-1.93v-3.59h2.14v3.31c0,.35,.09,.63,.28,.83,.19,.2,.43,.3,.74,.3s.56-.1,.75-.3c.18-.2,.28-.48,.28-.83v-3.31h2.17Z"/><path class="cls-3" d="M268.9,242.42c.42,.47,.63,1.11,.63,1.92v3.6h-2.16v-3.31c0-.35-.09-.63-.28-.83-.18-.2-.43-.3-.74-.3-.32,0-.58,.1-.76,.3-.18,.2-.27,.48-.27,.83v3.31h-2.16v-6.17h2.16v.88c.19-.28,.45-.5,.77-.68,.32-.17,.69-.26,1.11-.26,.71,0,1.28,.24,1.69,.71Z"/><path class="cls-3" d="M270.89,240.88c-.23-.21-.35-.47-.35-.79s.12-.59,.35-.8c.23-.21,.54-.32,.92-.32s.68,.11,.91,.32c.23,.21,.35,.48,.35,.8s-.12,.58-.35,.79c-.23,.21-.53,.31-.91,.31s-.69-.1-.92-.31Zm1.99,.89v6.17h-2.16v-6.17h2.16Z"/><path class="cls-3" d="M277.75,246.1v1.84h-.94c-1.58,0-2.36-.78-2.36-2.34v-2.04h-.76v-1.79h.76v-1.5h2.17v1.5h1.12v1.79h-1.12v2.07c0,.17,.04,.29,.12,.36s.21,.11,.39,.11h.63Z"/><path class="cls-3" d="M278.73,243.17c.23-.48,.55-.84,.95-1.1,.4-.26,.84-.39,1.34-.39,.43,0,.79,.08,1.1,.25,.31,.17,.55,.4,.71,.68v-.86h2.16v6.17h-2.16v-.86c-.17,.29-.41,.51-.72,.68s-.68,.25-1.09,.25c-.49,0-.94-.13-1.34-.38-.4-.26-.72-.62-.95-1.11-.23-.48-.35-1.04-.35-1.68s.12-1.2,.35-1.67Zm4.53-2.9l-2.75,1.08v-1.46l2.75-1.24v1.63Zm-.75,3.64c-.22-.23-.48-.34-.8-.34s-.59,.11-.8,.34c-.21,.22-.32,.54-.32,.94s.11,.71,.32,.94c.21,.23,.48,.35,.8,.35s.58-.11,.8-.34c.22-.23,.33-.54,.33-.95s-.11-.71-.33-.93Z"/><path class="cls-3" d="M289.25,242.02c.34-.21,.71-.31,1.11-.31v2.3h-.61c-.47,0-.82,.09-1.04,.28-.23,.18-.34,.5-.34,.96v2.69h-2.16v-6.17h2.16v1.09c.24-.35,.54-.63,.88-.84Z"/><path class="cls-3" d="M291.31,240.88c-.23-.21-.35-.47-.35-.79s.12-.59,.35-.8c.23-.21,.54-.32,.92-.32s.68,.11,.91,.32c.23,.21,.35,.48,.35,.8s-.12,.58-.35,.79c-.23,.21-.53,.31-.91,.31s-.69-.1-.92-.31Zm1.99,.89v6.17h-2.16v-6.17h2.16Z"/><path class="cls-3" d="M295.74,247.63c-.49-.26-.87-.62-1.15-1.1-.28-.48-.42-1.04-.42-1.68s.14-1.2,.42-1.67,.67-.84,1.15-1.1c.49-.26,1.04-.39,1.66-.39s1.17,.13,1.66,.39c.49,.26,.87,.62,1.16,1.1,.28,.48,.42,1.03,.42,1.67s-.14,1.2-.42,1.68c-.28,.48-.67,.85-1.16,1.11s-1.04,.38-1.66,.38-1.17-.13-1.66-.38Zm2.41-1.82c.2-.22,.3-.54,.3-.96s-.1-.74-.3-.96c-.2-.22-.45-.33-.74-.33s-.54,.11-.74,.33-.3,.54-.3,.96,.09,.75,.29,.97c.19,.22,.44,.33,.74,.33s.55-.11,.75-.33Z"/><path class="cls-3" d="M239.92,256.37c.23-.48,.55-.84,.95-1.1,.4-.26,.85-.39,1.34-.39,.4,0,.75,.08,1.06,.25s.56,.39,.73,.68v-2.82h2.17v8.14h-2.17v-.86c-.17,.29-.41,.51-.71,.68-.31,.17-.67,.25-1.09,.25-.49,0-.94-.13-1.34-.38s-.71-.62-.95-1.11c-.23-.48-.35-1.04-.35-1.68s.12-1.2,.35-1.67Zm3.77,.74c-.22-.23-.48-.34-.8-.34s-.59,.11-.8,.34-.32,.54-.32,.94,.11,.71,.32,.94c.21,.23,.48,.35,.8,.35s.58-.11,.8-.34c.22-.23,.32-.54,.32-.95s-.11-.71-.32-.93Z"/><path class="cls-3" d="M253.27,258.48h-4.08c.02,.34,.12,.59,.28,.75,.16,.17,.38,.25,.63,.25,.36,0,.62-.16,.77-.48h2.3c-.1,.43-.28,.8-.56,1.14s-.62,.6-1.04,.79c-.42,.19-.88,.29-1.39,.29-.61,0-1.15-.13-1.62-.38s-.84-.62-1.11-1.1c-.27-.48-.4-1.04-.4-1.68s.13-1.2,.4-1.68c.26-.47,.63-.84,1.11-1.09,.47-.26,1.02-.39,1.63-.39s1.15,.12,1.62,.37c.47,.25,.84,.61,1.1,1.07,.26,.46,.4,1.01,.4,1.64,0,.17-.01,.34-.03,.51Zm-2.17-1.04c0-.26-.09-.47-.26-.62s-.4-.23-.66-.23-.48,.07-.65,.21c-.17,.14-.28,.35-.33,.63h1.9Z"/><path class="cls-3" d="M257.42,260.93c-.44-.19-.78-.44-1.03-.77-.25-.33-.39-.69-.42-1.11h2.09c.03,.2,.12,.35,.28,.46,.15,.11,.34,.17,.57,.17,.18,0,.32-.04,.42-.11s.15-.17,.15-.29c0-.15-.08-.27-.25-.34s-.45-.15-.84-.24c-.44-.09-.81-.19-1.1-.3-.29-.11-.55-.29-.76-.54-.22-.25-.33-.59-.33-1.01,0-.37,.1-.7,.3-1,.2-.3,.49-.53,.87-.71,.38-.18,.85-.26,1.39-.26,.81,0,1.44,.2,1.9,.59,.46,.4,.73,.92,.8,1.56h-1.95c-.04-.2-.12-.35-.26-.46s-.32-.16-.54-.16c-.18,0-.31,.03-.4,.1-.09,.07-.14,.16-.14,.27,0,.15,.08,.26,.25,.34s.44,.16,.81,.24c.45,.1,.82,.2,1.12,.32s.56,.31,.78,.57c.22,.26,.33,.61,.33,1.06,0,.36-.1,.68-.31,.97s-.51,.51-.89,.68c-.39,.17-.84,.25-1.36,.25-.56,0-1.05-.09-1.49-.28Z"/><path class="cls-3" d="M262.52,256.37c.23-.48,.55-.84,.95-1.1,.4-.26,.84-.39,1.34-.39,.43,0,.79,.08,1.1,.25,.31,.17,.55,.4,.71,.68v-.86h2.16v6.17h-2.16v-.86c-.17,.29-.41,.51-.72,.68s-.68,.25-1.09,.25c-.49,0-.94-.13-1.34-.38-.4-.26-.72-.62-.95-1.11-.23-.48-.35-1.04-.35-1.68s.12-1.2,.35-1.67Zm3.77,.74c-.22-.23-.48-.34-.8-.34s-.59,.11-.8,.34c-.21,.22-.32,.54-.32,.94s.11,.71,.32,.94c.21,.23,.48,.35,.8,.35s.58-.11,.8-.34c.22-.23,.33-.54,.33-.95s-.11-.71-.33-.93Z"/><path class="cls-3" d="M276.32,254.96v6.17h-2.17v-.88c-.18,.28-.44,.5-.76,.68-.32,.17-.69,.26-1.11,.26-.72,0-1.29-.24-1.7-.71-.41-.47-.62-1.12-.62-1.93v-3.59h2.14v3.31c0,.35,.09,.63,.28,.83,.19,.2,.43,.3,.74,.3s.56-.1,.75-.3c.18-.2,.28-.48,.28-.83v-3.31h2.17Zm-1.82-1.5l-2.75,1.08v-1.46l2.75-1.24v1.63Z"/><path class="cls-3" d="M277.55,256.37c.23-.48,.55-.84,.95-1.1,.4-.26,.85-.39,1.34-.39,.4,0,.75,.08,1.06,.25s.56,.39,.73,.68v-2.82h2.17v8.14h-2.17v-.86c-.17,.29-.41,.51-.71,.68-.31,.17-.67,.25-1.09,.25-.49,0-.94-.13-1.34-.38s-.71-.62-.95-1.11c-.23-.48-.35-1.04-.35-1.68s.12-1.2,.35-1.67Zm3.77,.74c-.22-.23-.48-.34-.8-.34s-.59,.11-.8,.34-.32,.54-.32,.94,.11,.71,.32,.94c.21,.23,.48,.35,.8,.35s.58-.11,.8-.34c.22-.23,.32-.54,.32-.95s-.11-.71-.32-.93Z"/><path class="cls-3" d="M290.9,258.48h-4.08c.02,.34,.12,.59,.28,.75,.16,.17,.38,.25,.63,.25,.36,0,.62-.16,.77-.48h2.3c-.1,.43-.28,.8-.56,1.14s-.62,.6-1.04,.79c-.42,.19-.88,.29-1.39,.29-.61,0-1.15-.13-1.62-.38s-.84-.62-1.11-1.1c-.27-.48-.4-1.04-.4-1.68s.13-1.2,.4-1.68c.26-.47,.63-.84,1.11-1.09,.47-.26,1.02-.39,1.63-.39s1.15,.12,1.62,.37c.47,.25,.84,.61,1.1,1.07,.26,.46,.4,1.01,.4,1.64,0,.17-.01,.34-.03,.51Zm-2.17-1.04c0-.26-.09-.47-.26-.62s-.4-.23-.66-.23-.48,.07-.65,.21c-.17,.14-.28,.35-.33,.63h1.9Z"/></g><g><path class="cls-3" d="M63.38,246.4l-1.54-2.86h-.23v2.86h-2.16v-7.75h3.4c.62,0,1.15,.11,1.58,.32,.43,.22,.76,.51,.98,.89,.22,.38,.33,.8,.33,1.27,0,.53-.15,.99-.43,1.39-.29,.4-.71,.68-1.27,.85l1.75,3.02h-2.41Zm-1.77-4.33h1.07c.29,0,.51-.07,.66-.21,.15-.14,.22-.34,.22-.6,0-.25-.08-.45-.23-.59-.15-.14-.37-.21-.65-.21h-1.07v1.62Z"/><path class="cls-3" d="M72.59,243.75h-4.08c.02,.34,.12,.59,.28,.75,.16,.17,.38,.25,.63,.25,.36,0,.62-.16,.77-.48h2.3c-.1,.43-.28,.8-.56,1.14-.28,.33-.62,.6-1.04,.79-.42,.19-.88,.29-1.39,.29-.61,0-1.15-.13-1.62-.38-.47-.26-.84-.62-1.11-1.1-.27-.48-.4-1.04-.4-1.68s.13-1.2,.4-1.68c.26-.47,.63-.84,1.11-1.09,.47-.26,1.02-.39,1.63-.39s1.15,.12,1.62,.37c.47,.25,.84,.61,1.1,1.07,.26,.46,.4,1.01,.4,1.64,0,.17-.01,.34-.03,.51Zm-2.17-1.04c0-.26-.09-.47-.26-.62-.18-.15-.4-.23-.66-.23s-.48,.07-.65,.21c-.17,.14-.28,.35-.33,.63h1.9Z"/><path class="cls-3" d="M74.64,246.2c-.44-.19-.78-.44-1.03-.77-.25-.33-.39-.69-.42-1.11h2.09c.03,.2,.12,.35,.27,.46,.15,.11,.34,.17,.57,.17,.18,0,.32-.04,.42-.11s.15-.17,.15-.29c0-.15-.08-.27-.25-.34-.17-.07-.45-.15-.84-.24-.44-.09-.81-.19-1.1-.3-.29-.11-.55-.29-.76-.54s-.32-.59-.32-1.01c0-.37,.1-.7,.3-1,.2-.3,.49-.53,.87-.71,.38-.18,.85-.26,1.39-.26,.81,0,1.44,.2,1.9,.59,.46,.4,.73,.92,.8,1.56h-1.95c-.04-.2-.12-.35-.26-.46s-.32-.16-.54-.16c-.18,0-.31,.03-.4,.1-.09,.07-.14,.16-.14,.27,0,.15,.08,.26,.25,.34,.17,.08,.44,.16,.81,.24,.45,.1,.82,.2,1.12,.32s.56,.31,.78,.57c.22,.26,.34,.61,.34,1.06,0,.36-.1,.68-.31,.97s-.51,.51-.89,.68c-.39,.17-.84,.25-1.36,.25-.56,0-1.05-.09-1.49-.28Z"/><path class="cls-3" d="M82.62,240.41c.31-.17,.67-.25,1.09-.25,.49,0,.94,.13,1.34,.39,.4,.26,.71,.62,.95,1.1s.35,1.03,.35,1.67-.12,1.2-.35,1.68-.55,.85-.95,1.11c-.4,.26-.85,.38-1.34,.38-.42,0-.78-.08-1.08-.25-.3-.17-.54-.4-.72-.68v3.81h-2.16v-9.12h2.16v.86c.17-.29,.41-.51,.71-.68Zm1.2,1.96c-.22-.22-.48-.34-.8-.34s-.58,.11-.8,.34c-.22,.23-.32,.54-.32,.93s.11,.72,.32,.95c.22,.23,.48,.34,.8,.34s.58-.12,.8-.35c.22-.23,.32-.54,.32-.94s-.11-.72-.32-.94Z"/><path class="cls-3" d="M88.44,246.1c-.49-.26-.87-.62-1.15-1.1-.28-.48-.42-1.04-.42-1.68s.14-1.2,.42-1.67,.67-.84,1.15-1.1c.49-.26,1.04-.39,1.66-.39s1.17,.13,1.66,.39c.49,.26,.87,.62,1.16,1.1,.28,.48,.42,1.03,.42,1.67s-.14,1.2-.42,1.68c-.28,.48-.67,.85-1.16,1.11s-1.04,.38-1.66,.38-1.17-.13-1.66-.38Zm2.41-1.82c.2-.22,.3-.54,.3-.96s-.1-.74-.3-.96c-.2-.22-.45-.33-.74-.33s-.54,.11-.74,.33c-.2,.22-.3,.54-.3,.96s.1,.75,.29,.97c.19,.22,.44,.33,.74,.33s.55-.11,.75-.33Z"/><path class="cls-3" d="M99.96,240.89c.42,.47,.63,1.11,.63,1.92v3.6h-2.16v-3.31c0-.35-.09-.63-.27-.83-.18-.2-.43-.3-.74-.3-.32,0-.58,.1-.76,.3-.18,.2-.27,.48-.27,.83v3.31h-2.16v-6.17h2.16v.88c.19-.28,.45-.5,.77-.68,.32-.17,.69-.26,1.11-.26,.71,0,1.28,.24,1.69,.71Z"/><path class="cls-3" d="M102.91,246.2c-.44-.19-.78-.44-1.03-.77-.25-.33-.39-.69-.42-1.11h2.09c.03,.2,.12,.35,.27,.46,.15,.11,.34,.17,.57,.17,.18,0,.32-.04,.42-.11s.15-.17,.15-.29c0-.15-.08-.27-.25-.34-.17-.07-.45-.15-.84-.24-.44-.09-.81-.19-1.1-.3-.29-.11-.55-.29-.76-.54s-.32-.59-.32-1.01c0-.37,.1-.7,.3-1,.2-.3,.49-.53,.87-.71,.38-.18,.85-.26,1.39-.26,.81,0,1.44,.2,1.9,.59,.46,.4,.73,.92,.8,1.56h-1.95c-.04-.2-.12-.35-.26-.46s-.32-.16-.54-.16c-.18,0-.31,.03-.4,.1-.09,.07-.14,.16-.14,.27,0,.15,.08,.26,.25,.34,.17,.08,.44,.16,.81,.24,.45,.1,.82,.2,1.12,.32s.56,.31,.78,.57c.22,.26,.34,.61,.34,1.06,0,.36-.1,.68-.31,.97s-.51,.51-.89,.68c-.39,.17-.84,.25-1.36,.25-.56,0-1.05-.09-1.49-.28Z"/><path class="cls-3" d="M108.01,241.64c.23-.48,.55-.84,.95-1.1,.4-.26,.84-.39,1.34-.39,.43,0,.79,.08,1.1,.25,.31,.17,.55,.4,.71,.68v-.86h2.16v6.17h-2.16v-.86c-.17,.29-.41,.51-.72,.68-.31,.17-.68,.25-1.09,.25-.49,0-.94-.13-1.34-.38-.4-.26-.72-.62-.95-1.11s-.35-1.04-.35-1.68,.12-1.2,.35-1.67Zm3.77,.74c-.22-.23-.48-.34-.8-.34s-.59,.11-.8,.34c-.21,.22-.32,.54-.32,.94s.11,.71,.32,.94c.21,.23,.48,.35,.8,.35s.58-.11,.8-.34,.32-.54,.32-.95-.11-.71-.32-.93Z"/><path class="cls-3" d="M118.37,240.4c.31-.17,.67-.25,1.09-.25,.49,0,.94,.13,1.34,.39,.4,.26,.71,.62,.95,1.1s.35,1.03,.35,1.67-.12,1.2-.35,1.68-.55,.85-.95,1.11c-.4,.26-.85,.38-1.34,.38-.42,0-.78-.08-1.09-.25-.31-.17-.55-.39-.71-.69v.86h-2.16v-8.14h2.16v2.83c.17-.29,.41-.52,.71-.69Zm1.2,1.97c-.22-.22-.48-.34-.8-.34s-.58,.11-.8,.34c-.22,.23-.32,.54-.32,.93s.11,.72,.32,.95c.22,.23,.48,.34,.8,.34s.58-.12,.8-.35c.22-.23,.32-.54,.32-.94s-.11-.72-.32-.94Z"/><path class="cls-3" d="M123.15,239.35c-.23-.21-.35-.47-.35-.79s.12-.59,.35-.8,.54-.32,.92-.32,.68,.11,.91,.32,.35,.48,.35,.8-.12,.58-.35,.79-.53,.31-.91,.31-.69-.1-.92-.31Zm1.99,.89v6.17h-2.16v-6.17h2.16Z"/><path class="cls-3" d="M128.52,238.26v8.14h-2.16v-8.14h2.16Z"/><path class="cls-3" d="M129.93,239.35c-.23-.21-.35-.47-.35-.79s.12-.59,.35-.8,.54-.32,.92-.32,.68,.11,.91,.32,.35,.48,.35,.8-.12,.58-.35,.79-.53,.31-.91,.31-.69-.1-.92-.31Zm1.99,.89v6.17h-2.16v-6.17h2.16Z"/><path class="cls-3" d="M135.19,244.61h2.63v1.79h-5v-1.71l2.45-2.67h-2.43v-1.79h4.9v1.71l-2.54,2.67Z"/><path class="cls-3" d="M138.71,241.64c.23-.48,.55-.84,.95-1.1,.4-.26,.84-.39,1.34-.39,.43,0,.79,.08,1.1,.25,.31,.17,.55,.4,.71,.68v-.86h2.16v6.17h-2.16v-.86c-.17,.29-.41,.51-.72,.68-.31,.17-.68,.25-1.09,.25-.49,0-.94-.13-1.34-.38-.4-.26-.72-.62-.95-1.11s-.35-1.04-.35-1.68,.12-1.2,.35-1.67Zm3.77,.74c-.22-.23-.48-.34-.8-.34s-.59,.11-.8,.34c-.21,.22-.32,.54-.32,.94s.11,.71,.32,.94c.21,.23,.48,.35,.8,.35s.58-.11,.8-.34,.32-.54,.32-.95-.11-.71-.32-.93Z"/><path class="cls-3" d="M149.7,244.04h2.29c-.13,.65-.41,1.19-.82,1.6-.41,.42-.93,.68-1.56,.79v.38c.36,0,.69,.11,.98,.32,.3,.21,.45,.54,.45,.98s-.16,.78-.47,.99-.69,.32-1.12,.32h-1.79v-1.13h1.54c.24,0,.36-.08,.36-.23s-.12-.23-.36-.23h-.86v-1.4c-.76-.12-1.36-.46-1.81-1.01-.45-.55-.68-1.25-.68-2.1,0-.64,.13-1.2,.4-1.67,.26-.48,.63-.84,1.11-1.1,.47-.26,1.01-.39,1.62-.39,.78,0,1.44,.21,1.98,.64,.54,.43,.88,1.03,1.03,1.8h-2.29c-.13-.4-.39-.61-.77-.61-.27,0-.49,.11-.64,.34-.16,.22-.24,.55-.24,.98s.08,.76,.24,.99c.16,.23,.37,.34,.64,.34,.39,0,.65-.2,.77-.61Z"/><path class="cls-3" d="M152.87,241.64c.23-.48,.55-.84,.95-1.1,.4-.26,.84-.39,1.34-.39,.43,0,.79,.08,1.1,.25,.31,.17,.55,.4,.71,.68v-.86h2.16v6.17h-2.16v-.86c-.17,.29-.41,.51-.72,.68-.31,.17-.68,.25-1.09,.25-.49,0-.94-.13-1.34-.38-.4-.26-.72-.62-.95-1.11s-.35-1.04-.35-1.68,.12-1.2,.35-1.67Zm2.44-3.66c.17,0,.32,.03,.46,.08,.14,.05,.29,.12,.47,.22,.12,.07,.23,.12,.32,.15s.18,.05,.26,.05c.27,0,.43-.17,.48-.51h1.09c-.1,.62-.3,1.08-.58,1.36s-.64,.42-1.07,.42c-.16,0-.31-.02-.44-.07-.13-.05-.29-.12-.48-.21-.12-.07-.23-.12-.32-.15-.09-.04-.18-.05-.26-.05-.26,0-.43,.17-.5,.51h-1.08c.21-1.2,.76-1.79,1.65-1.79Zm1.34,4.4c-.22-.23-.48-.34-.8-.34s-.59,.11-.8,.34c-.21,.22-.32,.54-.32,.94s.11,.71,.32,.94c.21,.23,.48,.35,.8,.35s.58-.11,.8-.34,.32-.54,.32-.95-.11-.71-.32-.93Z"/><path class="cls-3" d="M161.57,246.1c-.49-.26-.87-.62-1.15-1.1-.28-.48-.42-1.04-.42-1.68s.14-1.2,.42-1.67,.67-.84,1.15-1.1c.49-.26,1.04-.39,1.66-.39s1.17,.13,1.66,.39c.49,.26,.87,.62,1.16,1.1,.28,.48,.42,1.03,.42,1.67s-.14,1.2-.42,1.68c-.28,.48-.67,.85-1.16,1.11s-1.04,.38-1.66,.38-1.17-.13-1.66-.38Zm2.41-1.82c.2-.22,.3-.54,.3-.96s-.1-.74-.3-.96c-.2-.22-.45-.33-.74-.33s-.54,.11-.74,.33c-.2,.22-.3,.54-.3,.96s.1,.75,.29,.97c.19,.22,.44,.33,.74,.33s.55-.11,.75-.33Z"/><path class="cls-3" d="M88.26,259.4c-.44-.19-.78-.44-1.03-.77-.25-.33-.39-.69-.42-1.11h2.09c.03,.2,.12,.35,.27,.46,.15,.11,.34,.17,.57,.17,.18,0,.32-.04,.42-.11s.15-.17,.15-.29c0-.15-.08-.27-.25-.34-.17-.07-.45-.15-.84-.24-.44-.09-.81-.19-1.1-.3-.29-.11-.55-.29-.76-.54s-.32-.59-.32-1.01c0-.37,.1-.7,.3-1,.2-.3,.49-.53,.87-.71,.38-.18,.85-.26,1.39-.26,.81,0,1.44,.2,1.9,.59,.46,.4,.73,.92,.8,1.56h-1.95c-.04-.2-.12-.35-.26-.46s-.32-.16-.54-.16c-.18,0-.31,.03-.4,.1-.09,.07-.14,.16-.14,.27,0,.15,.08,.26,.25,.34,.17,.08,.44,.16,.81,.24,.45,.1,.82,.2,1.12,.32s.56,.31,.78,.57c.22,.26,.34,.61,.34,1.06,0,.36-.1,.68-.31,.97s-.51,.51-.89,.68c-.39,.17-.84,.25-1.36,.25-.56,0-1.05-.09-1.49-.28Z"/><path class="cls-3" d="M93.37,254.84c.23-.48,.55-.84,.95-1.1,.4-.26,.84-.39,1.34-.39,.43,0,.79,.08,1.1,.25,.31,.17,.55,.4,.71,.68v-.86h2.16v6.17h-2.16v-.86c-.17,.29-.41,.51-.72,.68-.31,.17-.68,.25-1.09,.25-.49,0-.94-.13-1.34-.38-.4-.26-.72-.62-.95-1.11s-.35-1.04-.35-1.68,.12-1.2,.35-1.67Zm3.77,.74c-.22-.23-.48-.34-.8-.34s-.59,.11-.8,.34c-.21,.22-.32,.54-.32,.94s.11,.71,.32,.94c.21,.23,.48,.35,.8,.35s.58-.11,.8-.34,.32-.54,.32-.95-.11-.71-.32-.93Z"/><path class="cls-3" d="M106.58,254.09c.42,.47,.63,1.11,.63,1.92v3.6h-2.16v-3.31c0-.35-.09-.63-.27-.83-.18-.2-.43-.3-.74-.3-.32,0-.58,.1-.76,.3-.18,.2-.27,.48-.27,.83v3.31h-2.16v-6.17h2.16v.88c.19-.28,.45-.5,.77-.68,.32-.17,.69-.26,1.11-.26,.71,0,1.28,.24,1.69,.71Z"/><path class="cls-3" d="M108.57,252.55c-.23-.21-.35-.47-.35-.79s.12-.59,.35-.8,.54-.32,.92-.32,.68,.11,.91,.32,.35,.48,.35,.8-.12,.58-.35,.79-.53,.31-.91,.31-.69-.1-.92-.31Zm1.99,.89v6.17h-2.16v-6.17h2.16Z"/><path class="cls-3" d="M115.43,257.77v1.84h-.94c-1.58,0-2.36-.78-2.36-2.34v-2.04h-.76v-1.79h.76v-1.5h2.17v1.5h1.12v1.79h-1.12v2.07c0,.17,.04,.29,.12,.36,.08,.07,.21,.11,.39,.11h.63Z"/><path class="cls-3" d="M116.41,254.84c.23-.48,.55-.84,.95-1.1,.4-.26,.84-.39,1.34-.39,.43,0,.79,.08,1.1,.25,.31,.17,.55,.4,.71,.68v-.86h2.16v6.17h-2.16v-.86c-.17,.29-.41,.51-.72,.68-.31,.17-.68,.25-1.09,.25-.49,0-.94-.13-1.34-.38-.4-.26-.72-.62-.95-1.11s-.35-1.04-.35-1.68,.12-1.2,.35-1.67Zm4.53-2.9l-2.75,1.08v-1.46l2.75-1.24v1.63Zm-.75,3.64c-.22-.23-.48-.34-.8-.34s-.59,.11-.8,.34c-.21,.22-.32,.54-.32,.94s.11,.71,.32,.94c.21,.23,.48,.35,.8,.35s.58-.11,.8-.34,.32-.54,.32-.95-.11-.71-.32-.93Z"/><path class="cls-3" d="M126.93,253.68c.34-.21,.72-.31,1.11-.31v2.3h-.6c-.47,0-.82,.09-1.05,.28-.23,.18-.34,.5-.34,.96v2.69h-2.16v-6.17h2.16v1.09c.24-.35,.54-.63,.88-.84Z"/><path class="cls-3" d="M128.98,252.55c-.23-.21-.35-.47-.35-.79s.12-.59,.35-.8,.54-.32,.92-.32,.68,.11,.91,.32,.35,.48,.35,.8-.12,.58-.35,.79-.53,.31-.91,.31-.69-.1-.92-.31Zm1.99,.89v6.17h-2.16v-6.17h2.16Z"/><path class="cls-3" d="M132.2,254.84c.23-.48,.55-.84,.95-1.1,.4-.26,.84-.39,1.34-.39,.43,0,.79,.08,1.1,.25,.31,.17,.55,.4,.71,.68v-.86h2.16v6.17h-2.16v-.86c-.17,.29-.41,.51-.72,.68-.31,.17-.68,.25-1.09,.25-.49,0-.94-.13-1.34-.38-.4-.26-.72-.62-.95-1.11s-.35-1.04-.35-1.68,.12-1.2,.35-1.67Zm3.77,.74c-.22-.23-.48-.34-.8-.34s-.59,.11-.8,.34c-.21,.22-.32,.54-.32,.94s.11,.71,.32,.94c.21,.23,.48,.35,.8,.35s.58-.11,.8-.34,.32-.54,.32-.95-.11-.71-.32-.93Z"/></g></svg>