<?xml version="1.0" encoding="UTF-8"?><svg id="Designed_by_freepik" xmlns="http://www.w3.org/2000/svg" viewBox="0 0 690.96 162.6"><defs><style>.cls-1{fill:#f5f5f5;}.cls-2{fill:#fff;}.cls-3{fill:#ececec;}.cls-4{fill:#ff4f5b;}.cls-5{fill:#7468f8;}.cls-6{fill:#822ef2;}.cls-7{fill:#9a50fd;}.cls-8{fill:#e1e1e1;}.cls-9{fill:#375a64;}.cls-10{fill:#1a2e35;}.cls-11{fill:#5446eb;}.cls-12{opacity:.3;}</style></defs><g><path class="cls-1" d="M39.16,16.68H382.69c18.08,0,32.76,14.68,32.76,32.76h0c0,18.08-14.68,32.76-32.76,32.76H39.16V16.68h0Z"/><g><g><path class="cls-7" d="M23.48,0l15.3,1.62V81.76H15.19V22.51H0V0H23.48Z"/><polygon class="cls-6" points="36.86 1.38 36.86 79.3 15.23 79.3 15.23 82 38.89 82 38.89 1.62 36.86 1.38"/></g><g><g><g><path class="cls-10" d="M11.65,76.56s.01-.03,.04-.09c.03-.07,.07-.16,.13-.27,.11-.24,.25-.6,.37-1.08,.25-.96,.33-2.43-.03-4.17-.17-.87-.44-1.81-.77-2.8-.33-.99-.71-2.05-1.02-3.19-.31-1.14-.55-2.37-.5-3.67,.05-1.3,.43-2.59,.85-3.88,.42-1.29,.86-2.55,.99-3.82,.15-1.27-.12-2.51-.7-3.53-.56-1.03-1.26-1.91-1.79-2.82-.53-.91-.87-1.84-1.07-2.71-.4-1.75-.26-3.23-.07-4.2,.21-.98,.44-1.48,.44-1.48,0,0,0,.03-.03,.1-.02,.07-.05,.16-.09,.28-.08,.25-.18,.62-.27,1.11-.17,.97-.3,2.44,.11,4.17,.21,.86,.55,1.78,1.08,2.68,.53,.9,1.23,1.78,1.8,2.82,.59,1.03,.87,2.31,.72,3.6-.13,1.29-.57,2.56-.99,3.85-.42,1.29-.8,2.57-.85,3.84-.05,1.27,.19,2.5,.49,3.63,.31,1.13,.68,2.19,1,3.19,.33,1,.6,1.94,.76,2.82,.35,1.76,.25,3.24-.01,4.2-.13,.48-.28,.84-.4,1.08-.06,.11-.1,.2-.14,.26-.03,.06-.05,.09-.05,.09Z"/><g><path class="cls-4" d="M9.93,48.13s-1.07-3.42,.85-5.42c.07-.07,.19-.04,.2,.06,.1,.56,.23,2.28-1.05,5.36Z"/><path class="cls-10" d="M10.57,43.85s-.01,.24-.07,.63c-.07,.43-.15,.94-.24,1.51-.09,.56-.17,1.07-.24,1.51-.06,.39-.09,.63-.11,.62-.02,0-.02-.24,.02-.64,.04-.39,.1-.93,.2-1.52,.1-.59,.2-1.12,.28-1.5,.08-.38,.15-.62,.17-.61Z"/></g><g><path class="cls-4" d="M11.18,56.19s.65-3.52,3.28-4.39c.09-.03,.18,.05,.15,.15-.17,.55-.86,2.13-3.44,4.25Z"/><path class="cls-10" d="M13.75,52.71s-.13,.21-.36,.52c-.27,.35-.58,.76-.92,1.22-.34,.46-.65,.87-.92,1.22-.23,.31-.38,.51-.39,.5-.01,0,.1-.22,.31-.55,.21-.33,.53-.77,.89-1.25,.36-.48,.7-.9,.95-1.2,.25-.3,.42-.48,.43-.46Z"/></g><g><path class="cls-4" d="M10.47,65.02s-.4-3.56,1.87-5.16c.08-.06,.19,0,.19,.1,0,.57-.21,2.29-2.05,5.06Z"/><path class="cls-10" d="M11.92,60.94s-.06,.24-.19,.61c-.15,.41-.33,.9-.53,1.43-.2,.54-.37,1.02-.52,1.43-.13,.37-.21,.6-.23,.59-.02,0,.03-.24,.14-.62,.11-.38,.28-.89,.49-1.45,.21-.56,.41-1.06,.56-1.42,.15-.36,.26-.58,.28-.57Z"/></g><g><path class="cls-4" d="M12.45,73.91s-.27-3.57,2.05-5.09c.08-.05,.19,0,.18,.1-.03,.57-.29,2.28-2.23,4.98Z"/><path class="cls-10" d="M14.04,69.88s-.07,.23-.21,.6c-.17,.41-.36,.89-.58,1.41-.21,.53-.41,1.01-.57,1.41-.14,.36-.23,.59-.25,.58-.02,0,.04-.24,.16-.61,.12-.37,.31-.88,.54-1.43,.23-.55,.45-1.05,.61-1.4,.17-.35,.28-.57,.3-.56Z"/></g><g><path class="cls-4" d="M8.39,45.13s-3.17-1.66-3.24-4.43c0-.1,.11-.16,.19-.1,.47,.33,1.78,1.45,3.05,4.53Z"/><path class="cls-10" d="M5.82,41.65s.16,.18,.4,.5c.26,.36,.56,.77,.89,1.24,.34,.46,.64,.88,.9,1.23,.23,.31,.38,.51,.36,.52-.01,.01-.18-.16-.44-.46-.25-.3-.58-.73-.93-1.21-.35-.48-.65-.93-.86-1.26-.21-.33-.33-.54-.32-.55Z"/></g><g><path class="cls-4" d="M11.8,52.47s-3.27-1.46-3.5-4.22c0-.1,.1-.16,.18-.11,.49,.3,1.86,1.34,3.32,4.34Z"/><path class="cls-10" d="M9.02,49.16s.17,.17,.42,.47c.28,.34,.61,.74,.97,1.18,.36,.44,.69,.84,.97,1.18,.25,.3,.41,.48,.39,.5-.01,.01-.19-.15-.46-.43-.27-.28-.63-.69-1-1.16-.38-.46-.71-.89-.94-1.21-.23-.32-.36-.52-.35-.53Z"/></g><g><path class="cls-4" d="M9.92,60.66s-2.24-2.79-1.19-5.35c.04-.09,.16-.1,.21-.02,.3,.49,1.05,2.04,.98,5.37Z"/><path class="cls-10" d="M8.95,56.44s.08,.23,.16,.61c.09,.43,.2,.93,.32,1.49,.12,.56,.23,1.06,.33,1.49,.09,.38,.14,.62,.12,.62-.02,0-.1-.22-.21-.6-.11-.38-.24-.9-.37-1.49-.13-.58-.22-1.12-.29-1.5-.06-.39-.09-.63-.07-.63Z"/></g><g><path class="cls-4" d="M12.14,70.29s-3.24-1.52-3.43-4.28c0-.1,.1-.16,.18-.11,.49,.31,1.84,1.37,3.25,4.39Z"/><path class="cls-10" d="M9.42,66.93s.17,.17,.42,.48c.27,.34,.59,.75,.95,1.2,.36,.45,.68,.85,.95,1.19,.25,.3,.4,.49,.38,.5-.01,.01-.19-.15-.46-.44-.26-.29-.61-.7-.98-1.17-.37-.47-.69-.9-.92-1.22-.23-.32-.36-.52-.34-.54Z"/></g><g><path class="cls-10" d="M18.6,56.21s0,.03,0,.08c0,.06,0,.14,0,.23,0,.22-.02,.51-.04,.87-.04,.76-.1,1.83-.17,3.1h0s0,0,0,0c-.23,1.3-.89,2.73-1.78,4.13-.65,1.03-1.33,1.96-1.92,2.83-.59,.87-1.09,1.67-1.44,2.38-.35,.71-.55,1.32-.67,1.75-.06,.21-.1,.38-.12,.49-.03,.11-.04,.17-.05,.17,0,0,0-.06,.02-.18,.02-.12,.05-.29,.1-.5,.1-.43,.3-1.05,.64-1.77,.34-.72,.83-1.53,1.42-2.41,.58-.87,1.26-1.81,1.91-2.83,.88-1.39,1.54-2.8,1.78-4.08h0c.09-1.26,.16-2.33,.22-3.09,.03-.36,.05-.65,.07-.87,0-.09,.02-.17,.02-.23,0-.05,.01-.08,.01-.08Z"/><g><path class="cls-4" d="M16.67,64.35s1.37-3.31-.35-5.47c-.06-.08-.18-.05-.21,.04-.15,.55-.44,2.25,.56,5.43Z"/><path class="cls-10" d="M16.42,60.03s.06,.24,.11,.63c.05,.39,.1,.93,.15,1.52,.04,.6,.06,1.14,.06,1.53,0,.39-.02,.63-.04,.63-.02,0-.03-.24-.06-.63-.03-.44-.06-.95-.1-1.52-.04-.57-.08-1.08-.11-1.52-.02-.39-.03-.63-.01-.63Z"/><g class="cls-12"><path d="M16.67,64.35s1.37-3.31-.35-5.47c-.06-.08-.18-.05-.21,.04-.15,.55-.44,2.25,.56,5.43Z"/></g></g><g><path class="cls-4" d="M12.42,72.32s1.1-3.41-.8-5.43c-.07-.07-.19-.04-.2,.06-.11,.56-.25,2.28,1,5.37Z"/><path class="cls-10" d="M11.82,68.04s.08,.23,.16,.61c.08,.38,.18,.92,.27,1.51,.09,.59,.16,1.13,.19,1.52,.03,.39,.03,.63,.01,.64-.02,0-.05-.24-.11-.62-.06-.43-.14-.95-.22-1.51-.09-.56-.16-1.07-.23-1.51-.06-.39-.08-.63-.07-.63Z"/><g class="cls-12"><path d="M12.42,72.32s1.1-3.41-.8-5.43c-.07-.07-.19-.04-.2,.06-.11,.56-.25,2.28,1,5.37Z"/></g></g><g><path class="cls-4" d="M18.42,60.31s2.93-2.05,2.64-4.81c-.01-.1-.12-.14-.2-.08-.43,.38-1.58,1.67-2.44,4.89Z"/><g class="cls-12"><path d="M18.42,60.31s2.93-2.05,2.64-4.81c-.01-.1-.12-.14-.2-.08-.43,.38-1.58,1.67-2.44,4.89Z"/></g><path class="cls-10" d="M20.53,56.53s-.08,.23-.24,.59c-.17,.35-.41,.84-.69,1.36-.28,.53-.56,.99-.77,1.32-.21,.33-.36,.52-.37,.51-.02-.01,.1-.22,.29-.56,.21-.39,.46-.84,.73-1.34,.27-.5,.52-.96,.73-1.34,.19-.34,.31-.55,.33-.54Z"/></g><g><path class="cls-4" d="M13.6,68.94s3.54-.55,4.49-3.16c.03-.09-.05-.18-.14-.16-.55,.16-2.15,.8-4.34,3.31Z"/><g class="cls-12"><path d="M13.6,68.94s3.54-.55,4.49-3.16c.03-.09-.05-.18-.14-.16-.55,.16-2.15,.8-4.34,3.31Z"/></g><path class="cls-10" d="M17.16,66.48s-.17,.18-.48,.42c-.31,.24-.74,.57-1.22,.92-.49,.35-.94,.65-1.27,.85-.34,.2-.55,.31-.56,.3-.01-.02,.19-.15,.51-.38,.36-.25,.78-.55,1.25-.88,.46-.33,.89-.63,1.24-.88,.32-.22,.52-.36,.53-.34Z"/></g></g></g><polygon class="cls-9" points="9.41 75.46 10.43 82.11 14.48 82.1 15.85 75.46 9.41 75.46"/></g><path class="cls-10" d="M15.25,78.02s-.01,0-.03,.02c-.02,.01-.06,.04-.11,.06-.1,.05-.25,.11-.45,.14-.2,.03-.46,.02-.75-.07-.28-.09-.58-.27-.8-.58-.1-.16-.18-.35-.19-.56-.02-.2,.06-.45,.27-.57,.21-.12,.48-.08,.68,.06,.21,.14,.33,.37,.39,.61,.06,.24,.06,.5,.05,.75-.02,.26-.06,.52-.16,.77-.1,.25-.26,.49-.47,.67-.21,.18-.49,.31-.78,.33-.29,.01-.58-.09-.81-.24-.24-.15-.44-.34-.61-.55-.17-.21-.29-.46-.31-.73-.01-.26,.08-.54,.29-.7,.21-.17,.51-.16,.72-.04,.22,.11,.38,.32,.41,.54,.08,.46-.19,.87-.51,1.05-.33,.19-.69,.19-.98,.14-.29-.06-.52-.17-.7-.27-.18-.1-.3-.2-.39-.26-.08-.07-.13-.1-.13-.11,0,0,.05,.03,.14,.09,.09,.06,.22,.15,.4,.24,.18,.09,.41,.2,.69,.25,.28,.05,.62,.03,.93-.15,.3-.17,.54-.56,.46-.97-.03-.2-.18-.38-.37-.47-.19-.1-.44-.11-.61,.04-.17,.14-.26,.38-.25,.62,.01,.24,.13,.47,.29,.67,.16,.2,.35,.38,.58,.52,.22,.14,.48,.23,.75,.22,.26-.01,.52-.13,.71-.3,.2-.17,.35-.39,.44-.63,.1-.24,.14-.49,.16-.73,.02-.25,0-.49-.04-.72-.05-.22-.16-.44-.34-.55-.18-.12-.41-.15-.58-.06-.17,.1-.25,.3-.24,.49,0,.19,.07,.37,.17,.52,.2,.29,.49,.47,.76,.57,.27,.09,.52,.11,.72,.09,.4-.05,.59-.19,.6-.18Z"/></g></g><g><path d="M55.46,45.25h-3.65l-.67,1.86h-1.15l3.02-8.32h1.26l3.01,8.32h-1.15l-.67-1.86Zm-.31-.89l-1.51-4.22-1.51,4.22h3.02Z"/><path d="M63.87,40.8c.43-.25,.93-.38,1.49-.38s1.11,.14,1.59,.42,.85,.67,1.12,1.18,.41,1.1,.41,1.77-.14,1.26-.41,1.78c-.27,.52-.65,.92-1.12,1.21s-1.01,.43-1.59,.43-1.05-.13-1.48-.38c-.43-.25-.75-.57-.98-.94v4.33h-1.09v-9.7h1.09v1.21c.22-.38,.54-.69,.97-.94Zm3.2,1.7c-.2-.37-.47-.65-.81-.84-.34-.19-.71-.29-1.12-.29s-.77,.1-1.11,.29c-.34,.2-.61,.48-.82,.85-.2,.37-.31,.8-.31,1.29s.1,.93,.31,1.3c.2,.37,.48,.66,.82,.85,.34,.2,.71,.29,1.11,.29s.78-.1,1.12-.29c.34-.2,.61-.48,.81-.85,.2-.37,.3-.81,.3-1.31s-.1-.93-.3-1.3Z"/><path d="M71.84,40.73c.36-.21,.79-.31,1.3-.31v1.13h-.29c-1.22,0-1.84,.66-1.84,1.99v3.58h-1.09v-6.58h1.09v1.07c.19-.38,.47-.67,.82-.88Z"/><path d="M75.59,46.8c-.5-.28-.89-.68-1.18-1.19-.28-.52-.43-1.11-.43-1.79s.15-1.27,.44-1.78,.69-.91,1.19-1.19c.5-.28,1.07-.41,1.69-.41s1.19,.14,1.69,.41c.5,.28,.9,.67,1.19,1.18s.44,1.11,.44,1.79-.15,1.28-.45,1.79c-.3,.52-.71,.91-1.22,1.19-.51,.28-1.08,.42-1.7,.42s-1.17-.14-1.67-.42Zm2.78-.82c.34-.18,.62-.46,.83-.83s.32-.82,.32-1.34-.1-.98-.31-1.34c-.21-.37-.48-.64-.82-.82-.34-.18-.7-.27-1.09-.27s-.77,.09-1.1,.27c-.33,.18-.6,.45-.8,.82-.2,.37-.3,.82-.3,1.34s.1,.99,.29,1.36c.2,.37,.46,.64,.79,.82s.69,.27,1.08,.27,.76-.09,1.1-.28Z"/><path d="M82.08,42.03c.27-.51,.65-.9,1.13-1.18,.48-.28,1.04-.42,1.66-.42,.81,0,1.47,.2,2,.59,.52,.39,.87,.94,1.04,1.63h-1.18c-.11-.4-.33-.72-.65-.95-.32-.23-.73-.35-1.21-.35-.62,0-1.13,.21-1.51,.64-.38,.43-.58,1.03-.58,1.82s.19,1.4,.58,1.84c.38,.43,.89,.65,1.51,.65,.48,0,.88-.11,1.2-.34,.32-.22,.54-.54,.66-.96h1.18c-.18,.67-.53,1.21-1.06,1.61-.53,.4-1.19,.61-1.98,.61-.62,0-1.18-.14-1.66-.42-.48-.28-.86-.68-1.13-1.19s-.41-1.11-.41-1.8,.14-1.27,.41-1.78Z"/><path d="M95.19,40.53v6.58h-1.09v-.97c-.21,.34-.5,.6-.87,.79-.37,.19-.78,.28-1.23,.28-.51,0-.97-.11-1.38-.32-.41-.21-.73-.53-.97-.95-.24-.42-.35-.94-.35-1.55v-3.85h1.08v3.71c0,.65,.16,1.15,.49,1.49s.78,.52,1.34,.52,1.04-.18,1.38-.54c.34-.36,.5-.88,.5-1.57v-3.61h1.09Z"/><path d="M98.95,40.73c.36-.21,.79-.31,1.3-.31v1.13h-.29c-1.22,0-1.84,.66-1.84,1.99v3.58h-1.09v-6.58h1.09v1.07c.19-.38,.47-.67,.82-.88Z"/><path d="M101.52,42.03c.27-.51,.65-.9,1.12-1.18s1.01-.42,1.59-.42,1.08,.12,1.5,.37c.42,.25,.74,.56,.95,.94v-1.2h1.1v6.58h-1.1v-1.22c-.22,.38-.54,.7-.97,.95-.43,.25-.93,.38-1.49,.38s-1.11-.14-1.58-.43c-.47-.29-.84-.69-1.12-1.21-.27-.52-.41-1.11-.41-1.78s.14-1.26,.41-1.77Zm4.86,.49c-.2-.37-.47-.65-.81-.85-.34-.2-.71-.29-1.12-.29s-.78,.1-1.12,.29c-.34,.19-.6,.47-.8,.84-.2,.37-.3,.8-.3,1.3s.1,.94,.3,1.31c.2,.37,.47,.66,.8,.85,.34,.2,.71,.29,1.12,.29s.78-.1,1.12-.29c.34-.2,.61-.48,.81-.85,.2-.37,.3-.81,.3-1.3s-.1-.93-.3-1.3Z"/><path d="M114.89,40.8c.43-.25,.93-.38,1.49-.38s1.11,.14,1.59,.42,.85,.67,1.12,1.18,.41,1.1,.41,1.77-.14,1.26-.41,1.78c-.27,.52-.65,.92-1.12,1.21s-1.01,.43-1.59,.43-1.05-.13-1.48-.38c-.43-.25-.75-.57-.98-.94v4.33h-1.09v-9.7h1.09v1.21c.22-.38,.54-.69,.97-.94Zm3.2,1.7c-.2-.37-.47-.65-.81-.84-.34-.19-.71-.29-1.12-.29s-.77,.1-1.11,.29c-.34,.2-.61,.48-.82,.85-.2,.37-.31,.8-.31,1.29s.1,.93,.31,1.3c.2,.37,.48,.66,.82,.85,.34,.2,.71,.29,1.11,.29s.78-.1,1.12-.29c.34-.2,.61-.48,.81-.85,.2-.37,.3-.81,.3-1.31s-.1-.93-.3-1.3Z"/><path d="M126.91,44.23h-5.26c.04,.65,.26,1.15,.67,1.52,.4,.36,.89,.55,1.47,.55,.47,0,.87-.11,1.18-.33,.32-.22,.54-.51,.67-.88h1.18c-.18,.63-.53,1.15-1.06,1.54-.53,.4-1.18,.59-1.97,.59-.62,0-1.18-.14-1.67-.42-.49-.28-.88-.68-1.16-1.19-.28-.52-.42-1.11-.42-1.79s.14-1.28,.41-1.79,.65-.91,1.15-1.18c.49-.28,1.06-.41,1.7-.41s1.18,.14,1.66,.41c.48,.27,.85,.65,1.11,1.12,.26,.48,.39,1.01,.39,1.61,0,.21-.01,.43-.04,.66Zm-1.37-1.96c-.18-.3-.43-.53-.75-.68-.32-.16-.67-.23-1.05-.23-.55,0-1.02,.18-1.41,.53-.39,.35-.61,.84-.67,1.46h4.15c0-.42-.09-.77-.28-1.07Z"/><path d="M129.48,38.23v8.88h-1.09v-8.88h1.09Z"/><path d="M132.53,46.8c-.5-.28-.89-.68-1.18-1.19-.28-.52-.43-1.11-.43-1.79s.15-1.27,.44-1.78,.69-.91,1.19-1.19c.5-.28,1.07-.41,1.69-.41s1.19,.14,1.69,.41c.5,.28,.9,.67,1.19,1.18s.44,1.11,.44,1.79-.15,1.28-.45,1.79c-.3,.52-.71,.91-1.22,1.19-.51,.28-1.08,.42-1.7,.42s-1.17-.14-1.67-.42Zm2.78-.82c.34-.18,.62-.46,.83-.83s.32-.82,.32-1.34-.1-.98-.31-1.34c-.21-.37-.48-.64-.82-.82-.34-.18-.7-.27-1.09-.27s-.77,.09-1.1,.27c-.33,.18-.6,.45-.8,.82-.2,.37-.3,.82-.3,1.34s.1,.99,.29,1.36c.2,.37,.46,.64,.79,.82s.69,.27,1.08,.27,.76-.09,1.1-.28Z"/><path d="M143.19,46.96c-.4-.17-.72-.41-.95-.72-.23-.31-.36-.66-.38-1.06h1.13c.03,.33,.19,.6,.46,.8,.28,.21,.64,.31,1.09,.31,.42,0,.74-.09,.98-.28,.24-.18,.36-.42,.36-.7s-.13-.5-.38-.64c-.26-.14-.65-.28-1.19-.41-.49-.13-.89-.26-1.19-.39-.31-.13-.57-.33-.79-.59-.22-.26-.33-.6-.33-1.03,0-.34,.1-.64,.3-.92,.2-.28,.48-.5,.85-.67,.37-.16,.79-.25,1.26-.25,.73,0,1.32,.18,1.76,.55,.45,.37,.69,.87,.72,1.51h-1.09c-.02-.34-.16-.62-.41-.83s-.59-.31-1.01-.31c-.39,0-.7,.08-.94,.25-.23,.17-.35,.39-.35,.66,0,.22,.07,.39,.21,.53,.14,.14,.32,.25,.53,.34s.51,.18,.88,.28c.47,.13,.86,.25,1.15,.38s.55,.31,.76,.56,.32,.57,.33,.97c0,.36-.1,.68-.3,.97-.2,.29-.48,.51-.85,.68-.36,.16-.78,.25-1.25,.25-.5,0-.96-.09-1.36-.26Z"/><path d="M154.45,44.23h-5.26c.04,.65,.26,1.15,.67,1.52,.4,.36,.89,.55,1.47,.55,.47,0,.87-.11,1.18-.33,.32-.22,.54-.51,.67-.88h1.18c-.18,.63-.53,1.15-1.06,1.54-.53,.4-1.18,.59-1.97,.59-.62,0-1.18-.14-1.67-.42-.49-.28-.88-.68-1.16-1.19-.28-.52-.42-1.11-.42-1.79s.14-1.28,.41-1.79,.65-.91,1.15-1.18c.49-.28,1.06-.41,1.7-.41s1.18,.14,1.66,.41c.48,.27,.85,.65,1.11,1.12,.26,.48,.39,1.01,.39,1.61,0,.21-.01,.43-.04,.66Zm-1.37-1.96c-.18-.3-.43-.53-.75-.68-.32-.16-.67-.23-1.05-.23-.55,0-1.02,.18-1.41,.53-.39,.35-.61,.84-.67,1.46h4.15c0-.42-.09-.77-.28-1.07Z"/><path d="M157.84,40.73c.36-.21,.79-.31,1.3-.31v1.13h-.29c-1.22,0-1.84,.66-1.84,1.99v3.58h-1.09v-6.58h1.09v1.07c.19-.38,.47-.67,.82-.88Z"/><path d="M162.85,46.1l2.04-5.57h1.16l-2.58,6.58h-1.27l-2.58-6.58h1.18l2.05,5.57Z"/><path d="M167.17,39.25c-.14-.14-.22-.32-.22-.53s.07-.38,.22-.53,.32-.22,.53-.22,.37,.07,.51,.22c.14,.14,.21,.32,.21,.53s-.07,.38-.21,.53c-.14,.14-.31,.22-.51,.22s-.38-.07-.53-.22Zm1.06,1.28v6.58h-1.09v-6.58h1.09Z"/><path d="M174.08,45.96c.32-.22,.54-.54,.66-.96h1.18c-.16,.62-.47,1.13-.94,1.53-.47,.4-1.05,.62-1.76,.68v.6c.47,0,.85,.09,1.13,.3,.28,.21,.42,.5,.42,.89s-.14,.68-.41,.9c-.27,.22-.62,.34-1.06,.34h-1.38v-.71h1.16c.26,0,.46-.04,.58-.12s.19-.22,.19-.41-.06-.32-.19-.4-.32-.12-.58-.12h-.6v-1.28c-.55-.06-1.04-.23-1.46-.52-.42-.29-.75-.68-.99-1.18-.24-.49-.35-1.05-.35-1.69,0-.68,.14-1.27,.41-1.78s.65-.9,1.13-1.18c.48-.28,1.04-.42,1.66-.42,.81,0,1.47,.2,2,.59,.52,.39,.87,.94,1.04,1.63h-1.18c-.11-.4-.33-.72-.65-.95-.32-.23-.73-.35-1.21-.35-.62,0-1.13,.21-1.51,.64-.38,.43-.58,1.03-.58,1.82s.19,1.4,.58,1.84c.38,.43,.89,.65,1.51,.65,.48,0,.88-.11,1.2-.34Z"/><path d="M178.56,46.8c-.5-.28-.89-.68-1.18-1.19-.28-.52-.43-1.11-.43-1.79s.15-1.27,.44-1.78,.69-.91,1.19-1.19c.5-.28,1.07-.41,1.69-.41s1.19,.14,1.69,.41c.5,.28,.9,.67,1.19,1.18s.44,1.11,.44,1.79-.15,1.28-.45,1.79c-.3,.52-.71,.91-1.22,1.19-.51,.28-1.08,.42-1.7,.42s-1.17-.14-1.67-.42Zm2.78-.82c.34-.18,.62-.46,.83-.83s.32-.82,.32-1.34-.1-.98-.31-1.34c-.21-.37-.48-.64-.82-.82-.34-.18-.7-.27-1.09-.27s-.77,.09-1.1,.27c-.33,.18-.6,.45-.8,.82-.2,.37-.3,.82-.3,1.34s.1,.99,.29,1.36c.2,.37,.46,.64,.79,.82s.69,.27,1.08,.27,.76-.09,1.1-.28Z"/><path d="M190.31,40.8c.43-.25,.93-.38,1.49-.38s1.11,.14,1.59,.42,.85,.67,1.12,1.18,.41,1.1,.41,1.77-.14,1.26-.41,1.78c-.27,.52-.65,.92-1.12,1.21s-1.01,.43-1.59,.43-1.05-.13-1.48-.38c-.43-.25-.75-.57-.98-.94v4.33h-1.09v-9.7h1.09v1.21c.22-.38,.54-.69,.97-.94Zm3.2,1.7c-.2-.37-.47-.65-.81-.84-.34-.19-.71-.29-1.12-.29s-.77,.1-1.11,.29c-.34,.2-.61,.48-.82,.85-.2,.37-.31,.8-.31,1.29s.1,.93,.31,1.3c.2,.37,.48,.66,.82,.85,.34,.2,.71,.29,1.11,.29s.78-.1,1.12-.29c.34-.2,.61-.48,.81-.85,.2-.37,.3-.81,.3-1.31s-.1-.93-.3-1.3Z"/><path d="M196.36,42.03c.27-.51,.65-.9,1.12-1.18s1.01-.42,1.59-.42,1.08,.12,1.5,.37c.42,.25,.74,.56,.95,.94v-1.2h1.1v6.58h-1.1v-1.22c-.22,.38-.54,.7-.97,.95-.43,.25-.93,.38-1.49,.38s-1.11-.14-1.58-.43c-.47-.29-.84-.69-1.12-1.21-.27-.52-.41-1.11-.41-1.78s.14-1.26,.41-1.77Zm4.86,.49c-.2-.37-.47-.65-.81-.85-.34-.2-.71-.29-1.12-.29s-.78,.1-1.12,.29c-.34,.19-.6,.47-.8,.84-.2,.37-.3,.8-.3,1.3s.1,.94,.3,1.31c.2,.37,.47,.66,.8,.85,.34,.2,.71,.29,1.12,.29s.78-.1,1.12-.29c.34-.2,.61-.48,.81-.85,.2-.37,.3-.81,.3-1.3s-.1-.93-.3-1.3Z"/><path d="M206.39,40.73c.36-.21,.79-.31,1.3-.31v1.13h-.29c-1.22,0-1.84,.66-1.84,1.99v3.58h-1.09v-6.58h1.09v1.07c.19-.38,.47-.67,.82-.88Z"/><path d="M208.95,42.03c.27-.51,.65-.9,1.12-1.18s1.01-.42,1.59-.42,1.08,.12,1.5,.37c.42,.25,.74,.56,.95,.94v-1.2h1.1v6.58h-1.1v-1.22c-.22,.38-.54,.7-.97,.95-.43,.25-.93,.38-1.49,.38s-1.11-.14-1.58-.43c-.47-.29-.84-.69-1.12-1.21-.27-.52-.41-1.11-.41-1.78s.14-1.26,.41-1.77Zm4.86,.49c-.2-.37-.47-.65-.81-.85-.34-.2-.71-.29-1.12-.29s-.78,.1-1.12,.29c-.34,.19-.6,.47-.8,.84-.2,.37-.3,.8-.3,1.3s.1,.94,.3,1.31c.2,.37,.47,.66,.8,.85,.34,.2,.71,.29,1.12,.29s.78-.1,1.12-.29c.34-.2,.61-.48,.81-.85,.2-.37,.3-.81,.3-1.3s-.1-.93-.3-1.3Z"/><path d="M220.27,42.03c.27-.51,.65-.9,1.12-1.18s1.01-.42,1.6-.42,1.07,.13,1.49,.38c.43,.25,.74,.56,.94,.93v-1.2h1.1v9.7h-1.1v-4.33c-.21,.37-.53,.68-.96,.94-.43,.26-.94,.38-1.51,.38s-1.1-.14-1.57-.43c-.47-.29-.84-.69-1.12-1.21-.27-.52-.41-1.11-.41-1.78s.14-1.26,.41-1.77Zm4.86,.49c-.2-.37-.47-.65-.81-.85-.34-.2-.71-.29-1.12-.29s-.78,.1-1.12,.29c-.34,.19-.6,.47-.8,.84-.2,.37-.3,.8-.3,1.3s.1,.94,.3,1.31c.2,.37,.47,.66,.8,.85,.34,.2,.71,.29,1.12,.29s.78-.1,1.12-.29c.34-.2,.61-.48,.81-.85,.2-.37,.3-.81,.3-1.3s-.1-.93-.3-1.3Z"/><path d="M234.21,40.53v6.58h-1.09v-.97c-.21,.34-.5,.6-.87,.79-.37,.19-.78,.28-1.23,.28-.51,0-.97-.11-1.38-.32-.41-.21-.73-.53-.97-.95-.24-.42-.35-.94-.35-1.55v-3.85h1.08v3.71c0,.65,.16,1.15,.49,1.49s.78,.52,1.34,.52,1.04-.18,1.38-.54c.34-.36,.5-.88,.5-1.57v-3.61h1.09Z"/><path d="M236.06,42.03c.27-.51,.65-.9,1.12-1.18s1.01-.42,1.59-.42,1.08,.12,1.5,.37c.42,.25,.74,.56,.95,.94v-1.2h1.1v6.58h-1.1v-1.22c-.22,.38-.54,.7-.97,.95-.43,.25-.93,.38-1.49,.38s-1.11-.14-1.58-.43c-.47-.29-.84-.69-1.12-1.21-.27-.52-.41-1.11-.41-1.78s.14-1.26,.41-1.77Zm4.86,.49c-.2-.37-.47-.65-.81-.85-.34-.2-.71-.29-1.12-.29s-.78,.1-1.12,.29c-.34,.19-.6,.47-.8,.84-.2,.37-.3,.8-.3,1.3s.1,.94,.3,1.31c.2,.37,.47,.66,.8,.85,.34,.2,.71,.29,1.12,.29s.78-.1,1.12-.29c.34-.2,.61-.48,.81-.85,.2-.37,.3-.81,.3-1.3s-.1-.93-.3-1.3Z"/><path d="M245.26,38.23v8.88h-1.09v-8.88h1.09Z"/><path d="M247.12,42.03c.27-.51,.65-.9,1.12-1.18s1.01-.42,1.6-.42,1.07,.13,1.49,.38c.43,.25,.74,.56,.94,.93v-1.2h1.1v9.7h-1.1v-4.33c-.21,.37-.53,.68-.96,.94-.43,.26-.94,.38-1.51,.38s-1.1-.14-1.57-.43c-.47-.29-.84-.69-1.12-1.21-.27-.52-.41-1.11-.41-1.78s.14-1.26,.41-1.77Zm4.86,.49c-.2-.37-.47-.65-.81-.85-.34-.2-.71-.29-1.12-.29s-.78,.1-1.12,.29c-.34,.19-.6,.47-.8,.84-.2,.37-.3,.8-.3,1.3s.1,.94,.3,1.31c.2,.37,.47,.66,.8,.85,.34,.2,.71,.29,1.12,.29s.78-.1,1.12-.29c.34-.2,.61-.48,.81-.85,.2-.37,.3-.81,.3-1.3s-.1-.93-.3-1.3Z"/><path d="M261.07,40.53v6.58h-1.09v-.97c-.21,.34-.5,.6-.87,.79-.37,.19-.78,.28-1.23,.28-.51,0-.97-.11-1.38-.32-.41-.21-.73-.53-.97-.95-.24-.42-.35-.94-.35-1.55v-3.85h1.08v3.71c0,.65,.16,1.15,.49,1.49s.78,.52,1.34,.52,1.04-.18,1.38-.54c.34-.36,.5-.88,.5-1.57v-3.61h1.09Z"/><path d="M268.88,44.23h-5.26c.04,.65,.26,1.15,.67,1.52,.4,.36,.89,.55,1.47,.55,.47,0,.87-.11,1.18-.33,.32-.22,.54-.51,.67-.88h1.18c-.18,.63-.53,1.15-1.06,1.54-.53,.4-1.18,.59-1.97,.59-.62,0-1.18-.14-1.67-.42-.49-.28-.88-.68-1.16-1.19-.28-.52-.42-1.11-.42-1.79s.14-1.28,.41-1.79,.65-.91,1.15-1.18c.49-.28,1.06-.41,1.7-.41s1.18,.14,1.66,.41c.48,.27,.85,.65,1.11,1.12,.26,.48,.39,1.01,.39,1.61,0,.21-.01,.43-.04,.66Zm-1.37-1.96c-.18-.3-.43-.53-.75-.68-.32-.16-.67-.23-1.05-.23-.55,0-1.02,.18-1.41,.53-.39,.35-.61,.84-.67,1.46h4.15c0-.42-.09-.77-.28-1.07Z"/><path d="M272.27,40.73c.36-.21,.79-.31,1.3-.31v1.13h-.29c-1.22,0-1.84,.66-1.84,1.99v3.58h-1.09v-6.58h1.09v1.07c.19-.38,.47-.67,.82-.88Z"/><path d="M279.01,46.96c-.4-.17-.72-.41-.95-.72-.23-.31-.36-.66-.38-1.06h1.13c.03,.33,.19,.6,.46,.8,.28,.21,.64,.31,1.09,.31,.42,0,.74-.09,.98-.28,.24-.18,.36-.42,.36-.7s-.13-.5-.38-.64c-.26-.14-.65-.28-1.19-.41-.49-.13-.89-.26-1.19-.39-.31-.13-.57-.33-.79-.59-.22-.26-.33-.6-.33-1.03,0-.34,.1-.64,.3-.92,.2-.28,.48-.5,.85-.67,.37-.16,.79-.25,1.26-.25,.73,0,1.32,.18,1.76,.55,.45,.37,.69,.87,.72,1.51h-1.09c-.02-.34-.16-.62-.41-.83s-.59-.31-1.01-.31c-.39,0-.7,.08-.94,.25-.23,.17-.35,.39-.35,.66,0,.22,.07,.39,.21,.53,.14,.14,.32,.25,.53,.34s.51,.18,.88,.28c.47,.13,.86,.25,1.15,.38s.55,.31,.76,.56,.32,.57,.33,.97c0,.36-.1,.68-.3,.97-.2,.29-.48,.51-.85,.68-.36,.16-.78,.25-1.25,.25-.5,0-.96-.09-1.36-.26Z"/><path d="M284.33,39.25c-.14-.14-.22-.32-.22-.53s.07-.38,.22-.53,.32-.22,.53-.22,.37,.07,.51,.22c.14,.14,.21,.32,.21,.53s-.07,.38-.21,.53c-.14,.14-.31,.22-.51,.22s-.38-.07-.53-.22Zm1.06,1.28v6.58h-1.09v-6.58h1.09Z"/><path d="M288.58,41.43v3.88c0,.32,.07,.55,.2,.68,.14,.13,.37,.2,.71,.2h.8v.92h-.98c-.61,0-1.06-.14-1.37-.42-.3-.28-.46-.74-.46-1.38v-3.88h-.85v-.9h.85v-1.66h1.09v1.66h1.72v.9h-1.72Z"/><path d="M297.45,40.53v6.58h-1.09v-.97c-.21,.34-.5,.6-.87,.79-.37,.19-.78,.28-1.23,.28-.51,0-.97-.11-1.38-.32-.41-.21-.73-.53-.97-.95-.24-.42-.35-.94-.35-1.55v-3.85h1.08v3.71c0,.65,.16,1.15,.49,1.49s.78,.52,1.34,.52,1.04-.18,1.38-.54c.34-.36,.5-.88,.5-1.57v-3.61h1.09Z"/><path d="M299.3,42.03c.27-.51,.65-.9,1.12-1.18s1.01-.42,1.59-.42,1.08,.12,1.5,.37c.42,.25,.74,.56,.95,.94v-1.2h1.1v6.58h-1.1v-1.22c-.22,.38-.54,.7-.97,.95-.43,.25-.93,.38-1.49,.38s-1.11-.14-1.58-.43c-.47-.29-.84-.69-1.12-1.21-.27-.52-.41-1.11-.41-1.78s.14-1.26,.41-1.77Zm4.86,.49c-.2-.37-.47-.65-.81-.85-.34-.2-.71-.29-1.12-.29s-.78,.1-1.12,.29c-.34,.19-.6,.47-.8,.84-.2,.37-.3,.8-.3,1.3s.1,.94,.3,1.31c.2,.37,.47,.66,.8,.85,.34,.2,.71,.29,1.12,.29s.78-.1,1.12-.29c.34-.2,.61-.48,.81-.85,.2-.37,.3-.81,.3-1.3s-.1-.93-.3-1.3Z"/><path d="M311.41,45.96c.32-.22,.54-.54,.66-.96h1.18c-.16,.62-.47,1.13-.94,1.53-.47,.4-1.05,.62-1.76,.68v.6c.47,0,.85,.09,1.13,.3,.28,.21,.42,.5,.42,.89s-.14,.68-.41,.9c-.27,.22-.62,.34-1.06,.34h-1.38v-.71h1.16c.26,0,.46-.04,.58-.12s.19-.22,.19-.41-.06-.32-.19-.4-.32-.12-.58-.12h-.6v-1.28c-.55-.06-1.04-.23-1.46-.52-.42-.29-.75-.68-.99-1.18-.24-.49-.35-1.05-.35-1.69,0-.68,.14-1.27,.41-1.78s.65-.9,1.13-1.18c.48-.28,1.04-.42,1.66-.42,.81,0,1.47,.2,2,.59,.52,.39,.87,.94,1.04,1.63h-1.18c-.11-.4-.33-.72-.65-.95-.32-.23-.73-.35-1.21-.35-.62,0-1.13,.21-1.51,.64-.38,.43-.58,1.03-.58,1.82s.19,1.4,.58,1.84c.38,.43,.89,.65,1.51,.65,.48,0,.88-.11,1.2-.34Z"/><path d="M314.69,42.03c.27-.51,.65-.9,1.12-1.18s1.01-.42,1.59-.42,1.08,.12,1.5,.37c.42,.25,.74,.56,.95,.94v-1.2h1.1v6.58h-1.1v-1.22c-.22,.38-.54,.7-.97,.95-.43,.25-.93,.38-1.49,.38s-1.11-.14-1.58-.43c-.47-.29-.84-.69-1.12-1.21-.27-.52-.41-1.11-.41-1.78s.14-1.26,.41-1.77Zm4.86,.49c-.2-.37-.47-.65-.81-.85-.34-.2-.71-.29-1.12-.29s-.78,.1-1.12,.29c-.34,.19-.6,.47-.8,.84-.2,.37-.3,.8-.3,1.3s.1,.94,.3,1.31c.2,.37,.47,.66,.8,.85,.34,.2,.71,.29,1.12,.29s.78-.1,1.12-.29c.34-.2,.61-.48,.81-.85,.2-.37,.3-.81,.3-1.3s-.1-.93-.3-1.3Zm-3.08-3.62c.21-.22,.48-.32,.8-.32,.15,0,.28,.03,.39,.08s.24,.13,.39,.22c.11,.08,.21,.14,.3,.19s.18,.07,.29,.07c.14,0,.25-.04,.35-.13,.1-.09,.16-.22,.18-.38h.62c-.05,.4-.18,.71-.4,.92-.22,.22-.48,.32-.8,.32-.15,0-.29-.03-.4-.08-.12-.05-.25-.13-.39-.23-.13-.08-.23-.14-.31-.18-.08-.04-.17-.06-.27-.06-.14,0-.25,.04-.34,.13-.09,.09-.15,.22-.17,.4h-.64c.06-.41,.19-.72,.4-.94Z"/><path d="M324,46.8c-.5-.28-.89-.68-1.18-1.19-.28-.52-.43-1.11-.43-1.79s.15-1.27,.44-1.78,.69-.91,1.19-1.19c.5-.28,1.07-.41,1.69-.41s1.19,.14,1.69,.41c.5,.28,.9,.67,1.19,1.18s.44,1.11,.44,1.79-.15,1.28-.45,1.79c-.3,.52-.71,.91-1.22,1.19-.51,.28-1.08,.42-1.7,.42s-1.17-.14-1.67-.42Zm2.78-.82c.34-.18,.62-.46,.83-.83s.32-.82,.32-1.34-.1-.98-.31-1.34c-.21-.37-.48-.64-.82-.82-.34-.18-.7-.27-1.09-.27s-.77,.09-1.1,.27c-.33,.18-.6,.45-.8,.82-.2,.37-.3,.82-.3,1.34s.1,.99,.29,1.36c.2,.37,.46,.64,.79,.82s.69,.27,1.08,.27,.76-.09,1.1-.28Z"/><path d="M333.69,42.03c.27-.51,.65-.9,1.12-1.18s1.01-.42,1.6-.42,1.07,.13,1.49,.38c.43,.25,.74,.56,.94,.93v-1.2h1.1v9.7h-1.1v-4.33c-.21,.37-.53,.68-.96,.94-.43,.26-.94,.38-1.51,.38s-1.1-.14-1.57-.43c-.47-.29-.84-.69-1.12-1.21-.27-.52-.41-1.11-.41-1.78s.14-1.26,.41-1.77Zm4.86,.49c-.2-.37-.47-.65-.81-.85-.34-.2-.71-.29-1.12-.29s-.78,.1-1.12,.29c-.34,.19-.6,.47-.8,.84-.2,.37-.3,.8-.3,1.3s.1,.94,.3,1.31c.2,.37,.47,.66,.8,.85,.34,.2,.71,.29,1.12,.29s.78-.1,1.12-.29c.34-.2,.61-.48,.81-.85,.2-.37,.3-.81,.3-1.3s-.1-.93-.3-1.3Z"/><path d="M347.63,40.53v6.58h-1.09v-.97c-.21,.34-.5,.6-.87,.79-.37,.19-.78,.28-1.23,.28-.51,0-.97-.11-1.38-.32-.41-.21-.73-.53-.97-.95-.24-.42-.35-.94-.35-1.55v-3.85h1.08v3.71c0,.65,.16,1.15,.49,1.49s.78,.52,1.34,.52,1.04-.18,1.38-.54c.34-.36,.5-.88,.5-1.57v-3.61h1.09Z"/><path d="M355.45,44.23h-5.26c.04,.65,.26,1.15,.67,1.52,.4,.36,.89,.55,1.47,.55,.47,0,.87-.11,1.18-.33,.32-.22,.54-.51,.67-.88h1.18c-.18,.63-.53,1.15-1.06,1.54-.53,.4-1.18,.59-1.97,.59-.62,0-1.18-.14-1.67-.42-.49-.28-.88-.68-1.16-1.19-.28-.52-.42-1.11-.42-1.79s.14-1.28,.41-1.79,.65-.91,1.15-1.18c.49-.28,1.06-.41,1.7-.41s1.18,.14,1.66,.41c.48,.27,.85,.65,1.11,1.12,.26,.48,.39,1.01,.39,1.61,0,.21-.01,.43-.04,.66Zm-1.37-1.96c-.18-.3-.43-.53-.75-.68-.32-.16-.67-.23-1.05-.23-.55,0-1.02,.18-1.41,.53-.39,.35-.61,.84-.67,1.46h4.15c0-.42-.09-.77-.28-1.07Z"/><path d="M50.52,56.43c.27-.51,.65-.9,1.12-1.18s1.01-.42,1.59-.42,1.08,.12,1.5,.37c.42,.25,.74,.56,.95,.94v-1.2h1.1v6.58h-1.1v-1.22c-.22,.38-.54,.7-.97,.95-.43,.25-.93,.38-1.49,.38s-1.11-.14-1.58-.43c-.47-.29-.84-.69-1.12-1.21-.27-.52-.41-1.11-.41-1.78s.14-1.26,.41-1.77Zm4.86,.49c-.2-.37-.47-.65-.81-.85-.34-.2-.71-.29-1.12-.29s-.78,.1-1.12,.29c-.34,.19-.6,.47-.8,.84-.2,.37-.3,.8-.3,1.3s.1,.94,.3,1.31c.2,.37,.47,.66,.8,.85,.34,.2,.71,.29,1.12,.29s.78-.1,1.12-.29c.34-.2,.61-.48,.81-.85,.2-.37,.3-.81,.3-1.3s-.1-.93-.3-1.3Z"/><path d="M60.69,55.2c.43-.25,.93-.38,1.49-.38s1.11,.14,1.59,.42,.85,.67,1.12,1.18,.41,1.1,.41,1.77-.14,1.26-.41,1.78c-.27,.52-.65,.92-1.12,1.21s-1.01,.43-1.59,.43-1.05-.13-1.48-.38c-.43-.25-.75-.57-.98-.94v4.33h-1.09v-9.7h1.09v1.21c.22-.38,.54-.69,.97-.94Zm3.2,1.7c-.2-.37-.47-.65-.81-.84-.34-.19-.71-.29-1.12-.29s-.77,.1-1.11,.29c-.34,.2-.61,.48-.82,.85-.2,.37-.31,.8-.31,1.29s.1,.93,.31,1.3c.2,.37,.48,.66,.82,.85,.34,.2,.71,.29,1.11,.29s.78-.1,1.12-.29c.34-.2,.61-.48,.81-.85,.2-.37,.3-.81,.3-1.31s-.1-.93-.3-1.3Z"/><path d="M66.74,56.43c.27-.51,.65-.9,1.12-1.18s1.01-.42,1.59-.42,1.08,.12,1.5,.37c.42,.25,.74,.56,.95,.94v-1.2h1.1v6.58h-1.1v-1.22c-.22,.38-.54,.7-.97,.95-.43,.25-.93,.38-1.49,.38s-1.11-.14-1.58-.43c-.47-.29-.84-.69-1.12-1.21-.27-.52-.41-1.11-.41-1.78s.14-1.26,.41-1.77Zm4.86,.49c-.2-.37-.47-.65-.81-.85-.34-.2-.71-.29-1.12-.29s-.78,.1-1.12,.29c-.34,.19-.6,.47-.8,.84-.2,.37-.3,.8-.3,1.3s.1,.94,.3,1.31c.2,.37,.47,.66,.8,.85,.34,.2,.71,.29,1.12,.29s.78-.1,1.12-.29c.34-.2,.61-.48,.81-.85,.2-.37,.3-.81,.3-1.3s-.1-.93-.3-1.3Z"/><path d="M76.77,55.13c.36-.21,.79-.31,1.3-.31v1.13h-.29c-1.22,0-1.84,.66-1.84,1.99v3.58h-1.09v-6.58h1.09v1.07c.19-.38,.47-.67,.82-.88Z"/><path d="M85.29,58.63h-5.26c.04,.65,.26,1.15,.67,1.52,.4,.36,.89,.55,1.47,.55,.47,0,.87-.11,1.18-.33,.32-.22,.54-.51,.67-.88h1.18c-.18,.63-.53,1.15-1.06,1.54-.53,.4-1.18,.59-1.97,.59-.62,0-1.18-.14-1.67-.42-.49-.28-.88-.68-1.16-1.19-.28-.52-.42-1.11-.42-1.79s.14-1.28,.41-1.79,.65-.91,1.15-1.18c.49-.28,1.06-.41,1.7-.41s1.18,.14,1.66,.41c.48,.27,.85,.65,1.11,1.12,.26,.48,.39,1.01,.39,1.61,0,.21-.01,.43-.04,.66Zm-1.37-1.96c-.18-.3-.43-.53-.75-.68-.32-.16-.67-.23-1.05-.23-.55,0-1.02,.18-1.41,.53-.39,.35-.61,.84-.67,1.46h4.15c0-.42-.09-.77-.28-1.07Z"/><path d="M90.76,60.36c.32-.22,.54-.54,.66-.96h1.18c-.16,.62-.47,1.13-.94,1.53-.47,.4-1.05,.62-1.76,.68v.6c.47,0,.85,.09,1.13,.3,.28,.21,.42,.5,.42,.89s-.14,.68-.41,.9c-.27,.22-.62,.34-1.06,.34h-1.38v-.71h1.16c.26,0,.46-.04,.58-.12s.19-.22,.19-.41-.06-.32-.19-.4-.32-.12-.58-.12h-.6v-1.28c-.55-.06-1.04-.23-1.46-.52-.42-.29-.75-.68-.99-1.18-.24-.49-.35-1.05-.35-1.69,0-.68,.14-1.27,.41-1.78s.65-.9,1.13-1.18c.48-.28,1.04-.42,1.66-.42,.81,0,1.47,.2,2,.59,.52,.39,.87,.94,1.04,1.63h-1.18c-.11-.4-.33-.72-.65-.95-.32-.23-.73-.35-1.21-.35-.62,0-1.13,.21-1.51,.64-.38,.43-.58,1.03-.58,1.82s.19,1.4,.58,1.84c.38,.43,.89,.65,1.51,.65,.48,0,.88-.11,1.2-.34Z"/><path d="M94.05,56.43c.27-.51,.65-.9,1.12-1.18s1.01-.42,1.59-.42,1.08,.12,1.5,.37c.42,.25,.74,.56,.95,.94v-1.2h1.1v6.58h-1.1v-1.22c-.22,.38-.54,.7-.97,.95-.43,.25-.93,.38-1.49,.38s-1.11-.14-1.58-.43c-.47-.29-.84-.69-1.12-1.21-.27-.52-.41-1.11-.41-1.78s.14-1.26,.41-1.77Zm4.86,.49c-.2-.37-.47-.65-.81-.85-.34-.2-.71-.29-1.12-.29s-.78,.1-1.12,.29c-.34,.19-.6,.47-.8,.84-.2,.37-.3,.8-.3,1.3s.1,.94,.3,1.31c.2,.37,.47,.66,.8,.85,.34,.2,.71,.29,1.12,.29s.78-.1,1.12-.29c.34-.2,.61-.48,.81-.85,.2-.37,.3-.81,.3-1.3s-.1-.93-.3-1.3Z"/><path d="M110.52,55.54c.5,.48,.74,1.18,.74,2.09v3.88h-1.08v-3.72c0-.66-.16-1.16-.49-1.51-.33-.35-.78-.52-1.34-.52s-1.03,.18-1.37,.54-.51,.88-.51,1.57v3.64h-1.09v-6.58h1.09v.94c.22-.34,.51-.6,.88-.78s.78-.28,1.23-.28c.8,0,1.45,.24,1.94,.73Z"/><path d="M113.05,56.43c.27-.51,.65-.9,1.12-1.18s1.01-.42,1.59-.42,1.08,.12,1.5,.37c.42,.25,.74,.56,.95,.94v-1.2h1.1v6.58h-1.1v-1.22c-.22,.38-.54,.7-.97,.95-.43,.25-.93,.38-1.49,.38s-1.11-.14-1.58-.43c-.47-.29-.84-.69-1.12-1.21-.27-.52-.41-1.11-.41-1.78s.14-1.26,.41-1.77Zm4.86,.49c-.2-.37-.47-.65-.81-.85-.34-.2-.71-.29-1.12-.29s-.78,.1-1.12,.29c-.34,.19-.6,.47-.8,.84-.2,.37-.3,.8-.3,1.3s.1,.94,.3,1.31c.2,.37,.47,.66,.8,.85,.34,.2,.71,.29,1.12,.29s.78-.1,1.12-.29c.34-.2,.61-.48,.81-.85,.2-.37,.3-.81,.3-1.3s-.1-.93-.3-1.3Z"/><path d="M125.34,61.36c-.4-.17-.72-.41-.95-.72-.23-.31-.36-.66-.38-1.06h1.13c.03,.33,.19,.6,.46,.8,.28,.21,.64,.31,1.09,.31,.42,0,.74-.09,.98-.28,.24-.18,.36-.42,.36-.7s-.13-.5-.38-.64c-.26-.14-.65-.28-1.19-.41-.49-.13-.89-.26-1.19-.39-.31-.13-.57-.33-.79-.59-.22-.26-.33-.6-.33-1.03,0-.34,.1-.64,.3-.92,.2-.28,.48-.5,.85-.67,.37-.16,.79-.25,1.26-.25,.73,0,1.32,.18,1.76,.55,.45,.37,.69,.87,.72,1.51h-1.09c-.02-.34-.16-.62-.41-.83s-.59-.31-1.01-.31c-.39,0-.7,.08-.94,.25-.23,.17-.35,.39-.35,.66,0,.22,.07,.39,.21,.53,.14,.14,.32,.25,.53,.34s.51,.18,.88,.28c.47,.13,.86,.25,1.15,.38s.55,.31,.76,.56,.32,.57,.33,.97c0,.36-.1,.68-.3,.97-.2,.29-.48,.51-.85,.68-.36,.16-.78,.25-1.25,.25-.5,0-.96-.09-1.36-.26Z"/><path d="M136.46,54.93v6.58h-1.09v-.97c-.21,.34-.5,.6-.87,.79-.37,.19-.78,.28-1.23,.28-.51,0-.97-.11-1.38-.32-.41-.21-.73-.53-.97-.95-.24-.42-.35-.94-.35-1.55v-3.85h1.08v3.71c0,.65,.16,1.15,.49,1.49s.78,.52,1.34,.52,1.04-.18,1.38-.54c.34-.36,.5-.88,.5-1.57v-3.61h1.09Z"/><path d="M138.31,56.43c.27-.51,.65-.9,1.12-1.18s1.01-.42,1.59-.42,1.08,.12,1.5,.37c.42,.25,.74,.56,.95,.94v-1.2h1.1v6.58h-1.1v-1.22c-.22,.38-.54,.7-.97,.95-.43,.25-.93,.38-1.49,.38s-1.11-.14-1.58-.43c-.47-.29-.84-.69-1.12-1.21-.27-.52-.41-1.11-.41-1.78s.14-1.26,.41-1.77Zm4.86,.49c-.2-.37-.47-.65-.81-.85-.34-.2-.71-.29-1.12-.29s-.78,.1-1.12,.29c-.34,.19-.6,.47-.8,.84-.2,.37-.3,.8-.3,1.3s.1,.94,.3,1.31c.2,.37,.47,.66,.8,.85,.34,.2,.71,.29,1.12,.29s.78-.1,1.12-.29c.34-.2,.61-.48,.81-.85,.2-.37,.3-.81,.3-1.3s-.1-.93-.3-1.3Z"/><path d="M152.07,60.5l2.04-5.57h1.16l-2.58,6.58h-1.27l-2.58-6.58h1.18l2.05,5.57Z"/><path d="M156.39,53.65c-.14-.14-.22-.32-.22-.53s.07-.38,.22-.53,.32-.22,.53-.22,.37,.07,.51,.22c.14,.14,.21,.32,.21,.53s-.07,.38-.21,.53c-.14,.14-.31,.22-.51,.22s-.38-.07-.53-.22Zm1.06,1.28v6.58h-1.09v-6.58h1.09Z"/><path d="M159.31,56.43c.27-.51,.65-.9,1.12-1.18s1.01-.42,1.6-.42c.51,0,.99,.12,1.43,.35,.44,.24,.78,.55,1.01,.93v-3.48h1.1v8.88h-1.1v-1.24c-.22,.39-.54,.71-.96,.97-.42,.25-.92,.38-1.49,.38s-1.11-.14-1.59-.43-.85-.69-1.12-1.21c-.27-.52-.41-1.11-.41-1.78s.14-1.26,.41-1.77Zm4.86,.49c-.2-.37-.47-.65-.81-.85-.34-.2-.71-.29-1.12-.29s-.78,.1-1.12,.29c-.34,.19-.6,.47-.8,.84-.2,.37-.3,.8-.3,1.3s.1,.94,.3,1.31c.2,.37,.47,.66,.8,.85,.34,.2,.71,.29,1.12,.29s.78-.1,1.12-.29c.34-.2,.61-.48,.81-.85,.2-.37,.3-.81,.3-1.3s-.1-.93-.3-1.3Z"/><path d="M167.42,56.43c.27-.51,.65-.9,1.12-1.18s1.01-.42,1.59-.42,1.08,.12,1.5,.37c.42,.25,.74,.56,.95,.94v-1.2h1.1v6.58h-1.1v-1.22c-.22,.38-.54,.7-.97,.95-.43,.25-.93,.38-1.49,.38s-1.11-.14-1.58-.43c-.47-.29-.84-.69-1.12-1.21-.27-.52-.41-1.11-.41-1.78s.14-1.26,.41-1.77Zm4.86,.49c-.2-.37-.47-.65-.81-.85-.34-.2-.71-.29-1.12-.29s-.78,.1-1.12,.29c-.34,.19-.6,.47-.8,.84-.2,.37-.3,.8-.3,1.3s.1,.94,.3,1.31c.2,.37,.47,.66,.8,.85,.34,.2,.71,.29,1.12,.29s.78-.1,1.12-.29c.34-.2,.61-.48,.81-.85,.2-.37,.3-.81,.3-1.3s-.1-.93-.3-1.3Z"/><path d="M175.35,61.37c-.14-.14-.22-.32-.22-.53s.07-.38,.22-.53c.14-.14,.32-.22,.53-.22s.37,.07,.51,.22c.14,.14,.21,.32,.21,.53s-.07,.38-.21,.53c-.14,.14-.31,.22-.51,.22s-.38-.07-.53-.22Z"/></g></g><g><path class="cls-1" d="M215.95,97.08h398.32c18.08,0,32.76,14.68,32.76,32.76h0c0,18.08-14.68,32.76-32.76,32.76H215.95V97.08h0Z" transform="translate(862.97 259.68) rotate(180)"/><g><g><g><path class="cls-3" d="M612.18,97.48s-2.36-.17-2.14,5.12c.22,5.28,.76,8.1,.76,8.1,0,0-.07,1.17-.98,.94-.91-.23-2.61-1.37-3.46-.52-.87,.88-.56,2.24,.6,3.84,1.16,1.6,3.57,5.19,3.79,5.52,.21,.32,.3,.92-.34,.86-.64-.06-4.99-1.53-5.56,.57-.57,2.1,3.39,6.02,3.81,6.46,.42,.44,.45,.71,.28,.98-.17,.26-1.59-.37-2.84-.74-1.25-.37-2.77-.58-3,.67-.23,1.24,1.52,4.87,8.05,8.69l3.14,1.57,2.98-1.9c6.12-4.45,7.49-8.24,7.14-9.45-.35-1.21-1.84-.85-3.05-.36-1.21,.49-2.55,1.26-2.75,1.02-.2-.25-.2-.52,.18-1,.38-.48,3.93-4.77,3.15-6.81-.78-2.03-4.96-.14-5.59-.01-.63,.12-.61-.48-.43-.82,.18-.35,2.22-4.16,3.22-5.87,.99-1.71,1.17-3.09,.21-3.88-.92-.76-2.51,.54-3.39,.86-.88,.32-1.07-.84-1.07-.84,0,0,.25-2.85-.06-8.13-.31-5.28-2.7-4.85-2.7-4.85"/><path class="cls-8" d="M612.37,102.22s0,.04,.01,.11c0,.08,.01,.19,.03,.32,.02,.29,.05,.71,.08,1.25,.07,1.08,.16,2.65,.27,4.59,.22,3.88,.47,9.24,.73,15.16,.26,5.92,.5,11.28,.69,15.16,.1,1.94,.18,3.5,.23,4.59,.03,.54,.05,.96,.06,1.25,0,.14,0,.25,.01,.33,0,.07,0,.11,0,.11,0,0,0-.04-.01-.11,0-.08-.01-.19-.03-.32-.02-.29-.05-.71-.08-1.25-.07-1.08-.16-2.65-.27-4.59-.22-3.88-.47-9.24-.73-15.16-.26-5.92-.5-11.28-.69-15.16-.1-1.94-.18-3.5-.23-4.59-.03-.54-.05-.96-.06-1.25,0-.14,0-.25-.01-.33,0-.07,0-.11,0-.11Z"/><path class="cls-8" d="M608.69,112.81s.08,.05,.2,.16c.12,.11,.29,.27,.5,.48,.41,.41,.97,.99,1.58,1.65,.59,.65,1.12,1.23,1.54,1.68,.18,.2,.34,.37,.47,.51,.11,.12,.17,.19,.16,.19,0,0-.08-.05-.2-.16-.12-.11-.29-.27-.5-.48-.41-.42-.96-1.01-1.56-1.66-.59-.64-1.13-1.22-1.55-1.67-.18-.2-.34-.37-.47-.51-.11-.12-.17-.19-.16-.2Z"/><path class="cls-8" d="M613.44,117.39s1.13-1.23,2.57-2.69c1.44-1.46,2.63-2.63,2.65-2.61,.02,.02-1.13,1.23-2.57,2.69-1.44,1.46-2.63,2.63-2.65,2.6Z"/><path class="cls-8" d="M613.43,126.5s.07-.06,.22-.14c.17-.09,.37-.21,.62-.35,.52-.29,1.23-.7,2.01-1.17,.77-.47,1.46-.93,1.96-1.26,.23-.15,.43-.28,.59-.39,.14-.09,.22-.14,.22-.13s-.07,.07-.2,.17c-.13,.1-.32,.25-.57,.42-.48,.35-1.16,.82-1.94,1.29-.78,.48-1.5,.87-2.03,1.14-.27,.14-.48,.24-.63,.31-.15,.07-.24,.11-.24,.1Z"/><path class="cls-8" d="M608.22,123.31s.08,.03,.22,.1c.14,.07,.33,.18,.57,.32,.48,.27,1.14,.65,1.86,1.08,.72,.43,1.37,.82,1.84,1.11,.23,.15,.42,.26,.55,.35,.13,.08,.2,.14,.19,.14,0,0-.08-.03-.22-.1-.14-.07-.33-.18-.57-.32-.48-.27-1.14-.65-1.86-1.08-.72-.43-1.37-.82-1.84-1.11-.23-.15-.42-.26-.55-.35-.13-.08-.2-.14-.19-.14Z"/><path class="cls-8" d="M607.19,131.35s.1,.04,.28,.13c.19,.11,.44,.24,.73,.4,.62,.35,1.46,.83,2.39,1.37,.93,.54,1.77,1.04,2.37,1.4,.29,.17,.52,.32,.71,.44,.17,.11,.26,.17,.25,.17,0,0-.1-.04-.28-.13-.19-.11-.44-.24-.73-.4-.62-.35-1.46-.83-2.39-1.37-.93-.54-1.77-1.04-2.37-1.4-.29-.17-.52-.32-.71-.44-.17-.11-.26-.17-.25-.17Z"/><path class="cls-8" d="M613.79,135.13s.09-.07,.27-.18c.2-.12,.46-.28,.76-.47,.64-.39,1.53-.94,2.5-1.57,.97-.63,1.83-1.22,2.45-1.65,.3-.21,.54-.38,.73-.51,.17-.12,.27-.18,.28-.18,0,0-.08,.08-.25,.21-.17,.13-.41,.32-.71,.54-.61,.45-1.46,1.05-2.43,1.68-.97,.63-1.86,1.17-2.52,1.54-.33,.19-.6,.33-.78,.43-.19,.1-.29,.15-.3,.14Z"/></g><g><polygon class="cls-8" points="618.52 140.56 609.82 140.56 612.66 162.05 615.68 162.05 618.52 140.56"/><path class="cls-1" d="M610.27,143.2s0,.03,.05,.08c.04,.05,.11,.11,.21,.15,.21,.09,.57,.1,.92-.11,.35-.19,.66-.57,1.13-.74,.47-.18,1.05-.15,1.6,.03,.56,.17,1.05,.46,1.49,.72,.44,.26,.85,.5,1.21,.65,.36,.16,.68,.23,.89,.26,.11,.01,.19,.02,.25,.02,.06,0,.09,0,.09,0,0-.03-.49-.02-1.19-.36-.35-.16-.75-.4-1.18-.67-.44-.27-.94-.57-1.51-.75-.57-.18-1.19-.22-1.69-.02-.25,.1-.46,.24-.64,.39-.18,.15-.34,.29-.5,.39-.32,.21-.65,.21-.85,.15-.2-.07-.26-.19-.28-.18Z"/><path class="cls-1" d="M610.59,147.16s.07-.09,.2-.23c.14-.14,.37-.32,.69-.44,.33-.13,.75-.2,1.21-.18,.47,.02,.97,.12,1.51,.21,.54,.09,1.07,.13,1.55,.06,.48-.06,.89-.2,1.22-.35,.33-.15,.57-.31,.73-.44,.16-.12,.24-.2,.23-.21-.02-.02-.35,.28-1.01,.55-.33,.13-.73,.26-1.2,.31-.46,.06-.98,.02-1.51-.07-.54-.09-1.05-.19-1.53-.2-.48-.01-.92,.08-1.25,.22-.34,.14-.57,.34-.7,.5-.06,.08-.11,.14-.13,.19-.03,.05-.04,.07-.03,.07Z"/><path class="cls-1" d="M617.53,149.28s-.08-.06-.24-.12c-.16-.06-.41-.13-.72-.15-.31-.02-.68,0-1.09,.06-.41,.07-.84,.18-1.3,.27-.46,.1-.9,.16-1.3,.15-.4-.01-.75-.1-1.03-.22-.56-.25-.76-.6-.78-.58,0,0,.03,.09,.15,.23,.11,.13,.31,.3,.59,.44,.28,.14,.65,.24,1.06,.26,.42,.02,.87-.04,1.33-.14,.46-.1,.89-.21,1.29-.28,.4-.07,.76-.1,1.06-.09,.61,.02,.96,.2,.97,.18Z"/><path class="cls-1" d="M611.36,152.26s.31-.19,.84-.09c.26,.05,.55,.18,.88,.33,.33,.15,.72,.28,1.15,.32,.85,.08,1.61-.19,2.08-.48,.24-.14,.41-.29,.52-.4,.11-.11,.16-.18,.15-.18-.02-.02-.25,.24-.72,.5-.47,.26-1.2,.51-2.02,.43-.82-.05-1.46-.54-2.03-.6-.28-.04-.51,0-.66,.06-.15,.06-.21,.12-.2,.13Z"/><path class="cls-1" d="M611.84,156.39s.29,.01,.73-.14c.44-.15,.98-.48,1.61-.73,.32-.12,.64-.2,.92-.19,.29,0,.55,.07,.74,.17,.4,.2,.52,.48,.54,.46,0,0-.01-.07-.08-.18-.07-.11-.2-.25-.41-.37-.2-.12-.48-.2-.79-.21-.31,0-.65,.07-.98,.19-.65,.26-1.18,.61-1.6,.77-.41,.18-.69,.21-.69,.24Z"/><path class="cls-1" d="M612.27,158.3s.2,.09,.55,.18c.35,.09,.83,.18,1.38,.23,.54,.05,1.04,.06,1.4,.04,.36-.02,.58-.05,.58-.07,0-.04-.88,0-1.96-.11-1.08-.1-1.93-.31-1.94-.27Z"/></g></g><g><g><rect class="cls-8" x="672.55" y="78.06" width="18.41" height="26.69"/><rect class="cls-1" x="671.63" y="78.06" width="18.41" height="26.69"/><g><rect class="cls-2" x="673.92" y="80.95" width="13.84" height="20.91"/><path class="cls-8" d="M687.75,101.86s0-.04,0-.1c0-.07,0-.17,0-.3,0-.26,0-.65,0-1.15,0-1,0-2.46-.01-4.31,0-3.69-.01-8.91-.02-15.05l.05,.05c-4.23,0-8.91,0-13.83,0h0l.05-.05c0,7.89,0,15.16-.01,20.91l-.04-.04c4.21,0,7.67,.02,10.07,.02,1.2,0,2.14,0,2.78,.01,.32,0,.56,0,.73,0,.17,0,.25,0,.25,0,0,0-.08,0-.24,0-.17,0-.41,0-.72,0-.64,0-1.58,0-2.77,.01-2.41,0-5.87,.01-10.1,.02h-.04s0-.04,0-.04c0-5.75,0-13.02-.01-20.91v-.05s.05,0,.05,0h0c4.92,0,9.61,0,13.83,0h.05v.05c0,6.16-.02,11.39-.02,15.08,0,1.84,0,3.3-.01,4.3,0,.5,0,.88,0,1.14,0,.13,0,.22,0,.29,0,.07,0,.1,0,.1Z"/></g><path class="cls-8" d="M690.09,78.06s-.11,.19-.33,.48c-.21,.29-.52,.68-.86,1.1-.35,.42-.67,.79-.91,1.06-.24,.26-.39,.42-.41,.41-.01,0,.13-.18,.35-.46,.25-.3,.55-.67,.89-1.08,.34-.41,.64-.78,.89-1.08,.23-.27,.37-.44,.38-.43Z"/><g><path class="cls-2" d="M687.83,101.79c.69,1.09,1.5,2.11,2.41,3.02"/><path class="cls-8" d="M690.24,104.81s-.17-.13-.42-.38c-.25-.25-.58-.61-.91-1.03-.33-.42-.61-.82-.8-1.11-.19-.3-.29-.49-.28-.49,.01,0,.14,.17,.34,.45,.2,.28,.49,.67,.82,1.09,.33,.42,.65,.78,.88,1.04,.23,.26,.38,.42,.37,.43Z"/></g><g><path class="cls-2" d="M671.63,104.73c.8-.99,1.61-1.98,2.41-2.98"/><path class="cls-8" d="M674.04,101.75s-.5,.7-1.17,1.52c-.67,.82-1.22,1.47-1.24,1.46-.02-.02,.5-.7,1.17-1.52,.67-.82,1.22-1.47,1.24-1.46Z"/></g><path class="cls-8" d="M671.63,78.06s.55,.61,1.17,1.4c.62,.79,1.11,1.44,1.09,1.46-.02,.02-.55-.61-1.17-1.4-.62-.79-1.11-1.44-1.09-1.46Z"/></g><g><circle class="cls-8" cx="682.4" cy="91.75" r="1.48"/><path class="cls-8" d="M684.68,86.52c0,.61-.5,1.11-1.11,1.11s-1.11-.5-1.11-1.11,.5-1.11,1.11-1.11,1.11,.5,1.11,1.11Z"/><path class="cls-8" d="M680.36,88.23c0,.44-.36,.8-.8,.8s-.8-.36-.8-.8,.36-.8,.8-.8,.8,.36,.8,.8Z"/><path class="cls-8" d="M684.79,96.64c-.19,.19-.51,.19-.71,0-.19-.19-.19-.51,0-.71,.19-.19,.51-.19,.71,0s.19,.51,0,.71Z"/><path class="cls-8" d="M678.03,92.69c0,.44-.36,.8-.8,.8s-.8-.36-.8-.8,.36-.8,.8-.8,.8,.36,.8,.8Z"/><path class="cls-8" d="M682.4,91.75s.55,.93,1.11,2.13c.56,1.2,.98,2.19,.93,2.22-.05,.02-.55-.93-1.11-2.13-.56-1.2-.98-2.19-.93-2.22Z"/><path class="cls-8" d="M682.28,91.9c0,.05-1.07,.26-2.42,.46-1.34,.2-2.44,.32-2.45,.26,0-.05,1.07-.26,2.42-.46,1.34-.2,2.44-.32,2.45-.26Z"/><path class="cls-8" d="M682.18,91.18s-.72-.52-1.41-1.37c-.69-.84-1.11-1.63-1.07-1.65,.05-.03,.54,.7,1.22,1.53,.68,.83,1.3,1.45,1.26,1.49Z"/><path class="cls-8" d="M683.57,86.52h0s0,0,0,0h0s0,.04,0,.04l-.03,.14c-.04,.17-.07,.34-.11,.52-.1,.44-.25,1.05-.42,1.71-.34,1.33-.63,2.41-.68,2.4-.06-.01,.14-1.12,.49-2.45,.17-.67,.34-1.27,.48-1.7,.07-.22,.13-.39,.18-.51,.02-.06,.04-.1,.06-.13,0-.01,.02-.03,.02-.03h0s.02,0,.01,0c0,0,0,0,0,0Z"/></g></g><g><path class="cls-5" d="M678.75,161.81l-62.15,.55-1.99-18.74c14.57-6.54,36.47-23.92,36.39-35.59-.03-4.14-2.9-8.49-6.93-8.46-4.91,.03-8.9,5.84-9.41,11.62l-19.98-3.35c.76-16.58,12.99-29.21,30.33-29.33,17.12-.12,28,12.02,28.12,28.92,.08,11.12-5.95,22.94-17.85,35.24l21.04-.47,2.43,19.61Z"/><g><path class="cls-11" d="M652.97,105.65c-.03-4.14-2.89-8.49-6.93-8.46-2.78,.02-5.26,1.89-6.99,4.56,1.45-1.34,3.17-2.17,5.02-2.19,4.03-.03,6.9,4.31,6.93,8.46,.03,3.55-1.99,7.63-5.21,11.77,4.35-4.94,7.21-9.92,7.19-14.15Z"/><path class="cls-11" d="M618.57,159.98l-1.84-17.37c-.72,.36-1.43,.7-2.12,1.01l1.99,18.74,62.15-.55-.29-2.35-59.89,.53Z"/><path class="cls-11" d="M635.14,108.57l-18.48-3.1c.3-6.66,2.47-12.69,6.06-17.52-4.78,5.16-7.68,12.09-8.03,19.89l19.98,3.35c.08-.88,.24-1.76,.47-2.63Z"/></g></g></g><g><path d="M257.56,125.69h-3.65l-.67,1.86h-1.15l3.02-8.32h1.26l3.01,8.32h-1.15l-.67-1.86Zm-.31-.89l-1.51-4.22-1.51,4.22h3.02Z"/><path d="M265.83,121.16c.36-.21,.79-.31,1.3-.31v1.13h-.29c-1.22,0-1.84,.66-1.84,1.99v3.58h-1.09v-6.58h1.09v1.07c.19-.38,.47-.67,.82-.88Z"/><path d="M274.35,124.67h-5.26c.04,.65,.26,1.15,.67,1.52,.4,.36,.89,.55,1.47,.55,.47,0,.87-.11,1.18-.33,.32-.22,.54-.51,.67-.88h1.18c-.18,.63-.53,1.15-1.06,1.54-.53,.4-1.18,.59-1.97,.59-.62,0-1.18-.14-1.67-.42-.49-.28-.88-.68-1.16-1.19-.28-.52-.42-1.11-.42-1.79s.14-1.28,.41-1.79,.65-.91,1.15-1.18c.49-.28,1.06-.41,1.7-.41s1.18,.14,1.66,.41c.48,.27,.85,.65,1.11,1.12,.26,.48,.39,1.01,.39,1.61,0,.21-.01,.43-.04,.66Zm-1.37-1.96c-.18-.3-.43-.53-.75-.68-.32-.16-.67-.23-1.05-.23-.55,0-1.02,.18-1.41,.53-.39,.35-.61,.84-.67,1.46h4.15c0-.42-.09-.77-.28-1.07Z"/><path d="M276.92,118.67v8.88h-1.09v-8.88h1.09Z"/><path d="M278.78,122.47c.27-.51,.65-.9,1.12-1.18s1.01-.42,1.59-.42,1.08,.12,1.5,.37c.42,.25,.74,.56,.95,.94v-1.2h1.1v6.58h-1.1v-1.22c-.22,.38-.54,.7-.97,.95-.43,.25-.93,.38-1.49,.38s-1.11-.14-1.58-.43c-.47-.29-.84-.69-1.12-1.21-.27-.52-.41-1.11-.41-1.78s.14-1.26,.41-1.77Zm4.86,.49c-.2-.37-.47-.65-.81-.85-.34-.2-.71-.29-1.12-.29s-.78,.1-1.12,.29c-.34,.19-.6,.47-.8,.84-.2,.37-.3,.8-.3,1.3s.1,.94,.3,1.31c.2,.37,.47,.66,.8,.85,.34,.2,.71,.29,1.12,.29s.78-.1,1.12-.29c.34-.2,.61-.48,.81-.85,.2-.37,.3-.81,.3-1.3s-.1-.93-.3-1.3Z"/><path d="M290.89,126.39c.32-.22,.54-.54,.66-.96h1.18c-.16,.62-.47,1.13-.94,1.53-.47,.4-1.05,.62-1.76,.68v.6c.47,0,.85,.09,1.13,.3,.28,.21,.42,.5,.42,.89s-.14,.68-.41,.9c-.27,.22-.62,.34-1.06,.34h-1.38v-.71h1.16c.26,0,.46-.04,.58-.12s.19-.22,.19-.41-.06-.32-.19-.4-.32-.12-.58-.12h-.6v-1.28c-.55-.06-1.04-.23-1.46-.52-.42-.29-.75-.68-.99-1.18-.24-.49-.35-1.05-.35-1.69,0-.68,.14-1.27,.41-1.78s.65-.9,1.13-1.18c.48-.28,1.04-.42,1.66-.42,.81,0,1.47,.2,2,.59,.52,.39,.87,.94,1.04,1.63h-1.18c-.11-.4-.33-.72-.65-.95-.32-.23-.73-.35-1.21-.35-.62,0-1.13,.21-1.51,.64-.38,.43-.58,1.03-.58,1.82s.19,1.4,.58,1.84c.38,.43,.89,.65,1.51,.65,.48,0,.88-.11,1.2-.34Z"/><path d="M294.17,122.47c.27-.51,.65-.9,1.12-1.18s1.01-.42,1.59-.42,1.08,.12,1.5,.37c.42,.25,.74,.56,.95,.94v-1.2h1.1v6.58h-1.1v-1.22c-.22,.38-.54,.7-.97,.95-.43,.25-.93,.38-1.49,.38s-1.11-.14-1.58-.43c-.47-.29-.84-.69-1.12-1.21-.27-.52-.41-1.11-.41-1.78s.14-1.26,.41-1.77Zm4.86,.49c-.2-.37-.47-.65-.81-.85-.34-.2-.71-.29-1.12-.29s-.78,.1-1.12,.29c-.34,.19-.6,.47-.8,.84-.2,.37-.3,.8-.3,1.3s.1,.94,.3,1.31c.2,.37,.47,.66,.8,.85,.34,.2,.71,.29,1.12,.29s.78-.1,1.12-.29c.34-.2,.61-.48,.81-.85,.2-.37,.3-.81,.3-1.3s-.1-.93-.3-1.3Zm-3.08-3.62c.21-.22,.48-.32,.8-.32,.15,0,.28,.03,.39,.08s.24,.13,.39,.22c.11,.08,.21,.14,.3,.19s.18,.07,.29,.07c.14,0,.25-.04,.35-.13,.1-.09,.16-.22,.18-.38h.62c-.05,.4-.18,.71-.4,.92-.22,.22-.48,.32-.8,.32-.15,0-.29-.03-.4-.08-.12-.05-.25-.13-.39-.23-.13-.08-.23-.14-.31-.18-.08-.04-.17-.06-.27-.06-.14,0-.25,.04-.34,.13-.09,.09-.15,.22-.17,.4h-.64c.06-.41,.19-.72,.4-.94Z"/><path d="M303.48,127.24c-.5-.28-.89-.68-1.18-1.19-.28-.52-.43-1.11-.43-1.79s.15-1.27,.44-1.78,.69-.91,1.19-1.19c.5-.28,1.07-.41,1.69-.41s1.19,.14,1.69,.41c.5,.28,.9,.67,1.19,1.18s.44,1.11,.44,1.79-.15,1.28-.45,1.79c-.3,.52-.71,.91-1.22,1.19-.51,.28-1.08,.42-1.7,.42s-1.17-.14-1.67-.42Zm2.78-.82c.34-.18,.62-.46,.83-.83s.32-.82,.32-1.34-.1-.98-.31-1.34c-.21-.37-.48-.64-.82-.82-.34-.18-.7-.27-1.09-.27s-.77,.09-1.1,.27c-.33,.18-.6,.45-.8,.82-.2,.37-.3,.82-.3,1.34s.1,.99,.29,1.36c.2,.37,.46,.64,.79,.82s.69,.27,1.08,.27,.76-.09,1.1-.28Z"/><path d="M315.23,121.24c.43-.25,.93-.38,1.49-.38s1.11,.14,1.59,.42,.85,.67,1.12,1.18,.41,1.1,.41,1.77-.14,1.26-.41,1.78c-.27,.52-.65,.92-1.12,1.21s-1.01,.43-1.59,.43-1.05-.13-1.48-.38c-.43-.25-.75-.57-.98-.94v4.33h-1.09v-9.7h1.09v1.21c.22-.38,.54-.69,.97-.94Zm3.2,1.7c-.2-.37-.47-.65-.81-.84-.34-.19-.71-.29-1.12-.29s-.77,.1-1.11,.29c-.34,.2-.61,.48-.82,.85-.2,.37-.31,.8-.31,1.29s.1,.93,.31,1.3c.2,.37,.48,.66,.82,.85,.34,.2,.71,.29,1.11,.29s.78-.1,1.12-.29c.34-.2,.61-.48,.81-.85,.2-.37,.3-.81,.3-1.31s-.1-.93-.3-1.3Z"/><path d="M323.2,121.16c.36-.21,.79-.31,1.3-.31v1.13h-.29c-1.22,0-1.84,.66-1.84,1.99v3.58h-1.09v-6.58h1.09v1.07c.19-.38,.47-.67,.82-.88Z"/><path d="M326.95,127.24c-.5-.28-.89-.68-1.18-1.19-.28-.52-.43-1.11-.43-1.79s.15-1.27,.44-1.78,.69-.91,1.19-1.19c.5-.28,1.07-.41,1.69-.41s1.19,.14,1.69,.41c.5,.28,.9,.67,1.19,1.18s.44,1.11,.44,1.79-.15,1.28-.45,1.79c-.3,.52-.71,.91-1.22,1.19-.51,.28-1.08,.42-1.7,.42s-1.17-.14-1.67-.42Zm2.78-.82c.34-.18,.62-.46,.83-.83s.32-.82,.32-1.34-.1-.98-.31-1.34c-.21-.37-.48-.64-.82-.82-.34-.18-.7-.27-1.09-.27s-.77,.09-1.1,.27c-.33,.18-.6,.45-.8,.82-.2,.37-.3,.82-.3,1.34s.1,.99,.29,1.36c.2,.37,.46,.64,.79,.82s.69,.27,1.08,.27,.76-.09,1.1-.28Z"/><path d="M336.11,121.87h-1.38v5.68h-1.09v-5.68h-.85v-.9h.85v-.47c0-.74,.19-1.27,.57-1.61,.38-.34,.99-.51,1.83-.51v.91c-.48,0-.82,.09-1.01,.28-.2,.19-.29,.5-.29,.93v.47h1.38v.9Z"/><path d="M337.42,119.69c-.14-.14-.22-.32-.22-.53s.07-.38,.22-.53,.32-.22,.53-.22,.37,.07,.51,.22c.14,.14,.21,.32,.21,.53s-.07,.38-.21,.53c-.14,.14-.31,.22-.51,.22s-.38-.07-.53-.22Zm1.06,1.28v6.58h-1.09v-6.58h1.09Z"/><path d="M341.31,127.4c-.4-.17-.72-.41-.95-.72-.23-.31-.36-.66-.38-1.06h1.13c.03,.33,.19,.6,.46,.8,.28,.21,.64,.31,1.09,.31,.42,0,.74-.09,.98-.28,.24-.18,.36-.42,.36-.7s-.13-.5-.38-.64c-.26-.14-.65-.28-1.19-.41-.49-.13-.89-.26-1.19-.39-.31-.13-.57-.33-.79-.59-.22-.26-.33-.6-.33-1.03,0-.34,.1-.64,.3-.92,.2-.28,.48-.5,.85-.67,.37-.16,.79-.25,1.26-.25,.73,0,1.32,.18,1.76,.55,.45,.37,.69,.87,.72,1.51h-1.09c-.02-.34-.16-.62-.41-.83s-.59-.31-1.01-.31c-.39,0-.7,.08-.94,.25-.23,.17-.35,.39-.35,.66,0,.22,.07,.39,.21,.53,.14,.14,.32,.25,.53,.34s.51,.18,.88,.28c.47,.13,.86,.25,1.15,.38s.55,.31,.76,.56,.32,.57,.33,.97c0,.36-.1,.68-.3,.97-.2,.29-.48,.51-.85,.68-.36,.16-.78,.25-1.25,.25-.5,0-.96-.09-1.36-.26Z"/><path d="M347.57,127.4c-.4-.17-.72-.41-.95-.72-.23-.31-.36-.66-.38-1.06h1.13c.03,.33,.19,.6,.46,.8,.28,.21,.64,.31,1.09,.31,.42,0,.74-.09,.98-.28,.24-.18,.36-.42,.36-.7s-.13-.5-.38-.64c-.26-.14-.65-.28-1.19-.41-.49-.13-.89-.26-1.19-.39-.31-.13-.57-.33-.79-.59-.22-.26-.33-.6-.33-1.03,0-.34,.1-.64,.3-.92,.2-.28,.48-.5,.85-.67,.37-.16,.79-.25,1.26-.25,.73,0,1.32,.18,1.76,.55,.45,.37,.69,.87,.72,1.51h-1.09c-.02-.34-.16-.62-.41-.83s-.59-.31-1.01-.31c-.39,0-.7,.08-.94,.25-.23,.17-.35,.39-.35,.66,0,.22,.07,.39,.21,.53,.14,.14,.32,.25,.53,.34s.51,.18,.88,.28c.47,.13,.86,.25,1.15,.38s.55,.31,.76,.56,.32,.57,.33,.97c0,.36-.1,.68-.3,.97-.2,.29-.48,.51-.85,.68-.36,.16-.78,.25-1.25,.25-.5,0-.96-.09-1.36-.26Z"/><path d="M352.9,119.69c-.14-.14-.22-.32-.22-.53s.07-.38,.22-.53,.32-.22,.53-.22,.37,.07,.51,.22c.14,.14,.21,.32,.21,.53s-.07,.38-.21,.53c-.14,.14-.31,.22-.51,.22s-.38-.07-.53-.22Zm1.06,1.28v6.58h-1.09v-6.58h1.09Z"/><path d="M357.01,127.24c-.5-.28-.89-.68-1.18-1.19-.28-.52-.43-1.11-.43-1.79s.15-1.27,.44-1.78,.69-.91,1.19-1.19c.5-.28,1.07-.41,1.69-.41s1.19,.14,1.69,.41c.5,.28,.9,.67,1.19,1.18s.44,1.11,.44,1.79-.15,1.28-.45,1.79c-.3,.52-.71,.91-1.22,1.19-.51,.28-1.08,.42-1.7,.42s-1.17-.14-1.67-.42Zm2.78-.82c.34-.18,.62-.46,.83-.83s.32-.82,.32-1.34-.1-.98-.31-1.34c-.21-.37-.48-.64-.82-.82-.34-.18-.7-.27-1.09-.27s-.77,.09-1.1,.27c-.33,.18-.6,.45-.8,.82-.2,.37-.3,.82-.3,1.34s.1,.99,.29,1.36c.2,.37,.46,.64,.79,.82s.69,.27,1.08,.27,.76-.09,1.1-.28Z"/><path d="M368.64,121.58c.5,.48,.74,1.18,.74,2.09v3.88h-1.08v-3.72c0-.66-.16-1.16-.49-1.51-.33-.35-.78-.52-1.34-.52s-1.03,.18-1.37,.54-.51,.88-.51,1.57v3.64h-1.09v-6.58h1.09v.94c.22-.34,.51-.6,.88-.78s.78-.28,1.23-.28c.8,0,1.45,.24,1.94,.73Z"/><path d="M371.18,122.47c.27-.51,.65-.9,1.12-1.18s1.01-.42,1.59-.42,1.08,.12,1.5,.37c.42,.25,.74,.56,.95,.94v-1.2h1.1v6.58h-1.1v-1.22c-.22,.38-.54,.7-.97,.95-.43,.25-.93,.38-1.49,.38s-1.11-.14-1.58-.43c-.47-.29-.84-.69-1.12-1.21-.27-.52-.41-1.11-.41-1.78s.14-1.26,.41-1.77Zm4.86,.49c-.2-.37-.47-.65-.81-.85-.34-.2-.71-.29-1.12-.29s-.78,.1-1.12,.29c-.34,.19-.6,.47-.8,.84-.2,.37-.3,.8-.3,1.3s.1,.94,.3,1.31c.2,.37,.47,.66,.8,.85,.34,.2,.71,.29,1.12,.29s.78-.1,1.12-.29c.34-.2,.61-.48,.81-.85,.2-.37,.3-.81,.3-1.3s-.1-.93-.3-1.3Z"/><path d="M380.38,118.67v8.88h-1.09v-8.88h1.09Z"/><path d="M386.8,122.69v.92h-4.79v-.92h4.79Z"/><path d="M394.68,120.97v6.58h-1.09v-.97c-.21,.34-.5,.6-.87,.79-.37,.19-.78,.28-1.23,.28-.51,0-.97-.11-1.38-.32-.41-.21-.73-.53-.97-.95-.24-.42-.35-.94-.35-1.55v-3.85h1.08v3.71c0,.65,.16,1.15,.49,1.49s.78,.52,1.34,.52,1.04-.18,1.38-.54c.34-.36,.5-.88,.5-1.57v-3.61h1.09Z"/><path d="M397.5,127.4c-.4-.17-.72-.41-.95-.72-.23-.31-.36-.66-.38-1.06h1.13c.03,.33,.19,.6,.46,.8,.28,.21,.64,.31,1.09,.31,.42,0,.74-.09,.98-.28,.24-.18,.36-.42,.36-.7s-.13-.5-.38-.64c-.26-.14-.65-.28-1.19-.41-.49-.13-.89-.26-1.19-.39-.31-.13-.57-.33-.79-.59-.22-.26-.33-.6-.33-1.03,0-.34,.1-.64,.3-.92,.2-.28,.48-.5,.85-.67,.37-.16,.79-.25,1.26-.25,.73,0,1.32,.18,1.76,.55,.45,.37,.69,.87,.72,1.51h-1.09c-.02-.34-.16-.62-.41-.83s-.59-.31-1.01-.31c-.39,0-.7,.08-.94,.25-.23,.17-.35,.39-.35,.66,0,.22,.07,.39,.21,.53,.14,.14,.32,.25,.53,.34s.51,.18,.88,.28c.47,.13,.86,.25,1.15,.38s.55,.31,.76,.56,.32,.57,.33,.97c0,.36-.1,.68-.3,.97-.2,.29-.48,.51-.85,.68-.36,.16-.78,.25-1.25,.25-.5,0-.96-.09-1.36-.26Z"/><path d="M408.63,120.97v6.58h-1.09v-.97c-.21,.34-.5,.6-.87,.79-.37,.19-.78,.28-1.23,.28-.51,0-.97-.11-1.38-.32-.41-.21-.73-.53-.97-.95-.24-.42-.35-.94-.35-1.55v-3.85h1.08v3.71c0,.65,.16,1.15,.49,1.49s.78,.52,1.34,.52,1.04-.18,1.38-.54c.34-.36,.5-.88,.5-1.57v-3.61h1.09Z"/><path d="M410.48,122.47c.27-.51,.65-.9,1.12-1.18s1.01-.42,1.59-.42,1.08,.12,1.5,.37c.42,.25,.74,.56,.95,.94v-1.2h1.1v6.58h-1.1v-1.22c-.22,.38-.54,.7-.97,.95-.43,.25-.93,.38-1.49,.38s-1.11-.14-1.58-.43c-.47-.29-.84-.69-1.12-1.21-.27-.52-.41-1.11-.41-1.78s.14-1.26,.41-1.77Zm4.86,.49c-.2-.37-.47-.65-.81-.85-.34-.2-.71-.29-1.12-.29s-.78,.1-1.12,.29c-.34,.19-.6,.47-.8,.84-.2,.37-.3,.8-.3,1.3s.1,.94,.3,1.31c.2,.37,.47,.66,.8,.85,.34,.2,.71,.29,1.12,.29s.78-.1,1.12-.29c.34-.2,.61-.48,.81-.85,.2-.37,.3-.81,.3-1.3s-.1-.93-.3-1.3Zm-.55-3.84l-2.56,1.37v-.82l2.56-1.5v.95Z"/><path d="M420.5,121.16c.36-.21,.79-.31,1.3-.31v1.13h-.29c-1.22,0-1.84,.66-1.84,1.99v3.58h-1.09v-6.58h1.09v1.07c.19-.38,.47-.67,.82-.88Z"/><path d="M423.1,119.69c-.14-.14-.22-.32-.22-.53s.07-.38,.22-.53,.32-.22,.53-.22,.37,.07,.51,.22c.14,.14,.21,.32,.21,.53s-.07,.38-.21,.53c-.14,.14-.31,.22-.51,.22s-.38-.07-.53-.22Zm1.06,1.28v6.58h-1.09v-6.58h1.09Z"/><path d="M427.21,127.24c-.5-.28-.89-.68-1.18-1.19-.28-.52-.43-1.11-.43-1.79s.15-1.27,.44-1.78,.69-.91,1.19-1.19c.5-.28,1.07-.41,1.69-.41s1.19,.14,1.69,.41c.5,.28,.9,.67,1.19,1.18s.44,1.11,.44,1.79-.15,1.28-.45,1.79c-.3,.52-.71,.91-1.22,1.19-.51,.28-1.08,.42-1.7,.42s-1.17-.14-1.67-.42Zm2.78-.82c.34-.18,.62-.46,.83-.83s.32-.82,.32-1.34-.1-.98-.31-1.34c-.21-.37-.48-.64-.82-.82-.34-.18-.7-.27-1.09-.27s-.77,.09-1.1,.27c-.33,.18-.6,.45-.8,.82-.2,.37-.3,.82-.3,1.34s.1,.99,.29,1.36c.2,.37,.46,.64,.79,.82s.69,.27,1.08,.27,.76-.09,1.1-.28Z"/><path d="M434.82,126.04l-1.34,3.23h-.73l.88-3.23h1.2Z"/><path d="M439.28,122.47c.27-.51,.65-.9,1.13-1.18,.48-.28,1.04-.42,1.66-.42,.81,0,1.47,.2,2,.59,.52,.39,.87,.94,1.04,1.63h-1.18c-.11-.4-.33-.72-.65-.95-.32-.23-.73-.35-1.21-.35-.62,0-1.13,.21-1.51,.64-.38,.43-.58,1.03-.58,1.82s.19,1.4,.58,1.84c.38,.43,.89,.65,1.51,.65,.48,0,.88-.11,1.2-.34,.32-.22,.54-.54,.66-.96h1.18c-.18,.67-.53,1.21-1.06,1.61-.53,.4-1.19,.61-1.98,.61-.62,0-1.18-.14-1.66-.42-.48-.28-.86-.68-1.13-1.19s-.41-1.11-.41-1.8,.14-1.27,.41-1.78Z"/><path d="M446.56,122.47c.27-.51,.65-.9,1.12-1.18s1.01-.42,1.59-.42,1.08,.12,1.5,.37c.42,.25,.74,.56,.95,.94v-1.2h1.1v6.58h-1.1v-1.22c-.22,.38-.54,.7-.97,.95-.43,.25-.93,.38-1.49,.38s-1.11-.14-1.58-.43c-.47-.29-.84-.69-1.12-1.21-.27-.52-.41-1.11-.41-1.78s.14-1.26,.41-1.77Zm4.86,.49c-.2-.37-.47-.65-.81-.85-.34-.2-.71-.29-1.12-.29s-.78,.1-1.12,.29c-.34,.19-.6,.47-.8,.84-.2,.37-.3,.8-.3,1.3s.1,.94,.3,1.31c.2,.37,.47,.66,.8,.85,.34,.2,.71,.29,1.12,.29s.78-.1,1.12-.29c.34-.2,.61-.48,.81-.85,.2-.37,.3-.81,.3-1.3s-.1-.93-.3-1.3Z"/><path d="M456.59,121.16c.36-.21,.79-.31,1.3-.31v1.13h-.29c-1.22,0-1.84,.66-1.84,1.99v3.58h-1.09v-6.58h1.09v1.07c.19-.38,.47-.67,.82-.88Z"/><path d="M459.15,122.47c.27-.51,.65-.9,1.12-1.18s1.01-.42,1.59-.42,1.08,.12,1.5,.37c.42,.25,.74,.56,.95,.94v-1.2h1.1v6.58h-1.1v-1.22c-.22,.38-.54,.7-.97,.95-.43,.25-.93,.38-1.49,.38s-1.11-.14-1.58-.43c-.47-.29-.84-.69-1.12-1.21-.27-.52-.41-1.11-.41-1.78s.14-1.26,.41-1.77Zm4.86,.49c-.2-.37-.47-.65-.81-.85-.34-.2-.71-.29-1.12-.29s-.78,.1-1.12,.29c-.34,.19-.6,.47-.8,.84-.2,.37-.3,.8-.3,1.3s.1,.94,.3,1.31c.2,.37,.47,.66,.8,.85,.34,.2,.71,.29,1.12,.29s.78-.1,1.12-.29c.34-.2,.61-.48,.81-.85,.2-.37,.3-.81,.3-1.3s-.1-.93-.3-1.3Z"/><path d="M467.26,122.47c.27-.51,.65-.9,1.13-1.18,.48-.28,1.04-.42,1.66-.42,.81,0,1.47,.2,2,.59,.52,.39,.87,.94,1.04,1.63h-1.18c-.11-.4-.33-.72-.65-.95-.32-.23-.73-.35-1.21-.35-.62,0-1.13,.21-1.51,.64-.38,.43-.58,1.03-.58,1.82s.19,1.4,.58,1.84c.38,.43,.89,.65,1.51,.65,.48,0,.88-.11,1.2-.34,.32-.22,.54-.54,.66-.96h1.18c-.18,.67-.53,1.21-1.06,1.61-.53,.4-1.19,.61-1.98,.61-.62,0-1.18-.14-1.66-.42-.48-.28-.86-.68-1.13-1.19s-.41-1.11-.41-1.8,.14-1.27,.41-1.78Z"/><path d="M475.88,121.87v3.88c0,.32,.07,.55,.2,.68,.14,.13,.37,.2,.71,.2h.8v.92h-.98c-.61,0-1.06-.14-1.37-.42-.3-.28-.46-.74-.46-1.38v-3.88h-.85v-.9h.85v-1.66h1.09v1.66h1.72v.9h-1.72Z"/><path d="M484.88,124.67h-5.26c.04,.65,.26,1.15,.67,1.52,.4,.36,.89,.55,1.47,.55,.47,0,.87-.11,1.18-.33,.32-.22,.54-.51,.67-.88h1.18c-.18,.63-.53,1.15-1.06,1.54-.53,.4-1.18,.59-1.97,.59-.62,0-1.18-.14-1.67-.42-.49-.28-.88-.68-1.16-1.19-.28-.52-.42-1.11-.42-1.79s.14-1.28,.41-1.79,.65-.91,1.15-1.18c.49-.28,1.06-.41,1.7-.41s1.18,.14,1.66,.41c.48,.27,.85,.65,1.11,1.12,.26,.48,.39,1.01,.39,1.61,0,.21-.01,.43-.04,.66Zm-1.37-1.96c-.18-.3-.43-.53-.75-.68-.32-.16-.67-.23-1.05-.23-.55,0-1.02,.18-1.41,.53-.39,.35-.61,.84-.67,1.46h4.15c0-.42-.09-.77-.28-1.07Z"/><path d="M488.27,121.16c.36-.21,.79-.31,1.3-.31v1.13h-.29c-1.22,0-1.84,.66-1.84,1.99v3.58h-1.09v-6.58h1.09v1.07c.19-.38,.47-.67,.82-.88Z"/><path d="M490.86,119.69c-.14-.14-.22-.32-.22-.53s.07-.38,.22-.53,.32-.22,.53-.22,.37,.07,.51,.22c.14,.14,.21,.32,.21,.53s-.07,.38-.21,.53c-.14,.14-.31,.22-.51,.22s-.38-.07-.53-.22Zm1.06,1.28v6.58h-1.09v-6.58h1.09Z"/><path d="M494.6,126.65h3.23v.9h-4.48v-.9l3.19-4.79h-3.17v-.89h4.43v.89l-3.2,4.79Z"/><path d="M499.24,122.47c.27-.51,.65-.9,1.12-1.18s1.01-.42,1.59-.42,1.08,.12,1.5,.37c.42,.25,.74,.56,.95,.94v-1.2h1.1v6.58h-1.1v-1.22c-.22,.38-.54,.7-.97,.95-.43,.25-.93,.38-1.49,.38s-1.11-.14-1.58-.43c-.47-.29-.84-.69-1.12-1.21-.27-.52-.41-1.11-.41-1.78s.14-1.26,.41-1.77Zm4.86,.49c-.2-.37-.47-.65-.81-.85-.34-.2-.71-.29-1.12-.29s-.78,.1-1.12,.29c-.34,.19-.6,.47-.8,.84-.2,.37-.3,.8-.3,1.3s.1,.94,.3,1.31c.2,.37,.47,.66,.8,.85,.34,.2,.71,.29,1.12,.29s.78-.1,1.12-.29c.34-.2,.61-.48,.81-.85,.2-.37,.3-.81,.3-1.3s-.1-.93-.3-1.3Z"/><path d="M507.35,122.47c.27-.51,.65-.9,1.12-1.18s1.01-.42,1.6-.42c.51,0,.99,.12,1.43,.35,.44,.24,.78,.55,1.01,.93v-3.48h1.1v8.88h-1.1v-1.24c-.22,.39-.54,.71-.96,.97-.42,.25-.92,.38-1.49,.38s-1.11-.14-1.59-.43-.85-.69-1.12-1.21c-.27-.52-.41-1.11-.41-1.78s.14-1.26,.41-1.77Zm4.86,.49c-.2-.37-.47-.65-.81-.85-.34-.2-.71-.29-1.12-.29s-.78,.1-1.12,.29c-.34,.19-.6,.47-.8,.84-.2,.37-.3,.8-.3,1.3s.1,.94,.3,1.31c.2,.37,.47,.66,.8,.85,.34,.2,.71,.29,1.12,.29s.78-.1,1.12-.29c.34-.2,.61-.48,.81-.85,.2-.37,.3-.81,.3-1.3s-.1-.93-.3-1.3Z"/><path d="M515.46,122.47c.27-.51,.65-.9,1.12-1.18s1.01-.42,1.59-.42,1.08,.12,1.5,.37c.42,.25,.74,.56,.95,.94v-1.2h1.1v6.58h-1.1v-1.22c-.22,.38-.54,.7-.97,.95-.43,.25-.93,.38-1.49,.38s-1.11-.14-1.58-.43c-.47-.29-.84-.69-1.12-1.21-.27-.52-.41-1.11-.41-1.78s.14-1.26,.41-1.77Zm4.86,.49c-.2-.37-.47-.65-.81-.85-.34-.2-.71-.29-1.12-.29s-.78,.1-1.12,.29c-.34,.19-.6,.47-.8,.84-.2,.37-.3,.8-.3,1.3s.1,.94,.3,1.31c.2,.37,.47,.66,.8,.85,.34,.2,.71,.29,1.12,.29s.78-.1,1.12-.29c.34-.2,.61-.48,.81-.85,.2-.37,.3-.81,.3-1.3s-.1-.93-.3-1.3Z"/><path d="M528.84,121.24c.43-.25,.93-.38,1.49-.38s1.11,.14,1.59,.42,.85,.67,1.12,1.18,.41,1.1,.41,1.77-.14,1.26-.41,1.78c-.27,.52-.65,.92-1.12,1.21s-1.01,.43-1.59,.43-1.05-.13-1.48-.38c-.43-.25-.75-.57-.98-.94v4.33h-1.09v-9.7h1.09v1.21c.22-.38,.54-.69,.97-.94Zm3.2,1.7c-.2-.37-.47-.65-.81-.84-.34-.19-.71-.29-1.12-.29s-.77,.1-1.11,.29c-.34,.2-.61,.48-.82,.85-.2,.37-.31,.8-.31,1.29s.1,.93,.31,1.3c.2,.37,.48,.66,.82,.85,.34,.2,.71,.29,1.11,.29s.78-.1,1.12-.29c.34-.2,.61-.48,.81-.85,.2-.37,.3-.81,.3-1.31s-.1-.93-.3-1.3Z"/><path d="M540.85,124.67h-5.26c.04,.65,.26,1.15,.67,1.52,.4,.36,.89,.55,1.47,.55,.47,0,.87-.11,1.18-.33,.32-.22,.54-.51,.67-.88h1.18c-.18,.63-.53,1.15-1.06,1.54-.53,.4-1.18,.59-1.97,.59-.62,0-1.18-.14-1.67-.42-.49-.28-.88-.68-1.16-1.19-.28-.52-.42-1.11-.42-1.79s.14-1.28,.41-1.79,.65-.91,1.15-1.18c.49-.28,1.06-.41,1.7-.41s1.18,.14,1.66,.41c.48,.27,.85,.65,1.11,1.12,.26,.48,.39,1.01,.39,1.61,0,.21-.01,.43-.04,.66Zm-1.37-1.96c-.18-.3-.43-.53-.75-.68-.32-.16-.67-.23-1.05-.23-.55,0-1.02,.18-1.41,.53-.39,.35-.61,.84-.67,1.46h4.15c0-.42-.09-.77-.28-1.07Z"/><path d="M543.42,118.67v8.88h-1.09v-8.88h1.09Z"/><path d="M545.28,122.47c.27-.51,.65-.9,1.12-1.18s1.01-.42,1.59-.42,1.08,.12,1.5,.37c.42,.25,.74,.56,.95,.94v-1.2h1.1v6.58h-1.1v-1.22c-.22,.38-.54,.7-.97,.95-.43,.25-.93,.38-1.49,.38s-1.11-.14-1.58-.43c-.47-.29-.84-.69-1.12-1.21-.27-.52-.41-1.11-.41-1.78s.14-1.26,.41-1.77Zm4.86,.49c-.2-.37-.47-.65-.81-.85-.34-.2-.71-.29-1.12-.29s-.78,.1-1.12,.29c-.34,.19-.6,.47-.8,.84-.2,.37-.3,.8-.3,1.3s.1,.94,.3,1.31c.2,.37,.47,.66,.8,.85,.34,.2,.71,.29,1.12,.29s.78-.1,1.12-.29c.34-.2,.61-.48,.81-.85,.2-.37,.3-.81,.3-1.3s-.1-.93-.3-1.3Z"/><path d="M252.62,136.87c.27-.51,.65-.9,1.13-1.18,.48-.28,1.04-.42,1.66-.42,.81,0,1.47,.2,2,.59,.52,.39,.87,.94,1.04,1.63h-1.18c-.11-.4-.33-.72-.65-.95-.32-.23-.73-.35-1.21-.35-.62,0-1.13,.21-1.51,.64-.38,.43-.58,1.03-.58,1.82s.19,1.4,.58,1.84c.38,.43,.89,.65,1.51,.65,.48,0,.88-.11,1.2-.34,.32-.22,.54-.54,.66-.96h1.18c-.18,.67-.53,1.21-1.06,1.61-.53,.4-1.19,.61-1.98,.61-.62,0-1.18-.14-1.66-.42-.48-.28-.86-.68-1.13-1.19s-.41-1.11-.41-1.8,.14-1.27,.41-1.78Z"/><path d="M259.9,136.87c.27-.51,.65-.9,1.12-1.18s1.01-.42,1.59-.42,1.08,.12,1.5,.37c.42,.25,.74,.56,.95,.94v-1.2h1.1v6.58h-1.1v-1.22c-.22,.38-.54,.7-.97,.95-.43,.25-.93,.38-1.49,.38s-1.11-.14-1.58-.43c-.47-.29-.84-.69-1.12-1.21-.27-.52-.41-1.11-.41-1.78s.14-1.26,.41-1.77Zm4.86,.49c-.2-.37-.47-.65-.81-.85-.34-.2-.71-.29-1.12-.29s-.78,.1-1.12,.29c-.34,.19-.6,.47-.8,.84-.2,.37-.3,.8-.3,1.3s.1,.94,.3,1.31c.2,.37,.47,.66,.8,.85,.34,.2,.71,.29,1.12,.29s.78-.1,1.12-.29c.34-.2,.61-.48,.81-.85,.2-.37,.3-.81,.3-1.3s-.1-.93-.3-1.3Z"/><path d="M270.07,135.64c.43-.25,.93-.38,1.49-.38s1.11,.14,1.59,.42,.85,.67,1.12,1.18,.41,1.1,.41,1.77-.14,1.26-.41,1.78c-.27,.52-.65,.92-1.12,1.21s-1.01,.43-1.59,.43-1.05-.13-1.48-.38c-.43-.25-.75-.57-.98-.94v4.33h-1.09v-9.7h1.09v1.21c.22-.38,.54-.69,.97-.94Zm3.2,1.7c-.2-.37-.47-.65-.81-.84-.34-.19-.71-.29-1.12-.29s-.77,.1-1.11,.29c-.34,.2-.61,.48-.82,.85-.2,.37-.31,.8-.31,1.29s.1,.93,.31,1.3c.2,.37,.48,.66,.82,.85,.34,.2,.71,.29,1.11,.29s.78-.1,1.12-.29c.34-.2,.61-.48,.81-.85,.2-.37,.3-.81,.3-1.31s-.1-.93-.3-1.3Z"/><path d="M276.13,136.87c.27-.51,.65-.9,1.12-1.18s1.01-.42,1.59-.42,1.08,.12,1.5,.37c.42,.25,.74,.56,.95,.94v-1.2h1.1v6.58h-1.1v-1.22c-.22,.38-.54,.7-.97,.95-.43,.25-.93,.38-1.49,.38s-1.11-.14-1.58-.43c-.47-.29-.84-.69-1.12-1.21-.27-.52-.41-1.11-.41-1.78s.14-1.26,.41-1.77Zm4.86,.49c-.2-.37-.47-.65-.81-.85-.34-.2-.71-.29-1.12-.29s-.78,.1-1.12,.29c-.34,.19-.6,.47-.8,.84-.2,.37-.3,.8-.3,1.3s.1,.94,.3,1.31c.2,.37,.47,.66,.8,.85,.34,.2,.71,.29,1.12,.29s.78-.1,1.12-.29c.34-.2,.61-.48,.81-.85,.2-.37,.3-.81,.3-1.3s-.1-.93-.3-1.3Z"/><path d="M284.24,136.87c.27-.51,.65-.9,1.13-1.18,.48-.28,1.04-.42,1.66-.42,.81,0,1.47,.2,2,.59,.52,.39,.87,.94,1.04,1.63h-1.18c-.11-.4-.33-.72-.65-.95-.32-.23-.73-.35-1.21-.35-.62,0-1.13,.21-1.51,.64-.38,.43-.58,1.03-.58,1.82s.19,1.4,.58,1.84c.38,.43,.89,.65,1.51,.65,.48,0,.88-.11,1.2-.34,.32-.22,.54-.54,.66-.96h1.18c-.18,.67-.53,1.21-1.06,1.61-.53,.4-1.19,.61-1.98,.61-.62,0-1.18-.14-1.66-.42-.48-.28-.86-.68-1.13-1.19s-.41-1.11-.41-1.8,.14-1.27,.41-1.78Z"/><path d="M291.56,134.09c-.14-.14-.22-.32-.22-.53s.07-.38,.22-.53,.32-.22,.53-.22,.37,.07,.51,.22c.14,.14,.21,.32,.21,.53s-.07,.38-.21,.53c-.14,.14-.31,.22-.51,.22s-.38-.07-.53-.22Zm1.06,1.28v6.58h-1.09v-6.58h1.09Z"/><path d="M294.47,136.87c.27-.51,.65-.9,1.12-1.18s1.01-.42,1.6-.42c.51,0,.99,.12,1.43,.35,.44,.24,.78,.55,1.01,.93v-3.48h1.1v8.88h-1.1v-1.24c-.22,.39-.54,.71-.96,.97-.42,.25-.92,.38-1.49,.38s-1.11-.14-1.59-.43-.85-.69-1.12-1.21c-.27-.52-.41-1.11-.41-1.78s.14-1.26,.41-1.77Zm4.86,.49c-.2-.37-.47-.65-.81-.85-.34-.2-.71-.29-1.12-.29s-.78,.1-1.12,.29c-.34,.19-.6,.47-.8,.84-.2,.37-.3,.8-.3,1.3s.1,.94,.3,1.31c.2,.37,.47,.66,.8,.85,.34,.2,.71,.29,1.12,.29s.78-.1,1.12-.29c.34-.2,.61-.48,.81-.85,.2-.37,.3-.81,.3-1.3s-.1-.93-.3-1.3Z"/><path d="M302.59,136.87c.27-.51,.65-.9,1.12-1.18s1.01-.42,1.59-.42,1.08,.12,1.5,.37c.42,.25,.74,.56,.95,.94v-1.2h1.1v6.58h-1.1v-1.22c-.22,.38-.54,.7-.97,.95-.43,.25-.93,.38-1.49,.38s-1.11-.14-1.58-.43c-.47-.29-.84-.69-1.12-1.21-.27-.52-.41-1.11-.41-1.78s.14-1.26,.41-1.77Zm4.86,.49c-.2-.37-.47-.65-.81-.85-.34-.2-.71-.29-1.12-.29s-.78,.1-1.12,.29c-.34,.19-.6,.47-.8,.84-.2,.37-.3,.8-.3,1.3s.1,.94,.3,1.31c.2,.37,.47,.66,.8,.85,.34,.2,.71,.29,1.12,.29s.78-.1,1.12-.29c.34-.2,.61-.48,.81-.85,.2-.37,.3-.81,.3-1.3s-.1-.93-.3-1.3Z"/><path d="M310.7,136.87c.27-.51,.65-.9,1.12-1.18s1.01-.42,1.6-.42c.51,0,.99,.12,1.43,.35,.44,.24,.78,.55,1.01,.93v-3.48h1.1v8.88h-1.1v-1.24c-.22,.39-.54,.71-.96,.97-.42,.25-.92,.38-1.49,.38s-1.11-.14-1.59-.43-.85-.69-1.12-1.21c-.27-.52-.41-1.11-.41-1.78s.14-1.26,.41-1.77Zm4.86,.49c-.2-.37-.47-.65-.81-.85-.34-.2-.71-.29-1.12-.29s-.78,.1-1.12,.29c-.34,.19-.6,.47-.8,.84-.2,.37-.3,.8-.3,1.3s.1,.94,.3,1.31c.2,.37,.47,.66,.8,.85,.34,.2,.71,.29,1.12,.29s.78-.1,1.12-.29c.34-.2,.61-.48,.81-.85,.2-.37,.3-.81,.3-1.3s-.1-.93-.3-1.3Z"/><path d="M324.77,139.07h-5.26c.04,.65,.26,1.15,.67,1.52,.4,.36,.89,.55,1.47,.55,.47,0,.87-.11,1.18-.33,.32-.22,.54-.51,.67-.88h1.18c-.18,.63-.53,1.15-1.06,1.54-.53,.4-1.18,.59-1.97,.59-.62,0-1.18-.14-1.67-.42-.49-.28-.88-.68-1.16-1.19-.28-.52-.42-1.11-.42-1.79s.14-1.28,.41-1.79,.65-.91,1.15-1.18c.49-.28,1.06-.41,1.7-.41s1.18,.14,1.66,.41c.48,.27,.85,.65,1.11,1.12,.26,.48,.39,1.01,.39,1.61,0,.21-.01,.43-.04,.66Zm-1.37-1.96c-.18-.3-.43-.53-.75-.68-.32-.16-.67-.23-1.05-.23-.55,0-1.02,.18-1.41,.53-.39,.35-.61,.84-.67,1.46h4.15c0-.42-.09-.77-.28-1.07Z"/><path d="M329.45,136.87c.27-.51,.65-.9,1.12-1.18s1.01-.42,1.6-.42c.51,0,.99,.12,1.43,.35,.44,.24,.78,.55,1.01,.93v-3.48h1.1v8.88h-1.1v-1.24c-.22,.39-.54,.71-.96,.97-.42,.25-.92,.38-1.49,.38s-1.11-.14-1.59-.43-.85-.69-1.12-1.21c-.27-.52-.41-1.11-.41-1.78s.14-1.26,.41-1.77Zm4.86,.49c-.2-.37-.47-.65-.81-.85-.34-.2-.71-.29-1.12-.29s-.78,.1-1.12,.29c-.34,.19-.6,.47-.8,.84-.2,.37-.3,.8-.3,1.3s.1,.94,.3,1.31c.2,.37,.47,.66,.8,.85,.34,.2,.71,.29,1.12,.29s.78-.1,1.12-.29c.34-.2,.61-.48,.81-.85,.2-.37,.3-.81,.3-1.3s-.1-.93-.3-1.3Z"/><path d="M343.53,139.07h-5.26c.04,.65,.26,1.15,.67,1.52,.4,.36,.89,.55,1.47,.55,.47,0,.87-.11,1.18-.33,.32-.22,.54-.51,.67-.88h1.18c-.18,.63-.53,1.15-1.06,1.54-.53,.4-1.18,.59-1.97,.59-.62,0-1.18-.14-1.67-.42-.49-.28-.88-.68-1.16-1.19-.28-.52-.42-1.11-.42-1.79s.14-1.28,.41-1.79,.65-.91,1.15-1.18c.49-.28,1.06-.41,1.7-.41s1.18,.14,1.66,.41c.48,.27,.85,.65,1.11,1.12,.26,.48,.39,1.01,.39,1.61,0,.21-.01,.43-.04,.66Zm-1.37-1.96c-.18-.3-.43-.53-.75-.68-.32-.16-.67-.23-1.05-.23-.55,0-1.02,.18-1.41,.53-.39,.35-.61,.84-.67,1.46h4.15c0-.42-.09-.77-.28-1.07Z"/><path d="M354.17,139.07h-5.26c.04,.65,.26,1.15,.67,1.52,.4,.36,.89,.55,1.47,.55,.47,0,.87-.11,1.18-.33,.32-.22,.54-.51,.67-.88h1.18c-.18,.63-.53,1.15-1.06,1.54-.53,.4-1.18,.59-1.97,.59-.62,0-1.18-.14-1.67-.42-.49-.28-.88-.68-1.16-1.19-.28-.52-.42-1.11-.42-1.79s.14-1.28,.41-1.79,.65-.91,1.15-1.18c.49-.28,1.06-.41,1.7-.41s1.18,.14,1.66,.41c.48,.27,.85,.65,1.11,1.12,.26,.48,.39,1.01,.39,1.61,0,.21-.01,.43-.04,.66Zm-1.37-1.96c-.18-.3-.43-.53-.75-.68-.32-.16-.67-.23-1.05-.23-.55,0-1.02,.18-1.41,.53-.39,.35-.61,.84-.67,1.46h4.15c0-.42-.09-.77-.28-1.07Z"/><path d="M356.62,141.8c-.4-.17-.72-.41-.95-.72-.23-.31-.36-.66-.38-1.06h1.13c.03,.33,.19,.6,.46,.8,.28,.21,.64,.31,1.09,.31,.42,0,.74-.09,.98-.28,.24-.18,.36-.42,.36-.7s-.13-.5-.38-.64c-.26-.14-.65-.28-1.19-.41-.49-.13-.89-.26-1.19-.39-.31-.13-.57-.33-.79-.59-.22-.26-.33-.6-.33-1.03,0-.34,.1-.64,.3-.92,.2-.28,.48-.5,.85-.67,.37-.16,.79-.25,1.26-.25,.73,0,1.32,.18,1.76,.55,.45,.37,.69,.87,.72,1.51h-1.09c-.02-.34-.16-.62-.41-.83s-.59-.31-1.01-.31c-.39,0-.7,.08-.94,.25-.23,.17-.35,.39-.35,.66,0,.22,.07,.39,.21,.53,.14,.14,.32,.25,.53,.34s.51,.18,.88,.28c.47,.13,.86,.25,1.15,.38s.55,.31,.76,.56,.32,.57,.33,.97c0,.36-.1,.68-.3,.97-.2,.29-.48,.51-.85,.68-.36,.16-.78,.25-1.25,.25-.5,0-.96-.09-1.36-.26Z"/><path d="M361.91,136.87c.27-.51,.65-.9,1.13-1.18,.48-.28,1.04-.42,1.66-.42,.81,0,1.47,.2,2,.59,.52,.39,.87,.94,1.04,1.63h-1.18c-.11-.4-.33-.72-.65-.95-.32-.23-.73-.35-1.21-.35-.62,0-1.13,.21-1.51,.64-.38,.43-.58,1.03-.58,1.82s.19,1.4,.58,1.84c.38,.43,.89,.65,1.51,.65,.48,0,.88-.11,1.2-.34,.32-.22,.54-.54,.66-.96h1.18c-.18,.67-.53,1.21-1.06,1.61-.53,.4-1.19,.61-1.98,.61-.62,0-1.18-.14-1.66-.42-.48-.28-.86-.68-1.13-1.19s-.41-1.11-.41-1.8,.14-1.27,.41-1.78Z"/><path d="M375.03,135.37v6.58h-1.09v-.97c-.21,.34-.5,.6-.87,.79-.37,.19-.78,.28-1.23,.28-.51,0-.97-.11-1.38-.32-.41-.21-.73-.53-.97-.95-.24-.42-.35-.94-.35-1.55v-3.85h1.08v3.71c0,.65,.16,1.15,.49,1.49s.78,.52,1.34,.52,1.04-.18,1.38-.54c.34-.36,.5-.88,.5-1.57v-3.61h1.09Z"/><path d="M378.21,136.27v3.88c0,.32,.07,.55,.2,.68,.14,.13,.37,.2,.71,.2h.8v.92h-.98c-.61,0-1.06-.14-1.37-.42-.3-.28-.46-.74-.46-1.38v-3.88h-.85v-.9h.85v-1.66h1.09v1.66h1.72v.9h-1.72Z"/><path d="M381.25,136.87c.27-.51,.65-.9,1.12-1.18s1.01-.42,1.59-.42,1.08,.12,1.5,.37c.42,.25,.74,.56,.95,.94v-1.2h1.1v6.58h-1.1v-1.22c-.22,.38-.54,.7-.97,.95-.43,.25-.93,.38-1.49,.38s-1.11-.14-1.58-.43c-.47-.29-.84-.69-1.12-1.21-.27-.52-.41-1.11-.41-1.78s.14-1.26,.41-1.77Zm4.86,.49c-.2-.37-.47-.65-.81-.85-.34-.2-.71-.29-1.12-.29s-.78,.1-1.12,.29c-.34,.19-.6,.47-.8,.84-.2,.37-.3,.8-.3,1.3s.1,.94,.3,1.31c.2,.37,.47,.66,.8,.85,.34,.2,.71,.29,1.12,.29s.78-.1,1.12-.29c.34-.2,.61-.48,.81-.85,.2-.37,.3-.81,.3-1.3s-.1-.93-.3-1.3Z"/><path d="M390.49,140.44l-1.34,3.23h-.73l.88-3.23h1.2Z"/><path d="M394.94,136.87c.27-.51,.65-.9,1.13-1.18,.48-.28,1.04-.42,1.66-.42,.81,0,1.47,.2,2,.59,.52,.39,.87,.94,1.04,1.63h-1.18c-.11-.4-.33-.72-.65-.95-.32-.23-.73-.35-1.21-.35-.62,0-1.13,.21-1.51,.64-.38,.43-.58,1.03-.58,1.82s.19,1.4,.58,1.84c.38,.43,.89,.65,1.51,.65,.48,0,.88-.11,1.2-.34,.32-.22,.54-.54,.66-.96h1.18c-.18,.67-.53,1.21-1.06,1.61-.53,.4-1.19,.61-1.98,.61-.62,0-1.18-.14-1.66-.42-.48-.28-.86-.68-1.13-1.19s-.41-1.11-.41-1.8,.14-1.27,.41-1.78Z"/><path d="M403.42,141.64c-.5-.28-.89-.68-1.18-1.19-.28-.52-.43-1.11-.43-1.79s.15-1.27,.44-1.78,.69-.91,1.19-1.19c.5-.28,1.07-.41,1.69-.41s1.19,.14,1.69,.41c.5,.28,.9,.67,1.19,1.18s.44,1.11,.44,1.79-.15,1.28-.45,1.79c-.3,.52-.71,.91-1.22,1.19-.51,.28-1.08,.42-1.7,.42s-1.17-.14-1.67-.42Zm2.78-.82c.34-.18,.62-.46,.83-.83s.32-.82,.32-1.34-.1-.98-.31-1.34c-.21-.37-.48-.64-.82-.82-.34-.18-.7-.27-1.09-.27s-.77,.09-1.1,.27c-.33,.18-.6,.45-.8,.82-.2,.37-.3,.82-.3,1.34s.1,.99,.29,1.36c.2,.37,.46,.64,.79,.82s.69,.27,1.08,.27,.76-.09,1.1-.28Z"/><path d="M415.05,135.98c.5,.48,.74,1.18,.74,2.09v3.88h-1.08v-3.72c0-.66-.16-1.16-.49-1.51-.33-.35-.78-.52-1.34-.52s-1.03,.18-1.37,.54-.51,.88-.51,1.57v3.64h-1.09v-6.58h1.09v.94c.22-.34,.51-.6,.88-.78s.78-.28,1.23-.28c.8,0,1.45,.24,1.94,.73Z"/><path d="M420.26,136.27h-1.38v5.68h-1.09v-5.68h-.85v-.9h.85v-.47c0-.74,.19-1.27,.57-1.61,.38-.34,.99-.51,1.83-.51v.91c-.48,0-.82,.09-1.01,.28-.2,.19-.29,.5-.29,.93v.47h1.38v.9Z"/><path d="M421.57,134.09c-.14-.14-.22-.32-.22-.53s.07-.38,.22-.53,.32-.22,.53-.22,.37,.07,.51,.22c.14,.14,.21,.32,.21,.53s-.07,.38-.21,.53c-.14,.14-.31,.22-.51,.22s-.38-.07-.53-.22Zm1.06,1.28v6.58h-1.09v-6.58h1.09Z"/><path d="M424.48,136.87c.27-.51,.65-.9,1.12-1.18s1.01-.42,1.59-.42,1.08,.12,1.5,.37c.42,.25,.74,.56,.95,.94v-1.2h1.1v6.58h-1.1v-1.22c-.22,.38-.54,.7-.97,.95-.43,.25-.93,.38-1.49,.38s-1.11-.14-1.58-.43c-.47-.29-.84-.69-1.12-1.21-.27-.52-.41-1.11-.41-1.78s.14-1.26,.41-1.77Zm4.86,.49c-.2-.37-.47-.65-.81-.85-.34-.2-.71-.29-1.12-.29s-.78,.1-1.12,.29c-.34,.19-.6,.47-.8,.84-.2,.37-.3,.8-.3,1.3s.1,.94,.3,1.31c.2,.37,.47,.66,.8,.85,.34,.2,.71,.29,1.12,.29s.78-.1,1.12-.29c.34-.2,.61-.48,.81-.85,.2-.37,.3-.81,.3-1.3s-.1-.93-.3-1.3Z"/><path d="M437.74,135.98c.5,.48,.74,1.18,.74,2.09v3.88h-1.08v-3.72c0-.66-.16-1.16-.49-1.51-.33-.35-.78-.52-1.34-.52s-1.03,.18-1.37,.54-.51,.88-.51,1.57v3.64h-1.09v-6.58h1.09v.94c.22-.34,.51-.6,.88-.78s.78-.28,1.23-.28c.8,0,1.45,.24,1.94,.73Z"/><path d="M444.27,140.8c.32-.22,.54-.54,.66-.96h1.18c-.16,.62-.47,1.13-.94,1.53-.47,.4-1.05,.62-1.76,.68v.6c.47,0,.85,.09,1.13,.3,.28,.21,.42,.5,.42,.89s-.14,.68-.41,.9c-.27,.22-.62,.34-1.06,.34h-1.38v-.71h1.16c.26,0,.46-.04,.58-.12s.19-.22,.19-.41-.06-.32-.19-.4-.32-.12-.58-.12h-.6v-1.28c-.55-.06-1.04-.23-1.46-.52-.42-.29-.75-.68-.99-1.18-.24-.49-.35-1.05-.35-1.69,0-.68,.14-1.27,.41-1.78s.65-.9,1.13-1.18c.48-.28,1.04-.42,1.66-.42,.81,0,1.47,.2,2,.59,.52,.39,.87,.94,1.04,1.63h-1.18c-.11-.4-.33-.72-.65-.95-.32-.23-.73-.35-1.21-.35-.62,0-1.13,.21-1.51,.64-.38,.43-.58,1.03-.58,1.82s.19,1.4,.58,1.84c.38,.43,.89,.65,1.51,.65,.48,0,.88-.11,1.2-.34Z"/><path d="M447.56,136.87c.27-.51,.65-.9,1.12-1.18s1.01-.42,1.59-.42,1.08,.12,1.5,.37c.42,.25,.74,.56,.95,.94v-1.2h1.1v6.58h-1.1v-1.22c-.22,.38-.54,.7-.97,.95-.43,.25-.93,.38-1.49,.38s-1.11-.14-1.58-.43c-.47-.29-.84-.69-1.12-1.21-.27-.52-.41-1.11-.41-1.78s.14-1.26,.41-1.77Zm4.86,.49c-.2-.37-.47-.65-.81-.85-.34-.2-.71-.29-1.12-.29s-.78,.1-1.12,.29c-.34,.19-.6,.47-.8,.84-.2,.37-.3,.8-.3,1.3s.1,.94,.3,1.31c.2,.37,.47,.66,.8,.85,.34,.2,.71,.29,1.12,.29s.78-.1,1.12-.29c.34-.2,.61-.48,.81-.85,.2-.37,.3-.81,.3-1.3s-.1-.93-.3-1.3Z"/><path d="M468.15,135.57c.4,.21,.72,.53,.95,.95s.35,.94,.35,1.55v3.88h-1.08v-3.72c0-.66-.16-1.16-.49-1.51-.32-.35-.76-.52-1.31-.52s-1.02,.18-1.36,.55c-.34,.36-.5,.89-.5,1.58v3.62h-1.08v-3.72c0-.66-.16-1.16-.49-1.51-.32-.35-.76-.52-1.31-.52s-1.02,.18-1.36,.55-.5,.89-.5,1.58v3.62h-1.09v-6.58h1.09v.95c.22-.34,.51-.61,.87-.79,.36-.18,.77-.28,1.21-.28,.55,0,1.04,.12,1.46,.37,.42,.25,.74,.61,.95,1.09,.18-.46,.49-.82,.91-1.08,.42-.26,.9-.38,1.42-.38s.97,.11,1.37,.32Z"/><path d="M477.07,135.37v6.58h-1.09v-.97c-.21,.34-.5,.6-.87,.79-.37,.19-.78,.28-1.23,.28-.51,0-.97-.11-1.38-.32-.41-.21-.73-.53-.97-.95-.24-.42-.35-.94-.35-1.55v-3.85h1.08v3.71c0,.65,.16,1.15,.49,1.49s.78,.52,1.34,.52,1.04-.18,1.38-.54c.34-.36,.5-.88,.5-1.57v-3.61h1.09Zm-1.74-1.86l-2.56,1.37v-.82l2.56-1.5v.95Z"/><path d="M480.25,136.27v3.88c0,.32,.07,.55,.2,.68,.14,.13,.37,.2,.71,.2h.8v.92h-.98c-.61,0-1.06-.14-1.37-.42-.3-.28-.46-.74-.46-1.38v-3.88h-.85v-.9h.85v-1.66h1.09v1.66h1.72v.9h-1.72Z"/><path d="M489.11,135.37v6.58h-1.09v-.97c-.21,.34-.5,.6-.87,.79-.37,.19-.78,.28-1.23,.28-.51,0-.97-.11-1.38-.32-.41-.21-.73-.53-.97-.95-.24-.42-.35-.94-.35-1.55v-3.85h1.08v3.71c0,.65,.16,1.15,.49,1.49s.78,.52,1.34,.52,1.04-.18,1.38-.54c.34-.36,.5-.88,.5-1.57v-3.61h1.09Z"/><path d="M490.96,136.87c.27-.51,.65-.9,1.12-1.18s1.01-.42,1.59-.42,1.08,.12,1.5,.37c.42,.25,.74,.56,.95,.94v-1.2h1.1v6.58h-1.1v-1.22c-.22,.38-.54,.7-.97,.95-.43,.25-.93,.38-1.49,.38s-1.11-.14-1.58-.43c-.47-.29-.84-.69-1.12-1.21-.27-.52-.41-1.11-.41-1.78s.14-1.26,.41-1.77Zm4.86,.49c-.2-.37-.47-.65-.81-.85-.34-.2-.71-.29-1.12-.29s-.78,.1-1.12,.29c-.34,.19-.6,.47-.8,.84-.2,.37-.3,.8-.3,1.3s.1,.94,.3,1.31c.2,.37,.47,.66,.8,.85,.34,.2,.71,.29,1.12,.29s.78-.1,1.12-.29c.34-.2,.61-.48,.81-.85,.2-.37,.3-.81,.3-1.3s-.1-.93-.3-1.3Z"/><path d="M508.24,139.07h-5.26c.04,.65,.26,1.15,.67,1.52,.4,.36,.89,.55,1.47,.55,.47,0,.87-.11,1.18-.33,.32-.22,.54-.51,.67-.88h1.18c-.18,.63-.53,1.15-1.06,1.54-.53,.4-1.18,.59-1.97,.59-.62,0-1.18-.14-1.67-.42-.49-.28-.88-.68-1.16-1.19-.28-.52-.42-1.11-.42-1.79s.14-1.28,.41-1.79,.65-.91,1.15-1.18c.49-.28,1.06-.41,1.7-.41s1.18,.14,1.66,.41c.48,.27,.85,.65,1.11,1.12,.26,.48,.39,1.01,.39,1.61,0,.21-.01,.43-.04,.66Zm-1.37-1.96c-.18-.3-.43-.53-.75-.68-.32-.16-.67-.23-1.05-.23-.55,0-1.02,.18-1.41,.53-.39,.35-.61,.84-.67,1.46h4.15c0-.42-.09-.77-.28-1.07Z"/><path d="M512.92,136.87c.27-.51,.65-.9,1.12-1.18s1.01-.42,1.59-.42,1.08,.12,1.5,.37c.42,.25,.74,.56,.95,.94v-1.2h1.1v6.58h-1.1v-1.22c-.22,.38-.54,.7-.97,.95-.43,.25-.93,.38-1.49,.38s-1.11-.14-1.58-.43c-.47-.29-.84-.69-1.12-1.21-.27-.52-.41-1.11-.41-1.78s.14-1.26,.41-1.77Zm4.86,.49c-.2-.37-.47-.65-.81-.85-.34-.2-.71-.29-1.12-.29s-.78,.1-1.12,.29c-.34,.19-.6,.47-.8,.84-.2,.37-.3,.8-.3,1.3s.1,.94,.3,1.31c.2,.37,.47,.66,.8,.85,.34,.2,.71,.29,1.12,.29s.78-.1,1.12-.29c.34-.2,.61-.48,.81-.85,.2-.37,.3-.81,.3-1.3s-.1-.93-.3-1.3Z"/><path d="M523.71,136.27h-1.38v5.68h-1.09v-5.68h-.85v-.9h.85v-.47c0-.74,.19-1.27,.57-1.61,.38-.34,.99-.51,1.83-.51v.91c-.48,0-.82,.09-1.01,.28-.2,.19-.29,.5-.29,.93v.47h1.38v.9Z"/><path d="M530.95,139.07h-5.26c.04,.65,.26,1.15,.67,1.52,.4,.36,.89,.55,1.47,.55,.47,0,.87-.11,1.18-.33,.32-.22,.54-.51,.67-.88h1.18c-.18,.63-.53,1.15-1.06,1.54-.53,.4-1.18,.59-1.97,.59-.62,0-1.18-.14-1.67-.42-.49-.28-.88-.68-1.16-1.19-.28-.52-.42-1.11-.42-1.79s.14-1.28,.41-1.79,.65-.91,1.15-1.18c.49-.28,1.06-.41,1.7-.41s1.18,.14,1.66,.41c.48,.27,.85,.65,1.11,1.12,.26,.48,.39,1.01,.39,1.61,0,.21-.01,.43-.04,.66Zm-1.37-1.96c-.18-.3-.43-.53-.75-.68-.32-.16-.67-.23-1.05-.23-.55,0-1.02,.18-1.41,.53-.39,.35-.61,.84-.67,1.46h4.15c0-.42-.09-.77-.28-1.07Z"/><path d="M533.75,136.27v3.88c0,.32,.07,.55,.2,.68,.14,.13,.37,.2,.71,.2h.8v.92h-.98c-.61,0-1.06-.14-1.37-.42-.3-.28-.46-.74-.46-1.38v-3.88h-.85v-.9h.85v-1.66h1.09v1.66h1.72v.9h-1.72Z"/><path d="M537.98,141.64c-.5-.28-.89-.68-1.18-1.19-.28-.52-.43-1.11-.43-1.79s.15-1.27,.44-1.78,.69-.91,1.19-1.19c.5-.28,1.07-.41,1.69-.41s1.19,.14,1.69,.41c.5,.28,.9,.67,1.19,1.18s.44,1.11,.44,1.79-.15,1.28-.45,1.79c-.3,.52-.71,.91-1.22,1.19-.51,.28-1.08,.42-1.7,.42s-1.17-.14-1.67-.42Zm2.78-.82c.34-.18,.62-.46,.83-.83s.32-.82,.32-1.34-.1-.98-.31-1.34c-.21-.37-.48-.64-.82-.82-.34-.18-.7-.27-1.09-.27s-.77,.09-1.1,.27c-.33,.18-.6,.45-.8,.82-.2,.37-.3,.82-.3,1.34s.1,.99,.29,1.36c.2,.37,.46,.64,.79,.82s.69,.27,1.08,.27,.76-.09,1.1-.28Z"/><path d="M544.29,141.8c-.14-.14-.22-.32-.22-.53s.07-.38,.22-.53c.14-.14,.32-.22,.53-.22s.37,.07,.51,.22c.14,.14,.21,.32,.21,.53s-.07,.38-.21,.53c-.14,.14-.31,.22-.51,.22s-.38-.07-.53-.22Z"/></g></g></svg>